<svg xmlns="http://www.w3.org/2000/svg" width="20" height="20" viewBox="0 0 20 20"><path d="M7 13.5H5.5L5 14v1.5l.5.5H7l.5-.5V14z"/><path d="M14.018 4.983a21.5 21.5 0 0 0-3.017-2.514c1.317-.628 2.571-.982 3.618-.982.886 0 1.626.242 2.14.755.255.256.438.572.562.93.292-.106.603-.173.931-.173q.304.002.589.067c-.179-.731-.511-1.373-1.022-1.884-1.745-1.746-4.963-1.495-8.32.352C6.141-.314 2.924-.563 1.18 1.181c-1.743 1.744-1.489 4.958.356 8.314-1.85 3.36-2.101 6.58-.356 8.326C1.98 18.62 3.089 19 4.379 19c1.526 0 3.307-.55 5.127-1.552C11.322 18.451 13.098 19 14.621 19c1.29 0 2.399-.381 3.199-1.18 2.533-2.534.862-8.173-3.802-12.837M2.241 2.242c.514-.513 1.254-.755 2.14-.755 1.047 0 2.301.355 3.618.982a21.3 21.3 0 0 0-3.017 2.514 21.4 21.4 0 0 0-2.519 3.025c-1.164-2.436-1.344-4.645-.222-5.766m0 14.517c-1.121-1.122-.94-3.331.223-5.767a21 21 0 0 0 1.623 2.076c.313-.401.73-.712 1.217-.89a19 19 0 0 1-2.019-2.677 19.5 19.5 0 0 1 2.758-3.458A19.5 19.5 0 0 1 9.5 3.284a19.5 19.5 0 0 1 3.457 2.759 19.5 19.5 0 0 1 2.752 3.449 19.3 19.3 0 0 1-2.752 3.465c-3.935 3.934-8.84 5.675-10.716 3.802m14.518 0c-1.124 1.122-3.336.942-5.774-.226a21.3 21.3 0 0 0 3.033-2.515 21.4 21.4 0 0 0 2.521-3.019c1.16 2.433 1.34 4.639.22 5.76"/><path d="M19 4.5h-1.5L17 5v1.5l.5.5H19l.5-.5V5zM9.5 12.5c-1.654 0-3-1.346-3-3s1.346-3 3-3 3 1.346 3 3-1.346 3-3 3m0-4.5C8.673 8 8 8.673 8 9.5S8.673 11 9.5 11s1.5-.673 1.5-1.5S10.327 8 9.5 8"/></svg>