<svg preserveAspectRatio="none" width="100%" height="100%" overflow="visible" style="display: block;" viewBox="0 0 110 72" fill="none" xmlns="http://www.w3.org/2000/svg">
<g id="firefox-mascot-prop-paintbucket-rgb 2" clip-path="url(#clip0_0_3105)">
<path id="Vector" d="M89.3448 60.9185L88.8191 59.2188L78.4208 62.0738C78.4208 62.0738 72.5906 77.8783 74.608 77.8783H81.8559C90.1738 77.8783 92.2431 77.8783 93.9977 77.8783C100.224 77.8856 99.4469 73.8048 96.1856 73.4161C94.579 73.2236 89.8408 73.1458 88.4526 73.1162C86.9793 73.0827 86.0391 72.7052 86.6795 71.5498L89.3409 60.9185H89.3448Z" fill="url(#paint0_linear_0_3105)"/>
<path id="Vector_2" d="M89.3448 60.9185L88.8191 59.2188L78.4208 62.0738C78.4208 62.0738 72.5906 77.8783 74.608 77.8783H81.8559C90.1738 77.8783 92.2431 77.8783 93.9977 77.8783C100.224 77.8856 99.4469 73.8048 96.1856 73.4161C94.579 73.2236 89.8408 73.1458 88.4526 73.1162C86.9793 73.0827 86.0391 72.7052 86.6795 71.5498L89.3409 60.9185H89.3448Z" fill="url(#paint1_radial_0_3105)"/>
<path id="Vector_3" d="M88.2156 2.74399C85.48 2.20704 81.793 17.8374 81.793 17.8374L95.6005 21.1183C95.6005 21.1183 95.0156 17.5966 93.6868 12.9605C92.4467 8.63916 90.5476 3.19945 88.2117 2.74028L88.2156 2.74399Z" fill="url(#paint2_linear_0_3105)"/>
<path id="Vector_4" d="M88.2156 2.74399C85.48 2.20704 81.793 17.8374 81.793 17.8374L95.6005 21.1183C95.6005 21.1183 95.0156 17.5966 93.6868 12.9605C92.4467 8.63916 90.5476 3.19945 88.2117 2.74028L88.2156 2.74399Z" fill="url(#paint3_linear_0_3105)"/>
<path id="Vector_5" d="M101.284 41.8501C102.105 38.084 104.893 39.6615 106.07 38.2952C106.94 37.2841 105.085 36.6214 105.248 36.0475C105.504 35.1477 107.088 36.6214 107.658 35.8807C108.439 34.8662 107.021 33.3517 106.651 33.0406C105.952 32.4519 108.121 33.3035 108.273 32.4037C108.624 30.33 104.874 26.9381 103.808 24.5423C103.264 23.3127 103.223 19.6097 103.046 17.2732C102.901 15.429 102.964 14.4145 101.669 10.1523C100.862 7.49358 99.1625 4.32752 97.7412 3.96464C96.4196 3.62766 95.5718 5.3903 94.091 8.77482C93.0843 11.0781 92.9547 12.4297 92.107 13.5554C92.0588 13.6183 86.8874 12.7852 83.1153 14.2848C75.5528 17.2917 77.3925 22.6352 69.789 22.2834C67.5902 22.1833 66.8461 21.565 66.1168 22.9054C65.4024 24.22 66.4464 27.4565 69.1709 29.745C70.9922 31.2742 71.5919 31.1595 74.3755 33.1849C77.9219 35.7624 72.7653 46.1234 68.7341 47.3971C65.6245 48.3783 63.6071 48.4933 60.3607 48.4933C59.4796 48.4933 60.1348 55.7621 60.057 63.3126C59.9756 71.4703 59.2278 79.9502 59.9831 79.9465C63.8625 79.9206 67.6383 79.8687 73.0947 79.8687C79.7837 79.8687 79.5284 79.8687 84.9737 79.8687C90.2969 79.8687 91.733 79.691 91.8739 78.3096C92.1662 75.488 89.2158 75.2324 89.3343 75.077C91.2519 72.5219 97.619 66.1083 99.84 53.9772C101.432 45.2864 100.58 45.0715 101.28 41.8573L101.284 41.8501Z" fill="url(#paint4_linear_0_3105)"/>
<path id="Vector_6" d="M91.8759 78.3016C92.1682 75.48 89.2181 75.2244 89.3364 75.0688C90.8283 73.0803 95.0076 68.759 97.8394 61.2344C87.826 61.5603 79.808 69.7698 79.7969 79.8605H84.9758C90.2989 79.8605 91.7351 79.6827 91.8759 78.3016Z" fill="url(#paint5_radial_0_3105)"/>
<path id="Vector_7" opacity="0.6" d="M69.789 22.276C67.5902 22.1761 66.8461 21.5575 66.1168 22.8982C65.4024 24.2126 66.4464 27.4491 69.1709 29.7375C70.9922 31.2668 71.5919 31.1521 74.3755 33.1777C77.9219 35.7549 72.7653 46.1159 68.7341 47.3896C65.6245 48.3709 63.6071 48.4858 60.3607 48.4858C59.4796 48.4858 60.1348 55.7549 60.057 63.3052C59.9756 71.4628 59.2278 79.9428 59.9831 79.9391C63.8625 79.9132 67.6382 79.8613 73.0947 79.8613H84.9737C90.2969 79.8613 91.733 79.6836 91.8739 78.3022C92.1662 75.4806 89.2158 75.225 89.3343 75.0696C91.2519 72.5144 97.619 66.1008 99.84 53.9698C101.432 45.2789 100.58 45.0641 101.28 41.8499C102.102 38.0841 104.889 39.6616 106.066 38.2951C106.936 37.2842 105.082 36.6213 105.245 36.0473C105.5 35.1475 107.084 36.6213 107.654 35.8808C108.435 34.8663 107.018 33.3516 106.648 33.0405C106.426 32.8518 106.496 32.8111 106.699 32.8147C102.468 29.7375 99.8364 27.1935 93.5248 27.1935C89.0937 27.1935 87.8388 27.3824 82.8674 27.8157C78.5623 28.1896 74.9196 27.3046 74.0201 25.4458C73.413 24.1905 72.2989 23.1166 70.8737 22.2871C70.5331 22.2983 70.1778 22.2983 69.789 22.2796V22.276Z" fill="url(#paint6_linear_0_3105)"/>
<path id="Vector_8" opacity="0.6" d="M95.5389 54.2637C95.5389 54.2637 92.4814 59.2814 86.6066 67.4834C84.6743 70.1792 82.4421 75.4818 82.0756 77.0297C81.2908 80.3661 83.9672 76.0892 85.0073 76.7853C85.3738 77.0297 87.8283 75.6818 91.9889 67.7278C95.8167 60.4108 95.5389 54.2637 95.5389 54.2637Z" fill="url(#paint7_linear_0_3105)"/>
<path id="Vector_9" d="M101.682 22.8555C101.764 22.911 102.386 21.052 103.133 18.708C103.104 18.1969 103.078 17.7083 103.041 17.2712C102.896 15.4272 102.959 14.4127 101.664 10.1504C100.857 7.49165 99.1574 4.32559 97.7361 3.96268C96.4146 3.62572 95.5669 5.38834 94.0861 8.77289C93.0793 11.0761 92.9496 12.4277 92.102 13.5534C92.0797 13.5831 90.9062 13.4127 89.2812 13.3831C89.918 13.5312 93.4162 14.4495 96.0517 17.1712C98.7059 19.9153 101.464 22.7073 101.682 22.8516V22.8555Z" fill="url(#paint8_linear_0_3105)"/>
<path id="Vector_10" opacity="0.97" d="M75.9154 63.3506C74.0757 56.0263 68.7858 50.5493 62.4337 48.4609C61.7894 48.4832 61.1083 48.4905 60.3606 48.4905C59.4797 48.4905 60.1349 55.7595 60.0571 63.3098C59.9756 71.4678 59.2279 79.9474 59.9829 79.9438C63.8624 79.9179 67.6383 79.866 73.0948 79.866H73.3982C76.3263 75.2447 77.411 69.2976 75.9154 63.3506Z" fill="url(#paint9_linear_0_3105)"/>
<path id="Vector_11" d="M80.8045 73.0638L86.2386 62.8323L81.4635 67.6092L82.9441 60.8809L78.4131 66.7501L77.6764 63.0767L74.7447 68.598L73.2715 65.5428C73.2715 65.5428 68.8256 76.9038 68.707 79.8809C70.0583 79.8736 71.5057 79.8697 73.1011 79.8697H84.9801C90.3033 79.8697 91.7394 79.692 91.8802 78.3109C92.1466 75.7373 89.722 75.3003 89.3815 75.1263C87.3381 74.9708 83.7548 74.9005 82.5776 74.8707C81.1043 74.8338 80.1641 74.4005 80.8045 73.0711V73.0638Z" fill="url(#paint10_linear_0_3105)"/>
<path id="Vector_12" opacity="0.97" d="M76.2665 55.7923C77.0882 55.47 80.083 49.475 80.368 45.3646C80.7011 40.5249 79.1612 36.5404 74.7894 33.5742C77.462 36.6662 72.5868 46.1793 68.7333 47.3938C66.4124 48.1271 64.7021 48.3751 62.6328 48.4566C63.0919 50.1044 63.4436 51.2673 63.5435 51.3413C63.9025 51.6189 75.4446 56.1182 76.2702 55.7923H76.2665Z" fill="url(#paint11_linear_0_3105)"/>
<path id="Vector_13" d="M78.5325 27.6825C78.5325 27.6825 77.6737 27.6234 76.5039 26.3717C74.8641 24.6201 74.742 23.2759 71.7732 22.2243C71.1883 22.291 70.5367 22.3133 69.789 22.2798C67.5902 22.1799 66.8461 21.5616 66.1167 22.902C65.4024 24.2166 66.4464 27.4529 69.1709 29.7413C70.296 30.6858 70.9551 31.0041 71.9508 31.5856C75.6638 30.856 78.5363 27.6825 78.5363 27.6825H78.5325Z" fill="var(--fill-0, #FFC635)"/>
<path id="Vector_14" d="M68.7303 23.0209C68.7007 22.721 68.4898 22.3505 68.0419 22.0988C67.1017 21.9841 66.6018 21.9989 66.1132 22.8987C65.9651 23.169 65.8984 23.5281 65.8984 23.9391C66.0984 24.0909 66.3575 24.2095 66.6833 24.2687C67.9049 24.4946 68.7897 23.6169 68.7303 23.0209Z" fill="var(--fill-0, #00073A)"/>
<path id="Vector_15" d="M87.8088 19.0735C89.0748 19.0069 90.1224 19.9697 88.997 22.1655C88.1122 23.8875 87.0314 24.4096 85.9208 24.1133C85.3395 23.9579 84.703 22.9579 85.373 21.6396C86.2873 19.8439 87.0055 19.1179 87.8088 19.0772V19.0735Z" fill="url(#paint12_linear_0_3105)"/>
<path id="Vector_16" d="M86.2167 23.0385C86.4024 22.747 86.3557 22.3852 86.1125 22.2302C85.8696 22.0752 85.522 22.186 85.3363 22.4776C85.1507 22.7691 85.1973 23.1309 85.4403 23.2859C85.6835 23.4409 86.0311 23.33 86.2167 23.0385Z" fill="var(--fill-0, white)"/>
<path id="Vector_17" d="M79.5506 17.7442C80.4354 18.2774 80.3762 19.0366 79.3359 20.7029C78.6216 21.8471 77.4925 22.2656 76.7004 21.6732C76.2857 21.3621 75.9378 20.6512 77.0669 19.2107C77.9848 18.0405 78.8177 17.3037 79.5506 17.7442Z" fill="url(#paint13_linear_0_3105)"/>
<path id="Vector_18" d="M77.492 20.8269C77.5227 20.5031 77.3168 20.2186 77.032 20.1916C76.747 20.1643 76.491 20.4046 76.4601 20.7284C76.4292 21.052 76.6353 21.3365 76.9201 21.3638C77.2051 21.3909 77.4611 21.1505 77.492 20.8269Z" fill="var(--fill-0, white)"/>
<path id="Vector_19" d="M44.3661 58.8145C44.3661 58.8145 28.3116 56.2743 23.6436 38.7035C22.4959 34.3858 23.9212 30.0089 23.9212 30.0089C23.9212 30.0089 23.2919 30.0756 22.0332 31.1309C21.1116 31.9012 20.6562 32.9157 20.6562 32.9157C20.6562 32.9157 17.9465 24.9803 22.7996 17.0891C24.0433 15.0674 26.8936 11.4828 31.8614 10.5867C38.2988 9.42396 46.9907 19.6295 46.9907 19.6295C46.9907 19.6295 53.9315 11.1569 48.3122 2.19569C47.0498 0.184959 45.3802 -1.71468 45.3802 -1.71468L46.8833 -1.90722C46.8833 -1.90722 44.8918 -4.07717 41.5526 -5.66947C31.0916 -10.6574 15.1035 -9.902 3.18017 0.877429C2.49164 1.49954 0.751812 3.54359 0.751812 3.54359C0.751812 3.54359 0.918383 2.6882 0.85175 1.77726C0.759205 0.496023 0.0188487 -1.22957 0.0188487 -1.22957C0.0188487 -1.22957 -0.876976 2.51786 -4.17154 8.34637C-11.4344 21.1995 -13.8295 36.2004 -6.89603 51.9343C1.67355 71.3788 19.5567 79.4179 40.3053 79.4179C53.317 79.4179 49.6967 79.1291 49.6967 79.1291L49.5447 45.9393L44.3624 58.8035L44.3661 58.8145Z" fill="url(#paint14_linear_0_3105)"/>
<path id="Vector_20" opacity="0.97" d="M40.3123 79.429C53.324 79.429 49.7037 79.1402 49.7037 79.1402L49.5556 46.5759C49.4853 46.5391 49.415 46.5056 49.3408 46.4688L44.3694 58.8107C44.3694 58.8107 36.8473 57.6183 30.6026 51.2345C27.7078 54.3265 25.072 58.1701 22.5104 61.9212C18.5643 67.698 16.8654 71.9527 16.6875 75.1409C23.7839 78.0738 31.8056 79.4254 40.3086 79.4254L40.3123 79.429Z" fill="url(#paint15_linear_0_3105)"/>
<path id="Vector_21" opacity="0.4" d="M-2.35015 51.2768C-2.35015 51.2768 -5.35969 48.0958 -7.21058 41.4417C-9.06144 34.7873 -8.49139 32.1767 -8.49139 32.1767L-5.5855 36.1871C-5.5855 36.1871 -6.69972 32.1248 -6.35176 26.9924C-5.72245 17.6869 -0.924965 15.5391 -0.924965 15.5391C-0.924965 15.5391 3.48755 18.3718 4.96456 33.2988C5.9011 42.7709 3.48385 55.2056 1.85506 54.7909C0.629775 54.4798 0.999953 55.587 -2.34644 51.2732L-2.35015 51.2768Z" fill="url(#paint16_radial_0_3105)"/>
<path id="Vector_22" opacity="0.7" d="M18.8443 -4.93804C18.8443 -4.93804 20.9359 -5.83787 23.9638 -5.81195C26.992 -5.78603 30.5345 -4.59737 30.5345 -4.59737L26.5848 -3.46794C26.5848 -3.46794 29.4239 -3.08653 33.322 -1.97194C34.8287 -1.54238 37.0349 -0.479635 37.0349 -0.479635C37.0349 -0.479635 32.0781 -1.03138 28.5135 -0.605526C24.9486 -0.183385 21.9612 0.186917 19.8327 1.20153C17.7043 2.21615 15.9014 4.4898 13.5471 2.46796C11.1927 0.446119 13.6656 -3.46054 18.8443 -4.93433V-4.93804Z" fill="url(#paint17_linear_0_3105)"/>
<path id="Vector_23" d="M35.9492 81.9377H68.2101V42.8711H35.9492V81.9377Z" fill="url(#paint18_linear_0_3105)"/>
<path id="Vector_24" d="M68.0749 42.293H35.6399C35.3988 42.293 35.2031 42.4887 35.2031 42.7299V42.7335C35.2031 42.975 35.3988 43.1705 35.6399 43.1705H68.0749C68.316 43.1705 68.5116 42.975 68.5116 42.7335V42.7299C68.5116 42.4887 68.316 42.293 68.0749 42.293Z" fill="url(#paint19_linear_0_3105)"/>
<path id="Vector_25" d="M39.379 42.1992C39.1791 42.1992 39.0162 42.3622 39.0237 42.5658C39.0421 43.1286 39.4716 43.4026 39.4716 44.7801C39.4716 49.9125 39.6714 54.1079 39.6641 59.4847C39.6641 60.4439 40.1009 61.7103 41.3669 61.8139C42.5032 61.9065 42.7773 60.1217 42.8328 59.3404C42.8328 59.3404 43.0365 50.8901 43.0365 50.8717C43.0733 50.3273 43.3918 49.5681 44.0099 49.4312C44.7429 49.2682 45.2463 50.2679 45.2536 51.2604C45.2686 52.8713 45.287 53.0083 45.287 53.0083C45.2168 54.0155 45.561 54.8043 46.4234 54.7708C47.286 54.7376 47.6155 53.8933 47.6894 52.8861C47.6894 52.8861 47.7376 52.9082 47.7301 51.5343C47.7228 50.5977 48.4519 49.3533 49.4848 49.694C50.3583 49.983 50.9878 50.8569 50.9951 51.7232C51.0099 53.9525 50.8545 56.5743 50.8545 56.5743C50.7806 57.6371 51.4023 59.0182 52.3166 58.9811C53.2311 58.9442 53.753 57.9222 53.8269 56.8595C53.8269 56.8595 53.9714 46.3763 54.0158 44.7949C54.064 43.1286 54.4712 43.3398 54.4785 42.5622C54.4785 42.3658 54.3192 42.2065 54.1231 42.2065H39.3827L39.379 42.1992Z" fill="url(#paint20_linear_0_3105)"/>
<path id="Vector_26" d="M49.8507 9.54607C48.2589 12.8528 49.1844 9.81638 46.0934 10.5681C44.8904 10.8606 44.5904 12.1752 43.2356 12.4677C40.1483 13.1343 41.0813 10.42 38.875 10.1274C36.9907 9.87933 35.3694 10.9088 35.2656 10.8569C36.9982 11.6716 37.6718 12.0271 38.875 13.4898C39.7598 15.208 40.1003 15.956 40.078 17.2928C40.0262 20.3625 39.619 22.0178 41.3292 22.0697C42.9838 22.1177 42.636 19.1812 42.636 19.1739C42.636 18.5481 43.1246 19.059 43.3837 19.6331C44.187 21.4216 44.0872 23.0287 44.0872 24.6025C44.0872 26.4429 43.0951 30.9199 45.3493 30.9012C47.1447 30.8864 47.1965 29.1831 46.745 25.0875C46.6042 23.8099 47.326 23.3175 49.2583 18.9035C51.5055 13.7823 51.6534 5.79493 49.8507 9.54236V9.54607Z" fill="url(#paint21_linear_0_3105)"/>
</g>
<defs>
<linearGradient id="paint0_linear_0_3105" x1="94.6604" y1="71.1869" x2="107.828" y2="73.8661" gradientUnits="userSpaceOnUse">
<stop offset="0.01" stop-color="#BE0449"/>
<stop offset="0.27" stop-color="#CC1747"/>
<stop offset="0.73" stop-color="#E23444"/>
<stop offset="1" stop-color="#EB4043"/>
</linearGradient>
<radialGradient id="paint1_radial_0_3105" cx="0" cy="0" r="1" gradientUnits="userSpaceOnUse" gradientTransform="translate(89.9554 74.379) rotate(180) scale(6.95192 6.95423)">
<stop offset="0.45" stop-color="#A5004C"/>
<stop offset="0.53" stop-color="#AF0750" stop-opacity="0.89"/>
<stop offset="0.7" stop-color="#C91C5C" stop-opacity="0.6"/>
<stop offset="0.94" stop-color="#F33D6E" stop-opacity="0.13"/>
<stop offset="1" stop-color="#FF4774" stop-opacity="0"/>
</radialGradient>
<linearGradient id="paint2_linear_0_3105" x1="87.0856" y1="2.08329" x2="98.4917" y2="125.418" gradientUnits="userSpaceOnUse">
<stop stop-color="#FF6600"/>
<stop offset="0.26" stop-color="#FFB029"/>
<stop offset="0.34" stop-color="#FFA623"/>
<stop offset="0.47" stop-color="#FF8D15"/>
<stop offset="0.63" stop-color="#FF6600"/>
<stop offset="1" stop-color="#FB2872"/>
</linearGradient>
<linearGradient id="paint3_linear_0_3105" x1="82.6552" y1="-2.14245" x2="94.3328" y2="38.2729" gradientUnits="userSpaceOnUse">
<stop offset="0.09" stop-color="#D81F60" stop-opacity="0"/>
<stop offset="0.12" stop-color="#D81F60" stop-opacity="0.05"/>
<stop offset="0.24" stop-color="#D81F60" stop-opacity="0.22"/>
<stop offset="0.37" stop-color="#D81F60" stop-opacity="0.36"/>
<stop offset="0.5" stop-color="#D81F60" stop-opacity="0.47"/>
<stop offset="0.64" stop-color="#D81F60" stop-opacity="0.54"/>
<stop offset="0.79" stop-color="#D81F60" stop-opacity="0.59"/>
<stop offset="1" stop-color="#D81F60" stop-opacity="0.6"/>
</linearGradient>
<linearGradient id="paint4_linear_0_3105" x1="83.9741" y1="3.91649" x2="83.9741" y2="79.939" gradientUnits="userSpaceOnUse">
<stop stop-color="#FF6600"/>
<stop offset="0.33" stop-color="#FFB029"/>
<stop offset="0.46" stop-color="#FF9218"/>
<stop offset="0.63" stop-color="#FF6600"/>
<stop offset="1" stop-color="#FB2872"/>
</linearGradient>
<radialGradient id="paint5_radial_0_3105" cx="0" cy="0" r="1" gradientUnits="userSpaceOnUse" gradientTransform="translate(97.5432 77.8906) scale(15.9805 15.9858)">
<stop offset="0.16" stop-color="#A5004C"/>
<stop offset="0.26" stop-color="#A8034D" stop-opacity="0.96"/>
<stop offset="0.41" stop-color="#B30B52" stop-opacity="0.84"/>
<stop offset="0.58" stop-color="#C5195A" stop-opacity="0.64"/>
<stop offset="0.77" stop-color="#DD2C65" stop-opacity="0.37"/>
<stop offset="0.98" stop-color="#FC4572" stop-opacity="0.03"/>
<stop offset="1" stop-color="#FF4774" stop-opacity="0"/>
</radialGradient>
<linearGradient id="paint6_linear_0_3105" x1="77.7515" y1="22.9314" x2="86.5785" y2="72.832" gradientUnits="userSpaceOnUse">
<stop stop-color="#FFEB49"/>
<stop offset="0.36" stop-color="#FFB52B" stop-opacity="0.6"/>
<stop offset="0.67" stop-color="#FF8A14" stop-opacity="0.28"/>
<stop offset="0.89" stop-color="#FF7005" stop-opacity="0.08"/>
<stop offset="1" stop-color="#FF6600" stop-opacity="0"/>
</linearGradient>
<linearGradient id="paint7_linear_0_3105" x1="87.2625" y1="60.8384" x2="92.2065" y2="78.7388" gradientUnits="userSpaceOnUse">
<stop stop-color="#FFC635"/>
<stop offset="0.09" stop-color="#FFC534" stop-opacity="0.96"/>
<stop offset="0.24" stop-color="#FFC233" stop-opacity="0.84"/>
<stop offset="0.44" stop-color="#FFBE30" stop-opacity="0.66"/>
<stop offset="0.67" stop-color="#FFB82D" stop-opacity="0.4"/>
<stop offset="0.94" stop-color="#FFB129" stop-opacity="0.07"/>
<stop offset="1" stop-color="#FFB029" stop-opacity="0"/>
</linearGradient>
<linearGradient id="paint8_linear_0_3105" x1="96.1188" y1="16.9259" x2="104.36" y2="2.08248" gradientUnits="userSpaceOnUse">
<stop stop-color="#FF6600" stop-opacity="0"/>
<stop offset="0.03" stop-color="#FF6600" stop-opacity="0.17"/>
<stop offset="0.07" stop-color="#FF6600" stop-opacity="0.36"/>
<stop offset="0.11" stop-color="#FF6600" stop-opacity="0.53"/>
<stop offset="0.16" stop-color="#FF6600" stop-opacity="0.68"/>
<stop offset="0.2" stop-color="#FF6600" stop-opacity="0.8"/>
<stop offset="0.25" stop-color="#FF6600" stop-opacity="0.89"/>
<stop offset="0.3" stop-color="#FF6600" stop-opacity="0.95"/>
<stop offset="0.36" stop-color="#FF6600" stop-opacity="0.99"/>
<stop offset="0.43" stop-color="#FF6600"/>
<stop offset="0.72" stop-color="#FD4737"/>
<stop offset="1" stop-color="#FB2872"/>
</linearGradient>
<linearGradient id="paint9_linear_0_3105" x1="70.4961" y1="61.6807" x2="58.8701" y2="69.6347" gradientUnits="userSpaceOnUse">
<stop offset="0.08" stop-color="#FF4774" stop-opacity="0"/>
<stop offset="0.34" stop-color="#E43168" stop-opacity="0.3"/>
<stop offset="0.79" stop-color="#B60E53" stop-opacity="0.8"/>
<stop offset="1" stop-color="#A5004C"/>
</linearGradient>
<linearGradient id="paint10_linear_0_3105" x1="79.6754" y1="56.3188" x2="80.4608" y2="84.6689" gradientUnits="userSpaceOnUse">
<stop offset="0.13" stop-color="#D81F60" stop-opacity="0"/>
<stop offset="0.67" stop-color="#D81F60"/>
</linearGradient>
<linearGradient id="paint11_linear_0_3105" x1="72.1928" y1="42.9665" x2="75.6456" y2="22.8697" gradientUnits="userSpaceOnUse">
<stop offset="0.33" stop-color="#FF4774" stop-opacity="0"/>
<stop offset="0.51" stop-color="#E43168" stop-opacity="0.3"/>
<stop offset="0.85" stop-color="#B60E53" stop-opacity="0.8"/>
<stop offset="1" stop-color="#A5004C"/>
</linearGradient>
<linearGradient id="paint12_linear_0_3105" x1="88.4862" y1="17.3295" x2="86.56" y2="24.224" gradientUnits="userSpaceOnUse">
<stop offset="0.16" stop-color="#A030B9"/>
<stop offset="0.88" stop-color="#00073A"/>
</linearGradient>
<linearGradient id="paint13_linear_0_3105" x1="80.2318" y1="16.7074" x2="77.2987" y2="21.3537" gradientUnits="userSpaceOnUse">
<stop offset="0.16" stop-color="#A030B9"/>
<stop offset="0.88" stop-color="#00073A"/>
</linearGradient>
<linearGradient id="paint14_linear_0_3105" x1="19.7419" y1="-15.0973" x2="19.7419" y2="80.7437" gradientUnits="userSpaceOnUse">
<stop offset="0.02" stop-color="#FFEB49"/>
<stop offset="0.45" stop-color="#FF6600"/>
<stop offset="0.5" stop-color="#FF6109"/>
<stop offset="0.59" stop-color="#FF5322"/>
<stop offset="0.68" stop-color="#FF453F"/>
<stop offset="1" stop-color="#FB2872"/>
</linearGradient>
<linearGradient id="paint15_linear_0_3105" x1="18.9975" y1="52.8823" x2="58.0426" y2="74.9261" gradientUnits="userSpaceOnUse">
<stop offset="0.19" stop-color="#FB2872" stop-opacity="0"/>
<stop offset="0.24" stop-color="#F0226B" stop-opacity="0.15"/>
<stop offset="0.34" stop-color="#DC1760" stop-opacity="0.41"/>
<stop offset="0.43" stop-color="#CD0F57" stop-opacity="0.62"/>
<stop offset="0.52" stop-color="#C00850" stop-opacity="0.79"/>
<stop offset="0.61" stop-color="#B8034B" stop-opacity="0.9"/>
<stop offset="0.7" stop-color="#B20048" stop-opacity="0.98"/>
<stop offset="0.79" stop-color="#B10047"/>
</linearGradient>
<radialGradient id="paint16_radial_0_3105" cx="0" cy="0" r="1" gradientTransform="matrix(19.1153 -6.73754 5.65766 16.0622 -20.7847 40.2281)" gradientUnits="userSpaceOnUse">
<stop offset="0.51" stop-color="#FFEB49"/>
<stop offset="0.55" stop-color="#FFEB49" stop-opacity="0.96"/>
<stop offset="0.63" stop-color="#FFEB49" stop-opacity="0.84"/>
<stop offset="0.72" stop-color="#FFEB49" stop-opacity="0.66"/>
<stop offset="0.84" stop-color="#FFEB49" stop-opacity="0.4"/>
<stop offset="0.97" stop-color="#FFEB49" stop-opacity="0.07"/>
<stop offset="1" stop-color="#FFEB49" stop-opacity="0"/>
</radialGradient>
<linearGradient id="paint17_linear_0_3105" x1="37.0215" y1="-3.21882" x2="17.7098" y2="-1.10029" gradientUnits="userSpaceOnUse">
<stop offset="0.03" stop-color="#FFF088"/>
<stop offset="0.12" stop-color="#FFF084" stop-opacity="0.96"/>
<stop offset="0.26" stop-color="#FFF279" stop-opacity="0.84"/>
<stop offset="0.46" stop-color="#FFF567" stop-opacity="0.66"/>
<stop offset="0.69" stop-color="#FFF94F" stop-opacity="0.4"/>
<stop offset="0.95" stop-color="#FFFD31" stop-opacity="0.07"/>
<stop offset="1" stop-color="#FFFF2B" stop-opacity="0"/>
</linearGradient>
<linearGradient id="paint18_linear_0_3105" x1="38.3256" y1="58.9088" x2="84.5072" y2="70.6325" gradientUnits="userSpaceOnUse">
<stop stop-color="#E752FF"/>
<stop offset="0.11" stop-color="#DD4FFF"/>
<stop offset="0.28" stop-color="#C347FF"/>
<stop offset="0.51" stop-color="#983BFF"/>
<stop offset="0.77" stop-color="#5E2AFF"/>
<stop offset="1" stop-color="#271AFF"/>
</linearGradient>
<linearGradient id="paint19_linear_0_3105" x1="50.9985" y1="30.199" x2="53.4434" y2="65.8845" gradientUnits="userSpaceOnUse">
<stop stop-color="#E752FF"/>
<stop offset="0.3" stop-color="#E752FF"/>
<stop offset="0.37" stop-color="#C849FF"/>
<stop offset="0.48" stop-color="#973AFF"/>
<stop offset="0.59" stop-color="#6F2FFF"/>
<stop offset="0.7" stop-color="#4F25FF"/>
<stop offset="0.81" stop-color="#391FFF"/>
<stop offset="0.91" stop-color="#2B1BFF"/>
<stop offset="1" stop-color="#271AFF"/>
</linearGradient>
<linearGradient id="paint20_linear_0_3105" x1="44.2765" y1="19.7295" x2="48.6771" y2="69.1013" gradientUnits="userSpaceOnUse">
<stop stop-color="#E752FF"/>
<stop offset="0.3" stop-color="#E752FF"/>
<stop offset="0.37" stop-color="#C849FF"/>
<stop offset="0.48" stop-color="#973AFF"/>
<stop offset="0.59" stop-color="#6F2FFF"/>
<stop offset="0.7" stop-color="#4F25FF"/>
<stop offset="0.81" stop-color="#391FFF"/>
<stop offset="0.91" stop-color="#2B1BFF"/>
<stop offset="1" stop-color="#271AFF"/>
</linearGradient>
<linearGradient id="paint21_linear_0_3105" x1="41.4737" y1="-5.08077" x2="46.0373" y2="36.3036" gradientUnits="userSpaceOnUse">
<stop stop-color="#E752FF"/>
<stop offset="0.3" stop-color="#E752FF"/>
<stop offset="0.37" stop-color="#C849FF"/>
<stop offset="0.48" stop-color="#973AFF"/>
<stop offset="0.59" stop-color="#6F2FFF"/>
<stop offset="0.7" stop-color="#4F25FF"/>
<stop offset="0.81" stop-color="#391FFF"/>
<stop offset="0.91" stop-color="#2B1BFF"/>
<stop offset="1" stop-color="#271AFF"/>
</linearGradient>
<clipPath id="clip0_0_3105">
<rect width="110" height="72" fill="white"/>
</clipPath>
</defs>
</svg>
