<svg xmlns="http://www.w3.org/2000/svg" width="16" height="16" viewBox="0 0 16 16"><path d="M7.625 1.75c3.446 0 6.25 2.804 6.25 6.25s-2.804 6.25-6.25 6.25-6.25-2.804-6.25-6.25 2.804-6.25 6.25-6.25m0-1.25a7.5 7.5 0 1 0 0 15 7.5 7.5 0 0 0 0-15"/><path d="M7.625 9.709A.625.625 0 0 1 7 9.084v-.767c0-.527.37-.987.879-1.092.577-.12.996-.635.996-1.225a1.252 1.252 0 0 0-2.432-.409.626.626 0 0 1-1.181-.408A2.5 2.5 0 1 1 8.25 8.421v.663c0 .345-.28.625-.625.625M8 12h-.75L7 11.75V11l.25-.25H8l.25.25v.75z"/></svg>