<svg width="297" height="220" viewBox="0 0 297 220" fill="none" xmlns="http://www.w3.org/2000/svg">
<g clip-path="url(#clip0_4947_57396)">
<path d="M274.927 218.52C269.453 218.52 263.639 217.84 257.614 216.508C246.124 213.955 235.212 209.354 225.137 204.77L229.325 195.577C238.905 199.939 249.219 204.302 259.809 206.653C265.219 207.856 270.417 208.463 275.221 208.426C279.06 208.408 282.982 208.205 284.975 206.084C285.517 205.505 286.408 204.403 286.288 203.503C286.187 202.759 285.361 201.528 283.331 200.27C279.969 198.194 273.963 196.982 268.663 195.916C259.653 194.107 251.883 192.536 249.568 186.373C248.438 183.352 249.008 180.045 251.276 176.528C248.347 174.957 240.016 172.22 221.683 170.447C205.041 168.84 185.68 168.592 171.159 169.804L170.323 159.738C185.937 158.434 206.556 158.746 224.136 160.537C256.576 163.853 259.938 170.016 261.205 172.33C262.776 175.196 262.454 178.429 260.333 181.193C260.305 181.23 260.277 181.267 260.25 181.304C259.634 182.121 260.002 183.287 260.966 183.636C263.566 184.573 267.809 185.427 270.665 186.006C277.095 187.301 283.753 188.642 288.658 191.673C293.057 194.401 295.776 198.13 296.309 202.18C296.658 204.816 296.254 208.83 292.341 213C287.198 218.474 279.731 218.511 275.267 218.529C275.157 218.529 275.037 218.529 274.927 218.529V218.52Z" fill="url(#paint0_linear_4947_57396)"/>
<path d="M251.277 176.529C251.699 175.996 253.72 174.453 253.151 173.296C252.241 171.441 247.649 175.013 247.649 175.013C247.649 175.013 250.083 175.822 251.277 176.52V176.529Z" fill="url(#paint1_linear_4947_57396)"/>
<path d="M44.5834 213.788C38.5583 213.788 30.9534 213.2 26.0028 208.406C23.128 205.623 21.6401 201.94 21.5666 197.439C21.4013 186.473 33.3506 181.899 38.4572 179.942L39.0267 179.722C53.2905 174.211 92.5733 163.961 94.2449 163.529L96.7891 173.302C96.385 173.403 56.3949 183.846 42.6638 189.145L42.0668 189.375C38.6685 190.679 31.6055 193.379 31.6606 197.283C31.6973 199.607 32.4505 200.599 33.0107 201.141C35.8121 203.85 43.0496 203.721 47.3756 203.648C47.945 203.639 48.4869 203.63 48.9921 203.62C60.4729 203.519 71.0996 200.259 79.7148 194.206L85.5195 202.472C75.2143 209.71 62.6129 213.595 49.0747 213.724C48.5971 213.724 48.092 213.733 47.5501 213.742C46.6224 213.76 45.6121 213.779 44.5651 213.779L44.5834 213.788Z" fill="url(#paint2_linear_4947_57396)"/>
<path opacity="0.59" d="M286.234 204.045C286.234 204.045 286.859 203.071 284.645 201.151C281.945 198.819 275.828 197.441 275.828 197.441C275.828 197.441 280.54 195.062 284.223 196.89C286.978 198.258 287.658 201.849 286.234 204.035V204.045Z" fill="url(#paint3_linear_4947_57396)"/>
<path opacity="0.5" d="M32.323 200.233C32.3965 200.288 31.873 199.342 31.7076 197.982C31.5056 196.421 31.8913 195.154 33.7742 193.629C34.61 192.949 36.6398 191.728 36.6398 191.728C36.6398 191.728 33.6456 189.634 31.2392 191.801C29.4941 193.381 30.0085 198.534 32.323 200.223V200.233Z" fill="url(#paint4_linear_4947_57396)"/>
<path d="M132.978 191.72C133.051 191.701 133.106 191.692 133.143 191.683C133.336 191.628 124.243 187.385 126.879 171.275C128.073 163.955 122.333 159.123 124.721 154.797C125.198 153.934 125.575 153.025 125.896 152.079C124.087 151.711 121.69 151.124 118.54 149.865C89.9201 138.43 88.7996 109.352 90.6825 81.1823C92.1428 59.4238 68.0239 50.1289 68.0239 50.1289C68.0239 50.1289 74.7562 61.5638 62.9723 72.1446C49.3423 84.3877 36.2174 101.885 36.7776 128.189C36.8052 129.42 37.0348 132.571 37.0348 132.571C37.0348 132.571 36.1255 132.13 34.9315 130.89C33.3977 129.301 32.7915 128.29 32.7915 128.29C32.7915 128.29 32.2955 135.794 35.8224 147.229C41.076 164.258 51.9874 179.201 68.7862 189.488C85.1533 199.508 101.034 199.554 125.107 199.591C125.107 198.673 131.876 191.931 132.969 191.701L132.978 191.72Z" fill="url(#paint5_linear_4947_57396)"/>
<path d="M61.2827 115.376C60.401 107.661 60.6765 98.6875 60.6765 98.6875C60.6765 98.6875 57.8844 105.493 56.2679 114.182C55.0647 120.639 54.4401 127.555 54.5228 129.107C54.1279 128.547 52.989 126.765 52.0246 123.881C50.8122 120.244 49.958 117.241 49.958 117.241C50.0039 117.213 46.973 129.539 52.5297 152.179C59.5835 169.915 71.5604 176.298 77.0895 169.694C82.6187 163.09 75.6108 156.799 71.2205 150.59C65.774 142.884 62.7614 128.253 61.2827 115.385V115.376Z" fill="url(#paint6_linear_4947_57396)"/>
<path d="M112.331 174.377C109.695 190.487 127.228 196.54 127.035 196.595C126.999 196.604 126.934 196.623 126.87 196.632C127.77 196.742 128.643 196.843 129.488 196.944C129.644 196.467 129.736 196.016 129.726 195.64C129.552 191.911 128.294 188.246 127.393 184.582C131.637 182.175 123.279 172.761 123.811 168.214C125.235 157.064 125.547 158.166 119.789 157C119.467 157.937 119.091 158.846 118.613 159.719C116.225 164.045 113.525 167.066 112.331 174.387V174.377Z" fill="url(#paint7_linear_4947_57396)"/>
<path d="M202.387 171.853C200.109 165.754 195.893 162.861 193.533 158.792C188.637 150.361 192.376 148.386 190.226 125.883C188.959 112.639 187.021 99.404 183.861 86.4628C181.198 75.5789 181.804 64.5298 185.625 53.9582C188.72 45.3889 193.9 47.281 192.945 44.4521C192.495 43.1203 190.291 43.8275 189.74 42.5325C188.876 40.4935 194.497 37.8942 193.349 36.0022C191.999 33.7611 189.078 34.9459 187.903 34.9276C179.903 38.978 172.527 45.3889 169.745 52.6999C167.081 59.7078 162.516 63.097 162.516 63.097C158.998 65.0992 151.201 59.5333 146.131 62.0683C139.61 65.3288 137.865 71.5377 133.915 73.0164C131.114 74.0635 129.157 73.347 123.334 72.1622C115.794 70.6284 106.83 68.7823 99.4175 72.401C98.7746 73.6869 95.0272 75.1197 96.01 77.6455C96.8733 79.8865 100.593 77.1771 101.043 78.169C101.659 79.5283 98.9491 81.4296 99.5828 82.7797C100.667 85.0759 103.661 83.9921 105.709 83.9553C109.686 83.8819 114.71 85.3422 118.2 87.6108C125.759 92.5246 123.151 101.351 122.535 108.837C121.773 118.021 120.294 127.445 120.285 136.648C120.276 144.39 121.654 152.556 117.631 159.701C115.197 164.027 112.451 167.049 111.229 174.369C108.538 190.479 126.402 196.532 126.209 196.587C126.163 196.596 126.108 196.615 126.035 196.624C126.953 196.734 127.835 196.835 128.698 196.936C132.602 197.404 141.428 202.548 140.978 203.824C140.859 204.155 140.758 204.495 140.666 204.826C139.986 207.278 139.986 209.565 140.602 210.584C142.475 213.689 154.075 213.22 154.617 209.556C154.884 207.765 155.058 205.57 155.159 203.09C155.609 203.071 156.059 203.053 156.473 203.053C156.785 203.053 157.106 203.071 157.419 203.081C157.52 205.57 157.694 207.765 157.961 209.556C158.502 213.22 170.112 213.689 171.976 210.584C172.564 209.62 172.583 207.508 172.004 205.211C171.967 205.074 171.94 204.945 171.903 204.807C171.811 204.486 171.71 204.164 171.6 203.834C171.269 202.869 170.911 201.473 170.617 200.077C174.456 199.535 180.142 198.562 188.601 196.881C189.014 196.798 189.409 196.734 189.813 196.67C189.859 196.596 189.969 196.532 190.153 196.477C197.73 193.905 206.336 182.507 202.359 171.853H202.387Z" fill="url(#paint8_linear_4947_57396)"/>
<path d="M188.086 31.5403C186.065 29.3084 180.169 33.1108 175.034 31.5862C173.427 31.1086 171.535 29.1155 169.873 27.0122C168.421 25.1845 167.136 23.2741 166.373 22.2362C163.315 18.0939 161.101 15.3018 156.096 9.26744C151.411 3.60968 145.772 -0.8357 142.346 -0.220327C139.177 0.349123 137.772 5.66705 137.129 14.2823C136.789 18.8746 136.202 27.5357 136.174 27.6368C136.128 27.8205 131.885 29.8778 129.974 30.4932C129.901 30.5208 129.791 30.4932 129.662 30.4289C129.561 30.383 129.451 30.3187 129.313 30.2177C127.825 29.1614 124.326 25.212 118.668 20.3717C112.707 15.265 109.483 13.1066 106.113 15.1181C102.613 17.203 103.32 28.0134 104.175 35.4621C104.882 41.6342 105.277 42.8007 105.451 45.0877C105.635 47.5308 105.929 50.5985 105.947 53.5376C105.975 56.7522 105.672 59.829 104.542 61.8037C101.787 66.5981 96.3952 67.4431 96.7993 70.419C97.1024 72.6692 99.6007 71.4201 99.4813 72.2192C99.4721 72.311 99.3802 72.458 99.3251 72.559C106.765 69.2525 115.968 71.0527 123.27 72.7794C128.918 74.1112 132.381 76.2788 135.173 75.3328C139.113 74.001 140.316 66.2216 146.874 63.2274C151.972 60.9037 160.1 65.7348 163.645 63.8887C163.811 63.7785 163.985 63.659 164.141 63.5121C164.16 63.4937 164.178 63.5029 164.196 63.5121C164.252 63.4662 164.307 63.4294 164.353 63.3743C165.703 61.9874 166.539 60.4261 169.514 53.657C172.619 46.5939 187.902 34.9294 187.893 34.9294C185.744 34.8008 189.693 33.3129 188.086 31.5403Z" fill="url(#paint9_linear_4947_57396)"/>
<path opacity="0.51" d="M129.974 30.4912C129.9 30.5188 129.79 30.4912 129.662 30.4269L134.456 36.3602L137.221 34.9825L136.183 27.6348C136.137 27.8185 131.893 29.8758 129.983 30.4912H129.974Z" fill="url(#paint10_linear_4947_57396)"/>
<path d="M152.689 25.0467C159.623 25.9009 166.705 26.7091 169.873 27.0122C168.422 25.1845 167.136 23.2741 166.374 22.2362C163.315 18.0939 161.102 15.3018 156.096 9.26744C151.412 3.60968 145.773 -0.8357 142.347 -0.220327C139.178 0.349123 137.773 5.66705 137.13 14.2823C136.79 18.8746 136.414 27.251 136.414 27.251C139.536 26.057 145.791 24.1925 152.698 25.0375L152.689 25.0467Z" fill="url(#paint11_linear_4947_57396)"/>
<path d="M118.668 20.3706C112.707 15.2639 109.484 13.1055 106.113 15.1169C102.613 17.2018 103.321 28.0122 104.175 35.461C104.882 41.6331 105.277 42.7995 105.452 45.0865C105.635 47.5296 105.929 50.5973 105.948 53.5364C107.95 51.1116 112.423 45.4814 116.758 39.9247C120.808 34.7354 124.335 25.2017 118.677 20.3614L118.668 20.3706Z" fill="url(#paint12_linear_4947_57396)"/>
<path d="M128.441 64.143C129.892 68.2577 132.601 68.5057 133.97 67.9087C136.542 66.7881 137.534 64.5379 136.771 62.3244C135.109 57.5024 132.978 55.0685 129.469 56.8228C127.256 57.9341 127.265 60.7997 128.45 64.143H128.441Z" fill="url(#paint13_linear_4947_57396)"/>
<path d="M133.912 66.6823C134.592 66.4007 134.922 65.6406 134.65 64.9846C134.378 64.3285 133.607 64.025 132.928 64.3065C132.248 64.5881 131.918 65.3482 132.19 66.0043C132.461 66.6603 133.233 66.9639 133.912 66.6823Z" fill="white"/>
<path d="M159.963 51.0842C161.846 55.0244 160.11 57.1093 158.723 57.6512C156.114 58.6707 153.818 57.789 152.79 55.6765C150.558 51.0842 150.337 47.8604 154.066 46.6204C156.417 45.8397 158.438 47.8696 159.972 51.075L159.963 51.0842Z" fill="url(#paint14_linear_4947_57396)"/>
<path d="M157.366 56.839C158.078 56.5438 158.424 55.7461 158.139 55.0572C157.853 54.3684 157.044 54.0492 156.332 54.3444C155.62 54.6396 155.274 55.4373 155.559 56.1262C155.845 56.815 156.654 57.1342 157.366 56.839Z" fill="white"/>
<path d="M163.949 63.6773C162.792 64.4212 160.716 64.063 158.971 63.6773C155.141 63.0895 150.328 61.4822 146.838 63.016C146.82 63.016 146.801 63.0344 146.783 63.0436C142.999 64.7611 140.96 67.9849 139.16 70.6668C137.837 72.6323 136.083 74.7999 134.411 75.3694C134.402 75.3694 133.208 75.6082 133.208 75.6082C131.839 75.7 142.494 89.3852 155.756 83.6172C169.469 77.6564 165.299 63.4844 164.491 63.3007C164.473 63.3007 164.445 63.3007 164.436 63.3007C164.28 63.4385 164.114 63.5579 163.94 63.6681L163.949 63.6773Z" fill="#FFC635"/>
<path d="M152.954 76.4418C150.621 77.3878 149.721 78.8206 149.703 79.8309C149.684 81.08 151.576 82.8894 154.451 81.7322C157.179 80.63 157.905 77.9205 157.078 76.8918C156.49 76.1571 155.021 75.5968 152.954 76.4326V76.4418Z" fill="#00073A"/>
<path opacity="0.38" d="M142.768 176.509C139.985 165.947 129.946 157.442 119.163 155.072C118.998 155.761 118.796 156.432 118.576 157.093C118.254 158.03 117.878 158.939 117.4 159.812C115.012 164.138 112.312 167.159 111.118 174.479C108.482 190.589 126.015 196.642 125.822 196.697C125.786 196.706 125.721 196.725 125.657 196.734C126.557 196.844 131.903 197.515 132.748 197.616C136.578 198.084 142.768 198.929 142.768 198.929C142.768 198.929 143.099 180.633 142.768 176.509Z" fill="url(#paint15_radial_4947_57396)"/>
<path d="M139.509 198.268C136.652 197.864 133.327 197.423 129.488 196.955C128.643 196.854 127.771 196.744 126.871 196.643C125.778 196.872 121.259 197.598 117.971 201.621C116.804 203.044 116.418 204.156 116.409 205.074C116.409 205.689 116.565 206.213 116.804 206.681C117.888 208.785 138.305 206.342 141.245 204.844C141.336 204.514 141.437 204.183 141.548 203.843C141.979 202.576 142.457 200.546 142.76 198.746C141.75 198.599 140.657 198.434 139.499 198.268H139.509Z" fill="url(#paint16_linear_4947_57396)"/>
<path d="M197.684 202.08C196.995 201.235 195.801 200.28 193.872 199.159C191.42 197.735 189.234 197.111 189.528 196.67C189.133 196.734 188.747 196.799 188.343 196.881C180.031 198.562 174.447 199.536 170.681 200.077C170.966 201.483 171.315 202.879 171.646 203.834C171.756 204.155 171.857 204.486 171.939 204.808C171.976 204.945 172.004 205.074 172.04 205.212C179.296 206.314 182.493 207.692 188.316 207.985C194.846 208.316 196.876 207.664 197.978 205.708C198.575 204.642 198.869 203.522 197.684 202.071V202.08Z" fill="url(#paint17_linear_4947_57396)"/>
<path d="M153.836 164.901C153.258 165.599 152.918 170.127 152.165 170.504C151.568 170.807 151.274 166.949 150.658 163.468C150.493 162.522 149.859 159.473 149.694 158.582C148.913 154.228 148.913 154.568 148.261 151.005C148.133 153.843 147.875 154.605 147.352 158.959C147.095 161.071 146.737 163.606 146.443 165.02C146.185 166.251 145.781 161.677 145.533 160.474C144.33 154.651 143.476 153.09 141.85 147.285C141.014 144.309 138.204 141.912 137.754 138.881C139.076 147.836 140.978 162.642 142.006 175.767C142.337 179.946 142.567 183.959 142.668 187.55C142.769 191.004 142.732 194.081 142.539 196.551C142.493 197.158 142.392 197.892 142.264 198.664C141.96 200.492 141.474 202.549 141.033 203.835C140.913 204.175 140.812 204.515 140.721 204.845C140.041 207.325 140.041 209.649 140.656 210.677C142.521 213.828 154.075 213.35 154.617 209.63C154.883 207.812 155.058 205.589 155.159 203.073C155.554 193.576 154.883 179.624 153.836 164.892V164.901Z" fill="url(#paint18_linear_4947_57396)"/>
<path opacity="0.6" d="M165.749 127.132C168.165 106.559 155.701 98.9629 155.701 98.9629C155.701 98.9629 143.862 107.716 147.049 128.152C149.602 144.519 151.697 148.303 153.313 158.691C154.93 169.079 156.647 181.074 156.647 181.074C156.647 181.074 158.098 169.483 160.055 158.434C161.451 150.544 164.252 139.908 165.749 127.132Z" fill="url(#paint19_linear_4947_57396)"/>
<path d="M171.903 204.697C171.811 204.367 171.71 204.036 171.6 203.705C171.269 202.732 170.911 201.308 170.617 199.894C170.36 198.635 170.158 197.377 170.084 196.413C169.037 183.279 172.72 153.217 174.879 138.65C174.594 140.744 171.701 143.785 170.773 147.064C169.138 152.877 168.293 154.439 167.081 160.271C166.833 161.474 166.429 166.048 166.171 164.818C165.868 163.412 165.51 160.868 165.262 158.746C164.739 154.384 164.481 153.631 164.353 150.783C163.701 154.347 163.701 154.007 162.92 158.37C162.755 159.27 162.121 162.319 161.956 163.265C161.34 166.755 161.046 170.613 160.449 170.31C159.696 169.933 159.356 165.396 158.778 164.698C157.722 179.458 157.06 193.419 157.446 202.934C157.547 205.46 157.722 207.682 157.988 209.51C158.53 213.239 170.103 213.708 171.967 210.557C172.546 209.574 172.573 207.434 171.995 205.101C171.958 204.964 171.93 204.826 171.894 204.688L171.903 204.697Z" fill="url(#paint20_linear_4947_57396)"/>
<path d="M241.569 218.143L228.784 214.781L235.691 191.471C235.691 191.471 248.375 196.366 248.393 196.375C256.182 199.379 248.935 220.072 241.569 218.134V218.143Z" fill="url(#paint21_linear_4947_57396)"/>
<path d="M218.81 219.191L200.753 214.957L216.404 169.07L233.534 177.254C254.337 187.192 242.332 224.702 218.82 219.191H218.81Z" fill="url(#paint22_linear_4947_57396)"/>
<path d="M222.63 196.256C217.827 210.337 207.705 219.631 200.018 217.014C198.098 216.362 193.276 215.361 192.054 213.496C188.381 207.921 191.2 197.331 194.801 186.769C198.181 176.868 201.855 166.728 207.797 164.037C210.304 162.907 215.136 165.231 217.413 166.011C225.101 168.629 227.434 182.176 222.639 196.256H222.63Z" fill="url(#paint23_linear_4947_57396)"/>
<path d="M214.393 193.451C219.195 179.37 217.678 166.11 211.004 163.834C204.331 161.558 195.028 171.129 190.226 185.21C185.424 199.292 186.941 212.552 193.615 214.828C200.288 217.103 209.591 207.533 214.393 193.451Z" fill="url(#paint24_linear_4947_57396)"/>
<path opacity="0.24" d="M208.137 180.908C207.76 183.737 205.822 186.033 203.792 186.033C201.763 186.033 200.431 183.737 200.798 180.908C201.166 178.079 203.113 175.783 205.143 175.783C207.172 175.783 208.504 178.079 208.137 180.908Z" fill="url(#paint25_linear_4947_57396)"/>
<path opacity="0.24" d="M202.965 198.141C202.589 200.97 200.651 203.266 198.621 203.266C196.591 203.266 195.259 200.97 195.627 198.141C195.994 195.312 197.941 193.016 199.971 193.016C202.001 193.016 203.333 195.312 202.965 198.141Z" fill="url(#paint26_linear_4947_57396)"/>
<path d="M204.206 183.645C204.013 183.645 203.811 183.609 203.6 183.544C200.587 182.663 197.639 181.515 194.663 180.495C189.749 178.824 191.852 179.54 186.948 177.868C184.881 177.161 183.779 174.911 184.477 172.844C185.175 170.778 187.435 169.676 189.501 170.374C196.013 172.596 204.986 175.471 206.318 176.105C209.285 177.519 207.264 183.719 204.197 183.636L204.206 183.645Z" fill="url(#paint27_linear_4947_57396)"/>
<path d="M198.585 200.72C198.392 200.72 198.19 200.683 197.979 200.619C194.966 199.737 192.018 198.589 189.042 197.569C184.129 195.898 186.232 196.614 181.327 194.943C179.261 194.235 178.158 191.985 178.857 189.919C179.555 187.852 181.814 186.75 183.881 187.448C190.392 189.671 199.366 192.545 200.698 193.179C203.664 194.594 201.644 200.793 198.576 200.71L198.585 200.72Z" fill="url(#paint28_linear_4947_57396)"/>
<path d="M67.6937 216.545L80.7726 214.634L76.511 190.699C76.511 190.699 63.3585 194.153 63.3401 194.153C55.2668 196.274 60.1622 217.638 67.6937 216.536V216.545Z" fill="url(#paint29_linear_4947_57396)"/>
<path d="M90.1962 220.155L108.621 217.96L98.196 170.613L80.2584 176.831C58.4815 184.39 66.2242 223.003 90.1962 220.155Z" fill="url(#paint30_linear_4947_57396)"/>
<path d="M97.4978 197.155C98.5908 200.856 99.9961 204.457 101.613 207.846C103.982 212.797 108.813 221.173 115.592 219.235C117.383 218.721 121.856 218.078 123.031 216.323C126.558 211.061 124.207 200.36 121.139 189.624C118.264 179.566 115.114 169.252 109.695 166.157C107.408 164.853 102.898 166.818 100.768 167.424C95.6701 168.885 94.9261 175.525 94.9078 179.943C94.871 185.656 95.8354 191.525 97.507 197.164L97.4978 197.155Z" fill="url(#paint31_linear_4947_57396)"/>
<path d="M121.603 216.88C126.348 215.522 126.929 203.012 122.901 188.937C118.874 174.863 111.762 164.554 107.017 165.912C102.271 167.27 101.69 179.781 105.718 193.855C109.746 207.929 116.857 218.238 121.603 216.88Z" fill="url(#paint32_linear_4947_57396)"/>
<path d="M108.914 179.733C108.914 179.733 115.821 180.66 115.83 180.66C116.813 180.77 117.53 182.433 117.796 183.259C118.145 184.334 118.292 186.943 116.877 187.154L110.439 188.035C109.511 187.98 108.271 187.218 107.491 185.464C106.122 182.396 107.289 179.494 108.905 179.733H108.914Z" fill="url(#paint33_linear_4947_57396)"/>
<path d="M108.914 179.733C108.914 179.733 115.821 180.66 115.83 180.66C116.813 180.77 117.53 182.433 117.796 183.259C118.145 184.334 118.292 186.943 116.877 187.154L110.439 188.035C109.511 187.98 108.271 187.218 107.491 185.464C106.122 182.396 107.289 179.494 108.905 179.733H108.914Z" fill="url(#paint34_linear_4947_57396)"/>
<path opacity="0.44" d="M109.906 188.797C108.786 188.512 107.454 187.447 106.683 185.729C105.535 183.148 105.994 180.907 106.765 179.787C107.298 179.006 108.024 178.639 108.804 178.767C113.507 179.423 115.867 179.753 115.886 179.759C117.043 179.934 117.805 181.615 118.228 182.965C118.494 183.837 118.843 186.088 118.173 187.236C117.934 187.64 117.585 187.879 117.162 187.943L110.614 188.871C110.393 188.889 110.154 188.861 109.906 188.797ZM115.904 180.687C115.904 180.687 115.84 180.669 115.812 180.669C115.702 180.65 108.804 179.723 108.804 179.723C108.354 179.649 107.904 179.897 107.546 180.421C106.848 181.422 106.582 183.387 107.491 185.472C108.272 187.245 109.714 188.099 110.467 188.053L117.034 187.135C117.227 187.107 117.374 186.997 117.493 186.795C117.971 185.977 117.732 184.067 117.456 183.213C117.006 181.789 116.428 180.852 115.913 180.696L115.904 180.687Z" fill="url(#paint35_linear_4947_57396)"/>
<path d="M113.562 195.567L119.752 194.484C120.588 194.327 121.47 195.889 121.791 196.614C122.214 197.551 122.655 200.004 121.497 200.674L115.849 203.925C114.939 204.375 113.341 203.981 112.414 202.318C110.797 199.452 112 195.622 113.553 195.558L113.562 195.567Z" fill="url(#paint36_linear_4947_57396)"/>
<path opacity="0.44" d="M115.178 204.956C114.085 204.946 112.79 204.23 111.936 202.715C110.641 200.455 110.76 197.92 111.449 196.414C111.89 195.459 112.542 194.871 113.286 194.77C117.541 194.109 119.675 193.775 119.688 193.769C120.505 193.631 121.341 194.458 122.131 196.203C122.617 197.277 123.49 200.492 121.975 201.383L116.151 204.735C115.858 204.873 115.527 204.946 115.169 204.946L115.178 204.956ZM119.862 194.485C119.862 194.485 119.825 194.485 119.807 194.485C119.715 194.494 113.405 195.596 113.405 195.596C112.937 195.661 112.487 196.092 112.165 196.781C111.568 198.085 111.33 200.345 112.468 202.338C113.46 204.074 115.104 204.34 115.802 204.01L121.598 200.676C122.415 200.198 121.947 197.709 121.423 196.57C120.872 195.367 120.275 194.494 119.862 194.494V194.485Z" fill="url(#paint37_linear_4947_57396)"/>
</g>
<defs>
<linearGradient id="paint0_linear_4947_57396" x1="233.366" y1="218.52" x2="233.366" y2="158.921" gradientUnits="userSpaceOnUse">
<stop offset="0.09" stop-color="#A030B9"/>
<stop offset="0.34" stop-color="#9D2FB8"/>
<stop offset="0.48" stop-color="#952DB8"/>
<stop offset="0.6" stop-color="#8729B8"/>
<stop offset="0.7" stop-color="#7324B7"/>
<stop offset="0.79" stop-color="#591DB6"/>
<stop offset="0.88" stop-color="#3915B5"/>
<stop offset="0.96" stop-color="#140CB3"/>
<stop offset="1" stop-color="#0007B3"/>
</linearGradient>
<linearGradient id="paint1_linear_4947_57396" x1="248.319" y1="168.024" x2="259.525" y2="200.896" gradientUnits="userSpaceOnUse">
<stop stop-color="#9C2FB8" stop-opacity="0.98"/>
<stop offset="0.02" stop-color="#7825B7" stop-opacity="0.75"/>
<stop offset="0.03" stop-color="#581DB6" stop-opacity="0.55"/>
<stop offset="0.05" stop-color="#3C16B5" stop-opacity="0.38"/>
<stop offset="0.06" stop-color="#2610B4" stop-opacity="0.24"/>
<stop offset="0.08" stop-color="#150CB3" stop-opacity="0.13"/>
<stop offset="0.11" stop-color="#0909B3" stop-opacity="0.06"/>
<stop offset="0.13" stop-color="#0207B3" stop-opacity="0.01"/>
<stop offset="0.18" stop-color="#0007B3" stop-opacity="0"/>
<stop offset="0.29" stop-color="#00073A"/>
</linearGradient>
<linearGradient id="paint2_linear_4947_57396" x1="53.612" y1="216.231" x2="63.8437" y2="158.165" gradientUnits="userSpaceOnUse">
<stop stop-color="#A030B9"/>
<stop offset="0.09" stop-color="#982EB8"/>
<stop offset="0.23" stop-color="#8429B7"/>
<stop offset="0.4" stop-color="#6420B6"/>
<stop offset="0.59" stop-color="#3614B5"/>
<stop offset="0.79" stop-color="#0007B3"/>
<stop offset="0.99" stop-color="#00073A"/>
</linearGradient>
<linearGradient id="paint3_linear_4947_57396" x1="277.656" y1="193.978" x2="289.403" y2="208.242" gradientUnits="userSpaceOnUse">
<stop stop-color="#A030B9" stop-opacity="0"/>
<stop offset="0.07" stop-color="#9B2EB8" stop-opacity="0.16"/>
<stop offset="0.19" stop-color="#942DB8" stop-opacity="0.42"/>
<stop offset="0.31" stop-color="#8E2BB8" stop-opacity="0.63"/>
<stop offset="0.42" stop-color="#892AB8" stop-opacity="0.79"/>
<stop offset="0.54" stop-color="#8629B8" stop-opacity="0.91"/>
<stop offset="0.65" stop-color="#8429B8" stop-opacity="0.98"/>
<stop offset="0.75" stop-color="#8429B8"/>
</linearGradient>
<linearGradient id="paint4_linear_4947_57396" x1="36.2357" y1="186.584" x2="28.9247" y2="202.364" gradientUnits="userSpaceOnUse">
<stop offset="0.35" stop-color="#A030B9" stop-opacity="0"/>
<stop offset="0.4" stop-color="#982DB8" stop-opacity="0.05"/>
<stop offset="0.48" stop-color="#8228B7" stop-opacity="0.18"/>
<stop offset="0.59" stop-color="#5F1FB6" stop-opacity="0.4"/>
<stop offset="0.71" stop-color="#2F13B4" stop-opacity="0.7"/>
<stop offset="0.81" stop-color="#0007B3"/>
</linearGradient>
<linearGradient id="paint5_linear_4947_57396" x1="37.9716" y1="61.1046" x2="110.843" y2="205.745" gradientUnits="userSpaceOnUse">
<stop stop-color="#FFEB49"/>
<stop offset="0.45" stop-color="#FF6600"/>
<stop offset="0.54" stop-color="#FF6109"/>
<stop offset="0.69" stop-color="#FF5322"/>
<stop offset="0.82" stop-color="#FF453F"/>
<stop offset="1" stop-color="#FB2872"/>
</linearGradient>
<linearGradient id="paint6_linear_4947_57396" x1="57.9395" y1="98.1456" x2="65.2505" y2="157.01" gradientUnits="userSpaceOnUse">
<stop stop-color="#FFEB49"/>
<stop offset="0.09" stop-color="#FFE545" stop-opacity="0.96"/>
<stop offset="0.24" stop-color="#FFD63D" stop-opacity="0.84"/>
<stop offset="0.44" stop-color="#FFBD2F" stop-opacity="0.66"/>
<stop offset="0.67" stop-color="#FF9A1C" stop-opacity="0.4"/>
<stop offset="0.94" stop-color="#FF6F05" stop-opacity="0.07"/>
<stop offset="1" stop-color="#FF6600" stop-opacity="0"/>
</linearGradient>
<linearGradient id="paint7_linear_4947_57396" x1="58.9034" y1="52.4142" x2="131.462" y2="196.439" gradientUnits="userSpaceOnUse">
<stop stop-color="#FFE500"/>
<stop offset="0.45" stop-color="#FF6D00"/>
<stop offset="0.54" stop-color="#FF6709"/>
<stop offset="0.69" stop-color="#FF5622"/>
<stop offset="0.82" stop-color="#FF453F"/>
<stop offset="1" stop-color="#FB0372"/>
</linearGradient>
<linearGradient id="paint8_linear_4947_57396" x1="125.869" y1="34.4224" x2="194.828" y2="228.173" gradientUnits="userSpaceOnUse">
<stop offset="0.02" stop-color="#FF7408"/>
<stop offset="0.03" stop-color="#FFC534"/>
<stop offset="0.04" stop-color="#FFD63D"/>
<stop offset="0.05" stop-color="#FFE947"/>
<stop offset="0.08" stop-color="#FFEB49"/>
<stop offset="0.19" stop-color="#FFC936"/>
<stop offset="0.43" stop-color="#FF7508"/>
<stop offset="0.47" stop-color="#FF6600"/>
<stop offset="0.85" stop-color="#FB2872"/>
</linearGradient>
<linearGradient id="paint9_linear_4947_57396" x1="127.166" y1="14.6595" x2="238.038" y2="276.237" gradientUnits="userSpaceOnUse">
<stop stop-color="#FF6600"/>
<stop offset="0.17" stop-color="#FF9C00"/>
<stop offset="0.26" stop-color="#FF9200"/>
<stop offset="0.39" stop-color="#FF7900"/>
<stop offset="0.47" stop-color="#FF6600"/>
<stop offset="0.53" stop-color="#FE5B13"/>
<stop offset="0.65" stop-color="#FC453C"/>
<stop offset="0.76" stop-color="#FB3559"/>
<stop offset="0.85" stop-color="#FB2B6B"/>
<stop offset="0.92" stop-color="#FB2872"/>
</linearGradient>
<linearGradient id="paint10_linear_4947_57396" x1="135.302" y1="34.1706" x2="129.49" y2="20.8014" gradientUnits="userSpaceOnUse">
<stop stop-color="#D4002F" stop-opacity="0"/>
<stop offset="0.88" stop-color="#D4002F"/>
</linearGradient>
<linearGradient id="paint11_linear_4947_57396" x1="150.862" y1="22.7967" x2="145.197" y2="-8.90136" gradientUnits="userSpaceOnUse">
<stop stop-color="#FF6600" stop-opacity="0"/>
<stop offset="0.07" stop-color="#FF6600" stop-opacity="0.2"/>
<stop offset="0.21" stop-color="#FF6600" stop-opacity="0.54"/>
<stop offset="0.31" stop-color="#FF6600" stop-opacity="0.79"/>
<stop offset="0.39" stop-color="#FF6600" stop-opacity="0.94"/>
<stop offset="0.43" stop-color="#FF6600"/>
<stop offset="0.72" stop-color="#FD4737"/>
<stop offset="1" stop-color="#FB2872"/>
</linearGradient>
<linearGradient id="paint12_linear_4947_57396" x1="115.618" y1="37.726" x2="97.2009" y2="11.3123" gradientUnits="userSpaceOnUse">
<stop stop-color="#FF6600" stop-opacity="0"/>
<stop offset="0.05" stop-color="#FF6600" stop-opacity="0.1"/>
<stop offset="0.17" stop-color="#FF6600" stop-opacity="0.36"/>
<stop offset="0.34" stop-color="#FF6600" stop-opacity="0.76"/>
<stop offset="0.43" stop-color="#FF6600"/>
<stop offset="0.72" stop-color="#FD4737"/>
<stop offset="1" stop-color="#FB2872"/>
</linearGradient>
<linearGradient id="paint13_linear_4947_57396" x1="127.586" y1="54.3853" x2="134.534" y2="65.9219" gradientUnits="userSpaceOnUse">
<stop offset="0.16" stop-color="#A030B9"/>
<stop offset="0.88" stop-color="#00073A"/>
</linearGradient>
<linearGradient id="paint14_linear_4947_57396" x1="153.674" y1="42.9281" x2="156.922" y2="55.9978" gradientUnits="userSpaceOnUse">
<stop offset="0.16" stop-color="#A030B9"/>
<stop offset="0.88" stop-color="#00073A"/>
</linearGradient>
<radialGradient id="paint15_radial_4947_57396" cx="0" cy="0" r="1" gradientUnits="userSpaceOnUse" gradientTransform="translate(112.991 188.119) scale(49.882 49.8819)">
<stop stop-color="#FFEB49"/>
<stop offset="0.07" stop-color="#FFE546" stop-opacity="0.96"/>
<stop offset="0.18" stop-color="#FFD73E" stop-opacity="0.85"/>
<stop offset="0.32" stop-color="#FFC031" stop-opacity="0.68"/>
<stop offset="0.49" stop-color="#FFA01F" stop-opacity="0.44"/>
<stop offset="0.69" stop-color="#FF7709" stop-opacity="0.13"/>
<stop offset="0.77" stop-color="#FF6600" stop-opacity="0"/>
</radialGradient>
<linearGradient id="paint16_linear_4947_57396" x1="202.295" y1="173.369" x2="87.8173" y2="218.98" gradientUnits="userSpaceOnUse">
<stop offset="0.02" stop-color="#BE0449" stop-opacity="0"/>
<stop offset="0.51" stop-color="#FB2872"/>
<stop offset="0.67" stop-color="#A31C5E"/>
<stop offset="0.83" stop-color="#4C104A"/>
<stop offset="0.94" stop-color="#15093E"/>
<stop offset="1" stop-color="#00073A"/>
</linearGradient>
<linearGradient id="paint17_linear_4947_57396" x1="138.158" y1="184.28" x2="216.274" y2="214.819" gradientUnits="userSpaceOnUse">
<stop stop-color="#BE0449" stop-opacity="0"/>
<stop offset="0.41" stop-color="#FB2872"/>
<stop offset="1" stop-color="#00073A"/>
</linearGradient>
<linearGradient id="paint18_linear_4947_57396" x1="145.469" y1="139.937" x2="148.84" y2="229.653" gradientUnits="userSpaceOnUse">
<stop offset="0.05" stop-color="#BE0449" stop-opacity="0"/>
<stop offset="0.09" stop-color="#BF054A" stop-opacity="0.04"/>
<stop offset="0.16" stop-color="#C2084C" stop-opacity="0.16"/>
<stop offset="0.25" stop-color="#C70D51" stop-opacity="0.36"/>
<stop offset="0.36" stop-color="#CE1457" stop-opacity="0.63"/>
<stop offset="0.48" stop-color="#D71E5F" stop-opacity="0.97"/>
<stop offset="0.49" stop-color="#D81F60"/>
<stop offset="0.56" stop-color="#D31E5F"/>
<stop offset="0.63" stop-color="#C71D5D"/>
<stop offset="0.7" stop-color="#B31A59"/>
<stop offset="0.77" stop-color="#971754"/>
<stop offset="0.84" stop-color="#73134E"/>
<stop offset="0.91" stop-color="#460E46"/>
<stop offset="0.98" stop-color="#13093D"/>
<stop offset="1" stop-color="#00073A"/>
</linearGradient>
<linearGradient id="paint19_linear_4947_57396" x1="156.041" y1="116.432" x2="159.568" y2="193.997" gradientUnits="userSpaceOnUse">
<stop stop-color="#FFEB49"/>
<stop offset="0.08" stop-color="#FFE545" stop-opacity="0.96"/>
<stop offset="0.21" stop-color="#FFD63D" stop-opacity="0.84"/>
<stop offset="0.38" stop-color="#FFBD2F" stop-opacity="0.66"/>
<stop offset="0.58" stop-color="#FF9A1C" stop-opacity="0.4"/>
<stop offset="0.81" stop-color="#FF6F05" stop-opacity="0.07"/>
<stop offset="0.86" stop-color="#FF6600" stop-opacity="0"/>
</linearGradient>
<linearGradient id="paint20_linear_4947_57396" x1="167.577" y1="123.358" x2="163.839" y2="230.35" gradientUnits="userSpaceOnUse">
<stop stop-color="#D81F60" stop-opacity="0"/>
<stop offset="0.11" stop-color="#D81F60" stop-opacity="0.01"/>
<stop offset="0.19" stop-color="#D81F60" stop-opacity="0.06"/>
<stop offset="0.27" stop-color="#D81F60" stop-opacity="0.14"/>
<stop offset="0.35" stop-color="#D81F60" stop-opacity="0.25"/>
<stop offset="0.42" stop-color="#D81F60" stop-opacity="0.39"/>
<stop offset="0.49" stop-color="#D81F60" stop-opacity="0.57"/>
<stop offset="0.55" stop-color="#D81F60" stop-opacity="0.77"/>
<stop offset="0.62" stop-color="#D81F60"/>
<stop offset="0.66" stop-color="#D21E5F"/>
<stop offset="0.71" stop-color="#C21C5C"/>
<stop offset="0.77" stop-color="#A81957"/>
<stop offset="0.83" stop-color="#841551"/>
<stop offset="0.9" stop-color="#551049"/>
<stop offset="0.97" stop-color="#1D0A3F"/>
<stop offset="1" stop-color="#00073A"/>
</linearGradient>
<linearGradient id="paint21_linear_4947_57396" x1="263.677" y1="213.941" x2="207.786" y2="202.652" gradientUnits="userSpaceOnUse">
<stop stop-color="#E752FF"/>
<stop offset="0.04" stop-color="#D94EFF"/>
<stop offset="0.33" stop-color="#7A32FF"/>
<stop offset="0.53" stop-color="#3E20FF"/>
<stop offset="0.63" stop-color="#271AFF"/>
</linearGradient>
<linearGradient id="paint22_linear_4947_57396" x1="267.295" y1="211.532" x2="163.672" y2="186.206" gradientUnits="userSpaceOnUse">
<stop offset="0.02" stop-color="#E752FF"/>
<stop offset="0.23" stop-color="#B142FF"/>
<stop offset="0.72" stop-color="#2A1BFF"/>
<stop offset="0.74" stop-color="#271AFF"/>
</linearGradient>
<linearGradient id="paint23_linear_4947_57396" x1="230.593" y1="156.937" x2="184.11" y2="226.823" gradientUnits="userSpaceOnUse">
<stop offset="0.13" stop-color="#E752FF"/>
<stop offset="0.23" stop-color="#DD4FFF"/>
<stop offset="0.38" stop-color="#C347FF"/>
<stop offset="0.57" stop-color="#983BFF"/>
<stop offset="0.8" stop-color="#5E2AFF"/>
<stop offset="1" stop-color="#271AFF"/>
</linearGradient>
<linearGradient id="paint24_linear_4947_57396" x1="219.254" y1="150.711" x2="176.83" y2="247.425" gradientUnits="userSpaceOnUse">
<stop offset="0.17" stop-color="#A030B9"/>
<stop offset="0.24" stop-color="#9B2EB8"/>
<stop offset="0.31" stop-color="#8F2BB8"/>
<stop offset="0.38" stop-color="#7B26B7"/>
<stop offset="0.45" stop-color="#5F1FB6"/>
<stop offset="0.52" stop-color="#3B16B5"/>
<stop offset="0.58" stop-color="#0F0AB3"/>
<stop offset="0.61" stop-color="#0007B3"/>
<stop offset="0.99" stop-color="#00073A"/>
</linearGradient>
<linearGradient id="paint25_linear_4947_57396" x1="210.066" y1="174.213" x2="198.833" y2="187.668" gradientUnits="userSpaceOnUse">
<stop stop-color="#A030B9"/>
<stop offset="0.06" stop-color="#9B2EB8"/>
<stop offset="0.12" stop-color="#8F2BB8"/>
<stop offset="0.19" stop-color="#7B26B7"/>
<stop offset="0.25" stop-color="#5F1FB6"/>
<stop offset="0.31" stop-color="#3B16B5"/>
<stop offset="0.37" stop-color="#0F0AB3"/>
<stop offset="0.39" stop-color="#0007B3"/>
<stop offset="0.99" stop-color="#00073A"/>
</linearGradient>
<linearGradient id="paint26_linear_4947_57396" x1="204.894" y1="191.445" x2="193.652" y2="204.901" gradientUnits="userSpaceOnUse">
<stop stop-color="#A030B9"/>
<stop offset="0.06" stop-color="#9B2EB8"/>
<stop offset="0.12" stop-color="#8F2BB8"/>
<stop offset="0.19" stop-color="#7B26B7"/>
<stop offset="0.25" stop-color="#5F1FB6"/>
<stop offset="0.31" stop-color="#3B16B5"/>
<stop offset="0.37" stop-color="#0F0AB3"/>
<stop offset="0.39" stop-color="#0007B3"/>
<stop offset="0.99" stop-color="#00073A"/>
</linearGradient>
<linearGradient id="paint27_linear_4947_57396" x1="200.055" y1="166.13" x2="184.605" y2="206.742" gradientUnits="userSpaceOnUse">
<stop offset="0.21" stop-color="#E752FF"/>
<stop offset="0.24" stop-color="#DD4FFF"/>
<stop offset="0.28" stop-color="#C347FF"/>
<stop offset="0.33" stop-color="#983BFF"/>
<stop offset="0.39" stop-color="#5E2AFF"/>
<stop offset="0.44" stop-color="#271AFF"/>
</linearGradient>
<linearGradient id="paint28_linear_4947_57396" x1="193.789" y1="184.934" x2="178.335" y2="225.555" gradientUnits="userSpaceOnUse">
<stop offset="0.13" stop-color="#E752FF"/>
<stop offset="0.16" stop-color="#DD4FFF"/>
<stop offset="0.21" stop-color="#C347FF"/>
<stop offset="0.27" stop-color="#983BFF"/>
<stop offset="0.33" stop-color="#5E2AFF"/>
<stop offset="0.39" stop-color="#271AFF"/>
</linearGradient>
<linearGradient id="paint29_linear_4947_57396" x1="52.6229" y1="213.07" x2="90.5845" y2="196.068" gradientUnits="userSpaceOnUse">
<stop stop-color="#E752FF"/>
<stop offset="0.04" stop-color="#D94EFF"/>
<stop offset="0.31" stop-color="#7A32FF"/>
<stop offset="0.5" stop-color="#3E20FF"/>
<stop offset="0.58" stop-color="#271AFF"/>
</linearGradient>
<linearGradient id="paint30_linear_4947_57396" x1="40.9768" y1="198.115" x2="146.779" y2="184.516" gradientUnits="userSpaceOnUse">
<stop offset="0.02" stop-color="#E752FF"/>
<stop offset="0.23" stop-color="#B142FF"/>
<stop offset="0.72" stop-color="#2A1BFF"/>
<stop offset="0.74" stop-color="#271AFF"/>
</linearGradient>
<linearGradient id="paint31_linear_4947_57396" x1="115.71" y1="160.413" x2="103.684" y2="229.293" gradientUnits="userSpaceOnUse">
<stop offset="0.23" stop-color="#E752FF"/>
<stop offset="0.36" stop-color="#E55BF7"/>
<stop offset="0.51" stop-color="#E46DEB"/>
<stop offset="0.91" stop-color="#271AFF"/>
</linearGradient>
<linearGradient id="paint32_linear_4947_57396" x1="107.759" y1="171.62" x2="134.779" y2="253.15" gradientUnits="userSpaceOnUse">
<stop offset="0.06" stop-color="#A030B9"/>
<stop offset="0.15" stop-color="#9B2EB8"/>
<stop offset="0.23" stop-color="#8F2BB8"/>
<stop offset="0.32" stop-color="#7B26B7"/>
<stop offset="0.41" stop-color="#5F1FB6"/>
<stop offset="0.49" stop-color="#3B16B5"/>
<stop offset="0.58" stop-color="#0F0AB3"/>
<stop offset="0.61" stop-color="#0007B3"/>
<stop offset="0.99" stop-color="#00073A"/>
</linearGradient>
<linearGradient id="paint33_linear_4947_57396" x1="163.321" y1="213.464" x2="187.702" y2="213.841" gradientUnits="userSpaceOnUse">
<stop stop-color="#A030B9"/>
<stop offset="0.04" stop-color="#9B2EB8"/>
<stop offset="0.08" stop-color="#8F2BB8"/>
<stop offset="0.12" stop-color="#7B26B7"/>
<stop offset="0.17" stop-color="#5F1FB6"/>
<stop offset="0.21" stop-color="#3B16B5"/>
<stop offset="0.25" stop-color="#0F0AB3"/>
<stop offset="0.26" stop-color="#0007B3"/>
<stop offset="0.99" stop-color="#00073A"/>
</linearGradient>
<linearGradient id="paint34_linear_4947_57396" x1="93.3582" y1="188.704" x2="114.45" y2="177.51" gradientUnits="userSpaceOnUse">
<stop stop-color="#A030B9"/>
<stop offset="0.04" stop-color="#9B2EB8"/>
<stop offset="0.08" stop-color="#8F2BB8"/>
<stop offset="0.12" stop-color="#7B26B7"/>
<stop offset="0.16" stop-color="#5F1FB6"/>
<stop offset="0.2" stop-color="#3B16B5"/>
<stop offset="0.23" stop-color="#0F0AB3"/>
<stop offset="0.25" stop-color="#0007B3"/>
<stop offset="0.99" stop-color="#00073A"/>
</linearGradient>
<linearGradient id="paint35_linear_4947_57396" x1="105.822" y1="182.496" x2="118.63" y2="185.718" gradientUnits="userSpaceOnUse">
<stop offset="0.21" stop-color="#E752FF"/>
<stop offset="0.53" stop-color="#A33DFF"/>
<stop offset="0.79" stop-color="#6A2DFF"/>
<stop offset="1" stop-color="#271AFF"/>
</linearGradient>
<linearGradient id="paint36_linear_4947_57396" x1="98.7877" y1="204.871" x2="120.378" y2="195.462" gradientUnits="userSpaceOnUse">
<stop stop-color="#A030B9"/>
<stop offset="0.04" stop-color="#9B2EB8"/>
<stop offset="0.08" stop-color="#8F2BB8"/>
<stop offset="0.12" stop-color="#7B26B7"/>
<stop offset="0.16" stop-color="#5F1FB6"/>
<stop offset="0.2" stop-color="#3B16B5"/>
<stop offset="0.23" stop-color="#0F0AB3"/>
<stop offset="0.25" stop-color="#0007B3"/>
<stop offset="0.99" stop-color="#00073A"/>
</linearGradient>
<linearGradient id="paint37_linear_4947_57396" x1="110.783" y1="197.903" x2="123.089" y2="200.551" gradientUnits="userSpaceOnUse">
<stop offset="0.21" stop-color="#E752FF"/>
<stop offset="0.53" stop-color="#A33DFF"/>
<stop offset="0.79" stop-color="#6A2DFF"/>
<stop offset="1" stop-color="#271AFF"/>
</linearGradient>
<clipPath id="clip0_4947_57396">
<rect width="296.667" height="220" fill="white"/>
</clipPath>
</defs>
</svg>
