<svg width="486" height="289" viewBox="0 0 486 289" fill="none" xmlns="http://www.w3.org/2000/svg">
<g clip-path="url(#clip0_5089_48450)">
<rect width="486" height="289" rx="24" fill="#210340"/>
<path d="M44.9654 97.4069C126.42 82.4651 158.194 47 240.792 47C323.391 47 357.661 78.2183 426.461 97.4069C470.837 109.783 518.541 114.29 559.087 113.839C671.24 106.611 690.62 71.4234 775.437 70.9901C847.826 70.6261 884.974 99.4003 942.142 111.239C1009.35 125.158 1085.67 124.968 1118.16 124.084C1123.86 123.928 1129.86 123.754 1134.02 123.633V235.402C1131.3 233.443 1128.19 231.259 1126.03 229.838C1041.69 174.213 935.659 172.723 864.484 213.163C795.372 252.424 739.139 278.997 667.929 261.819C620.416 250.361 581.136 221.084 542.654 201.844C484.306 172.671 432.129 166.933 348.716 191.547C288.098 209.436 241.988 228.416 178.371 228.832C102.88 229.335 53.2339 215.676 6.96836 177.836C5.11358 176.328 2.37471 173.953 -0.000108374 171.873V105.554C1.29997 105.329 2.6001 105.103 3.62283 104.93C15.3756 102.867 28.8444 100.388 44.9827 97.4243L44.9654 97.4069Z" fill="url(#paint0_linear_5089_48450)"/>
<path d="M6.9682 177.819C53.2338 215.658 102.88 229.317 178.371 228.815C241.988 228.399 288.098 209.418 348.716 191.53C432.129 166.916 484.289 172.653 542.654 201.826C581.153 221.067 620.433 250.343 667.929 261.801C739.139 278.962 795.372 252.406 864.484 213.145C935.659 172.705 1041.69 174.178 1126.03 229.82C1128.19 231.242 1131.3 233.443 1134.02 235.384V348.332H0.017087V171.873C2.40924 173.953 5.13077 176.31 6.98556 177.836L6.9682 177.819Z" fill="url(#paint1_linear_5089_48450)"/>
<g filter="url(#filter0_dd_5089_48450)">
<g clip-path="url(#clip1_5089_48450)">
<path d="M139 52.761C139 46.2656 144.266 41 150.761 41H355.403C361.898 41 367.164 46.2656 367.164 52.761V231.528C367.164 238.024 361.898 243.289 355.403 243.289H150.761C144.266 243.289 139 238.024 139 231.528V52.761Z" fill="#310B59"/>
<g clip-path="url(#clip2_5089_48450)">
</g>
<rect x="164.249" y="118.65" width="31.6249" height="170.144" rx="9.45" transform="rotate(-90 164.249 118.65)" fill="url(#paint2_linear_5089_48450)"/>
<rect x="167.942" y="114.98" width="24.9165" height="24.2046" rx="7.11899" transform="rotate(-90 167.942 114.98)" fill="url(#paint3_linear_5089_48450)" fill-opacity="0.6"/>
<path d="M173.699 156.215C168.48 156.215 164.249 151.984 164.249 146.765L164.249 134.04C164.249 128.821 168.48 124.59 173.699 124.59L324.943 124.59C330.162 124.59 334.393 128.821 334.393 134.04L334.393 146.765C334.393 151.984 330.162 156.215 324.943 156.215L173.699 156.215Z" fill="url(#paint4_linear_5089_48450)"/>
<path d="M175.06 152.664C171.128 152.664 167.941 149.477 167.941 145.545L167.941 134.867C167.941 130.935 171.128 127.748 175.06 127.748L185.026 127.748C188.958 127.748 192.145 130.935 192.145 134.867L192.145 145.545C192.145 149.477 188.958 152.664 185.026 152.664L175.06 152.664Z" fill="url(#paint5_linear_5089_48450)" fill-opacity="0.6"/>
<path d="M173.699 193.777C168.48 193.777 164.249 189.546 164.249 184.327L164.249 171.602C164.249 166.383 168.48 162.152 173.699 162.152L324.943 162.152C330.162 162.152 334.393 166.383 334.393 171.602L334.393 184.327C334.393 189.546 330.162 193.777 324.943 193.777L173.699 193.777Z" fill="url(#paint6_linear_5089_48450)"/>
<path d="M175.061 190.355C171.129 190.355 167.942 187.168 167.942 183.236L167.942 172.558C167.942 168.626 171.129 165.439 175.061 165.439L185.028 165.439C188.959 165.439 192.147 168.626 192.147 172.558L192.147 183.236C192.147 187.168 188.959 190.355 185.028 190.355L175.061 190.355Z" fill="url(#paint7_linear_5089_48450)" fill-opacity="0.6"/>
<path d="M173.699 231.342C168.48 231.342 164.249 227.111 164.249 221.892L164.249 209.167C164.249 203.948 168.48 199.717 173.699 199.717L324.943 199.717C330.162 199.717 334.393 203.948 334.393 209.167L334.393 221.892C334.393 227.111 330.162 231.342 324.943 231.342L173.699 231.342Z" fill="url(#paint8_linear_5089_48450)"/>
<path d="M175.06 228.041C171.128 228.041 167.941 224.854 167.941 220.922L167.941 210.244C167.941 206.312 171.128 203.125 175.06 203.125L185.026 203.125C188.958 203.125 192.145 206.312 192.145 210.244L192.145 220.922C192.145 224.854 188.958 228.041 185.026 228.041L175.06 228.041Z" fill="url(#paint9_linear_5089_48450)" fill-opacity="0.6"/>
<path d="M188.703 75.7026H169.772C168.032 75.7026 166.617 74.2876 166.617 72.5476V56.7722C166.617 55.0322 168.032 53.6172 169.772 53.6172H175.519C176.411 53.6172 177.266 53.9974 177.864 54.6615C179.074 56.0051 180.797 56.7722 182.605 56.7722H188.703C190.443 56.7722 191.858 58.1873 191.858 59.9273V72.5476C191.858 74.2876 190.443 75.7026 188.703 75.7026Z" fill="#764EDD"/>
<rect x="197.797" y="71.7129" width="14.105" height="136.596" rx="7.05249" transform="rotate(-90 197.797 71.7129)" fill="url(#paint10_linear_5089_48450)"/>
</g>
<path d="M150.761 41.3711H355.402C361.693 41.3711 366.792 46.4704 366.792 52.7607V231.528C366.792 237.819 361.693 242.918 355.402 242.918H150.761C144.47 242.918 139.371 237.819 139.371 231.528V52.7607C139.371 46.4705 144.471 41.3712 150.761 41.3711Z" stroke="#764EDD" stroke-opacity="0.2" stroke-width="0.742367"/>
</g>
<path d="M392.254 150.444C392.082 148.281 387.271 147.744 385.187 144.56C384.531 143.561 384.36 141.923 384.36 140.131C384.36 138.566 384.485 136.894 384.542 135.427C384.68 131.991 384.537 130.102 384.571 124.291C384.6 119.68 384.029 114.565 381.905 113.367C379.936 112.248 376.757 114.423 372.242 118.572C369.725 120.89 368.07 122.887 366.346 124.314C366.243 124.4 366.141 124.491 366.032 124.577C365.93 124.657 363.344 123.989 361.831 123.686C361.506 123.624 361.306 123.241 361.141 122.568C360.776 121.055 360.581 118.042 359.526 113.635C358.213 108.15 356.432 105.467 353.858 105.245C351.689 105.062 347.927 110.524 345.028 115.096C342.625 118.881 342.448 119.269 341.512 120.633C340.827 121.626 340.045 122.802 339.194 123.983C337.442 126.415 335.422 128.84 333.487 129.611C329.834 131.061 327.014 129.109 325.656 130.792C324.355 132.408 325.77 132.71 326.061 132.99C333.886 134.965 335.758 145.387 339.377 144.485C342.459 143.715 344.491 146.991 350.844 147.785C357.162 148.572 357.887 151.98 362.625 151.095C372.596 149.24 380.935 148.789 390.616 152.311C390.119 151.551 392.362 151.837 392.254 150.444Z" fill="url(#paint11_linear_5089_48450)"/>
<path d="M376.261 130.923C379.537 134.719 382.916 138.566 384.36 140.136C384.36 138.571 384.486 136.899 384.543 135.432C384.68 131.996 384.537 130.107 384.572 124.296C384.6 119.685 384.029 114.57 381.906 113.372C379.937 112.253 376.758 114.428 372.243 118.577C369.726 120.895 368.07 122.892 366.347 124.319C368.402 125.056 372.876 127.002 376.261 130.923Z" fill="url(#paint12_linear_5089_48450)"/>
<path d="M361.146 122.568C360.781 121.055 360.587 118.042 359.531 113.635C358.218 108.15 356.437 105.467 353.863 105.245C351.694 105.062 347.933 110.524 345.033 115.096C342.631 118.881 342.453 119.269 341.517 120.633C340.833 121.626 340.051 122.802 339.2 123.983C341.683 123.572 346.118 122.779 350.462 121.974C354.742 121.175 358.726 121.9 361.14 122.568H361.146Z" fill="url(#paint13_linear_5089_48450)"/>
<path d="M390.615 152.315C381.197 148.89 372.961 149.227 363.218 150.996C362.236 151.173 361.437 151.333 360.364 151.196C362.544 153.519 356.197 159.524 348.652 158.086C346.078 157.595 343.994 156.801 342.333 155.837C336.762 152.589 336.129 147.446 338.155 144.827C338.247 144.712 338.338 144.592 338.441 144.473C335.375 143.588 333.184 134.804 326.061 133.006C326.123 133.063 326.135 133.12 326.061 133.189C325.359 133.851 322.39 132.566 321.654 134.49C321.055 136.065 324.24 136.35 324.006 137.081C323.68 138.08 321.397 137.829 321.095 138.833C320.587 140.511 321.677 140.409 324.457 142.926C325.861 144.193 327.687 146.128 329.965 149.29C333.583 154.324 333.829 165.865 333.383 173.793C333.161 177.76 331.141 186.579 330.912 191.236C330.672 196.025 331.175 200.334 331.295 204.13C331.323 205.991 331.295 208.588 330.861 210.426C329.776 215.888 326.552 216.761 325.376 223.942C323.606 234.746 335.364 238.804 335.239 238.839C335.21 238.844 335.17 238.856 335.124 238.867C335.724 238.936 336.312 239.01 336.883 239.078C339.451 239.392 341.683 239.689 343.6 239.957C344.342 240.06 345.13 240.163 345.786 240.26C345.587 241.441 345.273 242.811 344.97 243.696C344.548 244.935 344.109 247.189 344.725 248.222C345.958 250.305 353.6 249.992 353.954 247.532C354.131 246.333 354.245 244.866 354.314 243.205C354.314 243.211 354.314 243.216 354.314 243.222C355.182 243.182 355.239 243.194 355.804 243.228C355.809 243.473 355.901 245.756 356.163 247.532C356.523 249.992 364.16 250.305 365.393 248.222C366.003 247.195 365.575 244.94 365.147 243.696C364.947 243.114 364.736 242.292 364.559 241.447C365.518 241.253 376.614 238.981 377.55 238.833C377.561 238.787 377.624 238.747 377.739 238.707C382.824 236.95 388.594 229.164 385.929 221.887C384.405 217.72 381.574 215.745 379.987 212.966C376.705 207.206 379.211 205.859 377.767 190.488C377.139 183.793 375.381 175.905 374.668 171.824C373.252 163.719 375.084 163.771 379.862 162.441C386.026 160.722 388.127 161.807 388.954 159.878C389.348 158.97 387.881 158.331 388.201 157.395C388.709 155.928 392.824 157.15 393.126 155.625C393.515 153.668 391.1 153.051 390.621 152.321L390.615 152.315Z" fill="url(#paint14_linear_5089_48450)"/>
<path opacity="0.6" d="M390.615 152.315C381.197 148.89 372.961 149.227 363.218 150.996C362.236 151.173 361.437 151.333 360.364 151.196C362.544 153.519 356.197 159.524 348.652 158.086C346.078 157.595 343.994 156.801 342.333 155.837C336.762 152.589 336.129 147.446 338.155 144.827C338.247 144.712 338.338 144.592 338.441 144.473C335.375 143.588 333.184 134.804 326.061 133.006C326.123 133.063 326.135 133.12 326.061 133.189C325.359 133.851 322.39 132.566 321.654 134.49C321.055 136.065 324.24 136.35 324.006 137.081C323.68 138.08 321.397 137.829 321.095 138.833C320.587 140.511 321.677 140.409 324.457 142.926C325.861 144.193 327.687 146.128 329.965 149.29C333.583 154.324 333.829 165.865 333.383 173.793C333.161 177.76 331.141 186.579 330.912 191.236C330.672 196.025 331.175 200.334 331.295 204.13C331.323 205.991 331.295 208.588 330.861 210.426C329.776 215.888 326.552 216.761 325.376 223.942C323.606 234.746 335.364 238.804 335.239 238.839C335.21 238.844 335.17 238.856 335.124 238.867C335.724 238.936 336.312 239.01 336.883 239.078C339.451 239.392 341.683 239.689 343.6 239.957C344.342 240.06 345.13 240.163 345.786 240.26C345.587 241.441 345.273 242.811 344.97 243.696C344.548 244.935 344.109 247.189 344.725 248.222C345.958 250.305 353.6 249.992 353.954 247.532C354.131 246.333 354.245 244.866 354.314 243.205C354.314 243.211 354.314 243.216 354.314 243.222C355.182 243.182 355.239 243.194 355.804 243.228C355.809 243.473 355.901 245.756 356.163 247.532C356.523 249.992 364.16 250.305 365.393 248.222C366.003 247.195 365.575 244.94 365.147 243.696C364.947 243.114 364.736 242.292 364.559 241.447C365.518 241.253 376.614 238.981 377.55 238.833C377.561 238.787 377.624 238.747 377.739 238.707C382.824 236.95 388.594 229.164 385.929 221.887C384.405 217.72 381.574 215.745 379.987 212.966C376.705 207.206 379.211 205.859 377.767 190.488C377.139 183.793 375.381 175.905 374.668 171.824C373.252 163.719 375.084 163.771 379.862 162.441C386.026 160.722 388.127 161.807 388.954 159.878C389.348 158.97 387.881 158.331 388.201 157.395C388.709 155.928 392.824 157.15 393.126 155.625C393.515 153.668 391.1 153.051 390.621 152.321L390.615 152.315Z" fill="url(#paint15_linear_5089_48450)"/>
<path d="M343.698 239.951C341.78 239.683 339.549 239.386 336.98 239.072C336.41 239.004 335.827 238.93 335.222 238.861C334.486 239.015 331.461 239.506 329.258 242.2C328.476 243.153 328.213 243.901 328.208 244.518C328.208 244.929 328.316 245.282 328.476 245.591C329.201 247.001 332.728 246.864 334.766 246.321C335.919 246.013 337.414 245.671 339.075 245.339C340.885 244.98 342.888 244.632 344.863 244.358C344.926 244.135 344.988 243.913 345.068 243.69C345.359 242.839 345.679 241.475 345.879 240.271C345.205 240.168 344.469 240.065 343.693 239.951H343.698Z" fill="url(#paint16_linear_5089_48450)"/>
<path d="M382.704 242.507C382.242 241.942 381.443 241.303 380.147 240.55C378.503 239.596 377.036 239.174 377.236 238.883C376.973 238.923 376.711 238.968 376.437 239.025C370.866 240.156 367.122 240.806 364.593 241.172C364.782 242.113 365.022 243.05 365.238 243.689C365.312 243.906 365.381 244.123 365.438 244.339C365.461 244.431 365.484 244.522 365.506 244.614C370.37 245.355 372.51 246.274 376.42 246.474C380.798 246.697 382.156 246.257 382.898 244.944C383.298 244.231 383.497 243.478 382.704 242.507Z" fill="url(#paint17_linear_5089_48450)"/>
<path opacity="0.38" d="M345.712 225.129C343.845 218.045 338.103 212.526 330.877 210.928C330.775 211.379 330.643 211.812 330.495 212.241C330.495 212.258 330.484 212.269 330.478 212.286C330.261 212.914 330.01 213.525 329.684 214.107C328.086 217.006 326.271 219.033 325.472 223.941C323.703 234.746 335.461 238.804 335.335 238.839C335.307 238.844 335.267 238.856 335.221 238.867C335.82 238.936 336.408 239.01 336.979 239.078C339.548 239.392 341.779 239.689 343.697 239.958C344.936 237.834 345.786 235.46 346.151 232.926C346.083 230.551 345.929 227.897 345.712 225.129Z" fill="url(#paint18_radial_5089_48450)"/>
<path d="M353.538 217.942C353.156 218.398 352.928 221.395 352.437 221.646C352.043 221.846 351.849 219.294 351.444 216.994C351.335 216.372 350.913 214.357 350.804 213.758C350.291 210.876 350.285 211.104 349.857 208.752C349.771 210.63 349.6 211.132 349.258 214.009C349.092 215.407 348.852 217.085 348.658 218.016C348.487 218.826 348.219 215.807 348.059 215.013C347.26 211.161 346.701 210.128 345.622 206.292C345.011 204.123 343.099 202.12 342.911 200.738C343.784 206.657 345.045 216.452 345.724 225.133C345.941 227.896 346.096 230.55 346.164 232.93C346.227 235.213 346.21 237.251 346.079 238.883C346.044 239.288 345.981 239.768 345.896 240.282C345.696 241.486 345.377 242.85 345.085 243.7C345.011 243.923 344.943 244.146 344.88 244.368C344.434 246.012 344.434 247.542 344.84 248.227C346.073 250.31 353.715 249.996 354.069 247.536C354.246 246.332 354.36 244.865 354.429 243.198C354.686 236.92 354.246 227.696 353.55 217.947L353.538 217.942Z" fill="url(#paint19_linear_5089_48450)"/>
<path d="M365.444 244.34C365.387 244.123 365.318 243.906 365.244 243.689C365.021 243.044 364.787 242.108 364.599 241.172C364.433 240.344 364.297 239.511 364.245 238.878C363.555 230.207 365.986 210.356 367.413 200.738C367.225 202.125 365.312 204.123 364.702 206.292C363.623 210.128 363.064 211.161 362.265 215.013C362.099 215.812 361.836 218.832 361.665 218.016C361.466 217.085 361.231 215.407 361.066 214.009C360.723 211.126 360.552 210.63 360.467 208.752C360.038 211.104 360.038 210.881 359.519 213.758C359.411 214.351 358.994 216.366 358.88 216.994C358.475 219.3 358.281 221.846 357.887 221.646C357.39 221.395 357.168 218.398 356.785 217.942C356.089 227.685 355.649 236.908 355.906 243.187C355.975 244.854 356.089 246.326 356.266 247.53C356.625 249.991 364.262 250.304 365.495 248.221C365.877 247.57 365.895 246.161 365.518 244.614C365.495 244.522 365.478 244.431 365.45 244.34H365.444Z" fill="url(#paint20_linear_5089_48450)"/>
<path opacity="0.6" d="M354.394 172.09C354.394 172.09 346.306 178.066 348.486 192.027C350.233 203.208 351.66 205.794 352.761 212.889C353.863 219.983 355.039 228.174 355.039 228.174C355.039 228.174 356.032 220.252 357.368 212.706C358.321 207.313 360.233 200.052 361.26 191.325C362.91 177.272 354.394 172.084 354.394 172.084V172.09Z" fill="url(#paint21_linear_5089_48450)"/>
<path d="M346.472 140.732C351.113 141.354 354.412 148.517 359.572 150.658C363.693 152.364 356.883 159.653 348.658 158.078C337.58 155.966 335.456 148.318 338.162 144.819C339.612 142.941 342.579 140.207 346.472 140.732Z" fill="#FFC635"/>
<path d="M346.33 141.891C344.675 141.348 343.522 141.765 343.02 142.347C342.403 143.061 342.495 145.001 344.527 145.669C346.456 146.303 348.139 145.064 348.214 144.077C348.265 143.375 347.786 142.364 346.324 141.891H346.33Z" fill="#00073A"/>
<path d="M365.215 137.524C367.207 138.083 367.887 139.767 366.089 143.443C364.679 146.331 363.423 146.2 361.551 145.646C360.569 145.355 359.394 143.854 360.461 141.651C361.916 138.643 363.132 136.942 365.215 137.529V137.524Z" fill="url(#paint22_linear_5089_48450)"/>
<path d="M362.42 143.119C362.658 142.621 362.479 142.04 362.021 141.822C361.563 141.603 360.999 141.829 360.762 142.327C360.524 142.825 360.702 143.406 361.161 143.625C361.618 143.843 362.182 143.617 362.42 143.119Z" fill="white"/>
<path d="M348.709 130.662C351.335 131.273 351.044 133.567 349.246 136.969C348.121 139.098 346.9 139.047 345.034 138.493C344.057 138.208 342.762 137.141 344.286 134.224C345.519 131.855 347.06 130.274 348.715 130.662H348.709Z" fill="url(#paint23_linear_5089_48450)"/>
<path d="M346.226 136.301C346.471 135.789 346.288 135.192 345.819 134.968C345.35 134.744 344.77 134.978 344.526 135.49C344.282 136.002 344.464 136.598 344.933 136.823C345.403 137.046 345.982 136.813 346.226 136.301Z" fill="white"/>
<path d="M139.529 226.953C139.529 226.953 132.355 226.925 127.275 225.258C110.574 219.79 101.482 209.362 95.8253 197.13C93.8162 192.792 93 185.413 93 185.413C93 185.413 94.2157 186.543 95.871 187.838C97.1838 188.866 98.137 189.203 98.137 189.203C98.137 189.203 97.0753 186.885 96.4189 183.5C94.0902 171.52 96.8242 162.867 102.018 153.911C109.193 141.543 116.213 136.537 119.712 126.657C120.962 123.118 121.31 120.27 120.431 117.564C119.381 114.322 113.074 111.885 113.074 111.885C113.074 111.885 122.246 108.9 133.297 114.699C139.649 118.033 145.271 122.342 148.593 127.205C156.852 139.294 157.909 147.028 155.608 161.565C153.428 175.327 144.621 186.885 141.339 192.752C140.768 193.774 139.535 197.187 139.535 197.838V226.948L139.529 226.953Z" fill="url(#paint24_linear_5089_48450)"/>
<path opacity="0.7" d="M147.765 142.847C146.235 137.259 145.294 135.695 142.126 130.843C139.991 127.567 137.925 126.174 137.925 126.174L139.392 130.587L140.448 134.759C141.041 135.147 138.61 131.882 134.871 128.184C132.246 125.587 128.205 123.84 128.205 123.84C128.205 123.84 131.607 128.754 133.787 133.594C135.967 138.435 136.926 148.583 136.435 151.585C135.551 157.007 143.01 154.947 146.287 155.541C149.563 156.134 149.306 151.694 147.759 142.835L147.765 142.847Z" fill="url(#paint25_linear_5089_48450)"/>
<path d="M139.528 213.332C137.919 212.521 136.337 211.642 134.819 210.683C130.67 208.063 127.359 205.261 124.032 200.991C122.439 198.948 120.139 194.17 120.139 194.17C120.139 194.17 124.671 198.919 127.371 200.791C129.631 202.356 134.722 204.342 134.722 204.342C134.722 204.342 130.755 201.214 129.049 199.484C124.956 195.329 121.948 190.575 119.956 185.455C116.925 177.652 116.252 169.005 117.707 160.352C118.267 157.036 120.299 150.455 120.299 150.455C120.299 150.455 114.106 156.357 111.806 162.07C108.82 169.496 109.203 178.332 109.203 178.332C109.203 178.332 107.433 175.432 106.629 173.777C105.887 172.253 105.122 168.822 105.122 168.822C105.122 168.822 104.003 173.2 103.946 178.212C103.843 187.287 105.133 194.365 109.528 202.184C113.147 208.611 122.217 215.683 132.376 220.066C134.562 221.008 137.022 221.608 139.517 222.019V213.337L139.528 213.332Z" fill="url(#paint26_radial_5089_48450)"/>
</g>
<defs>
<filter id="filter0_dd_5089_48450" x="127" y="32" width="252.164" height="226.289" filterUnits="userSpaceOnUse" color-interpolation-filters="sRGB">
<feFlood flood-opacity="0" result="BackgroundImageFix"/>
<feColorMatrix in="SourceAlpha" type="matrix" values="0 0 0 0 0 0 0 0 0 0 0 0 0 0 0 0 0 0 127 0" result="hardAlpha"/>
<feOffset dy="3"/>
<feGaussianBlur stdDeviation="6"/>
<feComposite in2="hardAlpha" operator="out"/>
<feColorMatrix type="matrix" values="0 0 0 0 0 0 0 0 0 0 0 0 0 0 0 0 0 0 0.1 0"/>
<feBlend mode="normal" in2="BackgroundImageFix" result="effect1_dropShadow_5089_48450"/>
<feColorMatrix in="SourceAlpha" type="matrix" values="0 0 0 0 0 0 0 0 0 0 0 0 0 0 0 0 0 0 127 0" result="hardAlpha"/>
<feOffset dy="0.375"/>
<feGaussianBlur stdDeviation="0.75"/>
<feComposite in2="hardAlpha" operator="out"/>
<feColorMatrix type="matrix" values="0 0 0 0 0 0 0 0 0 0 0 0 0 0 0 0 0 0 0.05 0"/>
<feBlend mode="normal" in2="effect1_dropShadow_5089_48450" result="effect2_dropShadow_5089_48450"/>
<feBlend mode="normal" in="SourceGraphic" in2="effect2_dropShadow_5089_48450" result="shape"/>
</filter>
<linearGradient id="paint0_linear_5089_48450" x1="567.563" y1="194.875" x2="565.136" y2="-5.31366" gradientUnits="userSpaceOnUse">
<stop stop-color="#210340"/>
<stop offset="0.23" stop-color="#29074C"/>
<stop offset="0.65" stop-color="#3E126D"/>
<stop offset="1" stop-color="#541D8F"/>
</linearGradient>
<linearGradient id="paint1_linear_5089_48450" x1="564.634" y1="301.374" x2="574.011" y2="138.349" gradientUnits="userSpaceOnUse">
<stop stop-color="#210340"/>
<stop offset="0.23" stop-color="#29074C"/>
<stop offset="0.65" stop-color="#3E126D"/>
<stop offset="1" stop-color="#541D8F"/>
</linearGradient>
<linearGradient id="paint2_linear_5089_48450" x1="179.7" y1="424.715" x2="179.7" y2="158.215" gradientUnits="userSpaceOnUse">
<stop stop-color="#210340"/>
<stop offset="0.23" stop-color="#29074C"/>
<stop offset="0.65" stop-color="#3E126D"/>
<stop offset="1" stop-color="#541D8F"/>
</linearGradient>
<linearGradient id="paint3_linear_5089_48450" x1="174.468" y1="113.88" x2="184.576" y2="139.989" gradientUnits="userSpaceOnUse">
<stop stop-color="#3A1067"/>
<stop offset="1" stop-color="#764EDD"/>
</linearGradient>
<linearGradient id="paint4_linear_5089_48450" x1="470.313" y1="140.764" x2="203.813" y2="140.764" gradientUnits="userSpaceOnUse">
<stop stop-color="#210340"/>
<stop offset="0.23" stop-color="#29074C"/>
<stop offset="0.65" stop-color="#3E126D"/>
<stop offset="1" stop-color="#541D8F"/>
</linearGradient>
<linearGradient id="paint5_linear_5089_48450" x1="166.841" y1="146.138" x2="192.95" y2="136.03" gradientUnits="userSpaceOnUse">
<stop stop-color="#3A1067"/>
<stop offset="1" stop-color="#764EDD"/>
</linearGradient>
<linearGradient id="paint6_linear_5089_48450" x1="470.313" y1="178.326" x2="203.813" y2="178.326" gradientUnits="userSpaceOnUse">
<stop stop-color="#210340"/>
<stop offset="0.23" stop-color="#29074C"/>
<stop offset="0.65" stop-color="#3E126D"/>
<stop offset="1" stop-color="#541D8F"/>
</linearGradient>
<linearGradient id="paint7_linear_5089_48450" x1="166.842" y1="183.83" x2="192.951" y2="173.721" gradientUnits="userSpaceOnUse">
<stop stop-color="#3A1067"/>
<stop offset="1" stop-color="#764EDD"/>
</linearGradient>
<linearGradient id="paint8_linear_5089_48450" x1="470.313" y1="215.891" x2="203.813" y2="215.891" gradientUnits="userSpaceOnUse">
<stop stop-color="#210340"/>
<stop offset="0.23" stop-color="#29074C"/>
<stop offset="0.65" stop-color="#3E126D"/>
<stop offset="1" stop-color="#541D8F"/>
</linearGradient>
<linearGradient id="paint9_linear_5089_48450" x1="166.841" y1="221.515" x2="192.95" y2="211.407" gradientUnits="userSpaceOnUse">
<stop stop-color="#3A1067"/>
<stop offset="1" stop-color="#764EDD"/>
</linearGradient>
<linearGradient id="paint10_linear_5089_48450" x1="204.795" y1="295.666" x2="313.226" y2="162.158" gradientUnits="userSpaceOnUse">
<stop stop-color="#210340"/>
<stop offset="0.23" stop-color="#29074C"/>
<stop offset="0.65" stop-color="#3E126D"/>
<stop offset="1" stop-color="#541D8F"/>
</linearGradient>
<linearGradient id="paint11_linear_5089_48450" x1="370.701" y1="104.36" x2="347.899" y2="174.388" gradientUnits="userSpaceOnUse">
<stop offset="0.17" stop-color="#FF6600"/>
<stop offset="0.54" stop-color="#FF9C00"/>
<stop offset="0.9" stop-color="#FF6700"/>
<stop offset="0.91" stop-color="#FF6600"/>
</linearGradient>
<linearGradient id="paint12_linear_5089_48450" x1="376.87" y1="129.919" x2="389.058" y2="110.617" gradientUnits="userSpaceOnUse">
<stop stop-color="#FF6600" stop-opacity="0"/>
<stop offset="0.11" stop-color="#FF6600" stop-opacity="0.3"/>
<stop offset="0.23" stop-color="#FF6600" stop-opacity="0.6"/>
<stop offset="0.32" stop-color="#FF6600" stop-opacity="0.82"/>
<stop offset="0.4" stop-color="#FF6600" stop-opacity="0.95"/>
<stop offset="0.43" stop-color="#FF6600"/>
<stop offset="0.72" stop-color="#FD4737"/>
<stop offset="1" stop-color="#FB2872"/>
</linearGradient>
<linearGradient id="paint13_linear_5089_48450" x1="350.281" y1="121.62" x2="352.99" y2="98.9063" gradientUnits="userSpaceOnUse">
<stop stop-color="#FF6600" stop-opacity="0"/>
<stop offset="0.03" stop-color="#FF6600" stop-opacity="0.17"/>
<stop offset="0.07" stop-color="#FF6600" stop-opacity="0.36"/>
<stop offset="0.11" stop-color="#FF6600" stop-opacity="0.53"/>
<stop offset="0.15" stop-color="#FF6600" stop-opacity="0.68"/>
<stop offset="0.2" stop-color="#FF6600" stop-opacity="0.8"/>
<stop offset="0.24" stop-color="#FF6600" stop-opacity="0.89"/>
<stop offset="0.29" stop-color="#FF6600" stop-opacity="0.95"/>
<stop offset="0.35" stop-color="#FF6600" stop-opacity="0.99"/>
<stop offset="0.42" stop-color="#FF6600"/>
<stop offset="0.7" stop-color="#FD4737"/>
<stop offset="0.97" stop-color="#FB2872"/>
</linearGradient>
<linearGradient id="paint14_linear_5089_48450" x1="357.071" y1="130.865" x2="357.071" y2="256.749" gradientUnits="userSpaceOnUse">
<stop stop-color="#FF6600"/>
<stop offset="0.01" stop-color="#FF7408"/>
<stop offset="0.04" stop-color="#FF8A14"/>
<stop offset="0.07" stop-color="#FF9B1D"/>
<stop offset="0.11" stop-color="#FFA724"/>
<stop offset="0.17" stop-color="#FFAE27"/>
<stop offset="0.33" stop-color="#FFB029"/>
<stop offset="0.46" stop-color="#FF9218"/>
<stop offset="0.63" stop-color="#FF6600"/>
<stop offset="0.64" stop-color="#FE5D0F"/>
<stop offset="0.69" stop-color="#FD4A32"/>
<stop offset="0.74" stop-color="#FC3B4E"/>
<stop offset="0.79" stop-color="#FB3062"/>
<stop offset="0.84" stop-color="#FB2A6E"/>
<stop offset="0.89" stop-color="#FB2872"/>
</linearGradient>
<linearGradient id="paint15_linear_5089_48450" x1="357.071" y1="130.865" x2="357.071" y2="256.749" gradientUnits="userSpaceOnUse">
<stop stop-color="#FFEB49" stop-opacity="0.8"/>
<stop offset="0.22" stop-color="#FFD13A" stop-opacity="0.64"/>
<stop offset="0.7" stop-color="#FF8F17" stop-opacity="0.25"/>
<stop offset="1" stop-color="#FF6600" stop-opacity="0"/>
</linearGradient>
<linearGradient id="paint16_linear_5089_48450" x1="385.793" y1="223.251" x2="309.035" y2="253.838" gradientUnits="userSpaceOnUse">
<stop offset="0.02" stop-color="#BE0449" stop-opacity="0"/>
<stop offset="0.51" stop-color="#FB2872"/>
<stop offset="0.67" stop-color="#A31C5E"/>
<stop offset="0.83" stop-color="#4C104A"/>
<stop offset="0.94" stop-color="#15093E"/>
<stop offset="1" stop-color="#00073A"/>
</linearGradient>
<linearGradient id="paint17_linear_5089_48450" x1="342.79" y1="230.572" x2="395.17" y2="251.052" gradientUnits="userSpaceOnUse">
<stop stop-color="#BE0449" stop-opacity="0"/>
<stop offset="0.41" stop-color="#FB2872"/>
<stop offset="1" stop-color="#00073A"/>
</linearGradient>
<radialGradient id="paint18_radial_5089_48450" cx="0" cy="0" r="1" gradientUnits="userSpaceOnUse" gradientTransform="translate(326.688 232.8) scale(32.5113 32.5113)">
<stop stop-color="#FFEB49"/>
<stop offset="0.05" stop-color="#FFE546" stop-opacity="0.96"/>
<stop offset="0.14" stop-color="#FFD73E" stop-opacity="0.85"/>
<stop offset="0.25" stop-color="#FFC031" stop-opacity="0.68"/>
<stop offset="0.38" stop-color="#FFA01F" stop-opacity="0.44"/>
<stop offset="0.53" stop-color="#FF7709" stop-opacity="0.13"/>
<stop offset="0.59" stop-color="#FF6600" stop-opacity="0"/>
</radialGradient>
<linearGradient id="paint19_linear_5089_48450" x1="348.008" y1="201.509" x2="350.239" y2="260.841" gradientUnits="userSpaceOnUse">
<stop offset="0.01" stop-color="#BE0449" stop-opacity="0"/>
<stop offset="0.06" stop-color="#BF054A" stop-opacity="0.04"/>
<stop offset="0.14" stop-color="#C2084C" stop-opacity="0.16"/>
<stop offset="0.23" stop-color="#C70D51" stop-opacity="0.36"/>
<stop offset="0.35" stop-color="#CE1457" stop-opacity="0.63"/>
<stop offset="0.48" stop-color="#D71E5F" stop-opacity="0.97"/>
<stop offset="0.49" stop-color="#D81F60"/>
<stop offset="0.56" stop-color="#D31E5F"/>
<stop offset="0.63" stop-color="#C71D5D"/>
<stop offset="0.7" stop-color="#B31A59"/>
<stop offset="0.77" stop-color="#971754"/>
<stop offset="0.84" stop-color="#73134E"/>
<stop offset="0.91" stop-color="#460E46"/>
<stop offset="0.98" stop-color="#13093D"/>
<stop offset="1" stop-color="#00073A"/>
</linearGradient>
<linearGradient id="paint20_linear_5089_48450" x1="362.59" y1="190.63" x2="360.124" y2="261.28" gradientUnits="userSpaceOnUse">
<stop stop-color="#D81F60" stop-opacity="0"/>
<stop offset="0.11" stop-color="#D81F60" stop-opacity="0.01"/>
<stop offset="0.19" stop-color="#D81F60" stop-opacity="0.06"/>
<stop offset="0.27" stop-color="#D81F60" stop-opacity="0.14"/>
<stop offset="0.35" stop-color="#D81F60" stop-opacity="0.25"/>
<stop offset="0.42" stop-color="#D81F60" stop-opacity="0.39"/>
<stop offset="0.49" stop-color="#D81F60" stop-opacity="0.57"/>
<stop offset="0.55" stop-color="#D81F60" stop-opacity="0.77"/>
<stop offset="0.62" stop-color="#D81F60"/>
<stop offset="0.66" stop-color="#D21E5F"/>
<stop offset="0.71" stop-color="#C21C5C"/>
<stop offset="0.77" stop-color="#A81957"/>
<stop offset="0.83" stop-color="#841551"/>
<stop offset="0.9" stop-color="#551049"/>
<stop offset="0.97" stop-color="#1D0A3F"/>
<stop offset="1" stop-color="#00073A"/>
</linearGradient>
<linearGradient id="paint21_linear_5089_48450" x1="354.628" y1="184.013" x2="357.036" y2="237.004" gradientUnits="userSpaceOnUse">
<stop stop-color="#FFEB49"/>
<stop offset="0.09" stop-color="#FFE745" stop-opacity="0.96"/>
<stop offset="0.24" stop-color="#FFDE3D" stop-opacity="0.84"/>
<stop offset="0.44" stop-color="#FFCF2F" stop-opacity="0.66"/>
<stop offset="0.67" stop-color="#FFBB1C" stop-opacity="0.4"/>
<stop offset="0.94" stop-color="#FFA105" stop-opacity="0.07"/>
<stop offset="1" stop-color="#FF9C00" stop-opacity="0"/>
</linearGradient>
<linearGradient id="paint22_linear_5089_48450" x1="365.398" y1="134.67" x2="362.527" y2="145.806" gradientUnits="userSpaceOnUse">
<stop offset="0.16" stop-color="#A030B9"/>
<stop offset="0.88" stop-color="#00073A"/>
</linearGradient>
<linearGradient id="paint23_linear_5089_48450" x1="349.001" y1="128.453" x2="346.221" y2="137.757" gradientUnits="userSpaceOnUse">
<stop offset="0.16" stop-color="#A030B9"/>
<stop offset="0.88" stop-color="#00073A"/>
</linearGradient>
<linearGradient id="paint24_linear_5089_48450" x1="124.832" y1="111.126" x2="124.832" y2="226.953" gradientUnits="userSpaceOnUse">
<stop stop-color="#FFEB49"/>
<stop offset="0.32" stop-color="#FF9B1D"/>
<stop offset="0.56" stop-color="#FF6600"/>
<stop offset="0.74" stop-color="#FD4835"/>
<stop offset="0.91" stop-color="#FB3161"/>
<stop offset="1" stop-color="#FB2872"/>
</linearGradient>
<linearGradient id="paint25_linear_5089_48450" x1="128.565" y1="123.147" x2="143.211" y2="148.822" gradientUnits="userSpaceOnUse">
<stop offset="0.03" stop-color="#FFEB49"/>
<stop offset="0.12" stop-color="#FFEB49" stop-opacity="0.96"/>
<stop offset="0.26" stop-color="#FFEB49" stop-opacity="0.84"/>
<stop offset="0.46" stop-color="#FFEB49" stop-opacity="0.66"/>
<stop offset="0.69" stop-color="#FFEB49" stop-opacity="0.4"/>
<stop offset="0.95" stop-color="#FFEB49" stop-opacity="0.07"/>
<stop offset="1" stop-color="#FFEB49" stop-opacity="0"/>
</linearGradient>
<radialGradient id="paint26_radial_5089_48450" cx="0" cy="0" r="1" gradientUnits="userSpaceOnUse" gradientTransform="translate(22.5706 169.73) scale(108.967 108.967)">
<stop stop-color="#BE0449"/>
<stop offset="1" stop-color="#FB2872" stop-opacity="0.07"/>
</radialGradient>
<clipPath id="clip0_5089_48450">
<rect width="486" height="289" rx="24" fill="white"/>
</clipPath>
<clipPath id="clip1_5089_48450">
<path d="M139 52.761C139 46.2656 144.266 41 150.761 41H355.403C361.898 41 367.164 46.2656 367.164 52.761V231.528C367.164 238.024 361.898 243.289 355.403 243.289H150.761C144.266 243.289 139 238.024 139 231.528V52.761Z" fill="white"/>
</clipPath>
<clipPath id="clip2_5089_48450">
<rect width="872.574" height="517.995" fill="white" transform="translate(-105.968 -100.154)"/>
</clipPath>
</defs>
</svg>
