<svg width="486" height="289" viewBox="0 0 486 289" fill="none" xmlns="http://www.w3.org/2000/svg">
<g clip-path="url(#clip0_4947_48969)">
<rect width="486" height="289" rx="24" fill="#FCF5F0"/>
<path d="M44.9653 97.4069C126.42 82.4651 158.194 47 240.792 47C323.391 47 357.661 78.2183 426.461 97.4069C470.837 109.783 518.541 114.29 559.087 113.839C671.24 106.611 690.62 71.4234 775.437 70.9901C847.826 70.6261 884.974 99.4003 942.142 111.239C1009.35 125.158 1085.67 124.968 1118.16 124.084C1123.86 123.928 1129.86 123.754 1134.02 123.633V235.402C1131.3 233.443 1128.19 231.259 1126.03 229.838C1041.69 174.213 935.659 172.723 864.484 213.163C795.372 252.424 739.139 278.997 667.929 261.819C620.416 250.361 581.136 221.084 542.654 201.844C484.306 172.671 432.129 166.933 348.716 191.547C288.098 209.436 241.988 228.416 178.371 228.832C102.88 229.335 53.2339 215.676 6.96838 177.836C5.11353 176.328 2.37476 173.953 -0.00012207 171.873V105.554C1.29993 105.329 2.6001 105.103 3.6228 104.93C15.3756 102.867 28.8444 100.388 44.9827 97.4243L44.9653 97.4069Z" fill="url(#paint0_linear_4947_48969)"/>
<path d="M6.96826 177.819C53.2338 215.658 102.88 229.317 178.371 228.815C241.988 228.399 288.098 209.418 348.716 191.53C432.129 166.916 484.289 172.653 542.654 201.826C581.153 221.067 620.433 250.343 667.929 261.801C739.139 278.962 795.372 252.406 864.484 213.145C935.659 172.705 1041.69 174.178 1126.03 229.82C1128.19 231.242 1131.3 233.443 1134.02 235.384V348.332H0.0170898V171.873C2.40918 173.953 5.13074 176.31 6.9856 177.836L6.96826 177.819Z" fill="url(#paint1_linear_4947_48969)"/>
<g filter="url(#filter0_dd_4947_48969)">
<g clip-path="url(#clip1_4947_48969)">
<path d="M138.687 52.761C138.687 46.2656 143.953 41 150.448 41H355.09C361.585 41 366.851 46.2656 366.851 52.761V231.528C366.851 238.024 361.585 243.289 355.09 243.289H150.448C143.953 243.289 138.687 238.024 138.687 231.528V52.761Z" fill="#FCF5F0"/>
<g clip-path="url(#clip2_4947_48969)">
</g>
<path d="M138.687 219.178H139.863V249.756H138.687V219.178Z" stroke="#FCF5F0" stroke-width="1.1761"/>
<rect x="163.936" y="118.65" width="31.6249" height="170.144" rx="9.44812" transform="rotate(-90 163.936 118.65)" fill="url(#paint2_linear_4947_48969)" fill-opacity="0.16"/>
<rect x="167.629" y="114.98" width="24.9165" height="24.2046" rx="7.11899" transform="rotate(-90 167.629 114.98)" fill="url(#paint3_linear_4947_48969)" fill-opacity="0.6"/>
<rect x="163.936" y="156.215" width="31.6249" height="170.144" rx="9.44812" transform="rotate(-90 163.936 156.215)" fill="url(#paint4_linear_4947_48969)" fill-opacity="0.16"/>
<rect x="167.628" y="152.664" width="24.9165" height="24.2046" rx="7.11899" transform="rotate(-90 167.628 152.664)" fill="url(#paint5_linear_4947_48969)" fill-opacity="0.6"/>
<rect x="163.936" y="193.777" width="31.6249" height="170.144" rx="9.44812" transform="rotate(-90 163.936 193.777)" fill="url(#paint6_linear_4947_48969)" fill-opacity="0.16"/>
<rect x="167.629" y="190.355" width="24.9165" height="24.2046" rx="7.11899" transform="rotate(-90 167.629 190.355)" fill="url(#paint7_linear_4947_48969)" fill-opacity="0.6"/>
<rect x="163.936" y="231.342" width="31.6249" height="170.144" rx="9.44812" transform="rotate(-90 163.936 231.342)" fill="url(#paint8_linear_4947_48969)" fill-opacity="0.16"/>
<rect x="167.628" y="228.041" width="24.9165" height="24.2046" rx="7.11899" transform="rotate(-90 167.628 228.041)" fill="url(#paint9_linear_4947_48969)" fill-opacity="0.6"/>
<path d="M188.39 75.7026H169.46C167.719 75.7026 166.304 74.2876 166.304 72.5476V56.7722C166.304 55.0322 167.719 53.6172 169.46 53.6172H175.206C176.098 53.6172 176.953 53.9974 177.551 54.6615C178.761 56.0051 180.484 56.7722 182.292 56.7722H188.39C190.13 56.7722 191.545 58.1873 191.545 59.9273V72.5476C191.545 74.2876 190.13 75.7026 188.39 75.7026Z" fill="#7338E2" fill-opacity="0.6"/>
<rect x="197.484" y="71.7129" width="14.105" height="136.596" rx="7.05249" transform="rotate(-90 197.484 71.7129)" fill="#7338E2" fill-opacity="0.24"/>
</g>
<path d="M150.448 41.3711H355.089C361.38 41.3711 366.479 46.4704 366.479 52.7607V231.528C366.479 237.819 361.38 242.918 355.089 242.918H150.448C144.157 242.918 139.058 237.819 139.058 231.528V52.7607C139.058 46.4705 144.158 41.3712 150.448 41.3711Z" stroke="#7529E8" stroke-opacity="0.1" stroke-width="0.742367"/>
</g>
<path d="M392.253 150.444C392.082 148.281 387.271 147.744 385.187 144.56C384.531 143.561 384.359 141.923 384.359 140.131C384.359 138.566 384.485 136.894 384.542 135.427C384.679 131.991 384.536 130.102 384.571 124.291C384.599 119.68 384.029 114.565 381.905 113.367C379.936 112.248 376.757 114.423 372.242 118.572C369.725 120.89 368.07 122.887 366.346 124.314C366.243 124.4 366.14 124.491 366.032 124.577C365.929 124.657 363.344 123.989 361.831 123.686C361.506 123.624 361.306 123.241 361.14 122.568C360.775 121.055 360.581 118.042 359.525 113.635C358.212 108.15 356.431 105.467 353.857 105.245C351.688 105.062 347.927 110.524 345.027 115.096C342.625 118.881 342.447 119.269 341.511 120.633C340.826 121.626 340.045 122.802 339.194 123.983C337.442 126.415 335.421 128.84 333.486 129.611C329.833 131.061 327.014 129.109 325.655 130.792C324.354 132.408 325.77 132.71 326.06 132.99C333.886 134.965 335.758 145.387 339.377 144.485C342.459 143.715 344.491 146.991 350.843 147.785C357.162 148.572 357.887 151.98 362.624 151.095C372.596 149.24 380.935 148.789 390.615 152.311C390.118 151.551 392.362 151.837 392.253 150.444Z" fill="url(#paint10_linear_4947_48969)"/>
<path d="M376.261 130.923C379.537 134.719 382.916 138.566 384.36 140.136C384.36 138.571 384.485 136.899 384.543 135.432C384.68 131.996 384.537 130.107 384.571 124.296C384.6 119.685 384.029 114.57 381.906 113.372C379.936 112.253 376.757 114.428 372.242 118.577C369.725 120.895 368.07 122.892 366.346 124.319C368.401 125.056 372.876 127.002 376.261 130.923Z" fill="url(#paint11_linear_4947_48969)"/>
<path d="M361.146 122.568C360.781 121.055 360.586 118.042 359.531 113.635C358.218 108.15 356.437 105.467 353.863 105.245C351.694 105.062 347.932 110.524 345.033 115.096C342.63 118.881 342.453 119.269 341.517 120.633C340.832 121.626 340.05 122.802 339.199 123.983C341.682 123.572 346.117 122.779 350.461 121.974C354.742 121.175 358.726 121.9 361.14 122.568H361.146Z" fill="url(#paint12_linear_4947_48969)"/>
<path d="M390.615 152.315C381.197 148.89 372.96 149.227 363.217 150.996C362.236 151.173 361.437 151.333 360.364 151.196C362.544 153.519 356.197 159.524 348.651 158.086C346.077 157.595 343.994 156.801 342.333 155.837C336.762 152.589 336.128 147.446 338.155 144.827C338.246 144.712 338.337 144.592 338.44 144.473C335.375 143.588 333.183 134.804 326.06 133.006C326.123 133.063 326.134 133.12 326.06 133.189C325.358 133.851 322.39 132.566 321.654 134.49C321.054 136.065 324.239 136.35 324.005 137.081C323.68 138.08 321.397 137.829 321.094 138.833C320.586 140.511 321.676 140.409 324.456 142.926C325.86 144.193 327.687 146.128 329.964 149.29C333.583 154.324 333.828 165.865 333.383 173.793C333.161 177.76 331.14 186.579 330.911 191.236C330.672 196.025 331.174 200.334 331.294 204.13C331.323 205.991 331.294 208.588 330.86 210.426C329.776 215.888 326.551 216.761 325.375 223.942C323.606 234.746 335.364 238.804 335.238 238.839C335.21 238.844 335.17 238.856 335.124 238.867C335.723 238.936 336.311 239.01 336.882 239.078C339.45 239.392 341.682 239.689 343.6 239.957C344.342 240.06 345.129 240.163 345.786 240.26C345.586 241.441 345.272 242.811 344.97 243.696C344.547 244.935 344.108 247.189 344.725 248.222C345.957 250.305 353.6 249.992 353.954 247.532C354.131 246.333 354.245 244.866 354.313 243.205C354.313 243.211 354.313 243.216 354.313 243.222C355.181 243.182 355.238 243.194 355.803 243.228C355.809 243.473 355.9 245.756 356.162 247.532C356.522 249.992 364.159 250.305 365.392 248.222C366.003 247.195 365.575 244.94 365.147 243.696C364.947 243.114 364.736 242.292 364.559 241.447C365.518 241.253 376.614 238.981 377.549 238.833C377.561 238.787 377.624 238.747 377.738 238.707C382.823 236.95 388.594 229.164 385.928 221.887C384.405 217.72 381.574 215.745 379.987 212.966C376.705 207.206 379.211 205.859 377.767 190.488C377.139 183.793 375.381 175.905 374.667 171.824C373.252 163.719 375.084 163.771 379.861 162.441C386.025 160.722 388.126 161.807 388.954 159.878C389.348 158.97 387.88 158.331 388.2 157.395C388.708 155.928 392.824 157.15 393.126 155.625C393.514 153.668 391.1 153.051 390.62 152.321L390.615 152.315Z" fill="url(#paint13_linear_4947_48969)"/>
<path opacity="0.6" d="M390.615 152.315C381.197 148.89 372.96 149.227 363.217 150.996C362.236 151.173 361.437 151.333 360.364 151.196C362.544 153.519 356.197 159.524 348.651 158.086C346.077 157.595 343.994 156.801 342.333 155.837C336.762 152.589 336.128 147.446 338.155 144.827C338.246 144.712 338.337 144.592 338.44 144.473C335.375 143.588 333.183 134.804 326.06 133.006C326.123 133.063 326.134 133.12 326.06 133.189C325.358 133.851 322.39 132.566 321.654 134.49C321.054 136.065 324.239 136.35 324.005 137.081C323.68 138.08 321.397 137.829 321.094 138.833C320.586 140.511 321.676 140.409 324.456 142.926C325.86 144.193 327.687 146.128 329.964 149.29C333.583 154.324 333.828 165.865 333.383 173.793C333.161 177.76 331.14 186.579 330.911 191.236C330.672 196.025 331.174 200.334 331.294 204.13C331.323 205.991 331.294 208.588 330.86 210.426C329.776 215.888 326.551 216.761 325.375 223.942C323.606 234.746 335.364 238.804 335.238 238.839C335.21 238.844 335.17 238.856 335.124 238.867C335.723 238.936 336.311 239.01 336.882 239.078C339.45 239.392 341.682 239.689 343.6 239.957C344.342 240.06 345.129 240.163 345.786 240.26C345.586 241.441 345.272 242.811 344.97 243.696C344.547 244.935 344.108 247.189 344.725 248.222C345.957 250.305 353.6 249.992 353.954 247.532C354.131 246.333 354.245 244.866 354.313 243.205C354.313 243.211 354.313 243.216 354.313 243.222C355.181 243.182 355.238 243.194 355.803 243.228C355.809 243.473 355.9 245.756 356.162 247.532C356.522 249.992 364.159 250.305 365.392 248.222C366.003 247.195 365.575 244.94 365.147 243.696C364.947 243.114 364.736 242.292 364.559 241.447C365.518 241.253 376.614 238.981 377.549 238.833C377.561 238.787 377.624 238.747 377.738 238.707C382.823 236.95 388.594 229.164 385.928 221.887C384.405 217.72 381.574 215.745 379.987 212.966C376.705 207.206 379.211 205.859 377.767 190.488C377.139 183.793 375.381 175.905 374.667 171.824C373.252 163.719 375.084 163.771 379.861 162.441C386.025 160.722 388.126 161.807 388.954 159.878C389.348 158.97 387.88 158.331 388.2 157.395C388.708 155.928 392.824 157.15 393.126 155.625C393.514 153.668 391.1 153.051 390.62 152.321L390.615 152.315Z" fill="url(#paint14_linear_4947_48969)"/>
<path d="M343.698 239.951C341.78 239.683 339.548 239.386 336.98 239.072C336.409 239.004 335.827 238.93 335.222 238.861C334.486 239.015 331.461 239.506 329.257 242.2C328.475 243.153 328.213 243.901 328.207 244.518C328.207 244.929 328.316 245.282 328.475 245.591C329.2 247.001 332.728 246.864 334.765 246.321C335.918 246.013 337.414 245.671 339.075 245.339C340.884 244.98 342.887 244.632 344.862 244.358C344.925 244.135 344.988 243.913 345.068 243.69C345.359 242.839 345.678 241.475 345.878 240.271C345.205 240.168 344.469 240.065 343.692 239.951H343.698Z" fill="url(#paint15_linear_4947_48969)"/>
<path d="M382.704 242.507C382.241 241.942 381.442 241.303 380.146 240.55C378.503 239.596 377.036 239.174 377.236 238.883C376.973 238.923 376.711 238.968 376.436 239.025C370.866 240.156 367.121 240.806 364.593 241.172C364.781 242.113 365.021 243.05 365.238 243.689C365.312 243.906 365.38 244.123 365.437 244.339C365.46 244.431 365.483 244.522 365.506 244.614C370.369 245.355 372.509 246.274 376.419 246.474C380.797 246.697 382.156 246.257 382.897 244.944C383.297 244.231 383.497 243.478 382.704 242.507Z" fill="url(#paint16_linear_4947_48969)"/>
<path opacity="0.38" d="M345.711 225.129C343.845 218.045 338.103 212.526 330.877 210.928C330.774 211.379 330.643 211.812 330.495 212.241C330.495 212.258 330.483 212.269 330.478 212.286C330.26 212.914 330.009 213.525 329.684 214.107C328.086 217.006 326.271 219.033 325.472 223.941C323.702 234.746 335.46 238.804 335.335 238.839C335.306 238.844 335.266 238.856 335.221 238.867C335.82 238.936 336.408 239.01 336.979 239.078C339.547 239.392 341.779 239.689 343.696 239.958C344.935 237.834 345.785 235.46 346.151 232.926C346.083 230.551 345.928 227.897 345.711 225.129Z" fill="url(#paint17_radial_4947_48969)"/>
<path d="M353.538 217.942C353.156 218.398 352.927 221.395 352.436 221.646C352.043 221.846 351.849 219.294 351.443 216.994C351.335 216.372 350.912 214.357 350.804 213.758C350.29 210.876 350.284 211.104 349.857 208.752C349.771 210.63 349.6 211.132 349.257 214.009C349.091 215.407 348.852 217.085 348.658 218.016C348.486 218.826 348.218 215.807 348.059 215.013C347.259 211.161 346.7 210.128 345.621 206.292C345.011 204.123 343.098 202.12 342.91 200.738C343.783 206.657 345.045 216.452 345.724 225.133C345.941 227.896 346.095 230.55 346.164 232.93C346.226 235.213 346.209 237.251 346.078 238.883C346.044 239.288 345.981 239.768 345.895 240.282C345.695 241.486 345.376 242.85 345.085 243.7C345.011 243.923 344.942 244.146 344.879 244.368C344.434 246.012 344.434 247.542 344.839 248.227C346.072 250.31 353.715 249.996 354.069 247.536C354.246 246.332 354.36 244.865 354.428 243.198C354.685 236.92 354.246 227.696 353.549 217.947L353.538 217.942Z" fill="url(#paint18_linear_4947_48969)"/>
<path d="M365.443 244.34C365.386 244.123 365.318 243.906 365.243 243.689C365.021 243.044 364.787 242.108 364.598 241.172C364.433 240.344 364.296 239.511 364.245 238.878C363.554 230.207 365.986 210.356 367.413 200.738C367.224 202.125 365.312 204.123 364.701 206.292C363.623 210.128 363.063 211.161 362.264 215.013C362.099 215.812 361.836 218.832 361.665 218.016C361.465 217.085 361.231 215.407 361.065 214.009C360.723 211.126 360.552 210.63 360.466 208.752C360.038 211.104 360.038 210.881 359.519 213.758C359.41 214.351 358.994 216.366 358.88 216.994C358.474 219.3 358.28 221.846 357.886 221.646C357.39 221.395 357.167 218.398 356.784 217.942C356.088 227.685 355.649 236.908 355.906 243.187C355.974 244.854 356.088 246.326 356.265 247.53C356.625 249.991 364.262 250.304 365.495 248.221C365.877 247.57 365.894 246.161 365.518 244.614C365.495 244.522 365.478 244.431 365.449 244.34H365.443Z" fill="url(#paint19_linear_4947_48969)"/>
<path opacity="0.6" d="M354.393 172.09C354.393 172.09 346.306 178.066 348.486 192.027C350.232 203.208 351.659 205.794 352.761 212.889C353.863 219.983 355.038 228.174 355.038 228.174C355.038 228.174 356.032 220.252 357.367 212.706C358.32 207.313 360.232 200.052 361.26 191.325C362.909 177.272 354.393 172.084 354.393 172.084V172.09Z" fill="url(#paint20_linear_4947_48969)"/>
<path d="M346.472 140.732C351.112 141.354 354.411 148.517 359.571 150.658C363.692 152.364 356.883 159.653 348.658 158.078C337.579 155.966 335.456 148.318 338.161 144.819C339.611 142.941 342.579 140.207 346.472 140.732Z" fill="#FFC635"/>
<path d="M346.33 141.891C344.675 141.348 343.521 141.765 343.019 142.347C342.403 143.061 342.494 145.001 344.526 145.669C346.455 146.303 348.139 145.064 348.213 144.077C348.265 143.375 347.785 142.364 346.324 141.891H346.33Z" fill="#00073A"/>
<path d="M365.215 137.524C367.207 138.083 367.886 139.767 366.088 143.443C364.678 146.331 363.423 146.2 361.551 145.646C360.569 145.355 359.393 143.854 360.461 141.651C361.916 138.643 363.132 136.942 365.215 137.529V137.524Z" fill="url(#paint21_linear_4947_48969)"/>
<path d="M362.42 143.119C362.657 142.621 362.479 142.04 362.021 141.822C361.563 141.603 360.999 141.829 360.761 142.327C360.523 142.825 360.702 143.406 361.16 143.625C361.618 143.843 362.182 143.617 362.42 143.119Z" fill="white"/>
<path d="M348.709 130.662C351.334 131.273 351.043 133.567 349.245 136.969C348.121 139.098 346.9 139.047 345.033 138.493C344.057 138.208 342.761 137.141 344.285 134.224C345.518 131.855 347.059 130.274 348.714 130.662H348.709Z" fill="url(#paint22_linear_4947_48969)"/>
<path d="M346.226 136.301C346.47 135.789 346.287 135.192 345.818 134.968C345.349 134.744 344.77 134.978 344.526 135.49C344.281 136.002 344.464 136.598 344.933 136.823C345.402 137.046 345.981 136.813 346.226 136.301Z" fill="white"/>
<path d="M139.529 226.953C139.529 226.953 132.354 226.925 127.274 225.258C110.574 219.79 101.481 209.362 95.8248 197.13C93.8157 192.792 92.9995 185.413 92.9995 185.413C92.9995 185.413 94.2153 186.543 95.8705 187.838C97.1833 188.866 98.1365 189.203 98.1365 189.203C98.1365 189.203 97.0749 186.885 96.4184 183.5C94.0897 171.52 96.8237 162.867 102.018 153.911C109.192 141.543 116.213 136.537 119.712 126.657C120.962 123.118 121.31 120.27 120.431 117.564C119.381 114.322 113.074 111.885 113.074 111.885C113.074 111.885 122.246 108.9 133.296 114.699C139.649 118.033 145.271 122.342 148.593 127.205C156.852 139.294 157.908 147.028 155.608 161.565C153.428 175.327 144.62 186.885 141.338 192.752C140.767 193.774 139.535 197.187 139.535 197.838V226.948L139.529 226.953Z" fill="url(#paint23_linear_4947_48969)"/>
<path opacity="0.7" d="M147.765 142.847C146.235 137.259 145.293 135.695 142.125 130.843C139.991 127.567 137.924 126.174 137.924 126.174L139.391 130.587L140.447 134.759C141.041 135.147 138.609 131.882 134.871 128.184C132.245 125.587 128.204 123.84 128.204 123.84C128.204 123.84 131.606 128.754 133.786 133.594C135.966 138.435 136.926 148.583 136.435 151.585C135.55 157.007 143.01 154.947 146.286 155.541C149.562 156.134 149.306 151.694 147.759 142.835L147.765 142.847Z" fill="url(#paint24_linear_4947_48969)"/>
<path d="M139.528 213.332C137.918 212.521 136.337 211.642 134.819 210.683C130.669 208.063 127.359 205.261 124.031 200.991C122.439 198.948 120.138 194.17 120.138 194.17C120.138 194.17 124.67 198.919 127.37 200.791C129.63 202.356 134.722 204.342 134.722 204.342C134.722 204.342 130.755 201.214 129.048 199.484C124.956 195.329 121.948 190.575 119.956 185.455C116.925 177.652 116.251 169.005 117.707 160.352C118.266 157.036 120.298 150.455 120.298 150.455C120.298 150.455 114.105 156.357 111.805 162.07C108.82 169.496 109.202 178.332 109.202 178.332C109.202 178.332 107.433 175.432 106.628 173.777C105.886 172.253 105.121 168.822 105.121 168.822C105.121 168.822 104.003 173.2 103.946 178.212C103.843 187.287 105.133 194.365 109.528 202.184C113.146 208.611 122.216 215.683 132.376 220.066C134.562 221.008 137.022 221.608 139.516 222.019V213.337L139.528 213.332Z" fill="url(#paint25_radial_4947_48969)"/>
</g>
<defs>
<filter id="filter0_dd_4947_48969" x="122.687" y="29" width="260.164" height="234.289" filterUnits="userSpaceOnUse" color-interpolation-filters="sRGB">
<feFlood flood-opacity="0" result="BackgroundImageFix"/>
<feColorMatrix in="SourceAlpha" type="matrix" values="0 0 0 0 0 0 0 0 0 0 0 0 0 0 0 0 0 0 127 0" result="hardAlpha"/>
<feOffset dy="4"/>
<feGaussianBlur stdDeviation="8"/>
<feComposite in2="hardAlpha" operator="out"/>
<feColorMatrix type="matrix" values="0 0 0 0 0 0 0 0 0 0 0 0 0 0 0 0 0 0 0.05 0"/>
<feBlend mode="normal" in2="BackgroundImageFix" result="effect1_dropShadow_4947_48969"/>
<feColorMatrix in="SourceAlpha" type="matrix" values="0 0 0 0 0 0 0 0 0 0 0 0 0 0 0 0 0 0 127 0" result="hardAlpha"/>
<feOffset dy="0.5"/>
<feGaussianBlur stdDeviation="1"/>
<feComposite in2="hardAlpha" operator="out"/>
<feColorMatrix type="matrix" values="0 0 0 0 0 0 0 0 0 0 0 0 0 0 0 0 0 0 0.02 0"/>
<feBlend mode="normal" in2="effect1_dropShadow_4947_48969" result="effect2_dropShadow_4947_48969"/>
<feBlend mode="normal" in="SourceGraphic" in2="effect2_dropShadow_4947_48969" result="shape"/>
</filter>
<linearGradient id="paint0_linear_4947_48969" x1="567.771" y1="211.325" x2="565.327" y2="11.1189" gradientUnits="userSpaceOnUse">
<stop stop-color="#FCF5F0"/>
<stop offset="0.22" stop-color="#FAECF1"/>
<stop offset="0.56" stop-color="#F5D4F5"/>
<stop offset="1" stop-color="#EEAEFC"/>
</linearGradient>
<linearGradient id="paint1_linear_4947_48969" x1="562.657" y1="335.626" x2="574.41" y2="130.982" gradientUnits="userSpaceOnUse">
<stop stop-color="#FCF5F0"/>
<stop offset="0.22" stop-color="#FAECF1"/>
<stop offset="0.56" stop-color="#F5D4F5"/>
<stop offset="1" stop-color="#EEAEFC"/>
</linearGradient>
<linearGradient id="paint2_linear_4947_48969" x1="179.748" y1="118.65" x2="171.904" y2="468.365" gradientUnits="userSpaceOnUse">
<stop stop-color="#7338E2"/>
<stop offset="1" stop-color="#F6CDF6"/>
</linearGradient>
<linearGradient id="paint3_linear_4947_48969" x1="174.155" y1="113.88" x2="187.268" y2="141.113" gradientUnits="userSpaceOnUse">
<stop stop-color="#7338E2"/>
<stop offset="1" stop-color="#FCF5F0"/>
</linearGradient>
<linearGradient id="paint4_linear_4947_48969" x1="179.748" y1="156.215" x2="171.904" y2="505.929" gradientUnits="userSpaceOnUse">
<stop stop-color="#7338E2"/>
<stop offset="1" stop-color="#F6CDF6"/>
</linearGradient>
<linearGradient id="paint5_linear_4947_48969" x1="174.154" y1="151.564" x2="187.267" y2="178.796" gradientUnits="userSpaceOnUse">
<stop stop-color="#7338E2"/>
<stop offset="1" stop-color="#FCF5F0"/>
</linearGradient>
<linearGradient id="paint6_linear_4947_48969" x1="179.748" y1="193.777" x2="171.904" y2="543.491" gradientUnits="userSpaceOnUse">
<stop stop-color="#7338E2"/>
<stop offset="1" stop-color="#F6CDF6"/>
</linearGradient>
<linearGradient id="paint7_linear_4947_48969" x1="174.155" y1="189.255" x2="187.268" y2="216.488" gradientUnits="userSpaceOnUse">
<stop stop-color="#7338E2"/>
<stop offset="1" stop-color="#FCF5F0"/>
</linearGradient>
<linearGradient id="paint8_linear_4947_48969" x1="179.748" y1="231.342" x2="171.904" y2="581.056" gradientUnits="userSpaceOnUse">
<stop stop-color="#7338E2"/>
<stop offset="1" stop-color="#F6CDF6"/>
</linearGradient>
<linearGradient id="paint9_linear_4947_48969" x1="174.154" y1="226.941" x2="187.267" y2="254.173" gradientUnits="userSpaceOnUse">
<stop stop-color="#7338E2"/>
<stop offset="1" stop-color="#FCF5F0"/>
</linearGradient>
<linearGradient id="paint10_linear_4947_48969" x1="370.701" y1="104.36" x2="347.898" y2="174.388" gradientUnits="userSpaceOnUse">
<stop offset="0.17" stop-color="#FF6600"/>
<stop offset="0.54" stop-color="#FF9C00"/>
<stop offset="0.9" stop-color="#FF6700"/>
<stop offset="0.91" stop-color="#FF6600"/>
</linearGradient>
<linearGradient id="paint11_linear_4947_48969" x1="376.87" y1="129.919" x2="389.057" y2="110.617" gradientUnits="userSpaceOnUse">
<stop stop-color="#FF6600" stop-opacity="0"/>
<stop offset="0.11" stop-color="#FF6600" stop-opacity="0.3"/>
<stop offset="0.23" stop-color="#FF6600" stop-opacity="0.6"/>
<stop offset="0.32" stop-color="#FF6600" stop-opacity="0.82"/>
<stop offset="0.4" stop-color="#FF6600" stop-opacity="0.95"/>
<stop offset="0.43" stop-color="#FF6600"/>
<stop offset="0.72" stop-color="#FD4737"/>
<stop offset="1" stop-color="#FB2872"/>
</linearGradient>
<linearGradient id="paint12_linear_4947_48969" x1="350.281" y1="121.62" x2="352.989" y2="98.9063" gradientUnits="userSpaceOnUse">
<stop stop-color="#FF6600" stop-opacity="0"/>
<stop offset="0.03" stop-color="#FF6600" stop-opacity="0.17"/>
<stop offset="0.07" stop-color="#FF6600" stop-opacity="0.36"/>
<stop offset="0.11" stop-color="#FF6600" stop-opacity="0.53"/>
<stop offset="0.15" stop-color="#FF6600" stop-opacity="0.68"/>
<stop offset="0.2" stop-color="#FF6600" stop-opacity="0.8"/>
<stop offset="0.24" stop-color="#FF6600" stop-opacity="0.89"/>
<stop offset="0.29" stop-color="#FF6600" stop-opacity="0.95"/>
<stop offset="0.35" stop-color="#FF6600" stop-opacity="0.99"/>
<stop offset="0.42" stop-color="#FF6600"/>
<stop offset="0.7" stop-color="#FD4737"/>
<stop offset="0.97" stop-color="#FB2872"/>
</linearGradient>
<linearGradient id="paint13_linear_4947_48969" x1="357.07" y1="130.865" x2="357.07" y2="256.749" gradientUnits="userSpaceOnUse">
<stop stop-color="#FF6600"/>
<stop offset="0.01" stop-color="#FF7408"/>
<stop offset="0.04" stop-color="#FF8A14"/>
<stop offset="0.07" stop-color="#FF9B1D"/>
<stop offset="0.11" stop-color="#FFA724"/>
<stop offset="0.17" stop-color="#FFAE27"/>
<stop offset="0.33" stop-color="#FFB029"/>
<stop offset="0.46" stop-color="#FF9218"/>
<stop offset="0.63" stop-color="#FF6600"/>
<stop offset="0.64" stop-color="#FE5D0F"/>
<stop offset="0.69" stop-color="#FD4A32"/>
<stop offset="0.74" stop-color="#FC3B4E"/>
<stop offset="0.79" stop-color="#FB3062"/>
<stop offset="0.84" stop-color="#FB2A6E"/>
<stop offset="0.89" stop-color="#FB2872"/>
</linearGradient>
<linearGradient id="paint14_linear_4947_48969" x1="357.07" y1="130.865" x2="357.07" y2="256.749" gradientUnits="userSpaceOnUse">
<stop stop-color="#FFEB49" stop-opacity="0.8"/>
<stop offset="0.22" stop-color="#FFD13A" stop-opacity="0.64"/>
<stop offset="0.7" stop-color="#FF8F17" stop-opacity="0.25"/>
<stop offset="1" stop-color="#FF6600" stop-opacity="0"/>
</linearGradient>
<linearGradient id="paint15_linear_4947_48969" x1="385.792" y1="223.251" x2="309.035" y2="253.838" gradientUnits="userSpaceOnUse">
<stop offset="0.02" stop-color="#BE0449" stop-opacity="0"/>
<stop offset="0.51" stop-color="#FB2872"/>
<stop offset="0.67" stop-color="#A31C5E"/>
<stop offset="0.83" stop-color="#4C104A"/>
<stop offset="0.94" stop-color="#15093E"/>
<stop offset="1" stop-color="#00073A"/>
</linearGradient>
<linearGradient id="paint16_linear_4947_48969" x1="342.789" y1="230.572" x2="395.169" y2="251.052" gradientUnits="userSpaceOnUse">
<stop stop-color="#BE0449" stop-opacity="0"/>
<stop offset="0.41" stop-color="#FB2872"/>
<stop offset="1" stop-color="#00073A"/>
</linearGradient>
<radialGradient id="paint17_radial_4947_48969" cx="0" cy="0" r="1" gradientUnits="userSpaceOnUse" gradientTransform="translate(326.688 232.8) scale(32.5113 32.5113)">
<stop stop-color="#FFEB49"/>
<stop offset="0.05" stop-color="#FFE546" stop-opacity="0.96"/>
<stop offset="0.14" stop-color="#FFD73E" stop-opacity="0.85"/>
<stop offset="0.25" stop-color="#FFC031" stop-opacity="0.68"/>
<stop offset="0.38" stop-color="#FFA01F" stop-opacity="0.44"/>
<stop offset="0.53" stop-color="#FF7709" stop-opacity="0.13"/>
<stop offset="0.59" stop-color="#FF6600" stop-opacity="0"/>
</radialGradient>
<linearGradient id="paint18_linear_4947_48969" x1="348.007" y1="201.509" x2="350.239" y2="260.841" gradientUnits="userSpaceOnUse">
<stop offset="0.01" stop-color="#BE0449" stop-opacity="0"/>
<stop offset="0.06" stop-color="#BF054A" stop-opacity="0.04"/>
<stop offset="0.14" stop-color="#C2084C" stop-opacity="0.16"/>
<stop offset="0.23" stop-color="#C70D51" stop-opacity="0.36"/>
<stop offset="0.35" stop-color="#CE1457" stop-opacity="0.63"/>
<stop offset="0.48" stop-color="#D71E5F" stop-opacity="0.97"/>
<stop offset="0.49" stop-color="#D81F60"/>
<stop offset="0.56" stop-color="#D31E5F"/>
<stop offset="0.63" stop-color="#C71D5D"/>
<stop offset="0.7" stop-color="#B31A59"/>
<stop offset="0.77" stop-color="#971754"/>
<stop offset="0.84" stop-color="#73134E"/>
<stop offset="0.91" stop-color="#460E46"/>
<stop offset="0.98" stop-color="#13093D"/>
<stop offset="1" stop-color="#00073A"/>
</linearGradient>
<linearGradient id="paint19_linear_4947_48969" x1="362.589" y1="190.63" x2="360.124" y2="261.28" gradientUnits="userSpaceOnUse">
<stop stop-color="#D81F60" stop-opacity="0"/>
<stop offset="0.11" stop-color="#D81F60" stop-opacity="0.01"/>
<stop offset="0.19" stop-color="#D81F60" stop-opacity="0.06"/>
<stop offset="0.27" stop-color="#D81F60" stop-opacity="0.14"/>
<stop offset="0.35" stop-color="#D81F60" stop-opacity="0.25"/>
<stop offset="0.42" stop-color="#D81F60" stop-opacity="0.39"/>
<stop offset="0.49" stop-color="#D81F60" stop-opacity="0.57"/>
<stop offset="0.55" stop-color="#D81F60" stop-opacity="0.77"/>
<stop offset="0.62" stop-color="#D81F60"/>
<stop offset="0.66" stop-color="#D21E5F"/>
<stop offset="0.71" stop-color="#C21C5C"/>
<stop offset="0.77" stop-color="#A81957"/>
<stop offset="0.83" stop-color="#841551"/>
<stop offset="0.9" stop-color="#551049"/>
<stop offset="0.97" stop-color="#1D0A3F"/>
<stop offset="1" stop-color="#00073A"/>
</linearGradient>
<linearGradient id="paint20_linear_4947_48969" x1="354.627" y1="184.013" x2="357.036" y2="237.004" gradientUnits="userSpaceOnUse">
<stop stop-color="#FFEB49"/>
<stop offset="0.09" stop-color="#FFE745" stop-opacity="0.96"/>
<stop offset="0.24" stop-color="#FFDE3D" stop-opacity="0.84"/>
<stop offset="0.44" stop-color="#FFCF2F" stop-opacity="0.66"/>
<stop offset="0.67" stop-color="#FFBB1C" stop-opacity="0.4"/>
<stop offset="0.94" stop-color="#FFA105" stop-opacity="0.07"/>
<stop offset="1" stop-color="#FF9C00" stop-opacity="0"/>
</linearGradient>
<linearGradient id="paint21_linear_4947_48969" x1="365.398" y1="134.67" x2="362.527" y2="145.806" gradientUnits="userSpaceOnUse">
<stop offset="0.16" stop-color="#A030B9"/>
<stop offset="0.88" stop-color="#00073A"/>
</linearGradient>
<linearGradient id="paint22_linear_4947_48969" x1="349" y1="128.453" x2="346.22" y2="137.757" gradientUnits="userSpaceOnUse">
<stop offset="0.16" stop-color="#A030B9"/>
<stop offset="0.88" stop-color="#00073A"/>
</linearGradient>
<linearGradient id="paint23_linear_4947_48969" x1="124.832" y1="111.126" x2="124.832" y2="226.953" gradientUnits="userSpaceOnUse">
<stop stop-color="#FFEB49"/>
<stop offset="0.32" stop-color="#FF9B1D"/>
<stop offset="0.56" stop-color="#FF6600"/>
<stop offset="0.74" stop-color="#FD4835"/>
<stop offset="0.91" stop-color="#FB3161"/>
<stop offset="1" stop-color="#FB2872"/>
</linearGradient>
<linearGradient id="paint24_linear_4947_48969" x1="128.565" y1="123.147" x2="143.211" y2="148.822" gradientUnits="userSpaceOnUse">
<stop offset="0.03" stop-color="#FFEB49"/>
<stop offset="0.12" stop-color="#FFEB49" stop-opacity="0.96"/>
<stop offset="0.26" stop-color="#FFEB49" stop-opacity="0.84"/>
<stop offset="0.46" stop-color="#FFEB49" stop-opacity="0.66"/>
<stop offset="0.69" stop-color="#FFEB49" stop-opacity="0.4"/>
<stop offset="0.95" stop-color="#FFEB49" stop-opacity="0.07"/>
<stop offset="1" stop-color="#FFEB49" stop-opacity="0"/>
</linearGradient>
<radialGradient id="paint25_radial_4947_48969" cx="0" cy="0" r="1" gradientUnits="userSpaceOnUse" gradientTransform="translate(22.5702 169.73) scale(108.967 108.967)">
<stop stop-color="#BE0449"/>
<stop offset="1" stop-color="#FB2872" stop-opacity="0.07"/>
</radialGradient>
<clipPath id="clip0_4947_48969">
<rect width="486" height="289" rx="24" fill="white"/>
</clipPath>
<clipPath id="clip1_4947_48969">
<path d="M138.687 52.761C138.687 46.2656 143.953 41 150.448 41H355.09C361.585 41 366.851 46.2656 366.851 52.761V231.528C366.851 238.024 361.585 243.289 355.09 243.289H150.448C143.953 243.289 138.687 238.024 138.687 231.528V52.761Z" fill="white"/>
</clipPath>
<clipPath id="clip2_4947_48969">
<rect width="872.574" height="517.995" fill="white" transform="translate(-106.281 -100.154)"/>
</clipPath>
</defs>
</svg>
