<svg xmlns="http://www.w3.org/2000/svg" width="342" height="402" fill="none" viewBox="0 0 342 402"><g clip-path="url(#a)"><g clip-path="url(#b)"><path fill="#000" d="M470-24.2H-10v430h480z"/><foreignObject width="420" height="294" x="20" y="43.801"><div xmlns="http://www.w3.org/1999/xhtml" style="backdrop-filter:blur(15px);clip-path:url(#c);height:100%;width:100%"/></foreignObject><g data-figma-bg-blur-radius="30"><rect width="359" height="233" x="-.5" y=".5" fill="#23222b" fill-opacity=".7" rx="7.5" transform="matrix(-1 0 0 1 409 73.8)"/><rect width="359" height="233" x="-.5" y=".5" stroke="#fff" rx="7.5" transform="matrix(-1 0 0 1 409 73.8)"/><mask id="d" fill="#fff"><path d="M386 97.8H74v34.001h312z"/></mask><path fill="#fff" d="M74 131.801v-1h312v2H74z" mask="url(#d)"/><path fill="#ffee32" d="M374.067 111.801v-8.98h3.252v-1.589h-8.394v1.589h3.252v8.98zm-6.812 0v-8.006h-1.816v8.006zm-.915-9.346q.447 0 .769-.315t.322-.754a1 1 0 0 0-.322-.762 1.06 1.06 0 0 0-.769-.315q-.447 0-.762.315a1 1 0 0 0-.322.762q0 .44.322.754.315.315.762.315m-6.299 9.382q1.377 0 1.985-.505.608-.506.608-1.655v-4.468h1.245v-1.414h-1.245v-1.962h-1.853v1.962h-1.685v1.414h1.685v4.036q0 .593-.249.871-.257.271-.821.271-.197 0-.322-.007a10 10 0 0 0-.293-.029v1.406q.19.037.44.058.241.022.505.022m-2.842-.036v-11.104h-1.824v11.104zm-7.544.161q1.194 0 2.051-.505a3.38 3.38 0 0 0 1.311-1.436q.462-.93.462-2.205v-.007q0-1.26-.455-2.197a3.4 3.4 0 0 0-1.303-1.45q-.843-.52-1.978-.52-1.143 0-1.963.505a3.3 3.3 0 0 0-1.274 1.399q-.447.9-.447 2.109v.601h6.504v-1.223h-5.61l.864 1.142v-.725q0-.798.242-1.325.241-.528.673-.792.425-.263.989-.263t1.004.278q.432.271.688.806.249.527.249 1.296v.733q0 .74-.249 1.267-.249.52-.703.805-.462.279-1.091.279a2.3 2.3 0 0 1-.843-.139 2 2 0 0 1-.578-.345 1.4 1.4 0 0 1-.308-.388l-.022-.051h-1.728l.014.066q.096.388.352.791.249.395.681.74.425.336 1.04.549.615.205 1.428.205m-12.876 0q1.194 0 2.058-.498a3.4 3.4 0 0 0 1.333-1.436q.462-.93.462-2.226v-.015q0-1.281-.469-2.212a3.34 3.34 0 0 0-1.326-1.435q-.864-.498-2.058-.498t-2.05.498a3.33 3.33 0 0 0-1.333 1.428q-.47.93-.469 2.219v.015q0 1.296.469 2.226.46.93 1.325 1.436.857.498 2.058.498m0-1.48q-.63 0-1.069-.315-.447-.322-.681-.915-.235-.6-.235-1.443v-.015q0-.85.235-1.442.234-.601.681-.916.44-.322 1.069-.322.63 0 1.077.322.447.315.681.916.234.593.234 1.442v.015q0 .843-.234 1.443t-.674.915q-.447.315-1.084.315m-6.269 1.319v-6.592h1.311v-1.414h-1.311v-.791q0-.805-.271-1.333a1.73 1.73 0 0 0-.857-.783q-.579-.264-1.465-.264-.293 0-.542.022a4 4 0 0 0-.461.051v1.275q.102-.015.263-.022.162-.015.352-.015.644 0 .915.3.271.294.271.872v.688h-1.736v1.414h1.707v6.592zm-12.437.036q1.377 0 1.985-.505.608-.506.608-1.655v-4.468h1.245v-1.414h-1.245v-1.962h-1.853v1.962h-1.685v1.414h1.685v4.036q0 .593-.249.871-.256.271-.82.271-.198 0-.323-.007a10 10 0 0 0-.293-.029v1.406q.19.037.44.058.241.022.505.022m-2.842-.036v-11.104h-1.823v4.329h-.125a2.23 2.23 0 0 0-.864-1.018q-.579-.366-1.443-.366-.894 0-1.509.351-.615.345-.93 1.011-.322.666-.322 1.619v5.178h1.824v-4.754q0-.937.395-1.406.388-.469 1.216-.469.542 0 .937.242.396.242.608.681.213.44.213 1.04v4.666zm-12.597.161q1.193 0 2.051-.505a3.38 3.38 0 0 0 1.311-1.436q.46-.93.461-2.205v-.007q0-1.26-.454-2.197a3.4 3.4 0 0 0-1.304-1.45q-.841-.52-1.977-.52-1.143 0-1.963.505a3.3 3.3 0 0 0-1.275 1.399q-.446.9-.446 2.109v.601h6.504v-1.223h-5.611l.864 1.142v-.725q0-.798.242-1.325.242-.528.674-.792.425-.263.989-.263t1.003.278q.432.271.689.806.249.527.249 1.296v.733q0 .74-.249 1.267a1.9 1.9 0 0 1-.704.805q-.46.279-1.091.279-.49 0-.842-.139a2 2 0 0 1-.579-.345 1.4 1.4 0 0 1-.307-.388l-.022-.051h-1.729l.015.066q.094.388.351.791.249.395.682.74.424.336 1.04.549.615.205 1.428.205m-10.005-.161v-6.592h1.311v-1.414h-1.311v-.791q0-.805-.271-1.333a1.73 1.73 0 0 0-.857-.783q-.579-.264-1.465-.264-.293 0-.542.022a4 4 0 0 0-.461.051v1.275q.102-.015.263-.022.162-.015.352-.015.645 0 .915.3.271.294.271.872v.688h-1.735v1.414h1.706v6.592zm-8.452.161q1.194 0 2.058-.498a3.4 3.4 0 0 0 1.333-1.436q.46-.93.461-2.226v-.015q0-1.281-.468-2.212a3.35 3.35 0 0 0-1.326-1.435q-.864-.498-2.058-.498t-2.051.498a3.34 3.34 0 0 0-1.333 1.428q-.47.93-.469 2.219v.015q0 1.296.469 2.226.461.93 1.326 1.436.857.498 2.058.498m0-1.48q-.63 0-1.07-.315-.445-.322-.681-.915-.234-.6-.234-1.443v-.015q0-.85.234-1.442.236-.601.681-.916.44-.322 1.07-.322t1.076.322q.447.315.682.916.234.593.234 1.442v.015q0 .843-.234 1.443t-.674.915q-.447.315-1.084.315m-5.757 1.319v-11.104h-1.824v11.104zm-7.002.132q.996 0 1.736-.498.74-.506 1.142-1.436.403-.93.403-2.19v-.015q0-1.274-.395-2.197-.403-.93-1.136-1.428-.74-.505-1.75-.505-.55 0-1.025.175a2.5 2.5 0 0 0-.835.484 2.2 2.2 0 0 0-.572.747h-.132v-4.373h-1.816v11.104h1.816v-1.253h.132q.22.432.579.747.351.308.82.476.47.162 1.033.162m-.571-1.538q-.623 0-1.07-.308a2 2 0 0 1-.695-.894q-.249-.586-.249-1.384v-.015q0-.805.249-1.384.242-.578.695-.893.447-.315 1.07-.315.615 0 1.069.315.447.308.688.893.243.579.242 1.384v.015q0 .806-.242 1.384-.241.579-.688.894-.447.308-1.069.308m-9.536 1.567q1.193 0 2.05-.505a3.36 3.36 0 0 0 1.311-1.436q.462-.93.462-2.205v-.007q0-1.26-.454-2.197a3.4 3.4 0 0 0-1.304-1.45q-.843-.52-1.978-.52-1.142 0-1.962.505a3.3 3.3 0 0 0-1.275 1.399q-.447.9-.447 2.109v.601h6.504v-1.223h-5.61l.864 1.142v-.725q0-.798.242-1.325.242-.528.674-.792a1.84 1.84 0 0 1 .988-.263q.564 0 1.004.278.432.271.688.806.249.527.249 1.296v.733q0 .74-.249 1.267-.249.52-.703.805-.46.279-1.091.279-.49 0-.842-.139a2 2 0 0 1-.579-.345 1.4 1.4 0 0 1-.308-.388l-.022-.051h-1.728l.015.066q.094.388.351.791.249.395.681.74.425.336 1.04.549.616.205 1.429.205m-5.42-.161v-8.006h-1.824v1.231h-.125a1.85 1.85 0 0 0-.732-1.004q-.534-.358-1.326-.358-.205 0-.403.029a2 2 0 0 0-.336.058v1.634q.22-.052.446-.073.22-.03.462-.03.607 0 1.062.227.453.228.703.652.249.417.249.989v4.651zm-9.537-11.104 3.15 13.762h1.699l-3.149-13.762zm-8.276 11.14q1.377 0 1.985-.505.608-.506.608-1.655v-4.468h1.245v-1.414h-1.245v-1.962h-1.853v1.962h-1.685v1.414h1.685v4.036q0 .593-.249.871-.256.271-.82.271-.198 0-.323-.007a10 10 0 0 0-.293-.029v1.406q.19.037.44.058.241.022.505.022m-4.951.096q.755 0 1.355-.293a2.3 2.3 0 0 0 .937-.828q.337-.542.337-1.274v-.015q0-.71-.351-1.223-.352-.52-1.033-.813t-1.655-.344l-2.959-.184v1.202l2.702.175q.77.044 1.136.323.366.278.366.776v.015q0 .513-.388.798-.396.286-1.004.286a2.14 2.14 0 0 1-.981-.22 1.76 1.76 0 0 1-.681-.593 1.53 1.53 0 0 1-.249-.857v-2.534q0-.601.381-.916.38-.322 1.127-.322.623 0 1.019.22.394.212.534.607l.008.03h1.721l-.008-.066a2.2 2.2 0 0 0-.527-1.179q-.44-.506-1.164-.784-.726-.279-1.67-.278-1.041 0-1.758.322-.719.314-1.092.923-.373.6-.373 1.443v5.471h1.802v-1.099h.124q.22.381.571.659.345.279.792.425.446.147.981.147m-10.913 0q.564 0 1.033-.162.468-.168.827-.476.352-.315.572-.747h.124v1.253h1.824v-11.104h-1.824v4.373h-.124a2.4 2.4 0 0 0-.572-.747 2.5 2.5 0 0 0-.835-.484 3 3 0 0 0-1.025-.175q-1.011 0-1.743.505-.74.498-1.143 1.428-.402.923-.403 2.197v.015q0 1.26.41 2.19.403.93 1.143 1.436.732.498 1.736.498m.571-1.538q-.622 0-1.069-.308a2 2 0 0 1-.689-.894q-.241-.578-.241-1.384v-.015q0-.805.241-1.384.242-.585.689-.893.447-.315 1.069-.315.616 0 1.069.315.455.315.704.893.241.579.241 1.384v.015q0 .798-.241 1.384-.249.579-.696.894a1.88 1.88 0 0 1-1.077.308m-13.125 4.218q1.054 0 1.824-.278.762-.278 1.201-.791a2.24 2.24 0 0 0 .535-1.179l-.008-.022h-1.816l-.015.022q-.087.38-.534.622-.454.249-1.216.249-.938 0-1.45-.417-.52-.417-.52-1.187v-1.538h.124q.227.432.593.733.36.3.828.454.462.146 1.018.146 1.01 0 1.751-.483a3.2 3.2 0 0 0 1.142-1.355q.396-.864.396-2v-.014q0-1.157-.403-2.036a3.25 3.25 0 0 0-1.143-1.377q-.747-.498-1.779-.498-.558 0-1.019.175a2.5 2.5 0 0 0-.82.498 2.6 2.6 0 0 0-.586.777h-.095v-1.319h-1.824v7.808q0 .922.469 1.597.462.681 1.318 1.047.858.366 2.029.366m0-4.636q-.63 0-1.084-.3a2 2 0 0 1-.696-.843q-.249-.534-.249-1.245v-.014q0-.711.249-1.245.242-.542.696-.843.454-.307 1.084-.307.637 0 1.084.307.44.3.674.843.227.534.227 1.245v.014q0 .703-.227 1.245a1.96 1.96 0 0 1-.674.843q-.447.3-1.084.3m-6.05 1.824v-8.006h-1.823v1.231h-.125a1.86 1.86 0 0 0-.732-1.004q-.536-.358-1.326-.358-.205 0-.403.029a2 2 0 0 0-.337.058v1.634q.22-.052.447-.073.22-.03.461-.03.609 0 1.062.227.455.228.704.652.249.417.249.989v4.651zm-9.492.161q1.194 0 2.058-.498a3.4 3.4 0 0 0 1.333-1.436q.462-.93.462-2.226v-.015q0-1.281-.469-2.212a3.34 3.34 0 0 0-1.326-1.435q-.864-.498-2.058-.498t-2.051.498a3.34 3.34 0 0 0-1.333 1.428q-.468.93-.468 2.219v.015q0 1.296.468 2.226.462.93 1.326 1.436.857.498 2.058.498m0-1.48q-.63 0-1.069-.315-.447-.322-.681-.915-.235-.6-.235-1.443v-.015q0-.85.235-1.442.234-.601.681-.916.44-.322 1.069-.322.63 0 1.077.322.447.315.681.916.234.593.234 1.442v.015q0 .843-.234 1.443t-.674.915q-.447.315-1.084.315m-8.335 1.48q.893 0 1.502-.344.607-.352.915-1.018.308-.675.308-1.626v-5.179h-1.824v4.761q0 .93-.366 1.399-.366.47-1.194.469-.44 0-.776-.132a1.5 1.5 0 0 1-.572-.396 1.7 1.7 0 0 1-.344-.615 2.7 2.7 0 0 1-.117-.82v-4.666h-1.824v8.006h1.824v-1.216h.124q.184.425.513.74.33.307.791.476.462.16 1.04.161m-6.518 2.497v-10.664h-1.824v1.253h-.125a2.4 2.4 0 0 0-.571-.74 2.6 2.6 0 0 0-.828-.476 3 3 0 0 0-1.032-.168q-1.004 0-1.736.505-.74.505-1.143 1.435-.41.924-.41 2.19v.015q0 1.275.403 2.197.403.924 1.143 1.429.732.498 1.743.498.55 0 1.025-.169.477-.176.835-.491.359-.315.571-.747h.125v3.933zm-3.809-4.064q-.622 0-1.069-.308a2 2 0 0 1-.689-.894q-.241-.586-.241-1.384v-.015q0-.812.241-1.391.242-.579.689-.886.447-.315 1.069-.315t1.077.315q.446.307.696.886.241.579.241 1.384v.015q0 .806-.241 1.391-.25.579-.704.894a1.86 1.86 0 0 1-1.069.308"/><path fill="#fff" d="M110.875 103.051a.375.375 0 0 0-.375-.375h-6.75v-1.125h6.75a1.5 1.5 0 0 1 1.5 1.5v6h-1.125z"/><path fill="#fff" fill-rule="evenodd" d="M109.75 105.301a1.5 1.5 0 0 0-1.5-1.5h-6.75a1.5 1.5 0 0 0-1.5 1.5v4.875a1.5 1.5 0 0 0 1.5 1.5h6.75a1.5 1.5 0 0 0 1.5-1.5zm-1.5-.375c.207 0 .375.168.375.375v4.875a.375.375 0 0 1-.375.375h-6.75a.375.375 0 0 1-.375-.375v-3.375h3.375a.375.375 0 0 0 .375-.375v-1.5z" clip-rule="evenodd"/><path fill="#fff" d="M92.737 111.801v-7.89h.102l2.33 1.688v-1.206l-2.438-1.752h-1.136v9.16zm-3.79 0v-.787l-3.097-3.352q-.585-.635-.914-1.047a3.1 3.1 0 0 1-.463-.756 2 2 0 0 1-.134-.736v-.013q0-.482.21-.863t.596-.603.927-.222q.546 0 .959.228.412.223.64.629.23.4.23.939l.006.013 1.092-.006.012-.007a2.74 2.74 0 0 0-.393-1.441 2.7 2.7 0 0 0-1.067-.99q-.678-.362-1.555-.362-.8 0-1.44.337-.642.33-1.01.907-.375.579-.375 1.321v.012q0 .521.184 1.003.178.483.635 1.073.457.584 1.289 1.441l2.368 2.444-.286-.527v.527l.28-.191h-4.622v1.029zM352.652 164.801v-10.569h-1.318v9.382h-5.098v1.187zm-11.242.139q1.12 0 1.941-.491a3.3 3.3 0 0 0 1.259-1.413q.44-.916.44-2.176v-.014q0-1.268-.44-2.183-.446-.915-1.259-1.406-.82-.49-1.941-.491-1.128 0-1.941.491-.813.49-1.253 1.406-.447.915-.446 2.183v.014q0 1.26.446 2.176.44.915 1.253 1.413.813.49 1.941.491m0-1.128q-.748 0-1.267-.352-.52-.351-.791-1.01-.279-.66-.279-1.59v-.014q0-.938.279-1.597.27-.659.791-1.003.52-.352 1.267-.352t1.267.352q.52.344.798 1.003.271.659.271 1.597v.014q0 .93-.271 1.59-.278.659-.798 1.01-.52.352-1.267.352m-5.618.989v-7.896h-1.274v1.187h-.118q-.3-.63-.864-.974-.564-.352-1.435-.352-1.333 0-2.044.762-.717.755-.718 2.16v5.113h1.275v-4.805q0-1.07.454-1.582.447-.52 1.391-.52.63 0 1.092.271.461.271.718.769.249.498.249 1.194v4.673zm-12.012 2.783q.952 0 1.663-.271.71-.264 1.135-.754.418-.485.52-1.128l-.015-.008h-1.318l-.007.008q-.103.447-.615.732-.513.293-1.363.293-1.062 0-1.655-.483-.6-.477-.601-1.348v-1.597h.118a2.69 2.69 0 0 0 1.464 1.209q.47.154 1.011.154 1.018 0 1.765-.484a3.23 3.23 0 0 0 1.143-1.347q.403-.858.403-1.963v-.015q0-1.106-.403-1.963a3.25 3.25 0 0 0-1.157-1.355q-.748-.498-1.78-.498-.556 0-1.026.176a2.6 2.6 0 0 0-.827.498 2.8 2.8 0 0 0-.608.769h-.088v-1.304h-1.274v7.786q0 .879.432 1.531.424.651 1.216 1.003.79.359 1.867.359m.059-4.321q-.732 0-1.253-.337a2.2 2.2 0 0 1-.805-.945q-.286-.6-.286-1.384v-.015q0-.783.286-1.392.278-.607.805-.952.52-.344 1.253-.344t1.245.344q.506.345.776.952.264.609.264 1.392v.015q0 .784-.264 1.384-.27.6-.776.945-.513.337-1.245.337m-10.166 1.538v-7.896h-1.275v1.187h-.117q-.3-.63-.864-.974-.564-.352-1.436-.352-1.332 0-2.043.762-.718.755-.718 2.16v5.113h1.275v-4.805q0-1.07.454-1.582.446-.52 1.391-.52.63 0 1.092.271.461.271.717.769.249.498.249 1.194v4.673zm-10.928.139q.747 0 1.348-.286.592-.285.945-.813.344-.526.344-1.245v-.014q0-1.056-.747-1.648-.755-.601-2.132-.682l-2.9-.175v1.018l2.747.176q.9.05 1.318.373.41.323.41.908v.015q0 .6-.454.937-.455.33-1.143.33-.651 0-1.157-.256a2.04 2.04 0 0 1-.791-.711 1.8 1.8 0 0 1-.293-1.011v-2.46q0-.733.447-1.114.44-.388 1.326-.388.71 0 1.164.256.455.249.608.711l.007.022h1.275l-.007-.044a2.1 2.1 0 0 0-.513-1.084 2.73 2.73 0 0 0-1.077-.725q-.659-.264-1.501-.264-.967 0-1.634.315-.673.315-1.018.908-.351.586-.351 1.407v5.405h1.274v-1.165h.117q.25.418.608.711.352.293.799.446.447.147.981.147m-6.108-.139v-7.896h-1.275v1.201h-.117a2.1 2.1 0 0 0-.806-.988q-.55-.352-1.325-.352-.535 0-.96.176a2.2 2.2 0 0 0-.732.491 2.4 2.4 0 0 0-.491.717h-.117a2.4 2.4 0 0 0-.571-.725 2.6 2.6 0 0 0-.828-.483 2.9 2.9 0 0 0-1.018-.176q-.805 0-1.362.3a2 2 0 0 0-.857.879q-.293.571-.293 1.399v5.457h1.274v-5.164q0-.871.41-1.304.403-.439 1.238-.439.549 0 .96.249t.637.667q.227.41.227.915v5.076h1.274v-5.362q0-.702.447-1.12.447-.425 1.194-.425.513 0 .93.271.41.272.652.732.234.454.234 1.011v4.893zm-16.275.139q1.128 0 1.941-.498a3.3 3.3 0 0 0 1.245-1.406q.432-.916.432-2.154v-.007q0-1.223-.432-2.146a3.45 3.45 0 0 0-1.237-1.443q-.799-.52-1.868-.52-1.077 0-1.846.498a3.2 3.2 0 0 0-1.186 1.392q-.418.886-.418 2.065v.498h6.328v-1.018h-5.676l.63.93v-.505q0-.93.278-1.531.279-.6.769-.893a2.1 2.1 0 0 1 1.128-.301q.637 0 1.143.315.498.308.791.916t.293 1.494v.505q0 .843-.286 1.443-.285.594-.813.916-.526.315-1.245.315a2.7 2.7 0 0 1-.93-.147 2 2 0 0 1-.652-.373 1.4 1.4 0 0 1-.359-.462l-.029-.066h-1.275l.015.059q.102.403.366.784.256.374.667.681.41.3.974.483.556.176 1.252.176m-12.81 0q1.12 0 1.941-.491a3.3 3.3 0 0 0 1.26-1.413q.44-.916.439-2.176v-.014q0-1.268-.439-2.183-.447-.915-1.26-1.406-.82-.49-1.941-.491-1.128 0-1.941.491-.813.49-1.252 1.406-.447.915-.447 2.183v.014q0 1.26.447 2.176.44.915 1.252 1.413.813.49 1.941.491m0-1.128q-.747 0-1.267-.352-.52-.351-.791-1.01-.278-.66-.278-1.59v-.014q0-.938.278-1.597.271-.659.791-1.003.52-.352 1.267-.352.748 0 1.267.352.52.344.799 1.003.27.659.271 1.597v.014q0 .93-.271 1.59-.279.659-.799 1.01-.52.352-1.267.352m-6.145.989v-6.841h1.311v-1.055h-1.311v-.879q0-1.179-.586-1.75-.585-.579-1.706-.579-.235 0-.44.022-.212.015-.41.052v1.018q.117-.023.271-.03t.322-.007q.681 0 .982.33.293.328.293.981v.842h-1.795v1.055h1.795v6.841zm-11.931.058q1.216 0 1.765-.49.542-.49.542-1.619v-4.79h1.245v-1.055h-1.245v-2.043h-1.318v2.043h-1.729v1.055h1.729v4.468q0 .696-.264 1.003-.264.3-.879.3-.168 0-.285-.007l-.301-.022v1.084q.183.03.367.051.183.022.373.022m-2.717-.058v-11.03h-1.275v4.321h-.117q-.3-.63-.864-.974-.564-.352-1.436-.352-.886 0-1.501.344-.615.338-.938.989-.322.652-.322 1.589v5.113h1.275v-4.805q0-1.07.454-1.582.446-.52 1.391-.52.63 0 1.092.271.46.271.717.769.249.498.249 1.194v4.673zm-11.983.139q1.128 0 1.941-.498a3.3 3.3 0 0 0 1.245-1.406q.433-.916.433-2.154v-.007q0-1.223-.433-2.146a3.45 3.45 0 0 0-1.237-1.443q-.799-.52-1.868-.52-1.077 0-1.846.498a3.2 3.2 0 0 0-1.186 1.392q-.418.886-.418 2.065v.498h6.328v-1.018h-5.676l.63.93v-.505q0-.93.278-1.531.279-.6.769-.893a2.1 2.1 0 0 1 1.128-.301q.638 0 1.143.315.498.308.791.916t.293 1.494v.505q0 .843-.286 1.443-.285.594-.813.916-.526.315-1.245.315a2.7 2.7 0 0 1-.93-.147 2 2 0 0 1-.652-.373 1.4 1.4 0 0 1-.359-.462l-.029-.066h-1.275l.015.059q.103.403.366.784.256.374.667.681.41.3.974.483.556.176 1.252.176m-12.275 0q.879 0 1.553-.264.673-.27 1.084-.754.402-.484.476-1.135h-1.304q-.16.49-.63.791-.468.3-1.223.3-.535 0-.937-.154a1.6 1.6 0 0 1-.645-.432.96.96 0 0 1-.234-.637v-.015q0-.402.322-.681.322-.285 1.055-.461l1.223-.293q1.105-.264 1.626-.769.52-.513.52-1.363v-.007q0-.66-.381-1.179a2.64 2.64 0 0 0-1.055-.821q-.667-.3-1.501-.3-.828 0-1.465.264a2.5 2.5 0 0 0-1.033.732 2.17 2.17 0 0 0-.483 1.121h1.252q.125-.47.571-.762.447-.293 1.165-.293.47 0 .835.154.366.147.579.41a.96.96 0 0 1 .212.615v.015a.83.83 0 0 1-.315.666q-.315.264-1.011.433l-1.215.293q-1.114.27-1.656.776-.549.506-.549 1.355v.015q0 .702.417 1.245.418.534 1.136.835.71.3 1.611.3m-5.171-.139v-7.896h-1.274v7.896zm-.644-9.419a.86.86 0 0 0 .622-.257.86.86 0 0 0 .256-.622.85.85 0 0 0-.256-.623.86.86 0 0 0-.622-.256.85.85 0 0 0-.623.256.85.85 0 0 0-.256.623.86.86 0 0 0 .256.622.85.85 0 0 0 .623.257m-5.838 9.477q1.216 0 1.765-.49.543-.49.542-1.619v-4.79h1.245v-1.055h-1.245v-2.043h-1.318v2.043h-1.729v1.055h1.729v4.468q0 .696-.264 1.003-.264.3-.879.3-.168 0-.285-.007l-.301-.022v1.084q.183.03.367.051.183.022.373.022m-5.764.081q1.128 0 1.941-.498a3.3 3.3 0 0 0 1.245-1.406q.432-.916.432-2.154v-.007q0-1.223-.432-2.146a3.45 3.45 0 0 0-1.238-1.443q-.799-.52-1.867-.52-1.077 0-1.846.498a3.2 3.2 0 0 0-1.187 1.392q-.417.886-.417 2.065v.498h6.328v-1.018h-5.676l.63.93v-.505q0-.93.278-1.531t.769-.893a2.1 2.1 0 0 1 1.128-.301q.638 0 1.142.315.498.308.791.916t.293 1.494v.505q0 .843-.285 1.443a2.13 2.13 0 0 1-.813.916q-.528.315-1.245.315-.536 0-.93-.147a2 2 0 0 1-.652-.373 1.4 1.4 0 0 1-.359-.462l-.03-.066h-1.274l.015.059q.102.403.366.784.256.374.666.681.411.3.975.483.556.176 1.252.176m-12.371-.081q1.216 0 1.766-.49.542-.49.542-1.619v-4.79h1.245v-1.055h-1.245v-2.043h-1.319v2.043h-1.728v1.055h1.728v4.468q0 .696-.264 1.003-.263.3-.878.3-.17 0-.286-.007l-.3-.022v1.084q.183.03.366.051.183.022.373.022m-2.717-.058v-11.03h-1.274v4.321h-.118q-.3-.63-.864-.974-.564-.352-1.435-.352-.887 0-1.502.344-.615.338-.937.989-.323.652-.323 1.589v5.113h1.275v-4.805q0-1.07.454-1.582.447-.52 1.392-.52.629 0 1.091.271t.718.769q.249.498.249 1.194v4.673zm-10.928.139q.747 0 1.348-.286.593-.285.945-.813.344-.526.344-1.245v-.014q0-1.056-.747-1.648-.754-.601-2.131-.682l-2.901-.175v1.018l2.747.176q.9.05 1.318.373.41.323.41.908v.015q0 .6-.454.937-.453.33-1.142.33-.653 0-1.158-.256a2.04 2.04 0 0 1-.791-.711 1.8 1.8 0 0 1-.293-1.011v-2.46q0-.733.447-1.114.44-.388 1.326-.388.711 0 1.164.256.455.249.608.711l.008.022h1.274l-.007-.044a2.1 2.1 0 0 0-.513-1.084 2.73 2.73 0 0 0-1.077-.725q-.658-.264-1.501-.264-.967 0-1.633.315-.675.315-1.018.908-.352.586-.352 1.407v5.405h1.274v-1.165h.118q.249.418.608.711.351.293.798.446.447.147.981.147m-8.913-.081q1.216 0 1.765-.49.542-.49.542-1.619v-4.79h1.245v-1.055h-1.245v-2.043h-1.318v2.043h-1.729v1.055h1.729v4.468q0 .696-.264 1.003-.264.3-.879.3-.168 0-.286-.007l-.3-.022v1.084q.183.03.366.051.183.022.374.022m-9.573.081q.88 0 1.553-.264.673-.27 1.084-.754.402-.484.476-1.135h-1.304q-.16.49-.63.791-.468.3-1.223.3-.535 0-.937-.154a1.6 1.6 0 0 1-.645-.432.96.96 0 0 1-.234-.637v-.015q0-.402.322-.681.322-.285 1.055-.461l1.223-.293q1.106-.264 1.626-.769.52-.513.52-1.363v-.007q0-.66-.381-1.179a2.64 2.64 0 0 0-1.055-.821q-.666-.3-1.501-.3-.828 0-1.465.264a2.5 2.5 0 0 0-1.033.732 2.2 2.2 0 0 0-.483 1.121h1.252q.125-.47.572-.762t1.164-.293q.47 0 .835.154.366.147.579.41a.96.96 0 0 1 .212.615v.015a.83.83 0 0 1-.315.666q-.315.264-1.011.433l-1.215.293q-1.114.27-1.656.776-.549.506-.549 1.355v.015q0 .702.417 1.245.418.534 1.136.835.71.3 1.611.3m-5.142 2.498v-10.533h-1.274v1.26h-.117a2.6 2.6 0 0 0-.608-.747 2.6 2.6 0 0 0-.835-.483 3 3 0 0 0-1.018-.169q-1.004 0-1.743.513-.747.505-1.157 1.421-.411.915-.411 2.146v.014q0 1.238.411 2.154.41.915 1.157 1.421.74.505 1.743.505.542 0 1.025-.169a2.9 2.9 0 0 0 .85-.483q.366-.308.586-.732h.117v3.882zm-3.559-3.626q-.726 0-1.238-.352-.513-.358-.784-1.018-.278-.666-.278-1.582v-.014q0-.924.278-1.582.271-.66.784-1.011.512-.359 1.238-.359.717 0 1.238.359.519.359.798 1.018.279.658.278 1.575v.014q0 .909-.278 1.575-.279.66-.798 1.018-.52.359-1.238.359m-7.764 1.128q.747 0 1.348-.286.593-.285.945-.813.344-.526.344-1.245v-.014q0-1.056-.747-1.648-.755-.601-2.132-.682l-2.9-.175v1.018l2.747.176q.9.05 1.318.373.41.323.41.908v.015q0 .6-.454.937-.455.33-1.142.33-.653 0-1.158-.256a2.04 2.04 0 0 1-.791-.711 1.8 1.8 0 0 1-.293-1.011v-2.46q0-.733.447-1.114.44-.388 1.326-.388.71 0 1.164.256.455.249.608.711l.008.022h1.274l-.007-.044a2.1 2.1 0 0 0-.513-1.084 2.73 2.73 0 0 0-1.077-.725q-.659-.264-1.501-.264-.967 0-1.633.315-.674.315-1.019.908-.351.586-.351 1.407v5.405h1.274v-1.165h.117q.25.418.608.711.352.293.799.446.447.147.981.147m-6.108-.139v-7.896h-1.275v1.187h-.117q-.3-.63-.864-.974-.564-.352-1.436-.352-1.332 0-2.043.762-.718.755-.718 2.16v5.113h1.275v-4.805q0-1.07.454-1.582.447-.52 1.391-.52.63 0 1.092.271.46.271.717.769.249.498.249 1.194v4.673zm-11.47.139q.88 0 1.553-.264.673-.27 1.084-.754.402-.484.476-1.135h-1.304q-.16.49-.63.791-.468.3-1.223.3-.534 0-.937-.154a1.6 1.6 0 0 1-.645-.432.96.96 0 0 1-.234-.637v-.015q0-.402.322-.681.322-.285 1.055-.461l1.223-.293q1.106-.264 1.626-.769.52-.513.52-1.363v-.007q0-.66-.381-1.179a2.64 2.64 0 0 0-1.055-.821q-.666-.3-1.501-.3-.828 0-1.465.264a2.5 2.5 0 0 0-1.033.732 2.2 2.2 0 0 0-.483 1.121h1.252q.125-.47.572-.762t1.164-.293q.47 0 .835.154.366.147.579.41a.96.96 0 0 1 .212.615v.015a.83.83 0 0 1-.315.666q-.315.264-1.011.433l-1.215.293q-1.114.27-1.656.776-.549.506-.549 1.355v.015q0 .702.417 1.245.418.534 1.136.835.71.3 1.611.3m-11.528 0q.747 0 1.347-.286a2.3 2.3 0 0 0 .945-.813q.344-.526.344-1.245v-.014q0-1.056-.747-1.648-.754-.601-2.131-.682l-2.9-.175v1.018l2.746.176q.901.05 1.319.373.41.323.41.908v.015q0 .6-.454.937-.454.33-1.143.33a2.5 2.5 0 0 1-1.157-.256 2.03 2.03 0 0 1-.791-.711 1.8 1.8 0 0 1-.293-1.011v-2.46q0-.733.447-1.114.44-.388 1.325-.388.71 0 1.165.256.454.249.608.711l.007.022h1.275l-.008-.044a2.1 2.1 0 0 0-.513-1.084 2.74 2.74 0 0 0-1.076-.725q-.66-.264-1.502-.264-.966 0-1.633.315-.674.315-1.018.908-.351.586-.352 1.407v5.405h1.275v-1.165h.117q.25.418.608.711.351.293.798.446.447.147.982.147m-10.401-.139v-11.03h-1.274v11.03zm-6.965.139q1.12 0 1.94-.491a3.3 3.3 0 0 0 1.261-1.413q.44-.916.439-2.176v-.014q0-1.268-.439-2.183-.447-.915-1.26-1.406-.82-.49-1.941-.491-1.128 0-1.94.491-.814.49-1.253 1.406-.447.915-.447 2.183v.014q0 1.26.447 2.176.44.915 1.252 1.413.814.49 1.941.491m0-1.128q-.747 0-1.267-.352-.52-.351-.791-1.01-.279-.66-.278-1.59v-.014q0-.938.278-1.597.27-.659.79-1.003.521-.352 1.268-.352t1.267.352q.52.344.798 1.003.271.659.271 1.597v.014q0 .93-.27 1.59-.279.659-.799 1.01-.52.352-1.267.352m-6.658 1.062a.94.94 0 0 0 .674-.278.93.93 0 0 0 .278-.674.92.92 0 0 0-.278-.674.93.93 0 0 0-.674-.278.92.92 0 0 0-.673.278.92.92 0 0 0-.279.674q0 .388.279.674a.92.92 0 0 0 .673.278m-3.808 0a.94.94 0 0 0 .674-.278.93.93 0 0 0 .278-.674.92.92 0 0 0-.278-.674.93.93 0 0 0-.674-.278.92.92 0 0 0-.674.278.92.92 0 0 0-.278.674q0 .388.278.674a.92.92 0 0 0 .674.278m-3.809 0a.94.94 0 0 0 .674-.278.93.93 0 0 0 .278-.674.92.92 0 0 0-.278-.674.93.93 0 0 0-.674-.278.92.92 0 0 0-.674.278.92.92 0 0 0-.278.674q0 .388.278.674a.92.92 0 0 0 .674.278M352.652 204.801v-10.569h-1.318v9.382h-5.098v1.187zm-11.242.139q1.12 0 1.941-.491a3.3 3.3 0 0 0 1.259-1.413q.44-.916.44-2.176v-.014q0-1.268-.44-2.183-.446-.915-1.259-1.406-.82-.49-1.941-.491-1.128 0-1.941.491-.813.49-1.253 1.406-.447.915-.446 2.183v.014q0 1.26.446 2.176.44.915 1.253 1.413.813.49 1.941.491m0-1.128q-.748 0-1.267-.352-.52-.351-.791-1.01-.279-.66-.279-1.59v-.014q0-.938.279-1.597.27-.659.791-1.003.52-.352 1.267-.352t1.267.352q.52.344.798 1.003.271.659.271 1.597v.014q0 .93-.271 1.59-.278.659-.798 1.01-.52.352-1.267.352m-5.618.989v-7.896h-1.274v1.187h-.118q-.3-.63-.864-.974-.564-.352-1.435-.352-1.333 0-2.044.762-.717.755-.718 2.16v5.113h1.275v-4.805q0-1.07.454-1.582.447-.52 1.391-.52.63 0 1.092.271.461.271.718.769.249.498.249 1.194v4.673zm-12.012 2.783q.952 0 1.663-.271.71-.264 1.135-.754.418-.485.52-1.128l-.015-.008h-1.318l-.007.008q-.103.447-.615.732-.513.293-1.363.293-1.062 0-1.655-.483-.6-.477-.601-1.348v-1.597h.118a2.69 2.69 0 0 0 1.464 1.209q.47.154 1.011.154 1.018 0 1.765-.484a3.23 3.23 0 0 0 1.143-1.347q.403-.858.403-1.963v-.015q0-1.106-.403-1.963a3.25 3.25 0 0 0-1.157-1.355q-.748-.498-1.78-.498-.556 0-1.026.176a2.6 2.6 0 0 0-.827.498 2.8 2.8 0 0 0-.608.769h-.088v-1.304h-1.274v7.786q0 .879.432 1.531.424.652 1.216 1.003.79.359 1.867.359m.059-4.321q-.732 0-1.253-.337a2.2 2.2 0 0 1-.805-.945q-.286-.6-.286-1.384v-.015q0-.783.286-1.392.278-.607.805-.952.52-.344 1.253-.344t1.245.344q.506.345.776.952.264.609.264 1.392v.015q0 .784-.264 1.384-.27.6-.776.945-.513.337-1.245.337m-10.166 1.538v-7.896h-1.275v1.187h-.117q-.3-.63-.864-.974-.564-.352-1.436-.352-1.332 0-2.043.762-.718.755-.718 2.16v5.113h1.275v-4.805q0-1.07.454-1.582.446-.52 1.391-.52.63 0 1.092.271.461.271.717.769.249.498.249 1.194v4.673zm-10.928.139q.747 0 1.348-.286.592-.285.945-.813.344-.526.344-1.245v-.014q0-1.056-.747-1.648-.755-.601-2.132-.682l-2.9-.175v1.018l2.747.176q.9.05 1.318.373.41.323.41.908v.015q0 .6-.454.937-.455.33-1.143.33-.651 0-1.157-.256a2.04 2.04 0 0 1-.791-.711 1.8 1.8 0 0 1-.293-1.011v-2.46q0-.733.447-1.114.44-.388 1.326-.388.71 0 1.164.256.455.249.608.711l.007.022h1.275l-.007-.044a2.1 2.1 0 0 0-.513-1.084 2.73 2.73 0 0 0-1.077-.725q-.659-.264-1.501-.264-.967 0-1.634.315-.673.315-1.018.908-.351.586-.351 1.407v5.405h1.274v-1.165h.117q.25.418.608.711.352.293.799.446.447.147.981.147m-6.108-.139v-7.896h-1.275v1.201h-.117a2.1 2.1 0 0 0-.806-.988q-.55-.352-1.325-.352-.535 0-.96.176a2.2 2.2 0 0 0-.732.491 2.4 2.4 0 0 0-.491.717h-.117a2.4 2.4 0 0 0-.571-.725 2.6 2.6 0 0 0-.828-.483 2.9 2.9 0 0 0-1.018-.176q-.805 0-1.362.3a2 2 0 0 0-.857.879q-.293.571-.293 1.399v5.457h1.274v-5.164q0-.871.41-1.304.403-.438 1.238-.439.549 0 .96.249t.637.667q.227.41.227.915v5.076h1.274v-5.362q0-.702.447-1.12.447-.425 1.194-.425.513 0 .93.271.41.272.652.732.234.454.234 1.011v4.893zm-16.275.139q1.128 0 1.941-.498a3.3 3.3 0 0 0 1.245-1.406q.432-.916.432-2.154v-.007q0-1.223-.432-2.146a3.45 3.45 0 0 0-1.237-1.443q-.799-.52-1.868-.52-1.077 0-1.846.498a3.2 3.2 0 0 0-1.186 1.392q-.418.886-.418 2.065v.498h6.328v-1.018h-5.676l.63.93v-.505q0-.93.278-1.531.279-.6.769-.893a2.1 2.1 0 0 1 1.128-.301q.637 0 1.143.315.498.308.791.916t.293 1.494v.505q0 .843-.286 1.443-.285.594-.813.916-.526.315-1.245.315a2.7 2.7 0 0 1-.93-.147 2 2 0 0 1-.652-.373 1.4 1.4 0 0 1-.359-.462l-.029-.066h-1.275l.015.059q.102.402.366.784.256.374.667.681.41.3.974.483.556.176 1.252.176m-12.81 0q1.12 0 1.941-.491a3.3 3.3 0 0 0 1.26-1.413q.44-.916.439-2.176v-.014q0-1.268-.439-2.183-.447-.915-1.26-1.406-.82-.49-1.941-.491-1.128 0-1.941.491-.813.49-1.252 1.406-.447.915-.447 2.183v.014q0 1.26.447 2.176.44.915 1.252 1.413.813.49 1.941.491m0-1.128q-.747 0-1.267-.352-.52-.351-.791-1.01-.278-.66-.278-1.59v-.014q0-.938.278-1.597.271-.659.791-1.003.52-.352 1.267-.352.748 0 1.267.352.52.344.799 1.003.27.659.271 1.597v.014q0 .93-.271 1.59-.279.659-.799 1.01-.52.352-1.267.352m-6.145.989v-6.841h1.311v-1.055h-1.311v-.879q0-1.179-.586-1.75-.585-.579-1.706-.579-.235 0-.44.022-.212.015-.41.052v1.018q.117-.023.271-.03t.322-.007q.681 0 .982.33.293.329.293.981v.842h-1.795v1.055h1.795v6.841zm-11.931.058q1.216 0 1.765-.49.542-.49.542-1.619v-4.79h1.245v-1.055h-1.245v-2.043h-1.318v2.043h-1.729v1.055h1.729v4.468q0 .696-.264 1.003-.264.3-.879.3-.168 0-.285-.007l-.301-.022v1.084q.183.03.367.051.183.022.373.022m-2.717-.058v-11.03h-1.275v4.321h-.117q-.3-.63-.864-.974-.564-.352-1.436-.352-.886 0-1.501.344-.615.338-.938.989-.322.652-.322 1.589v5.113h1.275v-4.805q0-1.07.454-1.582.446-.52 1.391-.52.63 0 1.092.271.46.271.717.769.249.498.249 1.194v4.673zm-11.983.139q1.128 0 1.941-.498a3.3 3.3 0 0 0 1.245-1.406q.433-.916.433-2.154v-.007q0-1.223-.433-2.146a3.45 3.45 0 0 0-1.237-1.443q-.799-.52-1.868-.52-1.077 0-1.846.498a3.2 3.2 0 0 0-1.186 1.392q-.418.886-.418 2.065v.498h6.328v-1.018h-5.676l.63.93v-.505q0-.93.278-1.531.279-.6.769-.893a2.1 2.1 0 0 1 1.128-.301q.638 0 1.143.315.498.308.791.916t.293 1.494v.505q0 .843-.286 1.443-.285.594-.813.916-.526.315-1.245.315a2.7 2.7 0 0 1-.93-.147 2 2 0 0 1-.652-.373 1.4 1.4 0 0 1-.359-.462l-.029-.066h-1.275l.015.059q.103.402.366.784.256.374.667.681.41.3.974.483.556.176 1.252.176m-12.275 0q.879 0 1.553-.264.673-.27 1.084-.754.402-.484.476-1.135h-1.304q-.16.49-.63.791-.468.3-1.223.3-.535 0-.937-.154a1.6 1.6 0 0 1-.645-.432.96.96 0 0 1-.234-.637v-.015q0-.402.322-.681.322-.285 1.055-.461l1.223-.293q1.105-.264 1.626-.769.52-.513.52-1.363v-.007q0-.66-.381-1.179a2.64 2.64 0 0 0-1.055-.821q-.667-.3-1.501-.3-.828 0-1.465.264a2.5 2.5 0 0 0-1.033.732 2.17 2.17 0 0 0-.483 1.121h1.252q.125-.47.571-.762.447-.293 1.165-.293.47 0 .835.154.366.147.579.41a.96.96 0 0 1 .212.615v.015a.83.83 0 0 1-.315.666q-.315.264-1.011.433l-1.215.293q-1.114.27-1.656.776-.549.506-.549 1.355v.015q0 .702.417 1.245.418.534 1.136.835.71.3 1.611.3m-5.171-.139v-7.896h-1.274v7.896zm-.644-9.419a.86.86 0 0 0 .622-.257.86.86 0 0 0 .256-.622.85.85 0 0 0-.256-.623.86.86 0 0 0-.622-.256.85.85 0 0 0-.623.256.85.85 0 0 0-.256.623.86.86 0 0 0 .256.622.85.85 0 0 0 .623.257m-5.838 9.477q1.216 0 1.765-.49.543-.49.542-1.619v-4.79h1.245v-1.055h-1.245v-2.043h-1.318v2.043h-1.729v1.055h1.729v4.468q0 .696-.264 1.003-.264.3-.879.3-.168 0-.285-.007l-.301-.022v1.084q.183.03.367.051.183.022.373.022m-5.764.081q1.128 0 1.941-.498a3.3 3.3 0 0 0 1.245-1.406q.432-.916.432-2.154v-.007q0-1.223-.432-2.146a3.45 3.45 0 0 0-1.238-1.443q-.799-.52-1.867-.52-1.077 0-1.846.498a3.2 3.2 0 0 0-1.187 1.392q-.417.886-.417 2.065v.498h6.328v-1.018h-5.676l.63.93v-.505q0-.93.278-1.531t.769-.893a2.1 2.1 0 0 1 1.128-.301q.638 0 1.142.315.498.308.791.916t.293 1.494v.505q0 .843-.285 1.443a2.13 2.13 0 0 1-.813.916q-.528.315-1.245.315-.536 0-.93-.147a2 2 0 0 1-.652-.373 1.4 1.4 0 0 1-.359-.462l-.03-.066h-1.274l.015.059q.102.402.366.784.256.374.666.681.411.3.975.483.556.176 1.252.176m-12.371-.081q1.216 0 1.766-.49.542-.49.542-1.619v-4.79h1.245v-1.055h-1.245v-2.043h-1.319v2.043h-1.728v1.055h1.728v4.468q0 .696-.264 1.003-.263.3-.878.3-.17 0-.286-.007l-.3-.022v1.084q.183.03.366.051.183.022.373.022m-2.717-.058v-11.03h-1.274v4.321h-.118q-.3-.63-.864-.974-.564-.352-1.435-.352-.887 0-1.502.344-.615.338-.937.989-.323.652-.323 1.589v5.113h1.275v-4.805q0-1.07.454-1.582.447-.52 1.392-.52.629 0 1.091.271t.718.769q.249.498.249 1.194v4.673zm-10.928.139q.747 0 1.348-.286.593-.285.945-.813.344-.526.344-1.245v-.014q0-1.056-.747-1.648-.754-.601-2.131-.682l-2.901-.175v1.018l2.747.176q.9.05 1.318.373.41.323.41.908v.015q0 .6-.454.937-.453.33-1.142.33-.653 0-1.158-.256a2.04 2.04 0 0 1-.791-.711 1.8 1.8 0 0 1-.293-1.011v-2.46q0-.733.447-1.114.44-.388 1.326-.388.711 0 1.164.256.455.249.608.711l.008.022h1.274l-.007-.044a2.1 2.1 0 0 0-.513-1.084 2.73 2.73 0 0 0-1.077-.725q-.658-.264-1.501-.264-.967 0-1.633.315-.675.315-1.018.908-.352.586-.352 1.407v5.405h1.274v-1.165h.118q.249.418.608.711.351.293.798.446.447.147.981.147m-8.913-.081q1.216 0 1.765-.49.542-.49.542-1.619v-4.79h1.245v-1.055h-1.245v-2.043h-1.318v2.043h-1.729v1.055h1.729v4.468q0 .696-.264 1.003-.264.3-.879.3-.168 0-.286-.007l-.3-.022v1.084q.183.03.366.051.183.022.374.022m-9.573.081q.88 0 1.553-.264.673-.27 1.084-.754.402-.484.476-1.135h-1.304q-.16.49-.63.791-.468.3-1.223.3-.535 0-.937-.154a1.6 1.6 0 0 1-.645-.432.96.96 0 0 1-.234-.637v-.015q0-.402.322-.681.322-.285 1.055-.461l1.223-.293q1.106-.264 1.626-.769.52-.513.52-1.363v-.007q0-.66-.381-1.179a2.64 2.64 0 0 0-1.055-.821q-.666-.3-1.501-.3-.828 0-1.465.264a2.5 2.5 0 0 0-1.033.732 2.2 2.2 0 0 0-.483 1.121h1.252q.125-.47.572-.762t1.164-.293q.47 0 .835.154.366.147.579.41a.96.96 0 0 1 .212.615v.015a.83.83 0 0 1-.315.666q-.315.264-1.011.433l-1.215.293q-1.114.27-1.656.776-.549.506-.549 1.355v.015q0 .702.417 1.245.418.534 1.136.835.71.3 1.611.3m-5.142 2.498v-10.533h-1.274v1.26h-.117a2.6 2.6 0 0 0-.608-.747 2.6 2.6 0 0 0-.835-.483 3 3 0 0 0-1.018-.169q-1.004 0-1.743.513-.747.505-1.157 1.421-.411.915-.411 2.146v.014q0 1.238.411 2.154.41.915 1.157 1.421.74.505 1.743.505.542 0 1.025-.169a2.9 2.9 0 0 0 .85-.483q.366-.308.586-.732h.117v3.882zm-3.559-3.626q-.726 0-1.238-.352-.513-.358-.784-1.018-.278-.666-.278-1.582v-.014q0-.924.278-1.582.271-.66.784-1.011.512-.359 1.238-.359.717 0 1.238.359.519.359.798 1.018.279.658.278 1.575v.014q0 .909-.278 1.575-.279.66-.798 1.018-.52.359-1.238.359m-7.764 1.128q.747 0 1.348-.286.593-.285.945-.813.344-.526.344-1.245v-.014q0-1.056-.747-1.648-.755-.601-2.132-.682l-2.9-.175v1.018l2.747.176q.9.05 1.318.373.41.323.41.908v.015q0 .6-.454.937-.455.33-1.142.33-.653 0-1.158-.256a2.04 2.04 0 0 1-.791-.711 1.8 1.8 0 0 1-.293-1.011v-2.46q0-.733.447-1.114.44-.388 1.326-.388.71 0 1.164.256.455.249.608.711l.008.022h1.274l-.007-.044a2.1 2.1 0 0 0-.513-1.084 2.73 2.73 0 0 0-1.077-.725q-.659-.264-1.501-.264-.967 0-1.633.315-.674.315-1.019.908-.351.586-.351 1.407v5.405h1.274v-1.165h.117q.25.418.608.711.352.293.799.446.447.147.981.147m-6.108-.139v-7.896h-1.275v1.187h-.117q-.3-.63-.864-.974-.564-.352-1.436-.352-1.332 0-2.043.762-.718.755-.718 2.16v5.113h1.275v-4.805q0-1.07.454-1.582.447-.52 1.391-.52.63 0 1.092.271.46.271.717.769.249.498.249 1.194v4.673zm-11.47.139q.88 0 1.553-.264.673-.27 1.084-.754.402-.484.476-1.135h-1.304q-.16.49-.63.791-.468.3-1.223.3-.534 0-.937-.154a1.6 1.6 0 0 1-.645-.432.96.96 0 0 1-.234-.637v-.015q0-.402.322-.681.322-.285 1.055-.461l1.223-.293q1.106-.264 1.626-.769.52-.513.52-1.363v-.007q0-.66-.381-1.179a2.64 2.64 0 0 0-1.055-.821q-.666-.3-1.501-.3-.828 0-1.465.264a2.5 2.5 0 0 0-1.033.732 2.2 2.2 0 0 0-.483 1.121h1.252q.125-.47.572-.762t1.164-.293q.47 0 .835.154.366.147.579.41a.96.96 0 0 1 .212.615v.015a.83.83 0 0 1-.315.666q-.315.264-1.011.433l-1.215.293q-1.114.27-1.656.776-.549.506-.549 1.355v.015q0 .702.417 1.245.418.534 1.136.835.71.3 1.611.3m-11.528 0q.747 0 1.347-.286a2.3 2.3 0 0 0 .945-.813q.344-.526.344-1.245v-.014q0-1.056-.747-1.648-.754-.601-2.131-.682l-2.9-.175v1.018l2.746.176q.901.05 1.319.373.41.323.41.908v.015q0 .6-.454.937-.454.33-1.143.33a2.5 2.5 0 0 1-1.157-.256 2.03 2.03 0 0 1-.791-.711 1.8 1.8 0 0 1-.293-1.011v-2.46q0-.733.447-1.114.44-.388 1.325-.388.71 0 1.165.256.454.249.608.711l.007.022h1.275l-.008-.044a2.1 2.1 0 0 0-.513-1.084 2.74 2.74 0 0 0-1.076-.725q-.66-.264-1.502-.264-.966 0-1.633.315-.674.315-1.018.908-.351.586-.352 1.407v5.405h1.275v-1.165h.117q.25.418.608.711.351.293.798.446.447.147.982.147m-10.401-.139v-11.03h-1.274v11.03zm-6.965.139q1.12 0 1.94-.491a3.3 3.3 0 0 0 1.261-1.413q.44-.916.439-2.176v-.014q0-1.268-.439-2.183-.447-.915-1.26-1.406-.82-.49-1.941-.491-1.128 0-1.94.491-.814.49-1.253 1.406-.447.915-.447 2.183v.014q0 1.26.447 2.176.44.915 1.252 1.413.814.49 1.941.491m0-1.128q-.747 0-1.267-.352-.52-.351-.791-1.01-.279-.66-.278-1.59v-.014q0-.938.278-1.597.27-.659.79-1.003.521-.352 1.268-.352t1.267.352q.52.344.798 1.003.271.659.271 1.597v.014q0 .93-.27 1.59-.279.659-.799 1.01-.52.352-1.267.352m-6.658 1.062a.94.94 0 0 0 .674-.278.93.93 0 0 0 .278-.674.92.92 0 0 0-.278-.674.93.93 0 0 0-.674-.278.92.92 0 0 0-.673.278.92.92 0 0 0-.279.674q0 .388.279.674a.92.92 0 0 0 .673.278m-3.808 0a.94.94 0 0 0 .674-.278.93.93 0 0 0 .278-.674.92.92 0 0 0-.278-.674.93.93 0 0 0-.674-.278.92.92 0 0 0-.674.278.92.92 0 0 0-.278.674q0 .388.278.674a.92.92 0 0 0 .674.278m-3.809 0a.94.94 0 0 0 .674-.278.93.93 0 0 0 .278-.674.92.92 0 0 0-.278-.674.93.93 0 0 0-.674-.278.92.92 0 0 0-.674.278.92.92 0 0 0-.278.674q0 .388.278.674a.92.92 0 0 0 .674.278M352.652 244.801v-10.569h-1.318v9.382h-5.098v1.187zm-11.242.139q1.12 0 1.941-.491a3.3 3.3 0 0 0 1.259-1.413q.44-.916.44-2.176v-.014q0-1.268-.44-2.183-.446-.915-1.259-1.406-.82-.49-1.941-.491-1.128 0-1.941.491-.813.49-1.253 1.406-.447.915-.446 2.183v.014q0 1.26.446 2.176.44.915 1.253 1.413.813.49 1.941.491m0-1.128q-.748 0-1.267-.352-.52-.351-.791-1.01-.279-.66-.279-1.59v-.014q0-.938.279-1.597.27-.659.791-1.003.52-.352 1.267-.352t1.267.352q.52.344.798 1.003.271.659.271 1.597v.014q0 .93-.271 1.59-.278.659-.798 1.01-.52.352-1.267.352m-5.618.989v-7.896h-1.274v1.187h-.118q-.3-.63-.864-.974-.564-.352-1.435-.352-1.333 0-2.044.762-.717.755-.718 2.16v5.113h1.275v-4.805q0-1.07.454-1.582.447-.52 1.391-.52.63 0 1.092.271.461.271.718.769.249.498.249 1.194v4.673zm-12.012 2.783q.952 0 1.663-.271.71-.264 1.135-.754.418-.485.52-1.128l-.015-.008h-1.318l-.007.008q-.103.447-.615.732-.513.293-1.363.293-1.062 0-1.655-.483-.6-.477-.601-1.348v-1.597h.118a2.69 2.69 0 0 0 1.464 1.209q.47.154 1.011.154 1.018 0 1.765-.484a3.23 3.23 0 0 0 1.143-1.347q.403-.858.403-1.963v-.015q0-1.106-.403-1.963a3.25 3.25 0 0 0-1.157-1.355q-.748-.498-1.78-.498-.556 0-1.026.176a2.6 2.6 0 0 0-.827.498 2.8 2.8 0 0 0-.608.769h-.088v-1.304h-1.274v7.786q0 .879.432 1.531.424.652 1.216 1.003.79.359 1.867.359m.059-4.321q-.732 0-1.253-.337a2.2 2.2 0 0 1-.805-.945q-.286-.6-.286-1.384v-.015q0-.783.286-1.392.278-.607.805-.952.52-.344 1.253-.344t1.245.344q.506.345.776.952.264.609.264 1.392v.015q0 .784-.264 1.384-.27.6-.776.945-.513.337-1.245.337m-10.166 1.538v-7.896h-1.275v1.187h-.117q-.3-.63-.864-.974-.564-.352-1.436-.352-1.332 0-2.043.762-.718.755-.718 2.16v5.113h1.275v-4.805q0-1.07.454-1.582.446-.52 1.391-.52.63 0 1.092.271.461.271.717.769.249.498.249 1.194v4.673zm-10.928.139q.747 0 1.348-.286.592-.285.945-.813.344-.526.344-1.245v-.014q0-1.056-.747-1.648-.755-.601-2.132-.682l-2.9-.175v1.018l2.747.176q.9.05 1.318.373.41.323.41.908v.015q0 .6-.454.937-.455.33-1.143.33-.651 0-1.157-.256a2.04 2.04 0 0 1-.791-.711 1.8 1.8 0 0 1-.293-1.011v-2.46q0-.733.447-1.114.44-.388 1.326-.388.71 0 1.164.256.455.249.608.711l.007.022h1.275l-.007-.044a2.1 2.1 0 0 0-.513-1.084 2.73 2.73 0 0 0-1.077-.725q-.659-.264-1.501-.264-.967 0-1.634.315-.673.315-1.018.908-.351.586-.351 1.407v5.405h1.274v-1.165h.117q.25.418.608.711.352.293.799.446.447.147.981.147m-6.108-.139v-7.896h-1.275v1.201h-.117a2.1 2.1 0 0 0-.806-.988q-.55-.352-1.325-.352-.535 0-.96.176a2.2 2.2 0 0 0-.732.491 2.4 2.4 0 0 0-.491.717h-.117a2.4 2.4 0 0 0-.571-.725 2.6 2.6 0 0 0-.828-.483 2.9 2.9 0 0 0-1.018-.176q-.805 0-1.362.3a2 2 0 0 0-.857.879q-.293.571-.293 1.399v5.457h1.274v-5.164q0-.871.41-1.304.403-.438 1.238-.439.549 0 .96.249t.637.667q.227.41.227.915v5.076h1.274v-5.362q0-.702.447-1.12.447-.425 1.194-.425.513 0 .93.271.41.272.652.732.234.454.234 1.011v4.893zm-16.275.139q1.128 0 1.941-.498a3.3 3.3 0 0 0 1.245-1.406q.432-.916.432-2.154v-.007q0-1.223-.432-2.146a3.45 3.45 0 0 0-1.237-1.443q-.799-.52-1.868-.52-1.077 0-1.846.498a3.2 3.2 0 0 0-1.186 1.392q-.418.886-.418 2.065v.498h6.328v-1.018h-5.676l.63.93v-.505q0-.93.278-1.531.279-.6.769-.893a2.1 2.1 0 0 1 1.128-.301q.637 0 1.143.315.498.308.791.916t.293 1.494v.505q0 .843-.286 1.443-.285.594-.813.916-.526.315-1.245.315a2.7 2.7 0 0 1-.93-.147 2 2 0 0 1-.652-.373 1.4 1.4 0 0 1-.359-.462l-.029-.066h-1.275l.015.059q.102.402.366.784.256.374.667.681.41.3.974.483.556.176 1.252.176m-12.81 0q1.12 0 1.941-.491a3.3 3.3 0 0 0 1.26-1.413q.44-.916.439-2.176v-.014q0-1.268-.439-2.183-.447-.915-1.26-1.406-.82-.49-1.941-.491-1.128 0-1.941.491-.813.49-1.252 1.406-.447.915-.447 2.183v.014q0 1.26.447 2.176.44.915 1.252 1.413.813.49 1.941.491m0-1.128q-.747 0-1.267-.352-.52-.351-.791-1.01-.278-.66-.278-1.59v-.014q0-.938.278-1.597.271-.659.791-1.003.52-.352 1.267-.352.748 0 1.267.352.52.344.799 1.003.27.659.271 1.597v.014q0 .93-.271 1.59-.279.659-.799 1.01-.52.352-1.267.352m-6.145.989v-6.841h1.311v-1.055h-1.311v-.879q0-1.179-.586-1.75-.585-.579-1.706-.579-.235 0-.44.022-.212.015-.41.052v1.018q.117-.023.271-.03t.322-.007q.681 0 .982.33.293.329.293.981v.842h-1.795v1.055h1.795v6.841zm-11.931.058q1.216 0 1.765-.49.542-.49.542-1.619v-4.79h1.245v-1.055h-1.245v-2.043h-1.318v2.043h-1.729v1.055h1.729v4.468q0 .696-.264 1.003-.264.3-.879.3-.168 0-.285-.007l-.301-.022v1.084q.183.03.367.051.183.022.373.022m-2.717-.058v-11.03h-1.275v4.321h-.117q-.3-.63-.864-.974-.564-.352-1.436-.352-.886 0-1.501.344-.615.338-.938.989-.322.652-.322 1.589v5.113h1.275v-4.805q0-1.07.454-1.582.446-.52 1.391-.52.63 0 1.092.271.46.271.717.769.249.498.249 1.194v4.673zm-11.983.139q1.128 0 1.941-.498a3.3 3.3 0 0 0 1.245-1.406q.433-.916.433-2.154v-.007q0-1.223-.433-2.146a3.45 3.45 0 0 0-1.237-1.443q-.799-.52-1.868-.52-1.077 0-1.846.498a3.2 3.2 0 0 0-1.186 1.392q-.418.886-.418 2.065v.498h6.328v-1.018h-5.676l.63.93v-.505q0-.93.278-1.531.279-.6.769-.893a2.1 2.1 0 0 1 1.128-.301q.638 0 1.143.315.498.308.791.916t.293 1.494v.505q0 .843-.286 1.443-.285.594-.813.916-.526.315-1.245.315a2.7 2.7 0 0 1-.93-.147 2 2 0 0 1-.652-.373 1.4 1.4 0 0 1-.359-.462l-.029-.066h-1.275l.015.059q.103.402.366.784.256.374.667.681.41.3.974.483.556.176 1.252.176m-12.275 0q.879 0 1.553-.264.673-.27 1.084-.754.402-.484.476-1.135h-1.304q-.16.49-.63.791-.468.3-1.223.3-.535 0-.937-.154a1.6 1.6 0 0 1-.645-.432.96.96 0 0 1-.234-.637v-.015q0-.402.322-.681.322-.285 1.055-.461l1.223-.293q1.105-.264 1.626-.769.52-.513.52-1.363v-.007q0-.66-.381-1.179a2.64 2.64 0 0 0-1.055-.821q-.667-.3-1.501-.3-.828 0-1.465.264a2.5 2.5 0 0 0-1.033.732 2.17 2.17 0 0 0-.483 1.121h1.252q.125-.47.571-.762.447-.293 1.165-.293.47 0 .835.154.366.147.579.41a.96.96 0 0 1 .212.615v.015a.83.83 0 0 1-.315.666q-.315.264-1.011.433l-1.215.293q-1.114.27-1.656.776-.549.506-.549 1.355v.015q0 .702.417 1.245.418.534 1.136.835.71.3 1.611.3m-5.171-.139v-7.896h-1.274v7.896zm-.644-9.419a.86.86 0 0 0 .622-.257.86.86 0 0 0 .256-.622.85.85 0 0 0-.256-.623.86.86 0 0 0-.622-.256.85.85 0 0 0-.623.256.85.85 0 0 0-.256.623.86.86 0 0 0 .256.622.85.85 0 0 0 .623.257m-5.838 9.477q1.216 0 1.765-.49.543-.49.542-1.619v-4.79h1.245v-1.055h-1.245v-2.043h-1.318v2.043h-1.729v1.055h1.729v4.468q0 .696-.264 1.003-.264.3-.879.3-.168 0-.285-.007l-.301-.022v1.084q.183.03.367.051.183.022.373.022m-5.764.081q1.128 0 1.941-.498a3.3 3.3 0 0 0 1.245-1.406q.432-.916.432-2.154v-.007q0-1.223-.432-2.146a3.45 3.45 0 0 0-1.238-1.443q-.799-.52-1.867-.52-1.077 0-1.846.498a3.2 3.2 0 0 0-1.187 1.392q-.417.886-.417 2.065v.498h6.328v-1.018h-5.676l.63.93v-.505q0-.93.278-1.531t.769-.893a2.1 2.1 0 0 1 1.128-.301q.638 0 1.142.315.498.308.791.916t.293 1.494v.505q0 .843-.285 1.443a2.13 2.13 0 0 1-.813.916q-.528.315-1.245.315-.536 0-.93-.147a2 2 0 0 1-.652-.373 1.4 1.4 0 0 1-.359-.462l-.03-.066h-1.274l.015.059q.102.402.366.784.256.374.666.681.411.3.975.483.556.176 1.252.176m-12.371-.081q1.216 0 1.766-.49.542-.49.542-1.619v-4.79h1.245v-1.055h-1.245v-2.043h-1.319v2.043h-1.728v1.055h1.728v4.468q0 .696-.264 1.003-.263.3-.878.3-.17 0-.286-.007l-.3-.022v1.084q.183.03.366.051.183.022.373.022m-2.717-.058v-11.03h-1.274v4.321h-.118q-.3-.63-.864-.974-.564-.352-1.435-.352-.887 0-1.502.344-.615.338-.937.989-.323.652-.323 1.589v5.113h1.275v-4.805q0-1.07.454-1.582.447-.52 1.392-.52.629 0 1.091.271t.718.769q.249.498.249 1.194v4.673zm-10.928.139q.747 0 1.348-.286.593-.285.945-.813.344-.526.344-1.245v-.014q0-1.056-.747-1.648-.754-.601-2.131-.682l-2.901-.175v1.018l2.747.176q.9.05 1.318.373.41.323.41.908v.015q0 .6-.454.937-.453.33-1.142.33-.653 0-1.158-.256a2.04 2.04 0 0 1-.791-.711 1.8 1.8 0 0 1-.293-1.011v-2.46q0-.733.447-1.114.44-.388 1.326-.388.711 0 1.164.256.455.249.608.711l.008.022h1.274l-.007-.044a2.1 2.1 0 0 0-.513-1.084 2.73 2.73 0 0 0-1.077-.725q-.658-.264-1.501-.264-.967 0-1.633.315-.675.315-1.018.908-.352.586-.352 1.407v5.405h1.274v-1.165h.118q.249.418.608.711.351.293.798.446.447.147.981.147m-8.913-.081q1.216 0 1.765-.49.542-.49.542-1.619v-4.79h1.245v-1.055h-1.245v-2.043h-1.318v2.043h-1.729v1.055h1.729v4.468q0 .696-.264 1.003-.264.3-.879.3-.168 0-.286-.007l-.3-.022v1.084q.183.03.366.051.183.022.374.022m-9.573.081q.88 0 1.553-.264.673-.27 1.084-.754.402-.484.476-1.135h-1.304q-.16.49-.63.791-.468.3-1.223.3-.535 0-.937-.154a1.6 1.6 0 0 1-.645-.432.96.96 0 0 1-.234-.637v-.015q0-.402.322-.681.322-.285 1.055-.461l1.223-.293q1.106-.264 1.626-.769.52-.513.52-1.363v-.007q0-.66-.381-1.179a2.64 2.64 0 0 0-1.055-.821q-.666-.3-1.501-.3-.828 0-1.465.264a2.5 2.5 0 0 0-1.033.732 2.2 2.2 0 0 0-.483 1.121h1.252q.125-.47.572-.762t1.164-.293q.47 0 .835.154.366.147.579.41a.96.96 0 0 1 .212.615v.015a.83.83 0 0 1-.315.666q-.315.264-1.011.433l-1.215.293q-1.114.27-1.656.776-.549.506-.549 1.355v.015q0 .702.417 1.245.418.534 1.136.835.71.3 1.611.3m-5.142 2.498v-10.533h-1.274v1.26h-.117a2.6 2.6 0 0 0-.608-.747 2.6 2.6 0 0 0-.835-.483 3 3 0 0 0-1.018-.169q-1.004 0-1.743.513-.747.505-1.157 1.421-.411.915-.411 2.146v.014q0 1.238.411 2.154.41.915 1.157 1.421.74.505 1.743.505.542 0 1.025-.169a2.9 2.9 0 0 0 .85-.483q.366-.308.586-.732h.117v3.882zm-3.559-3.626q-.726 0-1.238-.352-.513-.358-.784-1.018-.278-.666-.278-1.582v-.014q0-.924.278-1.582.271-.66.784-1.011.512-.359 1.238-.359.717 0 1.238.359.519.359.798 1.018.279.658.278 1.575v.014q0 .909-.278 1.575-.279.66-.798 1.018-.52.359-1.238.359m-7.764 1.128q.747 0 1.348-.286.593-.285.945-.813.344-.526.344-1.245v-.014q0-1.056-.747-1.648-.755-.601-2.132-.682l-2.9-.175v1.018l2.747.176q.9.05 1.318.373.41.323.41.908v.015q0 .6-.454.937-.455.33-1.142.33-.653 0-1.158-.256a2.04 2.04 0 0 1-.791-.711 1.8 1.8 0 0 1-.293-1.011v-2.46q0-.733.447-1.114.44-.388 1.326-.388.71 0 1.164.256.455.249.608.711l.008.022h1.274l-.007-.044a2.1 2.1 0 0 0-.513-1.084 2.73 2.73 0 0 0-1.077-.725q-.659-.264-1.501-.264-.967 0-1.633.315-.674.315-1.019.908-.351.586-.351 1.407v5.405h1.274v-1.165h.117q.25.418.608.711.352.293.799.446.447.147.981.147m-6.108-.139v-7.896h-1.275v1.187h-.117q-.3-.63-.864-.974-.564-.352-1.436-.352-1.332 0-2.043.762-.718.755-.718 2.16v5.113h1.275v-4.805q0-1.07.454-1.582.447-.52 1.391-.52.63 0 1.092.271.46.271.717.769.249.498.249 1.194v4.673zm-11.47.139q.88 0 1.553-.264.673-.27 1.084-.754.402-.484.476-1.135h-1.304q-.16.49-.63.791-.468.3-1.223.3-.534 0-.937-.154a1.6 1.6 0 0 1-.645-.432.96.96 0 0 1-.234-.637v-.015q0-.402.322-.681.322-.285 1.055-.461l1.223-.293q1.106-.264 1.626-.769.52-.513.52-1.363v-.007q0-.66-.381-1.179a2.64 2.64 0 0 0-1.055-.821q-.666-.3-1.501-.3-.828 0-1.465.264a2.5 2.5 0 0 0-1.033.732 2.2 2.2 0 0 0-.483 1.121h1.252q.125-.47.572-.762t1.164-.293q.47 0 .835.154.366.147.579.41a.96.96 0 0 1 .212.615v.015a.83.83 0 0 1-.315.666q-.315.264-1.011.433l-1.215.293q-1.114.27-1.656.776-.549.506-.549 1.355v.015q0 .702.417 1.245.418.534 1.136.835.71.3 1.611.3m-11.528 0q.747 0 1.347-.286a2.3 2.3 0 0 0 .945-.813q.344-.526.344-1.245v-.014q0-1.056-.747-1.648-.754-.601-2.131-.682l-2.9-.175v1.018l2.746.176q.901.05 1.319.373.41.323.41.908v.015q0 .6-.454.937-.454.33-1.143.33a2.5 2.5 0 0 1-1.157-.256 2.03 2.03 0 0 1-.791-.711 1.8 1.8 0 0 1-.293-1.011v-2.46q0-.733.447-1.114.44-.388 1.325-.388.71 0 1.165.256.454.249.608.711l.007.022h1.275l-.008-.044a2.1 2.1 0 0 0-.513-1.084 2.74 2.74 0 0 0-1.076-.725q-.66-.264-1.502-.264-.966 0-1.633.315-.674.315-1.018.908-.351.586-.352 1.407v5.405h1.275v-1.165h.117q.25.418.608.711.351.293.798.446.447.147.982.147m-10.401-.139v-11.03h-1.274v11.03zm-6.965.139q1.12 0 1.94-.491a3.3 3.3 0 0 0 1.261-1.413q.44-.916.439-2.176v-.014q0-1.268-.439-2.183-.447-.915-1.26-1.406-.82-.49-1.941-.491-1.128 0-1.94.491-.814.49-1.253 1.406-.447.915-.447 2.183v.014q0 1.26.447 2.176.44.915 1.252 1.413.814.49 1.941.491m0-1.128q-.747 0-1.267-.352-.52-.351-.791-1.01-.279-.66-.278-1.59v-.014q0-.938.278-1.597.27-.659.79-1.003.521-.352 1.268-.352t1.267.352q.52.344.798 1.003.271.659.271 1.597v.014q0 .93-.27 1.59-.279.659-.799 1.01-.52.352-1.267.352m-6.658 1.062a.94.94 0 0 0 .674-.278.93.93 0 0 0 .278-.674.92.92 0 0 0-.278-.674.93.93 0 0 0-.674-.278.92.92 0 0 0-.673.278.92.92 0 0 0-.279.674q0 .388.279.674a.92.92 0 0 0 .673.278m-3.808 0a.94.94 0 0 0 .674-.278.93.93 0 0 0 .278-.674.92.92 0 0 0-.278-.674.93.93 0 0 0-.674-.278.92.92 0 0 0-.674.278.92.92 0 0 0-.278.674q0 .388.278.674a.92.92 0 0 0 .674.278m-3.809 0a.94.94 0 0 0 .674-.278.93.93 0 0 0 .278-.674.92.92 0 0 0-.278-.674.93.93 0 0 0-.674-.278.92.92 0 0 0-.674.278.92.92 0 0 0-.278.674q0 .388.278.674a.92.92 0 0 0 .674.278M377.264 277.627v-1.028h-6.716v1.028zm-2.844 2.907v-6.843h-1.028v6.843zm-8.627-9.109q-.628 0-1.237.242a3 3 0 0 0-1.111.78q-.501.54-.8 1.428-.298.883-.298 2.178v.012q0 1.561.419 2.673.418 1.104 1.206 1.695.786.584 1.898.584.768 0 1.39-.28.615-.286 1.028-.793t.571-1.181l.019-.082h-1.149l-.025.069a2 2 0 0 1-.393.661q-.26.28-.623.431a2.1 2.1 0 0 1-.831.153q-.831 0-1.352-.483-.52-.488-.775-1.295a6.6 6.6 0 0 1-.285-1.758 3 3 0 0 1-.007-.171v-.172l.273-1.523q0-.603.28-1.092.273-.489.742-.774a1.9 1.9 0 0 1 1.048-.292q.571 0 1.041.285.47.279.749.762.279.476.279 1.073v.012q0 .61-.267 1.086a2 2 0 0 1-.729.743 2.1 2.1 0 0 1-1.054.266q-.596 0-1.067-.266a2 2 0 0 1-.742-.73 2.05 2.05 0 0 1-.28-1.067v-.006h-.374v1.65h.222q.165.375.508.698.336.324.825.521.483.197 1.105.197.857 0 1.536-.4.68-.4 1.072-1.092.394-.699.394-1.574v-.013q0-.914-.413-1.625a3 3 0 0 0-1.142-1.123 3.34 3.34 0 0 0-1.651-.407m-8.943 9.376v-6.843h-1.105v1.041h-.101a1.83 1.83 0 0 0-.699-.857q-.475-.305-1.149-.305-.464 0-.831.153a1.9 1.9 0 0 0-.635.425 2.1 2.1 0 0 0-.425.622h-.102a2 2 0 0 0-.495-.628 2.2 2.2 0 0 0-.717-.419 2.5 2.5 0 0 0-.883-.153q-.698 0-1.18.261a1.72 1.72 0 0 0-.743.761q-.254.495-.254 1.213v4.729h1.105v-4.475q0-.756.355-1.13.35-.381 1.073-.381.476 0 .832.216.355.216.552.577.197.356.197.794v4.399h1.104v-4.647q0-.61.387-.971.387-.368 1.035-.368.444 0 .806.235.355.234.565.635.203.393.203.876v4.24zm-14.124.12q.972 0 1.682-.425.705-.432 1.092-1.225.381-.793.381-1.885v-.013q0-1.098-.381-1.892a2.83 2.83 0 0 0-1.092-1.218q-.71-.426-1.682-.426-.978 0-1.682.426-.705.425-1.086 1.218-.387.794-.387 1.892v.013q0 1.092.387 1.885.381.793 1.086 1.225.704.425 1.682.425m0-.977q-.648 0-1.098-.305-.451-.304-.686-.876-.24-.571-.241-1.377v-.013q0-.813.241-1.384.235-.571.686-.869.45-.305 1.098-.305t1.098.305q.451.298.692.869.235.571.235 1.384v.013q0 .805-.235 1.377-.241.572-.692.876t-1.098.305m-4.869.857v-6.843h-1.104v1.016h-.102a1.62 1.62 0 0 0-.666-.838q-.47-.299-1.162-.299a3 3 0 0 0-.311.019 4 4 0 0 0-.241.026v1.073q.171-.032.336-.045.159-.02.343-.019.526 0 .933.21.407.209.641.584.23.374.229.876v4.24zm-7.553.12q.977 0 1.682-.431a2.86 2.86 0 0 0 1.079-1.219q.374-.793.374-1.866v-.007q0-1.06-.374-1.859a3 3 0 0 0-1.073-1.251q-.692-.45-1.618-.451-.934 0-1.6.432-.673.432-1.028 1.206-.363.768-.362 1.79v.432h5.484v-.883h-4.919l.546.807v-.438q0-.807.241-1.327t.666-.774q.426-.261.978-.261t.99.273q.432.267.686.794t.254 1.295v.438q0 .73-.248 1.25-.247.514-.705.794-.456.273-1.079.273-.463 0-.806-.127a1.8 1.8 0 0 1-.565-.324 1.2 1.2 0 0 1-.311-.4l-.025-.057h-1.105l.013.051q.089.349.317.679.222.323.578.59.355.26.844.419a3.6 3.6 0 0 0 1.086.152"/></g><g clip-path="url(#e)"><path fill="url(#f)" d="M-221.189 171.893c81.454-14.942 113.228-50.407 195.827-50.407 82.598 0 116.869 31.219 185.669 50.407 44.376 12.377 92.08 16.883 132.625 16.433 112.154-7.228 131.534-42.416 216.351-42.85 72.389-.364 109.536 28.411 166.705 40.25 67.206 13.919 143.529 13.728 176.014 12.844a8457 8457 0 0 0 15.861-.451v111.769c-2.722-1.958-5.825-4.143-7.991-5.564-84.332-55.624-190.367-57.115-261.542-16.675-69.112 39.261-125.345 65.834-196.555 48.656-47.513-11.458-86.793-40.734-125.276-59.975-58.347-29.173-110.524-34.911-193.937-10.296-60.618 17.888-106.728 36.869-170.345 37.285-75.492.502-125.137-13.157-171.403-50.997-1.855-1.508-4.594-3.882-6.968-5.962v-66.32c1.3-.225 2.6-.45 3.623-.624 11.752-2.063 25.221-4.541 41.359-7.505z"/><path fill="url(#g)" d="M-259.186 252.305c46.265 37.84 95.911 51.499 171.403 50.996 63.617-.416 109.726-19.396 170.345-37.285 83.413-24.614 135.572-18.877 193.937 10.296 38.5 19.241 77.78 48.518 125.276 59.976 71.21 17.16 127.443-9.395 196.555-48.657 71.175-40.44 177.21-38.966 261.542 16.676 2.166 1.421 5.269 3.622 7.991 5.564v112.947h-1134V246.359c2.392 2.08 5.113 4.438 6.968 5.963z"/><g clip-path="url(#h)"><path fill="#210340" d="M-266.154-249.199h1134V422.8h-1134z"/><path fill="url(#i)" d="M-221.188 171.891c81.454-14.942 113.228-50.407 195.826-50.407 82.599 0 116.869 31.219 185.669 50.407 44.376 12.377 92.081 16.883 132.626 16.433 112.153-7.228 131.533-42.416 216.35-42.85 72.389-.364 109.536 28.411 166.705 40.25 67.206 13.919 143.529 13.728 176.014 12.844a8457 8457 0 0 0 15.861-.451v111.769c-2.722-1.958-5.825-4.143-7.991-5.564-84.332-55.624-190.367-57.115-261.542-16.675-69.112 39.261-125.345 65.834-196.555 48.656-47.513-11.458-86.793-40.735-125.275-59.975-58.348-29.173-110.524-34.911-193.938-10.296-60.618 17.888-106.727 36.869-170.345 37.285-75.491.502-125.137-13.157-171.402-50.997-1.855-1.508-4.594-3.882-6.969-5.962v-66.32c1.3-.225 2.6-.45 3.623-.624 11.753-2.063 25.222-4.541 41.36-7.505z"/><path fill="url(#j)" d="M-87.8 303.299c63.617-.416 109.727-19.396 170.345-37.285 83.413-24.614 135.573-18.877 193.938 10.296 38.499 19.241 77.779 48.518 125.275 59.976 71.21 17.16 127.443-9.395 196.555-48.657 71.175-40.44 177.21-38.966 261.542 16.676 2.166 1.421 5.269 3.622 7.991 5.564v112.947h-1134V246.357c2.393 2.08 5.114 4.438 6.969 5.963 46.265 37.84 95.911 51.499 171.402 50.997z"/></g></g></g><g clip-path="url(#k)"><path fill="#310b59" d="M63.688 112.562c0-6.496 5.265-11.761 11.76-11.761H280.09c6.496 0 11.761 5.265 11.761 11.761v178.767c0 6.496-5.265 11.761-11.761 11.761H75.449c-6.496 0-11.761-5.265-11.761-11.761z"/><path stroke="#310b59" stroke-width="1.176" d="M63.688 278.979h1.176v30.578h-1.177z"/><rect width="31.625" height="170.144" x="88.936" y="178.451" fill="url(#m)" rx="9.45" transform="rotate(-90 88.936 178.451)"/><rect width="24.916" height="24.205" x="92.63" y="174.781" fill="url(#n)" fill-opacity=".6" rx="7.119" transform="rotate(-90 92.63 174.781)"/><path fill="url(#o)" d="M98.387 216.016a9.45 9.45 0 0 1-9.45-9.45v-12.725a9.45 9.45 0 0 1 9.45-9.45H249.63a9.45 9.45 0 0 1 9.45 9.45v12.725a9.45 9.45 0 0 1-9.45 9.45z"/><path fill="url(#p)" fill-opacity=".6" d="M99.747 212.465a7.12 7.12 0 0 1-7.119-7.119v-10.679a7.12 7.12 0 0 1 7.12-7.119h9.966a7.12 7.12 0 0 1 7.119 7.119v10.679a7.12 7.12 0 0 1-7.119 7.119z"/><path fill="url(#q)" d="M98.387 253.578a9.45 9.45 0 0 1-9.45-9.45v-12.725a9.45 9.45 0 0 1 9.45-9.45H249.63a9.45 9.45 0 0 1 9.45 9.45v12.725a9.45 9.45 0 0 1-9.45 9.45z"/><path fill="url(#r)" fill-opacity=".6" d="M99.749 250.156a7.12 7.12 0 0 1-7.12-7.119v-10.678a7.12 7.12 0 0 1 7.12-7.119h9.966a7.12 7.12 0 0 1 7.119 7.119v10.678a7.12 7.12 0 0 1-7.119 7.119z"/><path fill="url(#s)" d="M98.387 291.143a9.45 9.45 0 0 1-9.45-9.45v-12.725a9.45 9.45 0 0 1 9.45-9.45H249.63a9.45 9.45 0 0 1 9.45 9.45v12.725a9.45 9.45 0 0 1-9.45 9.45z"/><path fill="url(#t)" fill-opacity=".6" d="M99.747 287.842a7.12 7.12 0 0 1-7.119-7.119v-10.679a7.12 7.12 0 0 1 7.12-7.119h9.966a7.12 7.12 0 0 1 7.119 7.119v10.679a7.12 7.12 0 0 1-7.119 7.119z"/><path fill="#764edd" d="M113.39 135.503H94.46a3.16 3.16 0 0 1-3.155-3.155v-15.775a3.16 3.16 0 0 1 3.155-3.155h5.747c.891 0 1.746.38 2.344 1.044a6.38 6.38 0 0 0 4.742 2.111h6.097a3.16 3.16 0 0 1 3.155 3.155v12.62a3.16 3.16 0 0 1-3.155 3.155"/><rect width="14.105" height="136.596" x="122.484" y="131.514" fill="url(#u)" rx="7.052" transform="rotate(-90 122.484 131.514)"/></g><path stroke="#764edd" stroke-opacity=".2" stroke-width=".742" d="M75.448 101.172H280.09c6.29 0 11.389 5.099 11.389 11.39v178.767c0 6.291-5.099 11.39-11.389 11.39H75.448c-6.29 0-11.39-5.1-11.39-11.39V112.562c0-6.291 5.1-11.39 11.39-11.39Z"/><path fill="url(#v)" d="M317.254 210.245c-.172-2.163-4.983-2.7-7.067-5.885-.656-.998-.827-2.637-.827-4.429 0-1.564.125-3.236.182-4.703.138-3.436-.005-5.325.029-11.136.029-4.611-.542-9.726-2.666-10.924-1.969-1.119-5.148 1.056-9.663 5.205-2.517 2.318-4.172 4.315-5.896 5.742-.103.086-.205.177-.314.263-.102.079-2.688-.588-4.201-.891-.325-.062-.525-.445-.69-1.119-.365-1.512-.56-4.526-1.615-8.932-1.313-5.485-3.094-8.168-5.668-8.391-2.169-.182-5.931 5.28-8.83 9.852-2.403 3.784-2.58 4.172-3.516 5.537-.685.993-1.467 2.169-2.318 3.35-1.752 2.431-3.772 4.857-5.707 5.628-3.653 1.45-6.473-.503-7.831 1.181-1.301 1.615.114 1.918.405 2.198 7.825 1.975 9.697 12.397 13.316 11.495 3.082-.77 5.114 2.506 11.467 3.299 6.318.788 7.043 4.196 11.781 3.311 9.971-1.855 18.31-2.306 27.991 1.216-.497-.76 1.746-.474 1.638-1.867"/><path fill="url(#w)" d="M301.261 190.724c3.276 3.796 6.655 7.643 8.099 9.212 0-1.564.126-3.236.183-4.703.137-3.436-.006-5.325.029-11.136.028-4.611-.543-9.726-2.666-10.924-1.969-1.119-5.148 1.056-9.663 5.205-2.517 2.318-4.173 4.315-5.896 5.742 2.055.736 6.529 2.683 9.914 6.604"/><path fill="url(#x)" d="M286.146 182.368c-.365-1.512-.559-4.526-1.615-8.932-1.313-5.485-3.094-8.168-5.668-8.391-2.169-.182-5.93 5.28-8.83 9.852-2.402 3.784-2.58 4.172-3.516 5.537-.684.993-1.466 2.169-2.317 3.35 2.483-.411 6.918-1.204 11.262-2.009 4.28-.799 8.264-.074 10.678.593z"/><path fill="url(#y)" d="M315.615 212.116c-9.418-3.425-17.654-3.088-27.397-1.319-.982.177-1.781.337-2.854.2 2.18 2.323-4.167 8.328-11.712 6.889-2.574-.49-4.658-1.284-6.319-2.249-5.571-3.247-6.204-8.39-4.178-11.01.092-.114.183-.234.286-.354-3.066-.884-5.257-9.668-12.38-11.466.062.057.074.114 0 .182-.702.662-3.671-.622-4.407 1.301-.599 1.576 2.586 1.861 2.352 2.592-.326.999-2.609.747-2.911 1.752-.508 1.678.582 1.575 3.362 4.092 1.404 1.268 3.23 3.203 5.508 6.365 3.618 5.034 3.864 16.575 3.418 24.503-.222 3.967-2.242 12.785-2.471 17.443-.24 4.789.263 9.098.383 12.894.028 1.86 0 4.457-.434 6.295-1.085 5.463-4.309 6.336-5.485 13.516-1.77 10.805 9.988 14.863 9.863 14.897q-.045.01-.115.029c.6.068 1.188.143 1.759.211 2.568.314 4.8.611 6.717.879.742.103 1.53.206 2.186.302-.199 1.182-.513 2.552-.816 3.437-.422 1.238-.861 3.493-.245 4.526 1.233 2.083 8.875 1.769 9.229-.691.177-1.198.291-2.665.36-4.326v.017c.868-.04.925-.028 1.49.006.005.245.097 2.528.359 4.303.36 2.46 7.997 2.774 9.23.691.61-1.027.182-3.282-.246-4.526-.2-.582-.411-1.404-.588-2.249.959-.194 12.055-2.466 12.991-2.614q.017-.067.189-.126c5.085-1.758 10.855-9.543 8.19-16.821-1.524-4.166-4.355-6.141-5.942-8.921-3.282-5.759-.776-7.106-2.22-22.477-.628-6.695-2.386-14.583-3.099-18.664-1.416-8.105.416-8.054 5.194-9.384 6.164-1.718 8.265-.633 9.092-2.563.394-.907-1.073-1.546-.753-2.482.508-1.467 4.623-.246 4.925-1.77.389-1.957-2.026-2.574-2.505-3.304z"/><path fill="url(#z)" d="M315.615 212.116c-9.418-3.425-17.654-3.088-27.397-1.319-.982.177-1.781.337-2.854.2 2.18 2.323-4.167 8.328-11.712 6.889-2.574-.49-4.658-1.284-6.319-2.249-5.571-3.247-6.204-8.39-4.178-11.01.092-.114.183-.234.286-.354-3.066-.884-5.257-9.668-12.38-11.466.062.057.074.114 0 .182-.702.662-3.671-.622-4.407 1.301-.599 1.576 2.586 1.861 2.352 2.592-.326.999-2.609.747-2.911 1.752-.508 1.678.582 1.575 3.362 4.092 1.404 1.268 3.23 3.203 5.508 6.365 3.618 5.034 3.864 16.575 3.418 24.503-.222 3.967-2.242 12.785-2.471 17.443-.24 4.789.263 9.098.383 12.894.028 1.86 0 4.457-.434 6.295-1.085 5.463-4.309 6.336-5.485 13.516-1.77 10.805 9.988 14.863 9.863 14.897q-.045.01-.115.029c.6.068 1.188.143 1.759.211 2.568.314 4.8.611 6.717.879.742.103 1.53.206 2.186.302-.199 1.182-.513 2.552-.816 3.437-.422 1.238-.861 3.493-.245 4.526 1.233 2.083 8.875 1.769 9.229-.691.177-1.198.291-2.665.36-4.326v.017c.868-.04.925-.028 1.49.006.005.245.097 2.528.359 4.303.36 2.46 7.997 2.774 9.23.691.61-1.027.182-3.282-.246-4.526-.2-.582-.411-1.404-.588-2.249.959-.194 12.055-2.466 12.991-2.614q.017-.067.189-.126c5.085-1.758 10.855-9.543 8.19-16.821-1.524-4.166-4.355-6.141-5.942-8.921-3.282-5.759-.776-7.106-2.22-22.477-.628-6.695-2.386-14.583-3.099-18.664-1.416-8.105.416-8.054 5.194-9.384 6.164-1.718 8.265-.633 9.092-2.563.394-.907-1.073-1.546-.753-2.482.508-1.467 4.623-.246 4.925-1.77.389-1.957-2.026-2.574-2.505-3.304z" opacity=".6"/><path fill="url(#A)" d="M268.698 299.752a392 392 0 0 0-6.718-.879c-.57-.068-1.153-.142-1.758-.211-.736.154-3.761.645-5.964 3.339-.782.953-1.045 1.701-1.05 2.317 0 .411.108.765.268 1.073.725 1.41 4.252 1.273 6.29.731a72 72 0 0 1 4.309-.982 104 104 0 0 1 5.788-.982c.063-.222.125-.445.205-.667.291-.851.611-2.215.811-3.419-.674-.103-1.41-.206-2.186-.32z"/><path fill="url(#B)" d="M307.704 302.308c-.462-.565-1.261-1.204-2.557-1.958-1.644-.953-3.111-1.375-2.911-1.666-.263.04-.525.085-.799.142-5.571 1.131-9.315 1.781-11.844 2.146.189.942.429 1.878.645 2.518q.113.325.2.65l.068.274c4.864.742 7.004 1.661 10.914 1.861 4.378.223 5.736-.217 6.478-1.53.4-.713.599-1.466-.194-2.437"/><path fill="url(#C)" d="M270.712 284.929c-1.867-7.083-7.609-12.602-14.835-14.2-.102.45-.234.884-.382 1.312 0 .018-.011.029-.017.046a11 11 0 0 1-.794 1.821c-1.598 2.899-3.413 4.926-4.212 9.834-1.769 10.805 9.989 14.863 9.863 14.897q-.044.01-.114.029c.599.069 1.187.143 1.758.211 2.569.314 4.8.611 6.718.879a19.4 19.4 0 0 0 2.454-7.032 160 160 0 0 0-.439-7.797" opacity=".38"/><path fill="url(#D)" d="M278.538 277.742c-.382.457-.61 3.453-1.101 3.705-.394.199-.588-2.352-.993-4.652-.109-.622-.531-2.637-.64-3.236-.513-2.883-.519-2.654-.947-5.006-.086 1.878-.257 2.38-.599 5.257-.166 1.398-.406 3.076-.6 4.006-.171.811-.439-2.208-.599-3.002-.799-3.852-1.358-4.886-2.437-8.721-.611-2.169-2.523-4.172-2.711-5.554.873 5.919 2.134 15.714 2.813 24.395.217 2.763.372 5.417.44 7.797.063 2.283.046 4.321-.085 5.953a19 19 0 0 1-.183 1.399c-.2 1.204-.519 2.568-.811 3.418q-.11.335-.205.668c-.446 1.644-.446 3.174-.04 3.859 1.233 2.083 8.875 1.769 9.229-.691.177-1.204.291-2.671.36-4.338.257-6.279-.183-15.502-.879-25.251z"/><path fill="url(#E)" d="M290.444 304.141a10 10 0 0 0-.2-.651c-.223-.645-.457-1.581-.645-2.517-.166-.828-.302-1.661-.354-2.295-.69-8.67 1.741-28.521 3.168-38.139-.188 1.387-2.101 3.385-2.711 5.554-1.079 3.835-1.638 4.869-2.437 8.721-.166.799-.429 3.819-.6 3.002-.199-.93-.434-2.608-.599-4.006-.343-2.883-.514-3.379-.599-5.257-.429 2.351-.429 2.129-.948 5.006-.108.593-.525 2.608-.639 3.236-.405 2.306-.599 4.851-.993 4.652-.497-.252-.719-3.248-1.102-3.705-.696 9.743-1.136 18.967-.879 25.246.069 1.666.183 3.139.36 4.343.359 2.46 7.996 2.774 9.229.691.382-.651.4-2.06.023-3.608-.023-.091-.04-.182-.068-.273z"/><path fill="url(#F)" d="M279.394 231.891s-8.088 5.976-5.908 19.937c1.747 11.181 3.174 13.767 4.275 20.862s2.278 15.285 2.278 15.285.993-7.923 2.329-15.468c.953-5.394 2.865-12.654 3.892-21.381 1.65-14.053-6.866-19.241-6.866-19.241z" opacity=".6"/><path fill="#ffc635" d="M271.472 200.533c4.641.622 7.94 7.785 13.1 9.926 4.121 1.706-2.689 8.995-10.914 7.419-11.078-2.111-13.202-9.76-10.496-13.258 1.45-1.878 4.417-4.612 8.31-4.087"/><path fill="#00073a" d="M271.33 201.692c-1.655-.543-2.808-.126-3.31.456-.617.714-.525 2.654 1.507 3.322 1.929.634 3.612-.605 3.687-1.593.051-.702-.428-1.712-1.89-2.185z"/><path fill="url(#G)" d="M290.215 197.325c1.992.559 2.672 2.243.874 5.919-1.41 2.888-2.666 2.756-4.538 2.203-.982-.291-2.157-1.793-1.09-3.996 1.455-3.008 2.671-4.708 4.754-4.121z"/><path fill="#fff" d="M287.42 202.92c.238-.498.059-1.079-.399-1.297-.458-.219-1.022.007-1.259.505-.238.498-.06 1.079.399 1.297.457.219 1.021-.007 1.259-.505"/><path fill="url(#H)" d="M273.709 190.463c2.626.611 2.335 2.905.537 6.307-1.125 2.129-2.346 2.077-4.212 1.524-.977-.285-2.272-1.353-.748-4.269 1.233-2.369 2.774-3.95 4.429-3.562z"/><path fill="#fff" d="M271.226 196.102c.245-.512.062-1.109-.407-1.333s-1.049.009-1.293.521-.062 1.109.407 1.333c.47.224 1.049-.009 1.293-.521"/><path fill="url(#I)" d="M64.53 286.754s-7.175-.029-12.255-1.695c-16.7-5.468-25.793-15.896-31.45-28.128C18.816 252.593 18 245.213 18 245.213s1.216 1.13 2.871 2.426c1.313 1.028 2.266 1.364 2.266 1.364s-1.062-2.317-1.718-5.702c-2.329-11.98.405-20.633 5.6-29.589 7.174-12.368 14.194-17.374 17.693-27.254 1.25-3.539 1.598-6.387.72-9.093-1.05-3.242-7.358-5.679-7.358-5.679s9.173-2.985 20.223 2.814c6.353 3.333 11.974 7.643 15.296 12.506 8.26 12.089 9.316 19.823 7.015 34.36-2.18 13.762-10.987 25.32-14.27 31.187-.57 1.022-1.803 4.435-1.803 5.086v29.109z"/><path fill="url(#J)" d="M72.765 202.647c-1.53-5.588-2.471-7.151-5.64-12.003-2.134-3.276-4.2-4.669-4.2-4.669l1.467 4.412 1.056 4.173c.593.388-1.838-2.877-5.577-6.576-2.625-2.597-6.666-4.343-6.666-4.343s3.401 4.914 5.582 9.754 3.14 14.989 2.648 17.991c-.884 5.422 6.575 3.362 9.852 3.956 3.276.593 3.02-3.847 1.472-12.706z" opacity=".7"/><path fill="url(#K)" d="M64.528 273.132a56 56 0 0 1-4.709-2.648c-4.15-2.62-7.46-5.422-10.787-9.692-1.593-2.043-3.893-6.821-3.893-6.821s4.532 4.749 7.232 6.621c2.26 1.564 7.351 3.55 7.351 3.55s-3.967-3.127-5.673-4.857a41.15 41.15 0 0 1-9.093-14.03c-3.03-7.802-3.704-16.449-2.249-25.102.56-3.316 2.592-9.897 2.592-9.897s-6.193 5.901-8.493 11.615c-2.986 7.426-2.603 16.261-2.603 16.261s-1.77-2.899-2.574-4.555c-.742-1.523-1.507-4.954-1.507-4.954s-1.119 4.378-1.176 9.389c-.103 9.076 1.187 16.153 5.582 23.973 3.619 6.427 12.689 13.499 22.848 17.882 2.187.942 4.646 1.541 7.14 1.953v-8.682z"/></g><defs><linearGradient id="f" x1="301.617" x2="299.173" y1="285.812" y2="85.605" gradientUnits="userSpaceOnUse"><stop stop-color="#fcf5f0"/><stop offset=".22" stop-color="#faecf1"/><stop offset=".56" stop-color="#f5d4f5"/><stop offset="1" stop-color="#eeaefc"/></linearGradient><linearGradient id="g" x1="296.503" x2="308.255" y1="410.113" y2="205.469" gradientUnits="userSpaceOnUse"><stop stop-color="#fcf5f0"/><stop offset=".22" stop-color="#faecf1"/><stop offset=".56" stop-color="#f5d4f5"/><stop offset="1" stop-color="#eeaefc"/></linearGradient><linearGradient id="i" x1="301.409" x2="298.982" y1="269.36" y2="69.171" gradientUnits="userSpaceOnUse"><stop stop-color="#210340"/><stop offset=".23" stop-color="#29074c"/><stop offset=".65" stop-color="#3e126d"/><stop offset="1" stop-color="#541d8f"/></linearGradient><linearGradient id="j" x1="298.463" x2="307.84" y1="375.859" y2="212.834" gradientUnits="userSpaceOnUse"><stop stop-color="#210340"/><stop offset=".23" stop-color="#29074c"/><stop offset=".65" stop-color="#3e126d"/><stop offset="1" stop-color="#541d8f"/></linearGradient><linearGradient id="m" x1="104.388" x2="104.388" y1="484.516" y2="218.016" gradientUnits="userSpaceOnUse"><stop stop-color="#210340"/><stop offset=".23" stop-color="#29074c"/><stop offset=".65" stop-color="#3e126d"/><stop offset="1" stop-color="#541d8f"/></linearGradient><linearGradient id="n" x1="99.155" x2="109.264" y1="173.681" y2="199.79" gradientUnits="userSpaceOnUse"><stop stop-color="#3a1067"/><stop offset="1" stop-color="#764edd"/></linearGradient><linearGradient id="o" x1="395.001" x2="128.501" y1="200.564" y2="200.564" gradientUnits="userSpaceOnUse"><stop stop-color="#210340"/><stop offset=".23" stop-color="#29074c"/><stop offset=".65" stop-color="#3e126d"/><stop offset="1" stop-color="#541d8f"/></linearGradient><linearGradient id="p" x1="91.528" x2="117.637" y1="205.939" y2="195.831" gradientUnits="userSpaceOnUse"><stop stop-color="#3a1067"/><stop offset="1" stop-color="#764edd"/></linearGradient><linearGradient id="q" x1="395.001" x2="128.501" y1="238.127" y2="238.127" gradientUnits="userSpaceOnUse"><stop stop-color="#210340"/><stop offset=".23" stop-color="#29074c"/><stop offset=".65" stop-color="#3e126d"/><stop offset="1" stop-color="#541d8f"/></linearGradient><linearGradient id="r" x1="91.529" x2="117.638" y1="243.631" y2="233.522" gradientUnits="userSpaceOnUse"><stop stop-color="#3a1067"/><stop offset="1" stop-color="#764edd"/></linearGradient><linearGradient id="s" x1="395.001" x2="128.501" y1="275.691" y2="275.691" gradientUnits="userSpaceOnUse"><stop stop-color="#210340"/><stop offset=".23" stop-color="#29074c"/><stop offset=".65" stop-color="#3e126d"/><stop offset="1" stop-color="#541d8f"/></linearGradient><linearGradient id="t" x1="91.528" x2="117.637" y1="281.316" y2="271.208" gradientUnits="userSpaceOnUse"><stop stop-color="#3a1067"/><stop offset="1" stop-color="#764edd"/></linearGradient><linearGradient id="u" x1="129.483" x2="237.914" y1="355.467" y2="221.958" gradientUnits="userSpaceOnUse"><stop stop-color="#210340"/><stop offset=".23" stop-color="#29074c"/><stop offset=".65" stop-color="#3e126d"/><stop offset="1" stop-color="#541d8f"/></linearGradient><linearGradient id="v" x1="295.701" x2="272.899" y1="164.161" y2="234.189" gradientUnits="userSpaceOnUse"><stop offset=".17" stop-color="#f60"/><stop offset=".54" stop-color="#ff9c00"/><stop offset=".9" stop-color="#ff6700"/><stop offset=".91" stop-color="#f60"/></linearGradient><linearGradient id="w" x1="301.87" x2="314.058" y1="189.719" y2="170.418" gradientUnits="userSpaceOnUse"><stop stop-color="#f60" stop-opacity="0"/><stop offset=".11" stop-color="#f60" stop-opacity=".3"/><stop offset=".23" stop-color="#f60" stop-opacity=".6"/><stop offset=".32" stop-color="#f60" stop-opacity=".82"/><stop offset=".4" stop-color="#f60" stop-opacity=".95"/><stop offset=".43" stop-color="#f60"/><stop offset=".72" stop-color="#fd4737"/><stop offset="1" stop-color="#fb2872"/></linearGradient><linearGradient id="x" x1="275.281" x2="277.99" y1="181.421" y2="158.707" gradientUnits="userSpaceOnUse"><stop stop-color="#f60" stop-opacity="0"/><stop offset=".03" stop-color="#f60" stop-opacity=".17"/><stop offset=".07" stop-color="#f60" stop-opacity=".36"/><stop offset=".11" stop-color="#f60" stop-opacity=".53"/><stop offset=".15" stop-color="#f60" stop-opacity=".68"/><stop offset=".2" stop-color="#f60" stop-opacity=".8"/><stop offset=".24" stop-color="#f60" stop-opacity=".89"/><stop offset=".29" stop-color="#f60" stop-opacity=".95"/><stop offset=".35" stop-color="#f60" stop-opacity=".99"/><stop offset=".42" stop-color="#f60"/><stop offset=".7" stop-color="#fd4737"/><stop offset=".97" stop-color="#fb2872"/></linearGradient><linearGradient id="y" x1="282.071" x2="282.071" y1="190.666" y2="316.55" gradientUnits="userSpaceOnUse"><stop stop-color="#f60"/><stop offset=".01" stop-color="#ff7408"/><stop offset=".04" stop-color="#ff8a14"/><stop offset=".07" stop-color="#ff9b1d"/><stop offset=".11" stop-color="#ffa724"/><stop offset=".17" stop-color="#ffae27"/><stop offset=".33" stop-color="#ffb029"/><stop offset=".46" stop-color="#ff9218"/><stop offset=".63" stop-color="#f60"/><stop offset=".64" stop-color="#fe5d0f"/><stop offset=".69" stop-color="#fd4a32"/><stop offset=".74" stop-color="#fc3b4e"/><stop offset=".79" stop-color="#fb3062"/><stop offset=".84" stop-color="#fb2a6e"/><stop offset=".89" stop-color="#fb2872"/></linearGradient><linearGradient id="z" x1="282.071" x2="282.071" y1="190.666" y2="316.55" gradientUnits="userSpaceOnUse"><stop stop-color="#ffeb49" stop-opacity=".8"/><stop offset=".22" stop-color="#ffd13a" stop-opacity=".64"/><stop offset=".7" stop-color="#ff8f17" stop-opacity=".25"/><stop offset="1" stop-color="#f60" stop-opacity="0"/></linearGradient><linearGradient id="A" x1="310.793" x2="234.035" y1="283.052" y2="313.639" gradientUnits="userSpaceOnUse"><stop offset=".02" stop-color="#be0449" stop-opacity="0"/><stop offset=".51" stop-color="#fb2872"/><stop offset=".67" stop-color="#a31c5e"/><stop offset=".83" stop-color="#4c104a"/><stop offset=".94" stop-color="#15093e"/><stop offset="1" stop-color="#00073a"/></linearGradient><linearGradient id="B" x1="267.79" x2="320.17" y1="290.373" y2="310.852" gradientUnits="userSpaceOnUse"><stop stop-color="#be0449" stop-opacity="0"/><stop offset=".41" stop-color="#fb2872"/><stop offset="1" stop-color="#00073a"/></linearGradient><linearGradient id="D" x1="273.008" x2="275.239" y1="261.31" y2="320.642" gradientUnits="userSpaceOnUse"><stop offset=".01" stop-color="#be0449" stop-opacity="0"/><stop offset=".06" stop-color="#bf054a" stop-opacity=".04"/><stop offset=".14" stop-color="#c2084c" stop-opacity=".16"/><stop offset=".23" stop-color="#c70d51" stop-opacity=".36"/><stop offset=".35" stop-color="#ce1457" stop-opacity=".63"/><stop offset=".48" stop-color="#d71e5f" stop-opacity=".97"/><stop offset=".49" stop-color="#d81f60"/><stop offset=".56" stop-color="#d31e5f"/><stop offset=".63" stop-color="#c71d5d"/><stop offset=".7" stop-color="#b31a59"/><stop offset=".77" stop-color="#971754"/><stop offset=".84" stop-color="#73134e"/><stop offset=".91" stop-color="#460e46"/><stop offset=".98" stop-color="#13093d"/><stop offset="1" stop-color="#00073a"/></linearGradient><linearGradient id="E" x1="287.59" x2="285.124" y1="250.431" y2="321.081" gradientUnits="userSpaceOnUse"><stop stop-color="#d81f60" stop-opacity="0"/><stop offset=".11" stop-color="#d81f60" stop-opacity=".01"/><stop offset=".19" stop-color="#d81f60" stop-opacity=".06"/><stop offset=".27" stop-color="#d81f60" stop-opacity=".14"/><stop offset=".35" stop-color="#d81f60" stop-opacity=".25"/><stop offset=".42" stop-color="#d81f60" stop-opacity=".39"/><stop offset=".49" stop-color="#d81f60" stop-opacity=".57"/><stop offset=".55" stop-color="#d81f60" stop-opacity=".77"/><stop offset=".62" stop-color="#d81f60"/><stop offset=".66" stop-color="#d21e5f"/><stop offset=".71" stop-color="#c21c5c"/><stop offset=".77" stop-color="#a81957"/><stop offset=".83" stop-color="#841551"/><stop offset=".9" stop-color="#551049"/><stop offset=".97" stop-color="#1d0a3f"/><stop offset="1" stop-color="#00073a"/></linearGradient><linearGradient id="F" x1="279.628" x2="282.036" y1="243.814" y2="296.805" gradientUnits="userSpaceOnUse"><stop stop-color="#ffeb49"/><stop offset=".09" stop-color="#ffe745" stop-opacity=".96"/><stop offset=".24" stop-color="#ffde3d" stop-opacity=".84"/><stop offset=".44" stop-color="#ffcf2f" stop-opacity=".66"/><stop offset=".67" stop-color="#ffbb1c" stop-opacity=".4"/><stop offset=".94" stop-color="#ffa105" stop-opacity=".07"/><stop offset="1" stop-color="#ff9c00" stop-opacity="0"/></linearGradient><linearGradient id="G" x1="290.398" x2="287.527" y1="194.471" y2="205.607" gradientUnits="userSpaceOnUse"><stop offset=".16" stop-color="#a030b9"/><stop offset=".88" stop-color="#00073a"/></linearGradient><linearGradient id="H" x1="274.001" x2="271.221" y1="188.254" y2="197.558" gradientUnits="userSpaceOnUse"><stop offset=".16" stop-color="#a030b9"/><stop offset=".88" stop-color="#00073a"/></linearGradient><linearGradient id="I" x1="49.832" x2="49.832" y1="170.927" y2="286.754" gradientUnits="userSpaceOnUse"><stop stop-color="#ffeb49"/><stop offset=".32" stop-color="#ff9b1d"/><stop offset=".56" stop-color="#f60"/><stop offset=".74" stop-color="#fd4835"/><stop offset=".91" stop-color="#fb3161"/><stop offset="1" stop-color="#fb2872"/></linearGradient><linearGradient id="J" x1="53.566" x2="68.211" y1="182.948" y2="208.622" gradientUnits="userSpaceOnUse"><stop offset=".03" stop-color="#ffeb49"/><stop offset=".12" stop-color="#ffeb49" stop-opacity=".96"/><stop offset=".26" stop-color="#ffeb49" stop-opacity=".84"/><stop offset=".46" stop-color="#ffeb49" stop-opacity=".66"/><stop offset=".69" stop-color="#ffeb49" stop-opacity=".4"/><stop offset=".95" stop-color="#ffeb49" stop-opacity=".07"/><stop offset="1" stop-color="#ffeb49" stop-opacity="0"/></linearGradient><clipPath id="c" transform="translate(-20 -43.8)"><rect width="359" height="233" x="-.5" y=".5" rx="7.5" transform="matrix(-1 0 0 1 409 73.8)"/></clipPath><clipPath id="a"><path fill="#fff" d="M0-368.805h362v776H0z"/></clipPath><clipPath id="b"><path fill="#fff" d="M470-24.2H-10v430h480z"/></clipPath><clipPath id="e"><path fill="#fff" d="M867.846-249.199h-1134v672h1134z"/></clipPath><clipPath id="h"><path fill="#fff" d="M867.846-249.199h-1134v672h1134z"/></clipPath><clipPath id="k"><path fill="#fff" d="M63.688 112.562c0-6.496 5.265-11.761 11.76-11.761H280.09c6.496 0 11.761 5.265 11.761 11.761v178.767c0 6.496-5.265 11.761-11.761 11.761H75.449c-6.496 0-11.761-5.265-11.761-11.761z"/></clipPath><clipPath id="l"><path fill="#fff" d="M-181.281-40.353h872.574v517.995h-872.574z"/></clipPath><radialGradient id="C" cx="0" cy="0" r="1" gradientTransform="translate(251.688 292.601)scale(32.5113)" gradientUnits="userSpaceOnUse"><stop stop-color="#ffeb49"/><stop offset=".05" stop-color="#ffe546" stop-opacity=".96"/><stop offset=".14" stop-color="#ffd73e" stop-opacity=".85"/><stop offset=".25" stop-color="#ffc031" stop-opacity=".68"/><stop offset=".38" stop-color="#ffa01f" stop-opacity=".44"/><stop offset=".53" stop-color="#ff7709" stop-opacity=".13"/><stop offset=".59" stop-color="#f60" stop-opacity="0"/></radialGradient><radialGradient id="K" cx="0" cy="0" r="1" gradientTransform="translate(-52.43 229.531)scale(108.967)" gradientUnits="userSpaceOnUse"><stop stop-color="#be0449"/><stop offset="1" stop-color="#fb2872" stop-opacity=".07"/></radialGradient></defs></svg>