<svg width="308" height="228" viewBox="0 0 308 228" fill="none" xmlns="http://www.w3.org/2000/svg">
<g clip-path="url(#clip0_4929_51147)">
<path d="M284.924 226.466C279.251 226.466 273.225 225.761 266.981 224.381C255.073 221.735 243.765 216.966 233.323 212.216L237.663 202.688C247.591 207.209 258.281 211.731 269.256 214.168C274.862 215.415 280.25 216.043 285.228 216.005C289.207 215.986 293.271 215.776 295.337 213.577C295.899 212.978 296.822 211.836 296.698 210.903C296.594 210.132 295.737 208.856 293.633 207.552C290.149 205.401 283.924 204.144 278.432 203.04C269.094 201.165 261.041 199.537 258.643 193.15C257.472 190.019 258.062 186.592 260.413 182.946C257.377 181.319 248.743 178.482 229.744 176.645C212.496 174.979 192.431 174.722 177.382 175.979L176.516 165.546C192.697 164.195 214.067 164.518 232.285 166.374C265.905 169.811 269.389 176.198 270.703 178.596C272.33 181.566 271.997 184.917 269.798 187.782C269.77 187.82 269.741 187.858 269.713 187.896C269.075 188.743 269.456 189.952 270.455 190.314C273.149 191.285 277.547 192.17 280.507 192.77C287.17 194.112 294.071 195.502 299.154 198.643C303.713 201.47 306.531 205.334 307.083 209.532C307.445 212.264 307.026 216.424 302.971 220.745C297.641 226.418 289.902 226.456 285.276 226.475C285.162 226.475 285.038 226.475 284.924 226.475V226.466Z" fill="url(#paint0_linear_4929_51147)"/>
<path d="M260.412 182.947C260.85 182.395 262.944 180.796 262.354 179.597C261.412 177.674 256.652 181.377 256.652 181.377C256.652 181.377 259.175 182.214 260.412 182.938V182.947Z" fill="url(#paint1_linear_4929_51147)"/>
<path d="M46.2032 221.563C39.9589 221.563 32.0775 220.953 26.9469 215.985C23.9676 213.101 22.4256 209.284 22.3494 204.619C22.1781 193.254 34.5619 188.514 39.8542 186.486L40.4444 186.258C55.2269 180.547 95.9382 169.924 97.6706 169.477L100.307 179.604C99.8884 179.709 58.4442 190.532 44.2138 196.024L43.5951 196.262C40.0732 197.614 32.7533 200.412 32.8104 204.458C32.8485 206.866 33.629 207.894 34.2097 208.455C37.1129 211.263 44.6136 211.13 49.0968 211.054C49.687 211.045 50.2486 211.035 50.7721 211.026C62.6705 210.921 73.6835 207.542 82.612 201.269L88.6278 209.836C77.9479 217.336 64.8883 221.363 50.8578 221.496C50.3628 221.496 49.8393 221.506 49.2777 221.515C48.3163 221.534 47.2693 221.553 46.1841 221.553L46.2032 221.563Z" fill="url(#paint2_linear_4929_51147)"/>
<path opacity="0.59" d="M296.64 211.465C296.64 211.465 297.287 210.456 294.993 208.466C292.195 206.049 285.855 204.621 285.855 204.621C285.855 204.621 290.739 202.155 294.556 204.05C297.411 205.468 298.116 209.19 296.64 211.455V211.465Z" fill="url(#paint3_linear_4929_51147)"/>
<path opacity="0.5" d="M33.4969 207.514C33.573 207.572 33.0305 206.591 32.8591 205.182C32.6497 203.564 33.0495 202.251 35.0008 200.671C35.867 199.966 37.9706 198.7 37.9706 198.7C37.9706 198.7 34.8676 196.53 32.3737 198.776C30.5651 200.414 31.0982 205.754 33.4969 207.505V207.514Z" fill="url(#paint4_linear_4929_51147)"/>
<path d="M137.815 198.691C137.891 198.672 137.949 198.662 137.987 198.653C138.186 198.596 128.763 194.198 131.495 177.502C132.732 169.916 126.783 164.909 129.258 160.426C129.753 159.531 130.143 158.589 130.476 157.608C128.601 157.228 126.117 156.618 122.852 155.314C93.1918 143.464 92.0305 113.327 93.9818 84.1338C95.4953 61.5841 70.4993 51.9512 70.4993 51.9512C70.4993 51.9512 77.4765 63.8019 65.264 74.7674C51.1383 87.4558 37.5362 105.589 38.1168 132.85C38.1454 134.126 38.3833 137.391 38.3833 137.391C38.3833 137.391 37.441 136.934 36.2036 135.649C34.6139 134.002 33.9857 132.955 33.9857 132.955C33.9857 132.955 33.4717 140.732 37.1269 152.582C42.5715 170.23 53.8797 185.717 71.2893 196.378C88.2516 206.763 104.709 206.81 129.658 206.848C129.658 205.896 136.673 198.91 137.806 198.672L137.815 198.691Z" fill="url(#paint5_linear_4929_51147)"/>
<path d="M63.5101 119.571C62.5964 111.575 62.8819 102.275 62.8819 102.275C62.8819 102.275 59.9882 109.329 58.313 118.333C57.066 125.025 56.4187 132.193 56.5044 133.801C56.0951 133.221 54.9148 131.374 53.9153 128.385C52.6589 124.616 51.7736 121.503 51.7736 121.503C51.8212 121.475 48.6801 134.249 54.4389 157.712C61.7492 176.093 74.1615 182.708 79.8918 175.864C85.622 169.02 78.3593 162.5 73.8093 156.065C68.1648 148.079 65.0427 132.916 63.5101 119.58V119.571Z" fill="url(#paint6_linear_4929_51147)"/>
<path d="M116.417 180.718C113.685 197.414 131.856 203.687 131.656 203.744C131.618 203.753 131.551 203.772 131.485 203.782C132.417 203.896 133.322 204.001 134.197 204.106C134.359 203.611 134.454 203.144 134.445 202.754C134.264 198.889 132.96 195.091 132.027 191.294C136.425 188.8 127.763 179.043 128.315 174.331C129.79 162.776 130.114 163.918 124.146 162.709C123.813 163.68 123.422 164.622 122.927 165.526C120.453 170.01 117.654 173.141 116.417 180.728V180.718Z" fill="url(#paint7_linear_4929_51147)"/>
<path d="M209.746 178.1C207.386 171.78 203.017 168.782 200.57 164.565C195.497 155.827 199.371 153.78 197.144 130.459C195.83 116.734 193.822 103.017 190.547 89.6054C187.787 78.3258 188.415 66.8748 192.375 55.9188C195.583 47.0379 200.951 48.9988 199.961 46.067C199.495 44.6868 197.21 45.4198 196.639 44.0776C195.744 41.9645 201.57 39.2707 200.38 37.3099C198.981 34.9873 195.954 36.2152 194.735 36.1962C186.445 40.3939 178.801 47.0379 175.917 54.6148C173.157 61.8775 168.426 65.3899 168.426 65.3899C164.78 67.465 156.699 61.6967 151.445 64.3238C144.686 67.7029 142.878 74.1375 138.785 75.6701C135.882 76.7552 133.854 76.0127 127.819 74.7848C120.004 73.1952 110.714 71.2819 103.033 75.0323C102.366 76.3649 98.4828 77.8498 99.5013 80.4674C100.396 82.79 104.251 79.982 104.717 81.01C105.355 82.4188 102.547 84.3891 103.204 85.7884C104.327 88.168 107.43 87.0448 109.553 87.0068C113.675 86.9306 118.881 88.4441 122.498 90.7952C130.332 95.8877 127.629 105.035 126.991 112.793C126.201 122.311 124.669 132.078 124.659 141.615C124.65 149.64 126.077 158.102 121.908 165.507C119.386 169.99 116.54 173.122 115.274 180.708C112.485 197.404 130.999 203.677 130.799 203.734C130.751 203.744 130.694 203.763 130.618 203.772C131.57 203.886 132.483 203.991 133.378 204.096C137.424 204.581 146.571 209.912 146.105 211.235C145.981 211.577 145.876 211.93 145.781 212.272C145.077 214.814 145.077 217.184 145.714 218.241C147.656 221.458 159.678 220.972 160.24 217.174C160.516 215.318 160.697 213.043 160.801 210.473C161.268 210.454 161.734 210.435 162.163 210.435C162.486 210.435 162.819 210.454 163.143 210.464C163.248 213.043 163.429 215.318 163.705 217.174C164.266 220.972 176.298 221.458 178.23 218.241C178.839 217.241 178.858 215.052 178.259 212.672C178.221 212.529 178.192 212.396 178.154 212.253C178.059 211.92 177.954 211.587 177.84 211.244C177.497 210.245 177.126 208.798 176.821 207.351C180.8 206.79 186.692 205.781 195.459 204.039C195.887 203.953 196.296 203.886 196.715 203.82C196.763 203.744 196.877 203.677 197.068 203.62C204.92 200.955 213.839 189.142 209.718 178.1H209.746Z" fill="url(#paint8_linear_4929_51147)"/>
<path d="M194.925 32.6875C192.831 30.3745 186.72 34.3152 181.399 32.7351C179.733 32.2401 177.772 30.1746 176.05 27.9948C174.546 26.1006 173.213 24.1207 172.423 23.0451C169.253 18.7522 166.959 15.8585 161.772 9.60476C156.917 3.74126 151.073 -0.865769 147.522 -0.228019C144.238 0.362138 142.782 5.87344 142.116 14.8019C141.763 19.5613 141.154 28.5374 141.126 28.6421C141.078 28.8324 136.68 30.9646 134.701 31.6024C134.624 31.6309 134.51 31.6024 134.377 31.5357C134.272 31.4882 134.158 31.4215 134.015 31.3168C132.473 30.2222 128.847 26.1291 122.983 21.1128C116.805 15.8204 113.464 13.5836 109.971 15.6681C106.344 17.8289 107.077 29.0323 107.963 36.752C108.696 43.1485 109.105 44.3574 109.286 46.7275C109.476 49.2595 109.781 52.4387 109.8 55.4847C109.828 58.8162 109.514 62.005 108.343 64.0515C105.488 69.0202 99.9003 69.8959 100.319 72.98C100.633 75.3121 103.222 74.0175 103.099 74.8456C103.089 74.9408 102.994 75.0931 102.937 75.1978C110.647 71.7711 120.185 73.6368 127.752 75.4263C133.606 76.8065 137.194 79.0529 140.088 78.0725C144.172 76.6923 145.419 68.63 152.215 65.5269C157.498 63.1187 165.922 68.1255 169.596 66.2122C169.767 66.098 169.948 65.9743 170.11 65.822C170.129 65.8029 170.148 65.8124 170.167 65.822C170.224 65.7744 170.281 65.7363 170.329 65.6792C171.728 64.2419 172.594 62.6237 175.678 55.6084C178.896 48.2886 194.735 36.1999 194.725 36.1999C192.498 36.0666 196.591 34.5246 194.925 32.6875Z" fill="url(#paint9_linear_4929_51147)"/>
<path opacity="0.51" d="M134.699 31.6009C134.622 31.6295 134.508 31.6009 134.375 31.5343L139.344 37.6834L142.209 36.2556L141.133 28.6406C141.086 28.831 136.688 30.9632 134.708 31.6009H134.699Z" fill="url(#paint10_linear_4929_51147)"/>
<path d="M158.242 25.9578C165.429 26.843 172.768 27.6807 176.051 27.9948C174.548 26.1006 173.215 24.1207 172.425 23.0451C169.255 18.7522 166.961 15.8585 161.773 9.60476C156.919 3.74126 151.075 -0.865769 147.524 -0.228019C144.24 0.362138 142.784 5.87344 142.117 14.8019C141.765 19.5613 141.375 28.2423 141.375 28.2423C144.611 27.0049 151.094 25.0726 158.252 25.9483L158.242 25.9578Z" fill="url(#paint11_linear_4929_51147)"/>
<path d="M122.982 21.1121C116.804 15.8198 113.463 13.5829 109.97 15.6675C106.343 17.8282 107.076 29.0317 107.961 36.7513C108.694 43.1478 109.104 44.3567 109.285 46.7269C109.475 49.2588 109.78 52.4381 109.799 55.484C111.874 52.9711 116.509 47.1362 121.002 41.3774C125.2 35.9993 128.855 26.119 122.991 21.1026L122.982 21.1121Z" fill="url(#paint12_linear_4929_51147)"/>
<path d="M133.113 66.4767C134.617 70.7411 137.425 70.9981 138.844 70.3793C141.509 69.2181 142.537 66.886 141.747 64.592C140.024 59.5947 137.816 57.0723 134.179 58.8903C131.885 60.0421 131.895 63.0119 133.123 66.4767H133.113Z" fill="url(#paint13_linear_4929_51147)"/>
<path d="M138.78 69.1076C139.484 68.8158 139.826 68.028 139.545 67.3481C139.263 66.6682 138.464 66.3536 137.759 66.6454C137.055 66.9373 136.713 67.725 136.995 68.4049C137.276 69.0848 138.076 69.3994 138.78 69.1076Z" fill="white"/>
<path d="M165.779 52.942C167.731 57.0255 165.932 59.1863 164.494 59.7479C161.791 60.8045 159.411 59.8907 158.345 57.7014C156.032 52.942 155.804 49.601 159.668 48.316C162.105 47.5069 164.199 49.6105 165.789 52.9325L165.779 52.942Z" fill="url(#paint14_linear_4929_51147)"/>
<path d="M163.088 58.9044C163.826 58.5985 164.184 57.7718 163.889 57.0579C163.593 56.344 162.754 56.0132 162.016 56.3191C161.278 56.6251 160.92 57.4518 161.215 58.1657C161.511 58.8796 162.349 59.2103 163.088 58.9044Z" fill="white"/>
<path d="M169.912 65.9924C168.712 66.7634 166.561 66.3921 164.752 65.9924C160.783 65.3832 155.795 63.7174 152.178 65.307C152.159 65.307 152.14 65.3261 152.121 65.3356C148.2 67.1156 146.086 70.4566 144.221 73.2361C142.85 75.2731 141.032 77.5195 139.3 78.1096C139.29 78.1096 138.053 78.3571 138.053 78.3571C136.634 78.4523 147.676 92.6351 161.421 86.6574C175.632 80.4798 171.311 65.7925 170.473 65.6021C170.454 65.6021 170.426 65.6021 170.416 65.6021C170.254 65.7449 170.083 65.8686 169.902 65.9829L169.912 65.9924Z" fill="#FFC635"/>
<path d="M158.518 79.2209C156.1 80.2014 155.168 81.6863 155.149 82.7333C155.13 84.0279 157.09 85.903 160.07 84.7037C162.897 83.5615 163.649 80.7534 162.792 79.6874C162.183 78.9259 160.66 78.3452 158.518 79.2114V79.2209Z" fill="#00073A"/>
<path opacity="0.38" d="M147.96 182.927C145.076 171.981 134.672 163.167 123.497 160.711C123.326 161.425 123.116 162.12 122.888 162.805C122.555 163.776 122.165 164.718 121.67 165.623C119.195 170.106 116.396 173.237 115.159 180.824C112.427 197.52 130.598 203.792 130.398 203.85C130.36 203.859 130.293 203.878 130.227 203.888C131.16 204.002 136.7 204.697 137.575 204.801C141.545 205.287 147.96 206.163 147.96 206.163C147.96 206.163 148.303 187.201 147.96 182.927Z" fill="url(#paint15_radial_4929_51147)"/>
<path d="M144.58 205.478C141.62 205.059 138.174 204.602 134.195 204.117C133.319 204.012 132.415 203.898 131.482 203.793C130.35 204.031 125.666 204.783 122.259 208.952C121.05 210.427 120.65 211.579 120.641 212.531C120.641 213.169 120.802 213.711 121.05 214.197C122.173 216.377 143.333 213.845 146.379 212.293C146.474 211.95 146.579 211.608 146.693 211.256C147.141 209.942 147.636 207.838 147.95 205.973C146.903 205.82 145.77 205.649 144.571 205.478H144.58Z" fill="url(#paint16_linear_4929_51147)"/>
<path d="M204.872 209.429C204.158 208.553 202.92 207.563 200.921 206.402C198.38 204.926 196.114 204.279 196.419 203.822C196.01 203.889 195.61 203.956 195.191 204.041C186.577 205.783 180.789 206.792 176.887 207.354C177.182 208.81 177.543 210.257 177.886 211.247C178 211.58 178.105 211.923 178.191 212.256C178.229 212.399 178.257 212.532 178.295 212.675C185.815 213.817 189.128 215.245 195.163 215.549C201.93 215.892 204.034 215.216 205.176 213.189C205.795 212.084 206.099 210.923 204.872 209.419V209.429Z" fill="url(#paint17_linear_4929_51147)"/>
<path d="M159.429 170.898C158.829 171.621 158.477 176.314 157.696 176.704C157.078 177.019 156.773 173.021 156.135 169.413C155.964 168.433 155.307 165.272 155.136 164.349C154.327 159.837 154.327 160.19 153.651 156.496C153.518 159.438 153.251 160.228 152.709 164.739C152.442 166.929 152.071 169.556 151.766 171.022C151.5 172.297 151.081 167.557 150.824 166.31C149.577 160.275 148.692 158.657 147.007 152.641C146.141 149.557 143.228 147.073 142.762 143.932C144.132 153.212 146.103 168.556 147.169 182.159C147.512 186.49 147.75 190.649 147.854 194.371C147.959 197.95 147.921 201.139 147.721 203.699C147.673 204.328 147.569 205.089 147.435 205.889C147.121 207.783 146.617 209.915 146.16 211.248C146.036 211.6 145.931 211.952 145.836 212.295C145.132 214.865 145.132 217.273 145.77 218.339C147.702 221.604 159.676 221.109 160.238 217.254C160.514 215.369 160.695 213.066 160.8 210.458C161.209 200.615 160.514 186.156 159.429 170.888V170.898Z" fill="url(#paint18_linear_4929_51147)"/>
<path opacity="0.6" d="M171.777 131.754C174.28 110.432 161.363 102.561 161.363 102.561C161.363 102.561 149.094 111.632 152.397 132.811C155.043 149.773 157.213 153.695 158.888 164.46C160.564 175.226 162.344 187.657 162.344 187.657C162.344 187.657 163.847 175.645 165.875 164.194C167.322 156.017 170.225 144.995 171.777 131.754Z" fill="url(#paint19_linear_4929_51147)"/>
<path d="M178.152 212.14C178.057 211.797 177.952 211.455 177.838 211.112C177.495 210.103 177.124 208.628 176.82 207.162C176.553 205.858 176.344 204.554 176.267 203.554C175.182 189.943 178.999 158.788 181.236 143.691C180.941 145.862 177.943 149.012 176.981 152.411C175.287 158.436 174.411 160.054 173.155 166.098C172.898 167.345 172.479 172.086 172.213 170.81C171.898 169.354 171.527 166.717 171.27 164.518C170.728 159.997 170.461 159.216 170.328 156.266C169.652 159.959 169.652 159.607 168.843 164.128C168.672 165.061 168.015 168.221 167.843 169.201C167.206 172.819 166.901 176.816 166.282 176.502C165.502 176.112 165.15 171.41 164.55 170.686C163.455 185.983 162.77 200.451 163.17 210.312C163.274 212.93 163.455 215.234 163.731 217.128C164.293 220.992 176.287 221.478 178.219 218.213C178.818 217.194 178.847 214.977 178.247 212.559C178.209 212.416 178.181 212.273 178.143 212.131L178.152 212.14Z" fill="url(#paint20_linear_4929_51147)"/>
<path d="M250.355 226.076L237.105 222.592L244.264 198.434C244.264 198.434 257.409 203.507 257.428 203.517C265.5 206.629 257.989 228.075 250.355 226.066V226.076Z" fill="url(#paint21_linear_4929_51147)"/>
<path d="M226.768 227.162L208.055 222.774L224.274 175.219L242.027 183.7C263.587 193.999 251.146 232.873 226.778 227.162H226.768Z" fill="url(#paint22_linear_4929_51147)"/>
<path d="M230.729 203.394C225.751 217.986 215.261 227.619 207.294 224.906C205.305 224.231 200.307 223.193 199.041 221.261C195.234 215.483 198.156 204.508 201.887 193.561C205.39 183.3 209.198 172.792 215.356 170.003C217.955 168.832 222.962 171.24 225.322 172.049C233.29 174.762 235.707 188.802 230.739 203.394H230.729Z" fill="url(#paint23_linear_4929_51147)"/>
<path d="M222.189 200.486C227.166 185.892 225.594 172.15 218.677 169.791C211.761 167.433 202.12 177.351 197.144 191.945C192.167 206.539 193.739 220.281 200.656 222.64C207.572 224.998 217.213 215.08 222.189 200.486Z" fill="url(#paint24_linear_4929_51147)"/>
<path opacity="0.24" d="M215.708 187.485C215.317 190.417 213.309 192.797 211.205 192.797C209.102 192.797 207.721 190.417 208.102 187.485C208.483 184.553 210.501 182.174 212.605 182.174C214.708 182.174 216.088 184.553 215.708 187.485Z" fill="url(#paint25_linear_4929_51147)"/>
<path opacity="0.24" d="M210.348 205.345C209.958 208.276 207.95 210.656 205.846 210.656C203.742 210.656 202.362 208.276 202.743 205.345C203.124 202.413 205.142 200.033 207.245 200.033C209.349 200.033 210.729 202.413 210.348 205.345Z" fill="url(#paint26_linear_4929_51147)"/>
<path d="M211.632 190.323C211.432 190.323 211.223 190.285 211.004 190.218C207.882 189.305 204.826 188.115 201.742 187.058C196.65 185.326 198.829 186.068 193.746 184.336C191.605 183.603 190.462 181.271 191.186 179.129C191.909 176.988 194.251 175.845 196.393 176.569C203.141 178.872 212.441 181.852 213.821 182.508C216.896 183.974 214.802 190.399 211.622 190.314L211.632 190.323Z" fill="url(#paint27_linear_4929_51147)"/>
<path d="M205.808 208.02C205.608 208.02 205.398 207.982 205.18 207.916C202.057 207.002 199.002 205.812 195.918 204.756C190.825 203.023 193.005 203.766 187.922 202.033C185.781 201.3 184.638 198.968 185.362 196.827C186.085 194.685 188.427 193.543 190.568 194.266C197.317 196.57 206.617 199.549 207.997 200.206C211.072 201.672 208.977 208.097 205.798 208.011L205.808 208.02Z" fill="url(#paint28_linear_4929_51147)"/>
<path d="M70.1546 224.418L83.7092 222.438L79.2925 197.633C79.2925 197.633 65.6618 201.212 65.6428 201.212C57.2759 203.411 62.3493 225.551 70.1546 224.409V224.418Z" fill="url(#paint29_linear_4929_51147)"/>
<path d="M93.4757 228.16L112.57 225.885L101.766 176.816L83.1766 183.261C60.6078 191.094 68.632 231.111 93.4757 228.16Z" fill="url(#paint30_linear_4929_51147)"/>
<path d="M101.041 204.324C102.174 208.16 103.63 211.891 105.305 215.403C107.761 220.534 112.768 229.215 119.793 227.206C121.649 226.673 126.284 226.007 127.503 224.189C131.158 218.735 128.721 207.646 125.542 196.518C122.562 186.095 119.298 175.406 113.682 172.198C111.311 170.846 106.638 172.883 104.429 173.512C99.1466 175.025 98.3756 181.907 98.3565 186.486C98.3184 192.406 99.3179 198.489 101.05 204.333L101.041 204.324Z" fill="url(#paint31_linear_4929_51147)"/>
<path d="M126.024 224.765C130.942 223.358 131.545 210.393 127.37 195.806C123.196 181.22 115.826 170.537 110.908 171.944C105.99 173.351 105.388 186.317 109.562 200.903C113.736 215.489 121.107 226.173 126.024 224.765Z" fill="url(#paint32_linear_4929_51147)"/>
<path d="M112.875 186.268C112.875 186.268 120.033 187.23 120.042 187.23C121.061 187.344 121.803 189.067 122.079 189.923C122.441 191.037 122.593 193.74 121.127 193.959L114.455 194.873C113.494 194.816 112.208 194.026 111.399 192.208C109.981 189.029 111.19 186.021 112.865 186.268H112.875Z" fill="url(#paint33_linear_4929_51147)"/>
<path d="M112.875 186.268C112.875 186.268 120.033 187.23 120.042 187.23C121.061 187.344 121.803 189.067 122.079 189.923C122.441 191.037 122.593 193.74 121.127 193.959L114.455 194.873C113.494 194.816 112.208 194.026 111.399 192.208C109.981 189.029 111.19 186.021 112.865 186.268H112.875Z" fill="url(#paint34_linear_4929_51147)"/>
<path opacity="0.44" d="M113.902 195.663C112.741 195.368 111.361 194.263 110.561 192.483C109.372 189.809 109.847 187.486 110.647 186.325C111.199 185.516 111.951 185.135 112.76 185.268C117.634 185.947 120.08 186.29 120.099 186.296C121.298 186.477 122.088 188.219 122.526 189.618C122.802 190.523 123.164 192.855 122.469 194.044C122.222 194.463 121.86 194.711 121.422 194.777L114.635 195.739C114.407 195.758 114.159 195.729 113.902 195.663ZM120.118 187.258C120.118 187.258 120.051 187.239 120.023 187.239C119.909 187.22 112.76 186.258 112.76 186.258C112.294 186.182 111.827 186.439 111.456 186.982C110.733 188.019 110.457 190.056 111.399 192.217C112.208 194.054 113.703 194.939 114.483 194.892L121.289 193.94C121.489 193.911 121.641 193.797 121.765 193.588C122.26 192.74 122.012 190.761 121.727 189.875C121.26 188.4 120.661 187.429 120.128 187.267L120.118 187.258Z" fill="url(#paint35_linear_4929_51147)"/>
<path d="M117.689 202.677L124.105 201.554C124.971 201.392 125.885 203.011 126.218 203.763C126.656 204.733 127.113 207.275 125.913 207.97L120.059 211.339C119.117 211.806 117.461 211.397 116.499 209.674C114.824 206.704 116.071 202.735 117.68 202.668L117.689 202.677Z" fill="url(#paint36_linear_4929_51147)"/>
<path opacity="0.44" d="M119.367 212.408C118.234 212.398 116.892 211.656 116.007 210.085C114.664 207.744 114.788 205.117 115.502 203.556C115.959 202.566 116.635 201.956 117.406 201.852C121.816 201.166 124.028 200.82 124.04 200.814C124.887 200.671 125.754 201.528 126.572 203.337C127.077 204.45 127.981 207.782 126.41 208.705L120.376 212.179C120.071 212.322 119.728 212.398 119.357 212.398L119.367 212.408ZM124.221 201.557C124.221 201.557 124.183 201.557 124.164 201.557C124.069 201.566 117.53 202.708 117.53 202.708C117.044 202.775 116.578 203.222 116.244 203.936C115.626 205.288 115.378 207.63 116.559 209.695C117.587 211.494 119.29 211.77 120.014 211.427L126.02 207.972C126.867 207.477 126.382 204.898 125.839 203.717C125.268 202.47 124.649 201.566 124.221 201.566V201.557Z" fill="url(#paint37_linear_4929_51147)"/>
</g>
<defs>
<linearGradient id="paint0_linear_4929_51147" x1="241.852" y1="226.466" x2="241.852" y2="164.699" gradientUnits="userSpaceOnUse">
<stop offset="0.09" stop-color="#A030B9"/>
<stop offset="0.34" stop-color="#9D2FB8"/>
<stop offset="0.48" stop-color="#952DB8"/>
<stop offset="0.6" stop-color="#8729B8"/>
<stop offset="0.7" stop-color="#7324B7"/>
<stop offset="0.79" stop-color="#591DB6"/>
<stop offset="0.88" stop-color="#3915B5"/>
<stop offset="0.96" stop-color="#140CB3"/>
<stop offset="1" stop-color="#0007B3"/>
</linearGradient>
<linearGradient id="paint1_linear_4929_51147" x1="257.347" y1="174.133" x2="268.96" y2="208.2" gradientUnits="userSpaceOnUse">
<stop stop-color="#9C2FB8" stop-opacity="0.98"/>
<stop offset="0.02" stop-color="#7825B7" stop-opacity="0.75"/>
<stop offset="0.03" stop-color="#581DB6" stop-opacity="0.55"/>
<stop offset="0.05" stop-color="#3C16B5" stop-opacity="0.38"/>
<stop offset="0.06" stop-color="#2610B4" stop-opacity="0.24"/>
<stop offset="0.08" stop-color="#150CB3" stop-opacity="0.13"/>
<stop offset="0.11" stop-color="#0909B3" stop-opacity="0.06"/>
<stop offset="0.13" stop-color="#0207B3" stop-opacity="0.01"/>
<stop offset="0.18" stop-color="#0007B3" stop-opacity="0"/>
<stop offset="0.29" stop-color="#00073A"/>
</linearGradient>
<linearGradient id="paint2_linear_4929_51147" x1="55.56" y1="224.095" x2="66.1638" y2="163.918" gradientUnits="userSpaceOnUse">
<stop stop-color="#A030B9"/>
<stop offset="0.09" stop-color="#982EB8"/>
<stop offset="0.23" stop-color="#8429B7"/>
<stop offset="0.4" stop-color="#6420B6"/>
<stop offset="0.59" stop-color="#3614B5"/>
<stop offset="0.79" stop-color="#0007B3"/>
<stop offset="0.99" stop-color="#00073A"/>
</linearGradient>
<linearGradient id="paint3_linear_4929_51147" x1="287.75" y1="201.032" x2="299.924" y2="215.815" gradientUnits="userSpaceOnUse">
<stop stop-color="#A030B9" stop-opacity="0"/>
<stop offset="0.07" stop-color="#9B2EB8" stop-opacity="0.16"/>
<stop offset="0.19" stop-color="#942DB8" stop-opacity="0.42"/>
<stop offset="0.31" stop-color="#8E2BB8" stop-opacity="0.63"/>
<stop offset="0.42" stop-color="#892AB8" stop-opacity="0.79"/>
<stop offset="0.54" stop-color="#8629B8" stop-opacity="0.91"/>
<stop offset="0.65" stop-color="#8429B8" stop-opacity="0.98"/>
<stop offset="0.75" stop-color="#8429B8"/>
</linearGradient>
<linearGradient id="paint4_linear_4929_51147" x1="37.5518" y1="193.37" x2="29.975" y2="209.723" gradientUnits="userSpaceOnUse">
<stop offset="0.35" stop-color="#A030B9" stop-opacity="0"/>
<stop offset="0.4" stop-color="#982DB8" stop-opacity="0.05"/>
<stop offset="0.48" stop-color="#8228B7" stop-opacity="0.18"/>
<stop offset="0.59" stop-color="#5F1FB6" stop-opacity="0.4"/>
<stop offset="0.71" stop-color="#2F13B4" stop-opacity="0.7"/>
<stop offset="0.81" stop-color="#0007B3"/>
</linearGradient>
<linearGradient id="paint5_linear_4929_51147" x1="39.3542" y1="63.326" x2="114.875" y2="213.226" gradientUnits="userSpaceOnUse">
<stop stop-color="#FFEB49"/>
<stop offset="0.45" stop-color="#FF6600"/>
<stop offset="0.54" stop-color="#FF6109"/>
<stop offset="0.69" stop-color="#FF5322"/>
<stop offset="0.82" stop-color="#FF453F"/>
<stop offset="1" stop-color="#FB2872"/>
</linearGradient>
<linearGradient id="paint6_linear_4929_51147" x1="60.0454" y1="101.714" x2="67.6222" y2="162.719" gradientUnits="userSpaceOnUse">
<stop stop-color="#FFEB49"/>
<stop offset="0.09" stop-color="#FFE545" stop-opacity="0.96"/>
<stop offset="0.24" stop-color="#FFD63D" stop-opacity="0.84"/>
<stop offset="0.44" stop-color="#FFBD2F" stop-opacity="0.66"/>
<stop offset="0.67" stop-color="#FF9A1C" stop-opacity="0.4"/>
<stop offset="0.94" stop-color="#FF6F05" stop-opacity="0.07"/>
<stop offset="1" stop-color="#FF6600" stop-opacity="0"/>
</linearGradient>
<linearGradient id="paint7_linear_4929_51147" x1="61.0466" y1="54.32" x2="136.244" y2="203.582" gradientUnits="userSpaceOnUse">
<stop stop-color="#FFE500"/>
<stop offset="0.45" stop-color="#FF6D00"/>
<stop offset="0.54" stop-color="#FF6709"/>
<stop offset="0.69" stop-color="#FF5622"/>
<stop offset="0.82" stop-color="#FF453F"/>
<stop offset="1" stop-color="#FB0372"/>
</linearGradient>
<linearGradient id="paint8_linear_4929_51147" x1="130.446" y1="35.6726" x2="201.913" y2="236.469" gradientUnits="userSpaceOnUse">
<stop offset="0.02" stop-color="#FF7408"/>
<stop offset="0.03" stop-color="#FFC534"/>
<stop offset="0.04" stop-color="#FFD63D"/>
<stop offset="0.05" stop-color="#FFE947"/>
<stop offset="0.08" stop-color="#FFEB49"/>
<stop offset="0.19" stop-color="#FFC936"/>
<stop offset="0.43" stop-color="#FF7508"/>
<stop offset="0.47" stop-color="#FF6600"/>
<stop offset="0.85" stop-color="#FB2872"/>
</linearGradient>
<linearGradient id="paint9_linear_4929_51147" x1="131.79" y1="15.1929" x2="246.694" y2="286.282" gradientUnits="userSpaceOnUse">
<stop stop-color="#FF6600"/>
<stop offset="0.17" stop-color="#FF9C00"/>
<stop offset="0.26" stop-color="#FF9200"/>
<stop offset="0.39" stop-color="#FF7900"/>
<stop offset="0.47" stop-color="#FF6600"/>
<stop offset="0.53" stop-color="#FE5B13"/>
<stop offset="0.65" stop-color="#FC453C"/>
<stop offset="0.76" stop-color="#FB3559"/>
<stop offset="0.85" stop-color="#FB2B6B"/>
<stop offset="0.92" stop-color="#FB2872"/>
</linearGradient>
<linearGradient id="paint10_linear_4929_51147" x1="140.22" y1="35.4141" x2="134.197" y2="21.5588" gradientUnits="userSpaceOnUse">
<stop stop-color="#D4002F" stop-opacity="0"/>
<stop offset="0.88" stop-color="#D4002F"/>
</linearGradient>
<linearGradient id="paint11_linear_4929_51147" x1="156.349" y1="23.626" x2="150.478" y2="-9.22472" gradientUnits="userSpaceOnUse">
<stop stop-color="#FF6600" stop-opacity="0"/>
<stop offset="0.07" stop-color="#FF6600" stop-opacity="0.2"/>
<stop offset="0.21" stop-color="#FF6600" stop-opacity="0.54"/>
<stop offset="0.31" stop-color="#FF6600" stop-opacity="0.79"/>
<stop offset="0.39" stop-color="#FF6600" stop-opacity="0.94"/>
<stop offset="0.43" stop-color="#FF6600"/>
<stop offset="0.72" stop-color="#FD4737"/>
<stop offset="1" stop-color="#FB2872"/>
</linearGradient>
<linearGradient id="paint12_linear_4929_51147" x1="119.821" y1="39.0987" x2="100.734" y2="11.7245" gradientUnits="userSpaceOnUse">
<stop stop-color="#FF6600" stop-opacity="0"/>
<stop offset="0.05" stop-color="#FF6600" stop-opacity="0.1"/>
<stop offset="0.17" stop-color="#FF6600" stop-opacity="0.36"/>
<stop offset="0.34" stop-color="#FF6600" stop-opacity="0.76"/>
<stop offset="0.43" stop-color="#FF6600"/>
<stop offset="0.72" stop-color="#FD4737"/>
<stop offset="1" stop-color="#FB2872"/>
</linearGradient>
<linearGradient id="paint13_linear_4929_51147" x1="132.228" y1="56.3642" x2="139.429" y2="68.3203" gradientUnits="userSpaceOnUse">
<stop offset="0.16" stop-color="#A030B9"/>
<stop offset="0.88" stop-color="#00073A"/>
</linearGradient>
<linearGradient id="paint14_linear_4929_51147" x1="159.262" y1="44.4894" x2="162.629" y2="58.0344" gradientUnits="userSpaceOnUse">
<stop offset="0.16" stop-color="#A030B9"/>
<stop offset="0.88" stop-color="#00073A"/>
</linearGradient>
<radialGradient id="paint15_radial_4929_51147" cx="0" cy="0" r="1" gradientUnits="userSpaceOnUse" gradientTransform="translate(117.101 194.959) scale(51.6958 51.6958)">
<stop stop-color="#FFEB49"/>
<stop offset="0.07" stop-color="#FFE546" stop-opacity="0.96"/>
<stop offset="0.18" stop-color="#FFD73E" stop-opacity="0.85"/>
<stop offset="0.32" stop-color="#FFC031" stop-opacity="0.68"/>
<stop offset="0.49" stop-color="#FFA01F" stop-opacity="0.44"/>
<stop offset="0.69" stop-color="#FF7709" stop-opacity="0.13"/>
<stop offset="0.77" stop-color="#FF6600" stop-opacity="0"/>
</radialGradient>
<linearGradient id="paint16_linear_4929_51147" x1="209.65" y1="179.673" x2="91.009" y2="226.942" gradientUnits="userSpaceOnUse">
<stop offset="0.02" stop-color="#BE0449" stop-opacity="0"/>
<stop offset="0.51" stop-color="#FB2872"/>
<stop offset="0.67" stop-color="#A31C5E"/>
<stop offset="0.83" stop-color="#4C104A"/>
<stop offset="0.94" stop-color="#15093E"/>
<stop offset="1" stop-color="#00073A"/>
</linearGradient>
<linearGradient id="paint17_linear_4929_51147" x1="143.181" y1="190.982" x2="224.137" y2="222.631" gradientUnits="userSpaceOnUse">
<stop stop-color="#BE0449" stop-opacity="0"/>
<stop offset="0.41" stop-color="#FB2872"/>
<stop offset="1" stop-color="#00073A"/>
</linearGradient>
<linearGradient id="paint18_linear_4929_51147" x1="150.757" y1="145.026" x2="154.251" y2="238.005" gradientUnits="userSpaceOnUse">
<stop offset="0.05" stop-color="#BE0449" stop-opacity="0"/>
<stop offset="0.09" stop-color="#BF054A" stop-opacity="0.04"/>
<stop offset="0.16" stop-color="#C2084C" stop-opacity="0.16"/>
<stop offset="0.25" stop-color="#C70D51" stop-opacity="0.36"/>
<stop offset="0.36" stop-color="#CE1457" stop-opacity="0.63"/>
<stop offset="0.48" stop-color="#D71E5F" stop-opacity="0.97"/>
<stop offset="0.49" stop-color="#D81F60"/>
<stop offset="0.56" stop-color="#D31E5F"/>
<stop offset="0.63" stop-color="#C71D5D"/>
<stop offset="0.7" stop-color="#B31A59"/>
<stop offset="0.77" stop-color="#971754"/>
<stop offset="0.84" stop-color="#73134E"/>
<stop offset="0.91" stop-color="#460E46"/>
<stop offset="0.98" stop-color="#13093D"/>
<stop offset="1" stop-color="#00073A"/>
</linearGradient>
<linearGradient id="paint19_linear_4929_51147" x1="161.715" y1="120.665" x2="165.37" y2="201.05" gradientUnits="userSpaceOnUse">
<stop stop-color="#FFEB49"/>
<stop offset="0.08" stop-color="#FFE545" stop-opacity="0.96"/>
<stop offset="0.21" stop-color="#FFD63D" stop-opacity="0.84"/>
<stop offset="0.38" stop-color="#FFBD2F" stop-opacity="0.66"/>
<stop offset="0.58" stop-color="#FF9A1C" stop-opacity="0.4"/>
<stop offset="0.81" stop-color="#FF6F05" stop-opacity="0.07"/>
<stop offset="0.86" stop-color="#FF6600" stop-opacity="0"/>
</linearGradient>
<linearGradient id="paint20_linear_4929_51147" x1="173.669" y1="127.843" x2="169.795" y2="238.726" gradientUnits="userSpaceOnUse">
<stop stop-color="#D81F60" stop-opacity="0"/>
<stop offset="0.11" stop-color="#D81F60" stop-opacity="0.01"/>
<stop offset="0.19" stop-color="#D81F60" stop-opacity="0.06"/>
<stop offset="0.27" stop-color="#D81F60" stop-opacity="0.14"/>
<stop offset="0.35" stop-color="#D81F60" stop-opacity="0.25"/>
<stop offset="0.42" stop-color="#D81F60" stop-opacity="0.39"/>
<stop offset="0.49" stop-color="#D81F60" stop-opacity="0.57"/>
<stop offset="0.55" stop-color="#D81F60" stop-opacity="0.77"/>
<stop offset="0.62" stop-color="#D81F60"/>
<stop offset="0.66" stop-color="#D21E5F"/>
<stop offset="0.71" stop-color="#C21C5C"/>
<stop offset="0.77" stop-color="#A81957"/>
<stop offset="0.83" stop-color="#841551"/>
<stop offset="0.9" stop-color="#551049"/>
<stop offset="0.97" stop-color="#1D0A3F"/>
<stop offset="1" stop-color="#00073A"/>
</linearGradient>
<linearGradient id="paint21_linear_4929_51147" x1="273.267" y1="221.721" x2="215.343" y2="210.022" gradientUnits="userSpaceOnUse">
<stop stop-color="#E752FF"/>
<stop offset="0.04" stop-color="#D94EFF"/>
<stop offset="0.33" stop-color="#7A32FF"/>
<stop offset="0.53" stop-color="#3E20FF"/>
<stop offset="0.63" stop-color="#271AFF"/>
</linearGradient>
<linearGradient id="paint22_linear_4929_51147" x1="277.016" y1="219.225" x2="169.625" y2="192.978" gradientUnits="userSpaceOnUse">
<stop offset="0.02" stop-color="#E752FF"/>
<stop offset="0.23" stop-color="#B142FF"/>
<stop offset="0.72" stop-color="#2A1BFF"/>
<stop offset="0.74" stop-color="#271AFF"/>
</linearGradient>
<linearGradient id="paint23_linear_4929_51147" x1="238.982" y1="162.645" x2="190.808" y2="235.072" gradientUnits="userSpaceOnUse">
<stop offset="0.13" stop-color="#E752FF"/>
<stop offset="0.23" stop-color="#DD4FFF"/>
<stop offset="0.38" stop-color="#C347FF"/>
<stop offset="0.57" stop-color="#983BFF"/>
<stop offset="0.8" stop-color="#5E2AFF"/>
<stop offset="1" stop-color="#271AFF"/>
</linearGradient>
<linearGradient id="paint24_linear_4929_51147" x1="227.228" y1="156.191" x2="183.261" y2="256.422" gradientUnits="userSpaceOnUse">
<stop offset="0.17" stop-color="#A030B9"/>
<stop offset="0.24" stop-color="#9B2EB8"/>
<stop offset="0.31" stop-color="#8F2BB8"/>
<stop offset="0.38" stop-color="#7B26B7"/>
<stop offset="0.45" stop-color="#5F1FB6"/>
<stop offset="0.52" stop-color="#3B16B5"/>
<stop offset="0.58" stop-color="#0F0AB3"/>
<stop offset="0.61" stop-color="#0007B3"/>
<stop offset="0.99" stop-color="#00073A"/>
</linearGradient>
<linearGradient id="paint25_linear_4929_51147" x1="217.707" y1="180.546" x2="206.065" y2="194.491" gradientUnits="userSpaceOnUse">
<stop stop-color="#A030B9"/>
<stop offset="0.06" stop-color="#9B2EB8"/>
<stop offset="0.12" stop-color="#8F2BB8"/>
<stop offset="0.19" stop-color="#7B26B7"/>
<stop offset="0.25" stop-color="#5F1FB6"/>
<stop offset="0.31" stop-color="#3B16B5"/>
<stop offset="0.37" stop-color="#0F0AB3"/>
<stop offset="0.39" stop-color="#0007B3"/>
<stop offset="0.99" stop-color="#00073A"/>
</linearGradient>
<linearGradient id="paint26_linear_4929_51147" x1="212.347" y1="198.406" x2="200.696" y2="212.35" gradientUnits="userSpaceOnUse">
<stop stop-color="#A030B9"/>
<stop offset="0.06" stop-color="#9B2EB8"/>
<stop offset="0.12" stop-color="#8F2BB8"/>
<stop offset="0.19" stop-color="#7B26B7"/>
<stop offset="0.25" stop-color="#5F1FB6"/>
<stop offset="0.31" stop-color="#3B16B5"/>
<stop offset="0.37" stop-color="#0F0AB3"/>
<stop offset="0.39" stop-color="#0007B3"/>
<stop offset="0.99" stop-color="#00073A"/>
</linearGradient>
<linearGradient id="paint27_linear_4929_51147" x1="207.331" y1="172.171" x2="191.318" y2="214.26" gradientUnits="userSpaceOnUse">
<stop offset="0.21" stop-color="#E752FF"/>
<stop offset="0.24" stop-color="#DD4FFF"/>
<stop offset="0.28" stop-color="#C347FF"/>
<stop offset="0.33" stop-color="#983BFF"/>
<stop offset="0.39" stop-color="#5E2AFF"/>
<stop offset="0.44" stop-color="#271AFF"/>
</linearGradient>
<linearGradient id="paint28_linear_4929_51147" x1="200.837" y1="191.661" x2="184.822" y2="233.759" gradientUnits="userSpaceOnUse">
<stop offset="0.13" stop-color="#E752FF"/>
<stop offset="0.16" stop-color="#DD4FFF"/>
<stop offset="0.21" stop-color="#C347FF"/>
<stop offset="0.27" stop-color="#983BFF"/>
<stop offset="0.33" stop-color="#5E2AFF"/>
<stop offset="0.39" stop-color="#271AFF"/>
</linearGradient>
<linearGradient id="paint29_linear_4929_51147" x1="54.5358" y1="220.817" x2="93.8779" y2="203.196" gradientUnits="userSpaceOnUse">
<stop stop-color="#E752FF"/>
<stop offset="0.04" stop-color="#D94EFF"/>
<stop offset="0.31" stop-color="#7A32FF"/>
<stop offset="0.5" stop-color="#3E20FF"/>
<stop offset="0.58" stop-color="#271AFF"/>
</linearGradient>
<linearGradient id="paint30_linear_4929_51147" x1="42.4665" y1="205.318" x2="152.116" y2="191.225" gradientUnits="userSpaceOnUse">
<stop offset="0.02" stop-color="#E752FF"/>
<stop offset="0.23" stop-color="#B142FF"/>
<stop offset="0.72" stop-color="#2A1BFF"/>
<stop offset="0.74" stop-color="#271AFF"/>
</linearGradient>
<linearGradient id="paint31_linear_4929_51147" x1="119.915" y1="166.246" x2="107.452" y2="237.63" gradientUnits="userSpaceOnUse">
<stop offset="0.23" stop-color="#E752FF"/>
<stop offset="0.36" stop-color="#E55BF7"/>
<stop offset="0.51" stop-color="#E46DEB"/>
<stop offset="0.91" stop-color="#271AFF"/>
</linearGradient>
<linearGradient id="paint32_linear_4929_51147" x1="111.678" y1="177.859" x2="139.68" y2="262.354" gradientUnits="userSpaceOnUse">
<stop offset="0.06" stop-color="#A030B9"/>
<stop offset="0.15" stop-color="#9B2EB8"/>
<stop offset="0.23" stop-color="#8F2BB8"/>
<stop offset="0.32" stop-color="#7B26B7"/>
<stop offset="0.41" stop-color="#5F1FB6"/>
<stop offset="0.49" stop-color="#3B16B5"/>
<stop offset="0.58" stop-color="#0F0AB3"/>
<stop offset="0.61" stop-color="#0007B3"/>
<stop offset="0.99" stop-color="#00073A"/>
</linearGradient>
<linearGradient id="paint33_linear_4929_51147" x1="169.26" y1="221.226" x2="194.527" y2="221.617" gradientUnits="userSpaceOnUse">
<stop stop-color="#A030B9"/>
<stop offset="0.04" stop-color="#9B2EB8"/>
<stop offset="0.08" stop-color="#8F2BB8"/>
<stop offset="0.12" stop-color="#7B26B7"/>
<stop offset="0.17" stop-color="#5F1FB6"/>
<stop offset="0.21" stop-color="#3B16B5"/>
<stop offset="0.25" stop-color="#0F0AB3"/>
<stop offset="0.26" stop-color="#0007B3"/>
<stop offset="0.99" stop-color="#00073A"/>
</linearGradient>
<linearGradient id="paint34_linear_4929_51147" x1="96.7529" y1="195.566" x2="118.611" y2="183.965" gradientUnits="userSpaceOnUse">
<stop stop-color="#A030B9"/>
<stop offset="0.04" stop-color="#9B2EB8"/>
<stop offset="0.08" stop-color="#8F2BB8"/>
<stop offset="0.12" stop-color="#7B26B7"/>
<stop offset="0.16" stop-color="#5F1FB6"/>
<stop offset="0.2" stop-color="#3B16B5"/>
<stop offset="0.23" stop-color="#0F0AB3"/>
<stop offset="0.25" stop-color="#0007B3"/>
<stop offset="0.99" stop-color="#00073A"/>
</linearGradient>
<linearGradient id="paint35_linear_4929_51147" x1="109.669" y1="189.133" x2="122.944" y2="192.472" gradientUnits="userSpaceOnUse">
<stop offset="0.21" stop-color="#E752FF"/>
<stop offset="0.53" stop-color="#A33DFF"/>
<stop offset="0.79" stop-color="#6A2DFF"/>
<stop offset="1" stop-color="#271AFF"/>
</linearGradient>
<linearGradient id="paint36_linear_4929_51147" x1="102.378" y1="212.32" x2="124.754" y2="202.568" gradientUnits="userSpaceOnUse">
<stop stop-color="#A030B9"/>
<stop offset="0.04" stop-color="#9B2EB8"/>
<stop offset="0.08" stop-color="#8F2BB8"/>
<stop offset="0.12" stop-color="#7B26B7"/>
<stop offset="0.16" stop-color="#5F1FB6"/>
<stop offset="0.2" stop-color="#3B16B5"/>
<stop offset="0.23" stop-color="#0F0AB3"/>
<stop offset="0.25" stop-color="#0007B3"/>
<stop offset="0.99" stop-color="#00073A"/>
</linearGradient>
<linearGradient id="paint37_linear_4929_51147" x1="114.812" y1="205.099" x2="127.566" y2="207.843" gradientUnits="userSpaceOnUse">
<stop offset="0.21" stop-color="#E752FF"/>
<stop offset="0.53" stop-color="#A33DFF"/>
<stop offset="0.79" stop-color="#6A2DFF"/>
<stop offset="1" stop-color="#271AFF"/>
</linearGradient>
<clipPath id="clip0_4929_51147">
<rect width="307.455" height="228" fill="white"/>
</clipPath>
</defs>
</svg>
