<svg width="40" height="41" viewBox="0 0 40 41" fill="none" xmlns="http://www.w3.org/2000/svg">
<ellipse cx="18.85" cy="18.85" rx="18.85" ry="18.85" transform="matrix(-1 0 0 1 40 2.39844)" fill="url(#paint0_linear_5192_29820)" fill-opacity="0.15"/>
<mask id="mask0_5192_29820" style="mask-type:alpha" maskUnits="userSpaceOnUse" x="-1" y="-1" width="41" height="42">
<path d="M39.7988 24.4951C39.7987 33.1676 32.7682 40.1982 24.0957 40.1982H17.9023C10.2363 40.1982 3.85495 34.7044 2.47656 27.4395H-0.634766V18.0391H2.19922V-0.00195312H39.7988V24.4951Z" fill="#D9D9D9"/>
</mask>
<g mask="url(#mask0_5192_29820)">
<path d="M0.415476 21.2972C0.495983 20.288 2.74158 20.0349 3.7163 18.5513C4.02108 18.0855 4.10158 17.3207 4.10446 16.484C4.10446 15.7536 4.04408 14.9716 4.0182 14.2901C3.95495 12.6857 4.02107 11.8059 4.0067 9.09161C3.99232 6.93802 4.25973 4.55154 5.2517 3.99086C6.17179 3.47043 7.65544 4.48254 9.76302 6.42048C10.939 7.50158 11.7096 8.43605 12.5147 9.10311C12.5635 9.14337 12.6124 9.1865 12.6613 9.22387C12.7102 9.26125 13.9149 8.94784 14.6222 8.80696C14.7746 8.77533 14.8666 8.59994 14.9443 8.28366C15.1168 7.57921 15.2059 6.17033 15.6976 4.11163C16.31 1.54975 17.141 0.299 18.3429 0.195489C19.355 0.109231 21.1118 2.65961 22.466 4.79594C23.5874 6.56424 23.6707 6.74538 24.1078 7.38082C24.4269 7.84374 24.7921 8.39579 25.1889 8.94497C26.0084 10.0807 26.9486 11.2136 27.8543 11.573C29.5593 12.2487 30.8762 11.3372 31.5116 12.125C32.1212 12.8812 31.4599 13.0192 31.3219 13.1486C27.6703 14.0716 26.7933 18.9366 25.1055 18.5139C23.665 18.1545 22.7162 19.6841 19.7517 20.0551C16.8017 20.4231 16.4653 22.0131 14.2513 21.602C9.59625 20.7365 5.70311 20.5237 1.18317 22.1684C1.41319 21.8147 0.366598 21.947 0.418352 21.2972H0.415476Z" fill="url(#paint1_linear_5192_29820)"/>
<path d="M7.88251 12.1848C6.35287 13.9588 4.77434 15.753 4.10152 16.4862C4.10152 15.7559 4.04114 14.9738 4.01526 14.2924C3.952 12.688 4.01814 11.8081 4.00376 9.09385C3.98939 6.94027 4.25679 4.55378 5.24876 3.9931C6.16885 3.47267 7.65249 4.48478 9.76007 6.42272C10.9361 7.50382 11.7066 8.43829 12.5117 9.10535C11.5514 9.45039 9.46392 10.3561 7.88251 12.1877V12.1848Z" fill="url(#paint2_linear_5192_29820)"/>
<path d="M14.9409 8.28366C15.1134 7.57921 15.2026 6.17033 15.6942 4.11163C16.3067 1.54975 17.1376 0.299 18.3395 0.195489C19.3516 0.109231 21.1084 2.65961 22.4627 4.79594C23.584 6.56424 23.6674 6.74538 24.1044 7.38082C24.4236 7.84374 24.7888 8.39579 25.1855 8.94497C24.0268 8.75233 21.9537 8.38429 19.9267 8.00475C17.9283 7.63384 16.068 7.97025 14.9409 8.28078V8.28366Z" fill="url(#paint3_linear_5192_29820)"/>
<path d="M1.18033 22.1721C5.57663 20.5734 9.42377 20.7316 13.9725 21.5568C14.4296 21.6402 14.8034 21.7149 15.3066 21.6488C14.2887 22.7328 17.2503 25.5362 20.7754 24.8634C21.9772 24.6333 22.9491 24.2653 23.7254 23.8139C26.3275 22.2986 26.6237 19.8978 25.6777 18.6729C25.6375 18.6183 25.5915 18.5636 25.5455 18.5061C26.9774 18.095 28.001 13.9919 31.3248 13.1523C31.296 13.1811 31.2903 13.207 31.3248 13.2386C31.6526 13.5491 33.0384 12.9482 33.3806 13.8453C33.6624 14.5785 32.173 14.7136 32.2822 15.0558C32.4318 15.5216 33.5014 15.4037 33.6423 15.8724C33.8809 16.6573 33.372 16.6084 32.0724 17.7844C31.4168 18.3767 30.5628 19.2796 29.5019 20.7575C27.8112 23.1094 27.6962 28.4977 27.9061 32.1982C28.0096 34.0499 28.9527 38.1702 29.0619 40.341C29.1741 42.578 28.9412 44.5907 28.8837 46.3618C28.8693 47.233 28.8837 48.4435 29.0878 49.3033C29.5939 51.8536 31.1005 52.2619 31.6497 55.6145C32.4749 60.6577 26.986 62.5525 27.0464 62.5698C27.0579 62.5727 27.078 62.5784 27.0981 62.5813C26.8163 62.6158 26.5432 62.6474 26.2787 62.6791C25.0797 62.8257 24.0388 62.9637 23.1417 63.0902C22.7967 63.1391 22.4287 63.1851 22.121 63.2311C22.213 63.7832 22.3597 64.4215 22.5005 64.8355C22.6989 65.4135 22.9031 66.4658 22.6156 66.9489C22.0405 67.9207 18.4723 67.7741 18.3055 66.6268C18.225 66.0661 18.1704 65.3818 18.1387 64.6055C18.1387 64.6055 18.1387 64.6113 18.1387 64.6141C17.7333 64.5969 17.7074 64.6026 17.4429 64.6141C17.4401 64.7291 17.3969 65.7959 17.2762 66.6239C17.1094 67.7712 13.5412 67.9178 12.9661 66.946C12.6815 66.4658 12.8827 65.4135 13.0811 64.8326C13.1731 64.5624 13.2709 64.1771 13.3572 63.7832C12.9086 63.6912 7.72735 62.6331 7.29318 62.564C7.28743 62.5439 7.25868 62.5238 7.20692 62.5037C4.83194 61.6842 2.13781 58.047 3.3828 54.6513C4.09587 52.7076 5.41562 51.7846 6.15457 50.485C7.6871 47.7966 6.51686 47.1669 7.19255 39.9902C7.48583 36.8648 8.30528 33.1816 8.63882 31.2752C9.30013 27.4914 8.44329 27.5144 6.21495 26.8933C3.33679 26.0911 2.35633 26.5972 1.96817 25.6972C1.78415 25.2717 2.47134 24.9726 2.31895 24.5385C2.08317 23.8541 0.159611 24.4234 0.0187225 23.7133C-0.162418 22.8018 0.964691 22.5114 1.18896 22.1692L1.18033 22.1721Z" fill="url(#paint4_linear_5192_29820)"/>
<path opacity="0.6" d="M1.18033 22.1721C5.57663 20.5734 9.42377 20.7316 13.9725 21.5568C14.4296 21.6402 14.8034 21.7149 15.3066 21.6488C14.2887 22.7328 17.2503 25.5362 20.7754 24.8634C21.9772 24.6333 22.9491 24.2653 23.7254 23.8139C26.3275 22.2986 26.6237 19.8978 25.6777 18.6729C25.6375 18.6183 25.5915 18.5636 25.5455 18.5061C26.9774 18.095 28.001 13.9919 31.3248 13.1523C31.296 13.1811 31.2903 13.207 31.3248 13.2386C31.6526 13.5491 33.0384 12.9482 33.3806 13.8453C33.6624 14.5785 32.173 14.7136 32.2822 15.0558C32.4318 15.5216 33.5014 15.4037 33.6423 15.8724C33.8809 16.6573 33.372 16.6084 32.0724 17.7844C31.4168 18.3767 30.5628 19.2796 29.5019 20.7575C27.8112 23.1094 27.6962 28.4977 27.9061 32.1982C28.0096 34.0499 28.9527 38.1702 29.0619 40.341C29.1741 42.578 28.9412 44.5907 28.8837 46.3618C28.8693 47.233 28.8837 48.4435 29.0878 49.3033C29.5939 51.8536 31.1005 52.2619 31.6497 55.6145C32.4749 60.6577 26.986 62.5525 27.0464 62.5698C27.0579 62.5727 27.078 62.5784 27.0981 62.5813C26.8163 62.6158 26.5432 62.6474 26.2787 62.6791C25.0797 62.8257 24.0388 62.9637 23.1417 63.0902C22.7967 63.1391 22.4287 63.1851 22.121 63.2311C22.213 63.7832 22.3597 64.4215 22.5005 64.8355C22.6989 65.4135 22.9031 66.4658 22.6156 66.9489C22.0405 67.9207 18.4723 67.7741 18.3055 66.6268C18.225 66.0661 18.1704 65.3818 18.1387 64.6055C18.1387 64.6055 18.1387 64.6113 18.1387 64.6141C17.7333 64.5969 17.7074 64.6026 17.4429 64.6141C17.4401 64.7291 17.3969 65.7959 17.2762 66.6239C17.1094 67.7712 13.5412 67.9178 12.9661 66.946C12.6815 66.4658 12.8827 65.4135 13.0811 64.8326C13.1731 64.5624 13.2709 64.1771 13.3572 63.7832C12.9086 63.6912 7.72735 62.6331 7.29318 62.564C7.28743 62.5439 7.25868 62.5238 7.20692 62.5037C4.83194 61.6842 2.13781 58.047 3.3828 54.6513C4.09587 52.7076 5.41562 51.7846 6.15457 50.485C7.6871 47.7966 6.51686 47.1669 7.19255 39.9902C7.48583 36.8648 8.30528 33.1816 8.63882 31.2752C9.30013 27.4914 8.44329 27.5144 6.21495 26.8933C3.33679 26.0911 2.35633 26.5972 1.96817 25.6972C1.78415 25.2717 2.47134 24.9726 2.31895 24.5385C2.08317 23.8541 0.159611 24.4234 0.0187225 23.7133C-0.162418 22.8018 0.964691 22.5114 1.18896 22.1692L1.18033 22.1721Z" fill="url(#paint5_linear_5192_29820)"/>
<path d="M27.0439 62.5773C27.0209 62.5715 27.0037 62.5687 26.9922 62.5658C26.9318 62.5485 32.4236 60.6537 31.5955 55.6105C31.2304 53.3793 30.4195 52.4247 29.6863 51.125C29.6432 51.0503 29.6058 50.9698 29.5742 50.8893C29.4994 50.6995 29.3902 50.389 29.3097 50.1618C29.8761 50.0468 30.5719 49.8686 31.561 49.4746C40.5204 45.8949 40.8712 36.7918 40.2817 27.9733C39.8246 21.1617 47.3751 18.252 47.3751 18.252C47.3751 18.252 45.2675 21.8317 48.9565 25.144C53.2234 28.9768 57.3321 34.4542 57.1568 42.689C57.1481 43.0743 57.0762 44.0605 57.0762 44.0605C57.0762 44.0605 57.3609 43.9225 57.7347 43.5343C58.2149 43.0369 58.4046 42.7206 58.4046 42.7206C58.4046 42.7206 58.5599 45.0697 57.4558 48.6494C55.8111 53.9802 52.3953 58.6583 47.1364 61.8786C42.0127 65.0155 37.855 65.2024 30.3189 65.2139C30.3189 64.9264 30.1924 64.5785 29.8301 64.1328C28.8007 62.8734 27.389 62.6463 27.0439 62.5744V62.5773Z" fill="url(#paint6_linear_5192_29820)"/>
<path opacity="0.6" d="M18.0918 31.4052C18.0918 31.4052 21.8671 34.1971 20.8521 40.7154C20.0384 45.934 19.3685 47.1416 18.8567 50.454C18.342 53.7663 17.7928 57.5904 17.7928 57.5904C17.7928 57.5904 17.3299 53.8928 16.706 50.3677C16.2603 47.849 15.3661 44.459 14.8888 40.3847C14.1182 33.8233 18.0947 31.4023 18.0947 31.4023L18.0918 31.4052Z" fill="url(#paint7_linear_5192_29820)"/>
<path d="M21.7936 16.7649C19.6285 17.0553 18.0873 20.3993 15.6778 21.3999C13.7543 22.1992 16.9315 25.5978 20.7728 24.8646C25.9455 23.8784 26.9374 20.3073 25.6723 18.6741C24.9937 17.7971 23.6107 16.5205 21.7907 16.7649H21.7936Z" fill="#FFC635"/>
<path d="M21.9119 17.3091C22.6997 17.0618 23.2317 17.2631 23.4531 17.5391C23.7262 17.8784 23.64 18.7899 22.671 19.0947C21.7509 19.3851 20.989 18.7956 20.9775 18.3298C20.9688 17.9992 21.2161 17.5276 21.9119 17.3091Z" fill="#00073A"/>
<path d="M13.5642 15.258C12.6183 15.5139 12.2617 16.2988 13.0237 18.0326C13.6217 19.3955 14.2112 19.338 15.1054 19.0878C15.5712 18.9556 16.1577 18.2569 15.7034 17.216C15.0881 15.7956 14.5562 14.9906 13.5642 15.258Z" fill="url(#paint8_linear_5192_29820)"/>
<path d="M14.2081 16.5346C14.303 16.7647 14.5675 16.894 14.7976 16.825C15.0276 16.756 15.1369 16.5116 15.042 16.2816C14.9471 16.0516 14.6826 15.9222 14.4525 15.9912C14.2225 16.0602 14.1133 16.3046 14.2081 16.5346Z" fill="white"/>
<path d="M21.4601 12.1096C20.2151 12.3857 20.3014 13.4639 21.0691 15.0683C21.5492 16.0718 22.1243 16.0545 23.0128 15.8044C23.4757 15.675 24.1082 15.1776 23.4584 13.8003C22.9322 12.6818 22.2451 11.9342 21.4601 12.1068V12.1096Z" fill="url(#paint9_linear_5192_29820)"/>
<path d="M21.8842 13.4404C21.9819 13.6762 22.2522 13.8113 22.488 13.7394C22.7237 13.6675 22.8359 13.4174 22.7381 13.1816C22.6404 12.9459 22.3701 12.8107 22.1343 12.8826C21.8985 12.9545 21.7864 13.2046 21.8842 13.4404Z" fill="white"/>
</g>
<defs>
<linearGradient id="paint0_linear_5192_29820" x1="41.5073" y1="4.54935" x2="38.2294" y2="38.3277" gradientUnits="userSpaceOnUse">
<stop stop-color="#945AF2"/>
<stop offset="0.711538" stop-color="#F37E49"/>
</linearGradient>
<linearGradient id="paint1_linear_5192_29820" x1="10.479" y1="-0.218551" x2="21.1261" y2="32.4763" gradientUnits="userSpaceOnUse">
<stop offset="0.17" stop-color="#FF6600"/>
<stop offset="0.54" stop-color="#FF9C00"/>
<stop offset="0.9" stop-color="#FF6700"/>
<stop offset="0.91" stop-color="#FF6600"/>
</linearGradient>
<linearGradient id="paint2_linear_5192_29820" x1="7.60245" y1="11.7249" x2="1.91234" y2="2.71227" gradientUnits="userSpaceOnUse">
<stop stop-color="#FF6600" stop-opacity="0"/>
<stop offset="0.11" stop-color="#FF6600" stop-opacity="0.3"/>
<stop offset="0.23" stop-color="#FF6600" stop-opacity="0.6"/>
<stop offset="0.32" stop-color="#FF6600" stop-opacity="0.82"/>
<stop offset="0.4" stop-color="#FF6600" stop-opacity="0.95"/>
<stop offset="0.43" stop-color="#FF6600"/>
<stop offset="0.72" stop-color="#FD4737"/>
<stop offset="1" stop-color="#FB2872"/>
</linearGradient>
<linearGradient id="paint3_linear_5192_29820" x1="20.0182" y1="7.84866" x2="18.7539" y2="-2.75567" gradientUnits="userSpaceOnUse">
<stop stop-color="#FF6600" stop-opacity="0"/>
<stop offset="0.03" stop-color="#FF6600" stop-opacity="0.17"/>
<stop offset="0.07" stop-color="#FF6600" stop-opacity="0.36"/>
<stop offset="0.11" stop-color="#FF6600" stop-opacity="0.53"/>
<stop offset="0.15" stop-color="#FF6600" stop-opacity="0.68"/>
<stop offset="0.2" stop-color="#FF6600" stop-opacity="0.8"/>
<stop offset="0.24" stop-color="#FF6600" stop-opacity="0.89"/>
<stop offset="0.29" stop-color="#FF6600" stop-opacity="0.95"/>
<stop offset="0.35" stop-color="#FF6600" stop-opacity="0.99"/>
<stop offset="0.42" stop-color="#FF6600"/>
<stop offset="0.7" stop-color="#FD4737"/>
<stop offset="0.97" stop-color="#FB2872"/>
</linearGradient>
<linearGradient id="paint4_linear_5192_29820" x1="16.842" y1="12.1546" x2="16.842" y2="70.9282" gradientUnits="userSpaceOnUse">
<stop stop-color="#FF6600"/>
<stop offset="0.01" stop-color="#FF7408"/>
<stop offset="0.04" stop-color="#FF8A14"/>
<stop offset="0.07" stop-color="#FF9B1D"/>
<stop offset="0.11" stop-color="#FFA724"/>
<stop offset="0.17" stop-color="#FFAE27"/>
<stop offset="0.33" stop-color="#FFB029"/>
<stop offset="0.46" stop-color="#FF9218"/>
<stop offset="0.63" stop-color="#FF6600"/>
<stop offset="0.64" stop-color="#FE5D0F"/>
<stop offset="0.69" stop-color="#FD4A32"/>
<stop offset="0.74" stop-color="#FC3B4E"/>
<stop offset="0.79" stop-color="#FB3062"/>
<stop offset="0.84" stop-color="#FB2A6E"/>
<stop offset="0.89" stop-color="#FB2872"/>
</linearGradient>
<linearGradient id="paint5_linear_5192_29820" x1="16.842" y1="12.1546" x2="16.842" y2="70.9282" gradientUnits="userSpaceOnUse">
<stop stop-color="#FFEB49" stop-opacity="0.8"/>
<stop offset="0.23" stop-color="#FFC836" stop-opacity="0.59"/>
<stop offset="0.6" stop-color="#FF9319" stop-opacity="0.28"/>
<stop offset="0.87" stop-color="#FF7207" stop-opacity="0.08"/>
<stop offset="1" stop-color="#FF6600" stop-opacity="0"/>
</linearGradient>
<linearGradient id="paint6_linear_5192_29820" x1="56.783" y1="21.6937" x2="34.0682" y2="66.7781" gradientUnits="userSpaceOnUse">
<stop stop-color="#FFEB49"/>
<stop offset="0.45" stop-color="#FF6600"/>
<stop offset="0.53" stop-color="#FE6009"/>
<stop offset="0.68" stop-color="#FD5322"/>
<stop offset="0.86" stop-color="#FC3C4C"/>
<stop offset="1" stop-color="#FB2872"/>
</linearGradient>
<linearGradient id="paint7_linear_5192_29820" x1="17.9826" y1="36.9746" x2="16.8583" y2="61.7136" gradientUnits="userSpaceOnUse">
<stop stop-color="#FFEB49"/>
<stop offset="0.09" stop-color="#FFE847" stop-opacity="0.96"/>
<stop offset="0.24" stop-color="#FFE143" stop-opacity="0.84"/>
<stop offset="0.44" stop-color="#FFD63D" stop-opacity="0.66"/>
<stop offset="0.67" stop-color="#FFC735" stop-opacity="0.4"/>
<stop offset="0.94" stop-color="#FFB42B" stop-opacity="0.07"/>
<stop offset="1" stop-color="#FFB029" stop-opacity="0"/>
</linearGradient>
<linearGradient id="paint8_linear_5192_29820" x1="13.5441" y1="13.9267" x2="14.6396" y2="19.154" gradientUnits="userSpaceOnUse">
<stop offset="0.16" stop-color="#A030B9"/>
<stop offset="0.88" stop-color="#00073A"/>
</linearGradient>
<linearGradient id="paint9_linear_5192_29820" x1="21.3767" y1="11.086" x2="22.4665" y2="15.445" gradientUnits="userSpaceOnUse">
<stop offset="0.16" stop-color="#A030B9"/>
<stop offset="0.88" stop-color="#00073A"/>
</linearGradient>
</defs>
</svg>
