<svg xmlns="http://www.w3.org/2000/svg" width="342" height="402" fill="none" viewBox="0 0 342 402"><g clip-path="url(#a)"><path fill="#d9d9d9" d="M0-.199h342v402H0z"/><mask id="b" width="362" height="777" x="0" y="-373" maskUnits="userSpaceOnUse" style="mask-type:luminance"><path fill="#fff" d="M362-372.805H0v776h362z"/></mask><g mask="url(#b)"><path fill="#fcf5f0" d="M391.169 44.724c14.365.073 27.534.783 39.829 1.998v-654.527h-499.19v736.381c57.272-1.477 129.553-6.489 196.176-20.29 90.244-18.696 148.903-64.15 263.185-63.562M-26.338-479.427c-6.932-4.715-2.155-21.172 14.895-21.172 9.493 0 14.894-9.096 30.332-20.998 15.682-12.091 36.396-16.614 55.633-3.321 27.057 18.695 33.906 13.21 50.956 16.022 17.049 2.812 22.941 26.427 5.776 30.067-13.261 2.812-25.839 3.558-75.094 3.558-44.204 0-69.906 4.409-82.498-4.156m111.085 35.873c17.247 0 45.89 1.76 78.012-12.331 32.123-14.092 45.89-29.946 96.368-33.469s69.982 29.946 100.956 35.23c30.976 5.285 36.922 33.675 5.736 40.516-24.091 5.284-59.656 5.161-149.14 5.161-80.306 0-151.434 1.885-162.907-8.684-11.473-10.57 0-26.423 30.975-26.423"/><path fill="url(#c)" d="M430.998 460.96h-499.19V128.575c57.272-1.478 129.553-6.489 196.176-20.291 90.243-18.695 148.903-64.149 263.185-63.562 14.365.074 27.534.783 39.829 1.999z"/><mask id="d" width="500" height="417" x="-69" y="44" maskUnits="userSpaceOnUse" style="mask-type:luminance"><path fill="#fff" d="M430.998 460.96h-499.19V128.575c57.272-1.478 129.553-6.489 196.176-20.291 90.243-18.695 148.903-64.149 263.185-63.562 14.365.074 27.534.783 39.829 1.999z"/></mask><g mask="url(#d)"><path fill="url(#e)" d="M341.974 347.541c-177.069-11.408-228.062-78.465-361.843-84.34-108.052-4.747-164.567 40.917-269.465 65.231-383.397 88.863-430.808 67.762-430.808 67.762S-860.016 555.75-636.147 599.48c286.394 55.948 958.82-.609 1037.73 2.846 298.959 13.09 220.778-257.106-59.609-254.785"/></g></g><g filter="url(#f)"><g clip-path="url(#g)"><path fill="#fcf5f0" d="M63.688 108.562c0-6.496 5.265-11.761 11.76-11.761H280.09c6.496 0 11.761 5.265 11.761 11.761v178.767c0 6.496-5.265 11.761-11.761 11.761H75.449c-6.496 0-11.761-5.265-11.761-11.761z"/><path stroke="#fcf5f0" stroke-width="1.176" d="M63.688 274.979h1.176v30.578h-1.177z"/><rect width="31.625" height="170.144" x="88.938" y="174.451" fill="url(#i)" fill-opacity=".16" rx="9.448" transform="rotate(-90 88.938 174.451)"/><rect width="24.916" height="24.205" x="92.629" y="170.781" fill="url(#j)" fill-opacity=".6" rx="7.119" transform="rotate(-90 92.629 170.781)"/><rect width="31.625" height="170.144" x="88.938" y="212.016" fill="url(#k)" fill-opacity=".16" rx="9.448" transform="rotate(-90 88.938 212.016)"/><rect width="24.916" height="24.205" x="92.629" y="208.465" fill="url(#l)" fill-opacity=".6" rx="7.119" transform="rotate(-90 92.629 208.465)"/><rect width="31.625" height="170.144" x="88.938" y="249.579" fill="url(#m)" fill-opacity=".16" rx="9.448" transform="rotate(-90 88.938 249.579)"/><rect width="24.916" height="24.205" x="92.629" y="246.158" fill="url(#n)" fill-opacity=".6" rx="7.119" transform="rotate(-90 92.629 246.158)"/><rect width="31.625" height="170.144" x="88.938" y="287.143" fill="url(#o)" fill-opacity=".16" rx="9.448" transform="rotate(-90 88.938 287.143)"/><rect width="24.916" height="24.205" x="92.629" y="283.841" fill="url(#p)" fill-opacity=".6" rx="7.119" transform="rotate(-90 92.629 283.841)"/><path fill="#7338e2" fill-opacity=".6" d="M113.39 131.504H94.46a3.16 3.16 0 0 1-3.155-3.155v-15.775a3.16 3.16 0 0 1 3.155-3.155h5.747c.891 0 1.746.38 2.344 1.044a6.38 6.38 0 0 0 4.741 2.111h6.098a3.16 3.16 0 0 1 3.155 3.155v12.62a3.16 3.16 0 0 1-3.155 3.155"/><rect width="14.105" height="136.596" x="122.484" y="127.514" fill="#7338e2" fill-opacity=".24" rx="7.052" transform="rotate(-90 122.484 127.514)"/></g><path stroke="#7529e8" stroke-opacity=".1" stroke-width=".742" d="M75.448 97.172H280.09c6.29 0 11.389 5.099 11.389 11.39v178.767c0 6.291-5.099 11.39-11.389 11.39H75.448c-6.29 0-11.39-5.1-11.39-11.39V108.562c0-6.291 5.1-11.39 11.39-11.39Z"/></g><path fill="url(#q)" d="M317.253 206.245c-.172-2.163-4.983-2.7-7.067-5.885-.656-.998-.827-2.637-.827-4.429 0-1.564.125-3.236.182-4.703.138-3.436-.005-5.325.029-11.136.029-4.611-.542-9.726-2.666-10.924-1.969-1.119-5.148 1.056-9.663 5.205-2.517 2.318-4.172 4.315-5.896 5.742-.103.086-.205.177-.314.263-.102.079-2.688-.588-4.201-.891-.325-.062-.525-.445-.69-1.119-.365-1.512-.56-4.526-1.615-8.932-1.313-5.485-3.094-8.168-5.668-8.391-2.169-.182-5.931 5.28-8.83 9.852-2.403 3.784-2.58 4.172-3.516 5.537-.685.993-1.467 2.169-2.317 3.35-1.753 2.431-3.773 4.857-5.708 5.628-3.653 1.45-6.473-.503-7.831 1.181-1.301 1.615.114 1.918.405 2.198 7.825 1.975 9.697 12.397 13.316 11.495 3.082-.77 5.114 2.506 11.467 3.299 6.318.788 7.043 4.196 11.781 3.311 9.971-1.855 18.31-2.306 27.991 1.216-.497-.76 1.746-.474 1.638-1.867"/><path fill="url(#r)" d="M301.258 186.723c3.276 3.796 6.655 7.643 8.099 9.212 0-1.564.126-3.236.183-4.703.137-3.436-.006-5.325.028-11.136.029-4.611-.542-9.726-2.665-10.924-1.969-1.119-5.149 1.056-9.663 5.205-2.518 2.318-4.173 4.315-5.896 5.742 2.054.736 6.529 2.683 9.914 6.604"/><path fill="url(#s)" d="M286.146 178.368c-.366-1.512-.56-4.526-1.616-8.932-1.313-5.485-3.093-8.168-5.668-8.391-2.169-.182-5.93 5.28-8.829 9.852-2.403 3.784-2.58 4.172-3.516 5.537-.685.993-1.467 2.169-2.318 3.35 2.483-.411 6.918-1.204 11.262-2.009 4.281-.799 8.264-.074 10.679.593z"/><path fill="url(#t)" d="M315.614 208.116c-9.418-3.425-17.655-3.088-27.398-1.319-.981.177-1.78.337-2.853.2 2.18 2.323-4.167 8.328-11.713 6.889-2.574-.49-4.657-1.284-6.318-2.249-5.571-3.247-6.205-8.39-4.178-11.01.091-.114.182-.234.285-.354-3.065-.884-5.257-9.668-12.38-11.466.063.057.074.114 0 .182-.702.662-3.67-.622-4.406 1.301-.6 1.576 2.585 1.861 2.351 2.592-.325.999-2.608.747-2.911 1.752-.508 1.678.582 1.575 3.362 4.092 1.404 1.268 3.231 3.203 5.508 6.365 3.619 5.034 3.864 16.575 3.419 24.503-.222 3.967-2.243 12.785-2.471 17.443-.24 4.789.262 9.098.382 12.894.029 1.86 0 4.457-.434 6.295-1.084 5.463-4.309 6.336-5.485 13.516-1.769 10.805 9.989 14.863 9.863 14.897q-.044.01-.114.029c.599.068 1.187.143 1.758.211 2.569.314 4.8.611 6.718.879.742.103 1.529.206 2.186.302-.2 1.182-.514 2.552-.816 3.437-.423 1.238-.862 3.493-.245 4.526 1.232 2.083 8.875 1.769 9.229-.691.177-1.198.291-2.665.359-4.326v.017c.868-.04.925-.028 1.49.006.006.245.097 2.528.36 4.303.359 2.46 7.996 2.774 9.229.691.611-1.027.183-3.282-.245-4.526-.2-.582-.411-1.404-.588-2.249.959-.194 12.055-2.466 12.99-2.614q.018-.067.189-.126c5.086-1.758 10.856-9.543 8.19-16.821-1.523-4.166-4.354-6.141-5.941-8.921-3.282-5.759-.776-7.106-2.22-22.477-.628-6.695-2.386-14.583-3.1-18.664-1.415-8.105.417-8.054 5.194-9.384 6.164-1.718 8.265-.633 9.093-2.563.394-.907-1.074-1.546-.754-2.482.508-1.467 4.624-.246 4.926-1.77.388-1.957-2.026-2.574-2.506-3.304z"/><path fill="url(#u)" d="M315.614 208.116c-9.418-3.425-17.655-3.088-27.398-1.319-.981.177-1.78.337-2.853.2 2.18 2.323-4.167 8.328-11.713 6.889-2.574-.49-4.657-1.284-6.318-2.249-5.571-3.247-6.205-8.39-4.178-11.01.091-.114.182-.234.285-.354-3.065-.884-5.257-9.668-12.38-11.466.063.057.074.114 0 .182-.702.662-3.67-.622-4.406 1.301-.6 1.576 2.585 1.861 2.351 2.592-.325.999-2.608.747-2.911 1.752-.508 1.678.582 1.575 3.362 4.092 1.404 1.268 3.231 3.203 5.508 6.365 3.619 5.034 3.864 16.575 3.419 24.503-.222 3.967-2.243 12.785-2.471 17.443-.24 4.789.262 9.098.382 12.894.029 1.86 0 4.457-.434 6.295-1.084 5.463-4.309 6.336-5.485 13.516-1.769 10.805 9.989 14.863 9.863 14.897q-.044.01-.114.029c.599.068 1.187.143 1.758.211 2.569.314 4.8.611 6.718.879.742.103 1.529.206 2.186.302-.2 1.182-.514 2.552-.816 3.437-.423 1.238-.862 3.493-.245 4.526 1.232 2.083 8.875 1.769 9.229-.691.177-1.198.291-2.665.359-4.326v.017c.868-.04.925-.028 1.49.006.006.245.097 2.528.36 4.303.359 2.46 7.996 2.774 9.229.691.611-1.027.183-3.282-.245-4.526-.2-.582-.411-1.404-.588-2.249.959-.194 12.055-2.466 12.99-2.614q.018-.067.189-.126c5.086-1.758 10.856-9.543 8.19-16.821-1.523-4.166-4.354-6.141-5.941-8.921-3.282-5.759-.776-7.106-2.22-22.477-.628-6.695-2.386-14.583-3.1-18.664-1.415-8.105.417-8.054 5.194-9.384 6.164-1.718 8.265-.633 9.093-2.563.394-.907-1.074-1.546-.754-2.482.508-1.467 4.624-.246 4.926-1.77.388-1.957-2.026-2.574-2.506-3.304z" opacity=".6"/><path fill="url(#v)" d="M268.698 295.752c-1.918-.268-4.15-.565-6.718-.879-.571-.068-1.153-.142-1.758-.211-.736.154-3.761.645-5.965 3.339-.782.953-1.044 1.701-1.05 2.317 0 .411.109.765.268 1.073.725 1.41 4.253 1.273 6.29.731a72 72 0 0 1 4.31-.982c1.809-.359 3.812-.707 5.787-.982.063-.222.126-.445.206-.667.291-.851.61-2.215.81-3.419-.673-.103-1.409-.206-2.186-.32z"/><path fill="url(#w)" d="M307.701 298.309c-.463-.565-1.262-1.204-2.558-1.958-1.643-.953-3.11-1.375-2.91-1.666-.263.04-.525.085-.8.142-5.57 1.131-9.315 1.781-11.843 2.146.188.942.428 1.878.645 2.518q.112.325.2.65l.068.274c4.863.742 7.003 1.661 10.913 1.861 4.378.223 5.737-.217 6.478-1.53.4-.713.6-1.466-.193-2.437"/><path fill="url(#x)" d="M270.71 280.928c-1.866-7.083-7.608-12.602-14.834-14.2-.103.45-.234.884-.383 1.312 0 .018-.011.029-.017.046a11 11 0 0 1-.793 1.821c-1.598 2.899-3.413 4.926-4.213 9.834-1.769 10.805 9.989 14.863 9.864 14.898-.029.005-.069.017-.115.028.6.069 1.187.143 1.758.211 2.569.314 4.801.611 6.718.879a19.5 19.5 0 0 0 2.455-7.032 162 162 0 0 0-.44-7.797" opacity=".38"/><path fill="url(#y)" d="M278.538 273.741c-.382.457-.611 3.453-1.102 3.705-.393.199-.587-2.352-.993-4.652-.108-.622-.531-2.637-.639-3.236-.514-2.883-.52-2.654-.947-5.006-.086 1.878-.257 2.38-.6 5.257-.166 1.398-.405 3.076-.599 4.006-.172.811-.44-2.208-.599-3.002-.8-3.852-1.359-4.886-2.438-8.721-.61-2.169-2.523-4.172-2.711-5.554.873 5.919 2.135 15.714 2.814 24.395a161 161 0 0 1 .44 7.797c.062 2.283.045 4.321-.086 5.953-.034.405-.097.885-.183 1.399-.2 1.204-.519 2.568-.81 3.418q-.111.335-.206.668c-.445 1.644-.445 3.174-.04 3.859 1.233 2.083 8.876 1.769 9.23-.691.177-1.204.291-2.671.359-4.338.257-6.279-.182-15.502-.879-25.251z"/><path fill="url(#z)" d="M290.444 300.14a10 10 0 0 0-.2-.651c-.223-.645-.457-1.581-.645-2.517-.166-.828-.302-1.661-.354-2.295-.69-8.67 1.741-28.521 3.168-38.139-.188 1.387-2.101 3.385-2.711 5.554-1.079 3.835-1.638 4.869-2.437 8.721-.166.799-.429 3.819-.6 3.002-.199-.93-.434-2.608-.599-4.006-.343-2.883-.514-3.379-.599-5.257-.429 2.352-.429 2.129-.948 5.006-.108.593-.525 2.608-.639 3.236-.405 2.306-.599 4.851-.993 4.652-.497-.252-.719-3.248-1.102-3.705-.696 9.743-1.136 18.967-.879 25.246.069 1.666.183 3.139.36 4.343.359 2.46 7.996 2.774 9.229.691.382-.651.4-2.06.023-3.608-.023-.091-.04-.182-.068-.273z"/><path fill="url(#A)" d="M279.394 227.892s-8.088 5.976-5.908 19.937c1.747 11.181 3.174 13.767 4.275 20.862s2.278 15.285 2.278 15.285.993-7.923 2.329-15.468c.953-5.394 2.865-12.654 3.892-21.381 1.65-14.053-6.866-19.241-6.866-19.241z" opacity=".6"/><path fill="#ffc635" d="M271.471 196.534c4.641.622 7.94 7.785 13.1 9.926 4.121 1.706-2.689 8.995-10.914 7.419-11.078-2.111-13.202-9.76-10.496-13.258 1.45-1.878 4.418-4.612 8.31-4.087"/><path fill="#00073a" d="M271.329 197.691c-1.655-.543-2.808-.126-3.311.456-.616.714-.525 2.654 1.507 3.322 1.929.634 3.613-.605 3.688-1.593.051-.702-.429-1.712-1.89-2.185z"/><path fill="url(#B)" d="M290.216 193.325c1.992.559 2.671 2.243.873 5.919-1.41 2.888-2.665 2.756-4.537 2.203-.982-.291-2.158-1.793-1.09-3.996 1.455-3.008 2.671-4.708 4.754-4.121z"/><path fill="#fff" d="M287.42 198.92c.238-.498.059-1.079-.399-1.297-.458-.219-1.022.007-1.259.505-.238.498-.06 1.079.399 1.297.457.219 1.021-.007 1.259-.505"/><path fill="url(#C)" d="M273.706 186.462c2.626.611 2.334 2.905.536 6.307-1.124 2.129-2.345 2.077-4.212 1.524-.976-.285-2.272-1.353-.747-4.269 1.232-2.369 2.773-3.95 4.429-3.562z"/><path fill="#fff" d="M271.226 192.102c.245-.512.062-1.109-.407-1.333s-1.048.009-1.292.521c-.245.512-.063 1.109.407 1.333.469.224 1.048-.009 1.292-.521"/><path fill="url(#D)" d="M64.53 282.754s-7.175-.029-12.255-1.695c-16.7-5.468-25.793-15.896-31.45-28.128C18.816 248.593 18 241.213 18 241.213s1.216 1.13 2.871 2.426c1.313 1.028 2.266 1.364 2.266 1.364s-1.062-2.317-1.718-5.702c-2.329-11.98.405-20.633 5.6-29.589 7.174-12.368 14.194-17.374 17.693-27.254 1.25-3.539 1.598-6.387.72-9.093-1.05-3.242-7.358-5.679-7.358-5.679s9.173-2.985 20.223 2.814c6.353 3.333 11.974 7.643 15.296 12.506 8.26 12.089 9.316 19.823 7.015 34.36-2.18 13.762-10.987 25.32-14.27 31.187-.57 1.022-1.803 4.435-1.803 5.086v29.109z"/><path fill="url(#E)" d="M72.764 198.647c-1.53-5.588-2.472-7.151-5.64-12.003-2.134-3.276-4.2-4.669-4.2-4.669l1.466 4.412 1.056 4.173c.594.388-1.837-2.877-5.576-6.576-2.626-2.597-6.667-4.343-6.667-4.343s3.402 4.914 5.582 9.754 3.14 14.989 2.649 17.991c-.885 5.422 6.575 3.362 9.851 3.956s3.02-3.847 1.473-12.706z" opacity=".7"/><path fill="url(#F)" d="M64.53 269.133a56 56 0 0 1-4.71-2.648c-4.15-2.62-7.46-5.422-10.788-9.692-1.592-2.043-3.892-6.821-3.892-6.821s4.532 4.749 7.232 6.621c2.26 1.564 7.351 3.55 7.351 3.55s-3.967-3.127-5.673-4.857a41.15 41.15 0 0 1-9.093-14.03c-3.03-7.802-3.704-16.449-2.249-25.102.56-3.316 2.592-9.897 2.592-9.897s-6.193 5.901-8.493 11.615c-2.986 7.426-2.603 16.261-2.603 16.261s-1.77-2.899-2.574-4.555c-.742-1.523-1.507-4.954-1.507-4.954s-1.119 4.378-1.176 9.389c-.103 9.076 1.187 16.153 5.582 23.973 3.619 6.427 12.688 13.499 22.848 17.882 2.186.942 4.646 1.541 7.14 1.953v-8.682z"/></g><defs><linearGradient id="c" x1="179.636" x2="245.728" y1="306.077" y2="-116.478" gradientUnits="userSpaceOnUse"><stop stop-color="#fff4ee"/><stop offset=".211" stop-color="#fdedef"/><stop offset=".516" stop-color="#f9daf3"/><stop offset=".877" stop-color="#f1bafa"/><stop offset="1" stop-color="#eeaefc"/></linearGradient><linearGradient id="e" x1="-88.67" x2="-96.247" y1="395.412" y2="137.89" gradientUnits="userSpaceOnUse"><stop stop-color="#fff4ee"/><stop offset=".218" stop-color="#fdebf0"/><stop offset=".57" stop-color="#f7d4f4"/><stop offset="1" stop-color="#eeaefc"/></linearGradient><linearGradient id="i" x1="104.75" x2="96.905" y1="174.451" y2="524.165" gradientUnits="userSpaceOnUse"><stop stop-color="#7338e2"/><stop offset="1" stop-color="#f6cdf6"/></linearGradient><linearGradient id="j" x1="99.155" x2="112.268" y1="169.681" y2="196.913" gradientUnits="userSpaceOnUse"><stop stop-color="#7338e2"/><stop offset="1" stop-color="#fcf5f0"/></linearGradient><linearGradient id="k" x1="104.75" x2="96.905" y1="212.016" y2="561.73" gradientUnits="userSpaceOnUse"><stop stop-color="#7338e2"/><stop offset="1" stop-color="#f6cdf6"/></linearGradient><linearGradient id="l" x1="99.155" x2="112.268" y1="207.365" y2="234.597" gradientUnits="userSpaceOnUse"><stop stop-color="#7338e2"/><stop offset="1" stop-color="#fcf5f0"/></linearGradient><linearGradient id="m" x1="104.75" x2="96.905" y1="249.579" y2="599.293" gradientUnits="userSpaceOnUse"><stop stop-color="#7338e2"/><stop offset="1" stop-color="#f6cdf6"/></linearGradient><linearGradient id="n" x1="99.155" x2="112.268" y1="245.058" y2="272.29" gradientUnits="userSpaceOnUse"><stop stop-color="#7338e2"/><stop offset="1" stop-color="#fcf5f0"/></linearGradient><linearGradient id="o" x1="104.75" x2="96.905" y1="287.143" y2="636.857" gradientUnits="userSpaceOnUse"><stop stop-color="#7338e2"/><stop offset="1" stop-color="#f6cdf6"/></linearGradient><linearGradient id="p" x1="99.155" x2="112.268" y1="282.741" y2="309.973" gradientUnits="userSpaceOnUse"><stop stop-color="#7338e2"/><stop offset="1" stop-color="#fcf5f0"/></linearGradient><linearGradient id="q" x1="295.7" x2="272.898" y1="160.161" y2="230.189" gradientUnits="userSpaceOnUse"><stop offset=".17" stop-color="#f60"/><stop offset=".54" stop-color="#ff9c00"/><stop offset=".9" stop-color="#ff6700"/><stop offset=".91" stop-color="#f60"/></linearGradient><linearGradient id="r" x1="301.867" x2="314.055" y1="185.719" y2="166.417" gradientUnits="userSpaceOnUse"><stop stop-color="#f60" stop-opacity="0"/><stop offset=".11" stop-color="#f60" stop-opacity=".3"/><stop offset=".23" stop-color="#f60" stop-opacity=".6"/><stop offset=".32" stop-color="#f60" stop-opacity=".82"/><stop offset=".4" stop-color="#f60" stop-opacity=".95"/><stop offset=".43" stop-color="#f60"/><stop offset=".72" stop-color="#fd4737"/><stop offset="1" stop-color="#fb2872"/></linearGradient><linearGradient id="s" x1="275.28" x2="277.989" y1="177.421" y2="154.707" gradientUnits="userSpaceOnUse"><stop stop-color="#f60" stop-opacity="0"/><stop offset=".03" stop-color="#f60" stop-opacity=".17"/><stop offset=".07" stop-color="#f60" stop-opacity=".36"/><stop offset=".11" stop-color="#f60" stop-opacity=".53"/><stop offset=".15" stop-color="#f60" stop-opacity=".68"/><stop offset=".2" stop-color="#f60" stop-opacity=".8"/><stop offset=".24" stop-color="#f60" stop-opacity=".89"/><stop offset=".29" stop-color="#f60" stop-opacity=".95"/><stop offset=".35" stop-color="#f60" stop-opacity=".99"/><stop offset=".42" stop-color="#f60"/><stop offset=".7" stop-color="#fd4737"/><stop offset=".97" stop-color="#fb2872"/></linearGradient><linearGradient id="t" x1="282.069" x2="282.069" y1="186.666" y2="312.55" gradientUnits="userSpaceOnUse"><stop stop-color="#f60"/><stop offset=".01" stop-color="#ff7408"/><stop offset=".04" stop-color="#ff8a14"/><stop offset=".07" stop-color="#ff9b1d"/><stop offset=".11" stop-color="#ffa724"/><stop offset=".17" stop-color="#ffae27"/><stop offset=".33" stop-color="#ffb029"/><stop offset=".46" stop-color="#ff9218"/><stop offset=".63" stop-color="#f60"/><stop offset=".64" stop-color="#fe5d0f"/><stop offset=".69" stop-color="#fd4a32"/><stop offset=".74" stop-color="#fc3b4e"/><stop offset=".79" stop-color="#fb3062"/><stop offset=".84" stop-color="#fb2a6e"/><stop offset=".89" stop-color="#fb2872"/></linearGradient><linearGradient id="u" x1="282.069" x2="282.069" y1="186.666" y2="312.55" gradientUnits="userSpaceOnUse"><stop stop-color="#ffeb49" stop-opacity=".8"/><stop offset=".22" stop-color="#ffd13a" stop-opacity=".64"/><stop offset=".7" stop-color="#ff8f17" stop-opacity=".25"/><stop offset="1" stop-color="#f60" stop-opacity="0"/></linearGradient><linearGradient id="v" x1="310.792" x2="234.035" y1="279.052" y2="309.639" gradientUnits="userSpaceOnUse"><stop offset=".02" stop-color="#be0449" stop-opacity="0"/><stop offset=".51" stop-color="#fb2872"/><stop offset=".67" stop-color="#a31c5e"/><stop offset=".83" stop-color="#4c104a"/><stop offset=".94" stop-color="#15093e"/><stop offset="1" stop-color="#00073a"/></linearGradient><linearGradient id="w" x1="267.786" x2="320.166" y1="286.374" y2="306.853" gradientUnits="userSpaceOnUse"><stop stop-color="#be0449" stop-opacity="0"/><stop offset=".41" stop-color="#fb2872"/><stop offset="1" stop-color="#00073a"/></linearGradient><linearGradient id="y" x1="273.007" x2="275.239" y1="257.309" y2="316.641" gradientUnits="userSpaceOnUse"><stop offset=".01" stop-color="#be0449" stop-opacity="0"/><stop offset=".06" stop-color="#bf054a" stop-opacity=".04"/><stop offset=".14" stop-color="#c2084c" stop-opacity=".16"/><stop offset=".23" stop-color="#c70d51" stop-opacity=".36"/><stop offset=".35" stop-color="#ce1457" stop-opacity=".63"/><stop offset=".48" stop-color="#d71e5f" stop-opacity=".97"/><stop offset=".49" stop-color="#d81f60"/><stop offset=".56" stop-color="#d31e5f"/><stop offset=".63" stop-color="#c71d5d"/><stop offset=".7" stop-color="#b31a59"/><stop offset=".77" stop-color="#971754"/><stop offset=".84" stop-color="#73134e"/><stop offset=".91" stop-color="#460e46"/><stop offset=".98" stop-color="#13093d"/><stop offset="1" stop-color="#00073a"/></linearGradient><linearGradient id="z" x1="287.59" x2="285.124" y1="246.43" y2="317.08" gradientUnits="userSpaceOnUse"><stop stop-color="#d81f60" stop-opacity="0"/><stop offset=".11" stop-color="#d81f60" stop-opacity=".01"/><stop offset=".19" stop-color="#d81f60" stop-opacity=".06"/><stop offset=".27" stop-color="#d81f60" stop-opacity=".14"/><stop offset=".35" stop-color="#d81f60" stop-opacity=".25"/><stop offset=".42" stop-color="#d81f60" stop-opacity=".39"/><stop offset=".49" stop-color="#d81f60" stop-opacity=".57"/><stop offset=".55" stop-color="#d81f60" stop-opacity=".77"/><stop offset=".62" stop-color="#d81f60"/><stop offset=".66" stop-color="#d21e5f"/><stop offset=".71" stop-color="#c21c5c"/><stop offset=".77" stop-color="#a81957"/><stop offset=".83" stop-color="#841551"/><stop offset=".9" stop-color="#551049"/><stop offset=".97" stop-color="#1d0a3f"/><stop offset="1" stop-color="#00073a"/></linearGradient><linearGradient id="A" x1="279.628" x2="282.036" y1="239.815" y2="292.806" gradientUnits="userSpaceOnUse"><stop stop-color="#ffeb49"/><stop offset=".09" stop-color="#ffe745" stop-opacity=".96"/><stop offset=".24" stop-color="#ffde3d" stop-opacity=".84"/><stop offset=".44" stop-color="#ffcf2f" stop-opacity=".66"/><stop offset=".67" stop-color="#ffbb1c" stop-opacity=".4"/><stop offset=".94" stop-color="#ffa105" stop-opacity=".07"/><stop offset="1" stop-color="#ff9c00" stop-opacity="0"/></linearGradient><linearGradient id="B" x1="290.399" x2="287.528" y1="190.471" y2="201.607" gradientUnits="userSpaceOnUse"><stop offset=".16" stop-color="#a030b9"/><stop offset=".88" stop-color="#00073a"/></linearGradient><linearGradient id="C" x1="273.997" x2="271.218" y1="184.253" y2="193.557" gradientUnits="userSpaceOnUse"><stop offset=".16" stop-color="#a030b9"/><stop offset=".88" stop-color="#00073a"/></linearGradient><linearGradient id="D" x1="49.832" x2="49.832" y1="166.927" y2="282.754" gradientUnits="userSpaceOnUse"><stop stop-color="#ffeb49"/><stop offset=".32" stop-color="#ff9b1d"/><stop offset=".56" stop-color="#f60"/><stop offset=".74" stop-color="#fd4835"/><stop offset=".91" stop-color="#fb3161"/><stop offset="1" stop-color="#fb2872"/></linearGradient><linearGradient id="E" x1="53.564" x2="68.21" y1="178.948" y2="204.622" gradientUnits="userSpaceOnUse"><stop offset=".03" stop-color="#ffeb49"/><stop offset=".12" stop-color="#ffeb49" stop-opacity=".96"/><stop offset=".26" stop-color="#ffeb49" stop-opacity=".84"/><stop offset=".46" stop-color="#ffeb49" stop-opacity=".66"/><stop offset=".69" stop-color="#ffeb49" stop-opacity=".4"/><stop offset=".95" stop-color="#ffeb49" stop-opacity=".07"/><stop offset="1" stop-color="#ffeb49" stop-opacity="0"/></linearGradient><clipPath id="a"><path fill="#fff" d="M0-372.805h362v776H0z"/></clipPath><clipPath id="g"><path fill="#fff" d="M63.688 108.562c0-6.496 5.265-11.761 11.76-11.761H280.09c6.496 0 11.761 5.265 11.761 11.761v178.767c0 6.496-5.265 11.761-11.761 11.761H75.449c-6.496 0-11.761-5.265-11.761-11.761z"/></clipPath><clipPath id="h"><path fill="#fff" d="M-181.281-44.353h872.574v517.995h-872.574z"/></clipPath><radialGradient id="x" cx="0" cy="0" r="1" gradientTransform="translate(251.686 288.6)scale(32.5113)" gradientUnits="userSpaceOnUse"><stop stop-color="#ffeb49"/><stop offset=".05" stop-color="#ffe546" stop-opacity=".96"/><stop offset=".14" stop-color="#ffd73e" stop-opacity=".85"/><stop offset=".25" stop-color="#ffc031" stop-opacity=".68"/><stop offset=".38" stop-color="#ffa01f" stop-opacity=".44"/><stop offset=".53" stop-color="#ff7709" stop-opacity=".13"/><stop offset=".59" stop-color="#f60" stop-opacity="0"/></radialGradient><radialGradient id="F" cx="0" cy="0" r="1" gradientTransform="translate(-52.428 225.532)scale(108.967)" gradientUnits="userSpaceOnUse"><stop stop-color="#be0449"/><stop offset="1" stop-color="#fb2872" stop-opacity=".07"/></radialGradient><filter id="f" width="260.164" height="234.289" x="47.688" y="84.801" color-interpolation-filters="sRGB" filterUnits="userSpaceOnUse"><feFlood flood-opacity="0" result="BackgroundImageFix"/><feColorMatrix in="SourceAlpha" result="hardAlpha" values="0 0 0 0 0 0 0 0 0 0 0 0 0 0 0 0 0 0 127 0"/><feOffset dy="4"/><feGaussianBlur stdDeviation="8"/><feComposite in2="hardAlpha" operator="out"/><feColorMatrix values="0 0 0 0 0 0 0 0 0 0 0 0 0 0 0 0 0 0 0.05 0"/><feBlend in2="BackgroundImageFix" result="effect1_dropShadow_4386_29290"/><feColorMatrix in="SourceAlpha" result="hardAlpha" values="0 0 0 0 0 0 0 0 0 0 0 0 0 0 0 0 0 0 127 0"/><feOffset dy=".5"/><feGaussianBlur stdDeviation="1"/><feComposite in2="hardAlpha" operator="out"/><feColorMatrix values="0 0 0 0 0 0 0 0 0 0 0 0 0 0 0 0 0 0 0.02 0"/><feBlend in2="effect1_dropShadow_4386_29290" result="effect2_dropShadow_4386_29290"/><feBlend in="SourceGraphic" in2="effect2_dropShadow_4386_29290" result="shape"/></filter></defs></svg>