<svg width="342" height="402" viewBox="0 0 342 402" fill="none" xmlns="http://www.w3.org/2000/svg">
<g clip-path="url(#clip0_4386_29290)">
<rect y="-0.199219" width="342" height="402" fill="#D9D9D9"/>
<mask id="mask0_4386_29290" style="mask-type:luminance" maskUnits="userSpaceOnUse" x="0" y="-373" width="362" height="777">
<path d="M362 -372.805H0V403.195H362V-372.805Z" fill="white"/>
</mask>
<g mask="url(#mask0_4386_29290)">
<path d="M391.169 44.7238C405.534 44.7974 418.703 45.5067 430.998 46.7217V-607.805H-68.1914V128.576C-10.9196 127.099 61.3612 122.087 127.984 108.286C218.228 89.5901 276.887 44.1368 391.169 44.7238ZM-26.3383 -479.427C-33.2701 -484.142 -28.4934 -500.599 -11.4433 -500.599C-1.9502 -500.599 3.45068 -509.695 18.8885 -521.597C34.571 -533.688 55.2854 -538.211 74.5223 -524.918C101.579 -506.223 108.428 -511.708 125.478 -508.896C142.527 -506.084 148.419 -482.469 131.254 -478.829C117.993 -476.017 105.415 -475.271 56.1595 -475.271C11.9562 -475.271 -13.746 -470.862 -26.3383 -479.427ZM84.7473 -443.554C101.994 -443.554 130.637 -441.794 162.759 -455.885C194.882 -469.977 208.649 -485.831 259.127 -489.354C309.605 -492.877 329.109 -459.408 360.083 -454.124C391.059 -448.839 397.005 -420.449 365.819 -413.608C341.728 -408.324 306.163 -408.447 216.679 -408.447C136.373 -408.447 65.2447 -406.562 53.7717 -417.131C42.2992 -427.701 53.772 -443.554 84.7473 -443.554Z" fill="#FCF5F0"/>
<path d="M430.998 460.96H-68.1914V128.575C-10.9196 127.097 61.3612 122.086 127.984 108.284C218.227 89.5888 276.887 44.1355 391.169 44.7224C405.534 44.7961 418.703 45.5054 430.998 46.7205V460.96Z" fill="url(#paint0_linear_4386_29290)"/>
<mask id="mask1_4386_29290" style="mask-type:luminance" maskUnits="userSpaceOnUse" x="-69" y="44" width="500" height="417">
<path d="M430.998 460.96H-68.1914V128.575C-10.9196 127.097 61.3612 122.086 127.984 108.284C218.227 89.5888 276.887 44.1355 391.169 44.7224C405.534 44.7961 418.703 45.5054 430.998 46.7205V460.96Z" fill="white"/>
</mask>
<g mask="url(#mask1_4386_29290)">
<path d="M341.974 347.541C164.905 336.133 113.912 269.076 -19.8694 263.201C-127.921 258.454 -184.436 304.118 -289.334 328.432C-672.731 417.295 -720.142 396.194 -720.142 396.194C-720.142 396.194 -860.016 555.75 -636.147 599.48C-349.753 655.428 322.673 598.871 401.583 602.326C700.542 615.416 622.361 345.22 341.974 347.541Z" fill="url(#paint1_linear_4386_29290)"/>
</g>
</g>
<g filter="url(#filter0_dd_4386_29290)">
<g clip-path="url(#clip1_4386_29290)">
<path d="M63.6875 108.562C63.6875 102.066 68.9531 96.8008 75.4485 96.8008H280.09C286.586 96.8008 291.851 102.066 291.851 108.562V287.329C291.851 293.825 286.586 299.09 280.09 299.09H75.4485C68.9531 299.09 63.6875 293.825 63.6875 287.329V108.562Z" fill="#FCF5F0"/>
<g clip-path="url(#clip2_4386_29290)">
</g>
<path d="M63.6875 274.979H64.8636V305.557H63.6875V274.979Z" stroke="#FCF5F0" stroke-width="1.1761"/>
<rect x="88.9375" y="174.451" width="31.6249" height="170.144" rx="9.44812" transform="rotate(-90 88.9375 174.451)" fill="url(#paint2_linear_4386_29290)" fill-opacity="0.16"/>
<rect x="92.6289" y="170.781" width="24.9165" height="24.2046" rx="7.11899" transform="rotate(-90 92.6289 170.781)" fill="url(#paint3_linear_4386_29290)" fill-opacity="0.6"/>
<rect x="88.9375" y="212.016" width="31.6249" height="170.144" rx="9.44812" transform="rotate(-90 88.9375 212.016)" fill="url(#paint4_linear_4386_29290)" fill-opacity="0.16"/>
<rect x="92.6289" y="208.465" width="24.9165" height="24.2046" rx="7.11899" transform="rotate(-90 92.6289 208.465)" fill="url(#paint5_linear_4386_29290)" fill-opacity="0.6"/>
<rect x="88.9375" y="249.579" width="31.6249" height="170.144" rx="9.44812" transform="rotate(-90 88.9375 249.579)" fill="url(#paint6_linear_4386_29290)" fill-opacity="0.16"/>
<rect x="92.6289" y="246.158" width="24.9165" height="24.2046" rx="7.11899" transform="rotate(-90 92.6289 246.158)" fill="url(#paint7_linear_4386_29290)" fill-opacity="0.6"/>
<rect x="88.9375" y="287.143" width="31.6249" height="170.144" rx="9.44812" transform="rotate(-90 88.9375 287.143)" fill="url(#paint8_linear_4386_29290)" fill-opacity="0.16"/>
<rect x="92.6289" y="283.841" width="24.9165" height="24.2046" rx="7.11899" transform="rotate(-90 92.6289 283.841)" fill="url(#paint9_linear_4386_29290)" fill-opacity="0.6"/>
<path d="M113.39 131.504H94.4597C92.7197 131.504 91.3047 130.089 91.3047 128.349V112.574C91.3047 110.834 92.7197 109.419 94.4597 109.419H100.207C101.098 109.419 101.953 109.799 102.551 110.463C103.761 111.807 105.484 112.574 107.292 112.574H113.39C115.13 112.574 116.545 113.989 116.545 115.729V128.349C116.545 130.089 115.13 131.504 113.39 131.504Z" fill="#7338E2" fill-opacity="0.6"/>
<rect x="122.484" y="127.514" width="14.105" height="136.596" rx="7.05249" transform="rotate(-90 122.484 127.514)" fill="#7338E2" fill-opacity="0.24"/>
</g>
<path d="M75.4482 97.1719H280.09C286.38 97.1719 291.479 102.271 291.479 108.562V287.329C291.479 293.62 286.38 298.719 280.09 298.719H75.4482C69.1579 298.719 64.0586 293.619 64.0586 287.329V108.562C64.0587 102.271 69.158 97.172 75.4482 97.1719Z" stroke="#7529E8" stroke-opacity="0.1" stroke-width="0.742367"/>
</g>
<path d="M317.253 206.245C317.081 204.082 312.27 203.545 310.186 200.36C309.53 199.362 309.359 197.723 309.359 195.931C309.359 194.367 309.484 192.695 309.541 191.228C309.679 187.792 309.536 185.903 309.57 180.092C309.599 175.481 309.028 170.366 306.904 169.168C304.935 168.049 301.756 170.224 297.241 174.373C294.724 176.691 293.069 178.688 291.345 180.115C291.242 180.201 291.14 180.292 291.031 180.378C290.929 180.457 288.343 179.79 286.83 179.487C286.505 179.425 286.305 179.042 286.14 178.368C285.775 176.856 285.58 173.842 284.525 169.436C283.212 163.951 281.431 161.268 278.857 161.045C276.688 160.863 272.926 166.325 270.027 170.897C267.624 174.681 267.447 175.069 266.511 176.434C265.826 177.427 265.044 178.603 264.194 179.784C262.441 182.215 260.421 184.641 258.486 185.412C254.833 186.862 252.013 184.909 250.655 186.593C249.354 188.208 250.769 188.511 251.06 188.791C258.885 190.766 260.757 201.188 264.376 200.286C267.458 199.516 269.49 202.792 275.843 203.585C282.161 204.373 282.886 207.781 287.624 206.896C297.595 205.041 305.934 204.59 315.615 208.112C315.118 207.352 317.361 207.638 317.253 206.245Z" fill="url(#paint10_linear_4386_29290)"/>
<path d="M301.258 186.723C304.534 190.519 307.913 194.366 309.357 195.935C309.357 194.371 309.483 192.699 309.54 191.232C309.677 187.796 309.534 185.907 309.568 180.096C309.597 175.485 309.026 170.37 306.903 169.172C304.934 168.053 301.754 170.228 297.24 174.377C294.722 176.695 293.067 178.692 291.344 180.119C293.398 180.855 297.873 182.802 301.258 186.723Z" fill="url(#paint11_linear_4386_29290)"/>
<path d="M286.146 178.368C285.78 176.856 285.586 173.842 284.53 169.436C283.217 163.951 281.437 161.268 278.862 161.045C276.693 160.863 272.932 166.325 270.033 170.897C267.63 174.681 267.453 175.069 266.517 176.434C265.832 177.427 265.05 178.603 264.199 179.784C266.682 179.373 271.117 178.58 275.461 177.775C279.742 176.976 283.725 177.701 286.14 178.368H286.146Z" fill="url(#paint12_linear_4386_29290)"/>
<path d="M315.614 208.116C306.196 204.691 297.959 205.028 288.216 206.797C287.235 206.974 286.436 207.134 285.363 206.997C287.543 209.32 281.196 215.325 273.65 213.886C271.076 213.396 268.993 212.602 267.332 211.637C261.761 208.39 261.127 203.247 263.154 200.627C263.245 200.513 263.336 200.393 263.439 200.273C260.374 199.389 258.182 190.605 251.059 188.807C251.122 188.864 251.133 188.921 251.059 188.989C250.357 189.651 247.389 188.367 246.653 190.29C246.053 191.866 249.238 192.151 249.004 192.882C248.679 193.881 246.396 193.629 246.093 194.634C245.585 196.312 246.675 196.209 249.455 198.726C250.859 199.994 252.686 201.929 254.963 205.091C258.582 210.125 258.827 221.666 258.382 229.594C258.16 233.561 256.139 242.379 255.911 247.037C255.671 251.826 256.173 256.135 256.293 259.931C256.322 261.791 256.293 264.388 255.859 266.226C254.775 271.689 251.55 272.562 250.374 279.742C248.605 290.547 260.363 294.605 260.237 294.639C260.209 294.645 260.169 294.656 260.123 294.668C260.722 294.736 261.31 294.811 261.881 294.879C264.45 295.193 266.681 295.49 268.599 295.758C269.341 295.861 270.128 295.964 270.785 296.06C270.585 297.242 270.271 298.612 269.969 299.497C269.546 300.735 269.107 302.99 269.724 304.023C270.956 306.106 278.599 305.792 278.953 303.332C279.13 302.134 279.244 300.667 279.312 299.006C279.312 299.012 279.312 299.017 279.312 299.023C280.18 298.983 280.237 298.995 280.802 299.029C280.808 299.274 280.899 301.557 281.162 303.332C281.521 305.792 289.158 306.106 290.391 304.023C291.002 302.996 290.574 300.741 290.146 299.497C289.946 298.915 289.735 298.093 289.558 297.248C290.517 297.054 301.613 294.782 302.548 294.634C302.56 294.588 302.623 294.548 302.737 294.508C307.823 292.75 313.593 284.965 310.927 277.687C309.404 273.521 306.573 271.546 304.986 268.766C301.704 263.007 304.21 261.66 302.766 246.289C302.138 239.594 300.38 231.706 299.666 227.625C298.251 219.52 300.083 219.571 304.86 218.241C311.024 216.523 313.125 217.608 313.953 215.678C314.347 214.771 312.879 214.132 313.199 213.196C313.707 211.729 317.823 212.95 318.125 211.426C318.513 209.469 316.099 208.852 315.619 208.122L315.614 208.116Z" fill="url(#paint13_linear_4386_29290)"/>
<path opacity="0.6" d="M315.614 208.116C306.196 204.691 297.959 205.028 288.216 206.797C287.235 206.974 286.436 207.134 285.363 206.997C287.543 209.32 281.196 215.325 273.65 213.886C271.076 213.396 268.993 212.602 267.332 211.637C261.761 208.39 261.127 203.247 263.154 200.627C263.245 200.513 263.336 200.393 263.439 200.273C260.374 199.389 258.182 190.605 251.059 188.807C251.122 188.864 251.133 188.921 251.059 188.989C250.357 189.651 247.389 188.367 246.653 190.29C246.053 191.866 249.238 192.151 249.004 192.882C248.679 193.881 246.396 193.629 246.093 194.634C245.585 196.312 246.675 196.209 249.455 198.726C250.859 199.994 252.686 201.929 254.963 205.091C258.582 210.125 258.827 221.666 258.382 229.594C258.16 233.561 256.139 242.379 255.911 247.037C255.671 251.826 256.173 256.135 256.293 259.931C256.322 261.791 256.293 264.388 255.859 266.226C254.775 271.689 251.55 272.562 250.374 279.742C248.605 290.547 260.363 294.605 260.237 294.639C260.209 294.645 260.169 294.656 260.123 294.668C260.722 294.736 261.31 294.811 261.881 294.879C264.45 295.193 266.681 295.49 268.599 295.758C269.341 295.861 270.128 295.964 270.785 296.06C270.585 297.242 270.271 298.612 269.969 299.497C269.546 300.735 269.107 302.99 269.724 304.023C270.956 306.106 278.599 305.792 278.953 303.332C279.13 302.134 279.244 300.667 279.312 299.006C279.312 299.012 279.312 299.017 279.312 299.023C280.18 298.983 280.237 298.995 280.802 299.029C280.808 299.274 280.899 301.557 281.162 303.332C281.521 305.792 289.158 306.106 290.391 304.023C291.002 302.996 290.574 300.741 290.146 299.497C289.946 298.915 289.735 298.093 289.558 297.248C290.517 297.054 301.613 294.782 302.548 294.634C302.56 294.588 302.623 294.548 302.737 294.508C307.823 292.75 313.593 284.965 310.927 277.687C309.404 273.521 306.573 271.546 304.986 268.766C301.704 263.007 304.21 261.66 302.766 246.289C302.138 239.594 300.38 231.706 299.666 227.625C298.251 219.52 300.083 219.571 304.86 218.241C311.024 216.523 313.125 217.608 313.953 215.678C314.347 214.771 312.879 214.132 313.199 213.196C313.707 211.729 317.823 212.95 318.125 211.426C318.513 209.469 316.099 208.852 315.619 208.122L315.614 208.116Z" fill="url(#paint14_linear_4386_29290)"/>
<path d="M268.698 295.752C266.78 295.484 264.548 295.187 261.98 294.873C261.409 294.805 260.827 294.731 260.222 294.662C259.486 294.816 256.461 295.307 254.257 298.001C253.475 298.954 253.213 299.702 253.207 300.318C253.207 300.729 253.316 301.083 253.475 301.391C254.2 302.801 257.728 302.664 259.765 302.122C260.918 301.814 262.414 301.471 264.075 301.14C265.884 300.781 267.887 300.433 269.862 300.158C269.925 299.936 269.988 299.713 270.068 299.491C270.359 298.64 270.678 297.276 270.878 296.072C270.205 295.969 269.469 295.866 268.692 295.752H268.698Z" fill="url(#paint15_linear_4386_29290)"/>
<path d="M307.701 298.309C307.238 297.744 306.439 297.105 305.143 296.351C303.5 295.398 302.033 294.976 302.233 294.685C301.97 294.725 301.708 294.77 301.433 294.827C295.863 295.958 292.118 296.608 289.59 296.973C289.778 297.915 290.018 298.851 290.235 299.491C290.309 299.707 290.377 299.925 290.435 300.141C290.457 300.233 290.48 300.324 290.503 300.415C295.366 301.157 297.506 302.076 301.416 302.276C305.794 302.499 307.153 302.059 307.894 300.746C308.294 300.033 308.494 299.28 307.701 298.309Z" fill="url(#paint16_linear_4386_29290)"/>
<path opacity="0.38" d="M270.71 280.928C268.844 273.845 263.102 268.326 255.876 266.728C255.773 267.178 255.642 267.612 255.493 268.04C255.493 268.058 255.482 268.069 255.476 268.086C255.259 268.714 255.008 269.325 254.683 269.907C253.085 272.806 251.27 274.833 250.47 279.741C248.701 290.546 260.459 294.604 260.334 294.639C260.305 294.644 260.265 294.656 260.219 294.667C260.819 294.736 261.406 294.81 261.977 294.878C264.546 295.192 266.778 295.489 268.695 295.757C269.934 293.634 270.784 291.259 271.15 288.725C271.081 286.351 270.927 283.697 270.71 280.928Z" fill="url(#paint17_radial_4386_29290)"/>
<path d="M278.538 273.741C278.156 274.198 277.927 277.194 277.436 277.446C277.043 277.645 276.849 275.094 276.443 272.794C276.335 272.172 275.912 270.157 275.804 269.558C275.29 266.675 275.284 266.904 274.857 264.552C274.771 266.43 274.6 266.932 274.257 269.809C274.091 271.207 273.852 272.885 273.658 273.815C273.486 274.626 273.218 271.607 273.059 270.813C272.259 266.961 271.7 265.927 270.621 262.092C270.011 259.923 268.098 257.92 267.91 256.538C268.783 262.457 270.045 272.252 270.724 280.933C270.941 283.696 271.095 286.35 271.164 288.73C271.226 291.013 271.209 293.051 271.078 294.683C271.044 295.088 270.981 295.568 270.895 296.082C270.695 297.286 270.376 298.65 270.085 299.5C270.011 299.723 269.942 299.946 269.879 300.168C269.434 301.812 269.434 303.342 269.839 304.027C271.072 306.11 278.715 305.796 279.069 303.336C279.246 302.132 279.36 300.665 279.428 298.998C279.685 292.719 279.246 283.496 278.549 273.747L278.538 273.741Z" fill="url(#paint18_linear_4386_29290)"/>
<path d="M290.444 300.14C290.387 299.923 290.318 299.706 290.244 299.489C290.021 298.844 289.787 297.908 289.599 296.972C289.433 296.144 289.297 295.311 289.245 294.677C288.555 286.007 290.986 266.156 292.413 256.538C292.225 257.925 290.312 259.923 289.702 262.092C288.623 265.927 288.064 266.961 287.265 270.813C287.099 271.612 286.836 274.632 286.665 273.815C286.466 272.885 286.231 271.207 286.066 269.809C285.723 266.926 285.552 266.43 285.467 264.552C285.038 266.904 285.038 266.681 284.519 269.558C284.411 270.151 283.994 272.166 283.88 272.794C283.475 275.1 283.281 277.645 282.887 277.446C282.39 277.194 282.168 274.198 281.785 273.741C281.089 283.484 280.649 292.708 280.906 298.987C280.975 300.653 281.089 302.126 281.266 303.33C281.625 305.79 289.262 306.104 290.495 304.021C290.877 303.37 290.895 301.961 290.518 300.413C290.495 300.322 290.478 300.231 290.45 300.14H290.444Z" fill="url(#paint19_linear_4386_29290)"/>
<path opacity="0.6" d="M279.394 227.892C279.394 227.892 271.306 233.868 273.486 247.829C275.233 259.01 276.66 261.596 277.761 268.691C278.863 275.785 280.039 283.976 280.039 283.976C280.039 283.976 281.032 276.053 282.368 268.508C283.321 263.114 285.233 255.854 286.26 247.127C287.91 233.074 279.394 227.886 279.394 227.886V227.892Z" fill="url(#paint20_linear_4386_29290)"/>
<path d="M271.471 196.534C276.112 197.156 279.411 204.319 284.571 206.46C288.692 208.166 281.882 215.455 273.657 213.879C262.579 211.768 260.455 204.119 263.161 200.621C264.611 198.743 267.579 196.009 271.471 196.534Z" fill="#FFC635"/>
<path d="M271.329 197.691C269.674 197.148 268.521 197.565 268.018 198.147C267.402 198.861 267.493 200.801 269.525 201.469C271.454 202.103 273.138 200.864 273.213 199.876C273.264 199.174 272.784 198.164 271.323 197.691H271.329Z" fill="#00073A"/>
<path d="M290.216 193.325C292.208 193.884 292.887 195.568 291.089 199.244C289.679 202.132 288.424 202 286.552 201.447C285.57 201.156 284.394 199.654 285.462 197.451C286.917 194.443 288.133 192.743 290.216 193.33V193.325Z" fill="url(#paint21_linear_4386_29290)"/>
<path d="M287.42 198.92C287.658 198.422 287.479 197.841 287.021 197.623C286.563 197.404 285.999 197.63 285.762 198.128C285.524 198.626 285.702 199.207 286.161 199.425C286.618 199.644 287.182 199.418 287.42 198.92Z" fill="white"/>
<path d="M273.706 186.462C276.332 187.073 276.04 189.367 274.242 192.769C273.118 194.898 271.897 194.846 270.03 194.293C269.054 194.008 267.758 192.94 269.283 190.024C270.515 187.655 272.056 186.074 273.712 186.462H273.706Z" fill="url(#paint22_linear_4386_29290)"/>
<path d="M271.226 192.102C271.471 191.59 271.288 190.993 270.819 190.769C270.35 190.545 269.771 190.778 269.527 191.29C269.282 191.802 269.464 192.399 269.934 192.623C270.403 192.847 270.982 192.614 271.226 192.102Z" fill="white"/>
<path d="M64.5294 282.754C64.5294 282.754 57.3549 282.725 52.275 281.059C35.5741 275.591 26.4817 265.163 20.8253 252.931C18.8162 248.593 18 241.213 18 241.213C18 241.213 19.2157 242.343 20.871 243.639C22.1838 244.667 23.137 245.003 23.137 245.003C23.137 245.003 22.0753 242.686 21.4189 239.301C19.0902 227.321 21.8242 218.668 27.0182 209.712C34.1928 197.344 41.2134 192.338 44.7122 182.458C45.9622 178.919 46.3104 176.071 45.4314 173.365C44.3812 170.123 38.0741 167.686 38.0741 167.686C38.0741 167.686 47.2465 164.701 58.2966 170.5C64.6495 173.833 70.2714 178.143 73.5934 183.006C81.8523 195.095 82.9085 202.829 80.6083 217.366C78.428 231.128 69.6208 242.686 66.3388 248.553C65.7679 249.575 64.5353 252.988 64.5353 253.639V282.748L64.5294 282.754Z" fill="url(#paint23_linear_4386_29290)"/>
<path opacity="0.7" d="M72.7636 198.647C71.2339 193.059 70.2921 191.496 67.1242 186.644C64.9896 183.368 62.9235 181.975 62.9235 181.975L64.3902 186.387L65.4464 190.56C66.0399 190.948 63.6085 187.683 59.8697 183.984C57.2441 181.387 53.2031 179.641 53.2031 179.641C53.2031 179.641 56.6051 184.555 58.7853 189.395C60.9655 194.235 61.9247 204.384 61.4338 207.386C60.5491 212.808 68.0089 210.748 71.2854 211.342C74.5615 211.935 74.3047 207.495 72.758 198.636L72.7636 198.647Z" fill="url(#paint24_linear_4386_29290)"/>
<path d="M64.5292 269.133C62.9195 268.323 61.3384 267.444 59.8202 266.485C55.6705 263.865 52.3602 261.063 49.0325 256.793C47.4401 254.75 45.1399 249.972 45.1399 249.972C45.1399 249.972 49.6718 254.721 52.3716 256.593C54.6319 258.157 59.7231 260.143 59.7231 260.143C59.7231 260.143 55.7561 257.016 54.0497 255.286C49.9572 251.131 46.9492 246.376 44.9572 241.256C41.9264 233.454 41.2529 224.807 42.7084 216.154C43.2677 212.838 45.2997 206.257 45.2997 206.257C45.2997 206.257 39.1068 212.158 36.8066 217.872C33.8214 225.298 34.2039 234.133 34.2039 234.133C34.2039 234.133 32.4344 231.234 31.6296 229.578C30.8877 228.055 30.1228 224.624 30.1228 224.624C30.1228 224.624 29.0041 229.002 28.947 234.013C28.8443 243.089 30.1342 250.166 34.5292 257.986C38.1479 264.413 47.2175 271.485 57.3773 275.868C59.5634 276.81 62.0234 277.409 64.5178 277.821V269.139L64.5292 269.133Z" fill="url(#paint25_radial_4386_29290)"/>
</g>
<defs>
<filter id="filter0_dd_4386_29290" x="47.6875" y="84.8008" width="260.164" height="234.289" filterUnits="userSpaceOnUse" color-interpolation-filters="sRGB">
<feFlood flood-opacity="0" result="BackgroundImageFix"/>
<feColorMatrix in="SourceAlpha" type="matrix" values="0 0 0 0 0 0 0 0 0 0 0 0 0 0 0 0 0 0 127 0" result="hardAlpha"/>
<feOffset dy="4"/>
<feGaussianBlur stdDeviation="8"/>
<feComposite in2="hardAlpha" operator="out"/>
<feColorMatrix type="matrix" values="0 0 0 0 0 0 0 0 0 0 0 0 0 0 0 0 0 0 0.05 0"/>
<feBlend mode="normal" in2="BackgroundImageFix" result="effect1_dropShadow_4386_29290"/>
<feColorMatrix in="SourceAlpha" type="matrix" values="0 0 0 0 0 0 0 0 0 0 0 0 0 0 0 0 0 0 127 0" result="hardAlpha"/>
<feOffset dy="0.5"/>
<feGaussianBlur stdDeviation="1"/>
<feComposite in2="hardAlpha" operator="out"/>
<feColorMatrix type="matrix" values="0 0 0 0 0 0 0 0 0 0 0 0 0 0 0 0 0 0 0.02 0"/>
<feBlend mode="normal" in2="effect1_dropShadow_4386_29290" result="effect2_dropShadow_4386_29290"/>
<feBlend mode="normal" in="SourceGraphic" in2="effect2_dropShadow_4386_29290" result="shape"/>
</filter>
<linearGradient id="paint0_linear_4386_29290" x1="179.636" y1="306.077" x2="245.728" y2="-116.478" gradientUnits="userSpaceOnUse">
<stop stop-color="#FFF4EE"/>
<stop offset="0.2106" stop-color="#FDEDEF"/>
<stop offset="0.516" stop-color="#F9DAF3"/>
<stop offset="0.8773" stop-color="#F1BAFA"/>
<stop offset="1" stop-color="#EEAEFC"/>
</linearGradient>
<linearGradient id="paint1_linear_4386_29290" x1="-88.6698" y1="395.412" x2="-96.2469" y2="137.89" gradientUnits="userSpaceOnUse">
<stop stop-color="#FFF4EE"/>
<stop offset="0.2182" stop-color="#FDEBF0"/>
<stop offset="0.5701" stop-color="#F7D4F4"/>
<stop offset="1" stop-color="#EEAEFC"/>
</linearGradient>
<linearGradient id="paint2_linear_4386_29290" x1="104.75" y1="174.451" x2="96.9051" y2="524.165" gradientUnits="userSpaceOnUse">
<stop stop-color="#7338E2"/>
<stop offset="1" stop-color="#F6CDF6"/>
</linearGradient>
<linearGradient id="paint3_linear_4386_29290" x1="99.1546" y1="169.681" x2="112.268" y2="196.913" gradientUnits="userSpaceOnUse">
<stop stop-color="#7338E2"/>
<stop offset="1" stop-color="#FCF5F0"/>
</linearGradient>
<linearGradient id="paint4_linear_4386_29290" x1="104.75" y1="212.016" x2="96.9051" y2="561.73" gradientUnits="userSpaceOnUse">
<stop stop-color="#7338E2"/>
<stop offset="1" stop-color="#F6CDF6"/>
</linearGradient>
<linearGradient id="paint5_linear_4386_29290" x1="99.1546" y1="207.365" x2="112.268" y2="234.597" gradientUnits="userSpaceOnUse">
<stop stop-color="#7338E2"/>
<stop offset="1" stop-color="#FCF5F0"/>
</linearGradient>
<linearGradient id="paint6_linear_4386_29290" x1="104.75" y1="249.579" x2="96.9051" y2="599.293" gradientUnits="userSpaceOnUse">
<stop stop-color="#7338E2"/>
<stop offset="1" stop-color="#F6CDF6"/>
</linearGradient>
<linearGradient id="paint7_linear_4386_29290" x1="99.1546" y1="245.058" x2="112.268" y2="272.29" gradientUnits="userSpaceOnUse">
<stop stop-color="#7338E2"/>
<stop offset="1" stop-color="#FCF5F0"/>
</linearGradient>
<linearGradient id="paint8_linear_4386_29290" x1="104.75" y1="287.143" x2="96.9051" y2="636.857" gradientUnits="userSpaceOnUse">
<stop stop-color="#7338E2"/>
<stop offset="1" stop-color="#F6CDF6"/>
</linearGradient>
<linearGradient id="paint9_linear_4386_29290" x1="99.1546" y1="282.741" x2="112.268" y2="309.973" gradientUnits="userSpaceOnUse">
<stop stop-color="#7338E2"/>
<stop offset="1" stop-color="#FCF5F0"/>
</linearGradient>
<linearGradient id="paint10_linear_4386_29290" x1="295.7" y1="160.161" x2="272.898" y2="230.189" gradientUnits="userSpaceOnUse">
<stop offset="0.17" stop-color="#FF6600"/>
<stop offset="0.54" stop-color="#FF9C00"/>
<stop offset="0.9" stop-color="#FF6700"/>
<stop offset="0.91" stop-color="#FF6600"/>
</linearGradient>
<linearGradient id="paint11_linear_4386_29290" x1="301.867" y1="185.719" x2="314.055" y2="166.417" gradientUnits="userSpaceOnUse">
<stop stop-color="#FF6600" stop-opacity="0"/>
<stop offset="0.11" stop-color="#FF6600" stop-opacity="0.3"/>
<stop offset="0.23" stop-color="#FF6600" stop-opacity="0.6"/>
<stop offset="0.32" stop-color="#FF6600" stop-opacity="0.82"/>
<stop offset="0.4" stop-color="#FF6600" stop-opacity="0.95"/>
<stop offset="0.43" stop-color="#FF6600"/>
<stop offset="0.72" stop-color="#FD4737"/>
<stop offset="1" stop-color="#FB2872"/>
</linearGradient>
<linearGradient id="paint12_linear_4386_29290" x1="275.28" y1="177.421" x2="277.989" y2="154.707" gradientUnits="userSpaceOnUse">
<stop stop-color="#FF6600" stop-opacity="0"/>
<stop offset="0.03" stop-color="#FF6600" stop-opacity="0.17"/>
<stop offset="0.07" stop-color="#FF6600" stop-opacity="0.36"/>
<stop offset="0.11" stop-color="#FF6600" stop-opacity="0.53"/>
<stop offset="0.15" stop-color="#FF6600" stop-opacity="0.68"/>
<stop offset="0.2" stop-color="#FF6600" stop-opacity="0.8"/>
<stop offset="0.24" stop-color="#FF6600" stop-opacity="0.89"/>
<stop offset="0.29" stop-color="#FF6600" stop-opacity="0.95"/>
<stop offset="0.35" stop-color="#FF6600" stop-opacity="0.99"/>
<stop offset="0.42" stop-color="#FF6600"/>
<stop offset="0.7" stop-color="#FD4737"/>
<stop offset="0.97" stop-color="#FB2872"/>
</linearGradient>
<linearGradient id="paint13_linear_4386_29290" x1="282.069" y1="186.666" x2="282.069" y2="312.55" gradientUnits="userSpaceOnUse">
<stop stop-color="#FF6600"/>
<stop offset="0.01" stop-color="#FF7408"/>
<stop offset="0.04" stop-color="#FF8A14"/>
<stop offset="0.07" stop-color="#FF9B1D"/>
<stop offset="0.11" stop-color="#FFA724"/>
<stop offset="0.17" stop-color="#FFAE27"/>
<stop offset="0.33" stop-color="#FFB029"/>
<stop offset="0.46" stop-color="#FF9218"/>
<stop offset="0.63" stop-color="#FF6600"/>
<stop offset="0.64" stop-color="#FE5D0F"/>
<stop offset="0.69" stop-color="#FD4A32"/>
<stop offset="0.74" stop-color="#FC3B4E"/>
<stop offset="0.79" stop-color="#FB3062"/>
<stop offset="0.84" stop-color="#FB2A6E"/>
<stop offset="0.89" stop-color="#FB2872"/>
</linearGradient>
<linearGradient id="paint14_linear_4386_29290" x1="282.069" y1="186.666" x2="282.069" y2="312.55" gradientUnits="userSpaceOnUse">
<stop stop-color="#FFEB49" stop-opacity="0.8"/>
<stop offset="0.22" stop-color="#FFD13A" stop-opacity="0.64"/>
<stop offset="0.7" stop-color="#FF8F17" stop-opacity="0.25"/>
<stop offset="1" stop-color="#FF6600" stop-opacity="0"/>
</linearGradient>
<linearGradient id="paint15_linear_4386_29290" x1="310.792" y1="279.052" x2="234.035" y2="309.639" gradientUnits="userSpaceOnUse">
<stop offset="0.02" stop-color="#BE0449" stop-opacity="0"/>
<stop offset="0.51" stop-color="#FB2872"/>
<stop offset="0.67" stop-color="#A31C5E"/>
<stop offset="0.83" stop-color="#4C104A"/>
<stop offset="0.94" stop-color="#15093E"/>
<stop offset="1" stop-color="#00073A"/>
</linearGradient>
<linearGradient id="paint16_linear_4386_29290" x1="267.786" y1="286.374" x2="320.166" y2="306.853" gradientUnits="userSpaceOnUse">
<stop stop-color="#BE0449" stop-opacity="0"/>
<stop offset="0.41" stop-color="#FB2872"/>
<stop offset="1" stop-color="#00073A"/>
</linearGradient>
<radialGradient id="paint17_radial_4386_29290" cx="0" cy="0" r="1" gradientUnits="userSpaceOnUse" gradientTransform="translate(251.686 288.6) scale(32.5113 32.5113)">
<stop stop-color="#FFEB49"/>
<stop offset="0.05" stop-color="#FFE546" stop-opacity="0.96"/>
<stop offset="0.14" stop-color="#FFD73E" stop-opacity="0.85"/>
<stop offset="0.25" stop-color="#FFC031" stop-opacity="0.68"/>
<stop offset="0.38" stop-color="#FFA01F" stop-opacity="0.44"/>
<stop offset="0.53" stop-color="#FF7709" stop-opacity="0.13"/>
<stop offset="0.59" stop-color="#FF6600" stop-opacity="0"/>
</radialGradient>
<linearGradient id="paint18_linear_4386_29290" x1="273.007" y1="257.309" x2="275.239" y2="316.641" gradientUnits="userSpaceOnUse">
<stop offset="0.01" stop-color="#BE0449" stop-opacity="0"/>
<stop offset="0.06" stop-color="#BF054A" stop-opacity="0.04"/>
<stop offset="0.14" stop-color="#C2084C" stop-opacity="0.16"/>
<stop offset="0.23" stop-color="#C70D51" stop-opacity="0.36"/>
<stop offset="0.35" stop-color="#CE1457" stop-opacity="0.63"/>
<stop offset="0.48" stop-color="#D71E5F" stop-opacity="0.97"/>
<stop offset="0.49" stop-color="#D81F60"/>
<stop offset="0.56" stop-color="#D31E5F"/>
<stop offset="0.63" stop-color="#C71D5D"/>
<stop offset="0.7" stop-color="#B31A59"/>
<stop offset="0.77" stop-color="#971754"/>
<stop offset="0.84" stop-color="#73134E"/>
<stop offset="0.91" stop-color="#460E46"/>
<stop offset="0.98" stop-color="#13093D"/>
<stop offset="1" stop-color="#00073A"/>
</linearGradient>
<linearGradient id="paint19_linear_4386_29290" x1="287.59" y1="246.43" x2="285.124" y2="317.08" gradientUnits="userSpaceOnUse">
<stop stop-color="#D81F60" stop-opacity="0"/>
<stop offset="0.11" stop-color="#D81F60" stop-opacity="0.01"/>
<stop offset="0.19" stop-color="#D81F60" stop-opacity="0.06"/>
<stop offset="0.27" stop-color="#D81F60" stop-opacity="0.14"/>
<stop offset="0.35" stop-color="#D81F60" stop-opacity="0.25"/>
<stop offset="0.42" stop-color="#D81F60" stop-opacity="0.39"/>
<stop offset="0.49" stop-color="#D81F60" stop-opacity="0.57"/>
<stop offset="0.55" stop-color="#D81F60" stop-opacity="0.77"/>
<stop offset="0.62" stop-color="#D81F60"/>
<stop offset="0.66" stop-color="#D21E5F"/>
<stop offset="0.71" stop-color="#C21C5C"/>
<stop offset="0.77" stop-color="#A81957"/>
<stop offset="0.83" stop-color="#841551"/>
<stop offset="0.9" stop-color="#551049"/>
<stop offset="0.97" stop-color="#1D0A3F"/>
<stop offset="1" stop-color="#00073A"/>
</linearGradient>
<linearGradient id="paint20_linear_4386_29290" x1="279.628" y1="239.815" x2="282.036" y2="292.806" gradientUnits="userSpaceOnUse">
<stop stop-color="#FFEB49"/>
<stop offset="0.09" stop-color="#FFE745" stop-opacity="0.96"/>
<stop offset="0.24" stop-color="#FFDE3D" stop-opacity="0.84"/>
<stop offset="0.44" stop-color="#FFCF2F" stop-opacity="0.66"/>
<stop offset="0.67" stop-color="#FFBB1C" stop-opacity="0.4"/>
<stop offset="0.94" stop-color="#FFA105" stop-opacity="0.07"/>
<stop offset="1" stop-color="#FF9C00" stop-opacity="0"/>
</linearGradient>
<linearGradient id="paint21_linear_4386_29290" x1="290.399" y1="190.471" x2="287.528" y2="201.607" gradientUnits="userSpaceOnUse">
<stop offset="0.16" stop-color="#A030B9"/>
<stop offset="0.88" stop-color="#00073A"/>
</linearGradient>
<linearGradient id="paint22_linear_4386_29290" x1="273.997" y1="184.253" x2="271.218" y2="193.557" gradientUnits="userSpaceOnUse">
<stop offset="0.16" stop-color="#A030B9"/>
<stop offset="0.88" stop-color="#00073A"/>
</linearGradient>
<linearGradient id="paint23_linear_4386_29290" x1="49.8321" y1="166.927" x2="49.8321" y2="282.754" gradientUnits="userSpaceOnUse">
<stop stop-color="#FFEB49"/>
<stop offset="0.32" stop-color="#FF9B1D"/>
<stop offset="0.56" stop-color="#FF6600"/>
<stop offset="0.74" stop-color="#FD4835"/>
<stop offset="0.91" stop-color="#FB3161"/>
<stop offset="1" stop-color="#FB2872"/>
</linearGradient>
<linearGradient id="paint24_linear_4386_29290" x1="53.564" y1="178.948" x2="68.2097" y2="204.622" gradientUnits="userSpaceOnUse">
<stop offset="0.03" stop-color="#FFEB49"/>
<stop offset="0.12" stop-color="#FFEB49" stop-opacity="0.96"/>
<stop offset="0.26" stop-color="#FFEB49" stop-opacity="0.84"/>
<stop offset="0.46" stop-color="#FFEB49" stop-opacity="0.66"/>
<stop offset="0.69" stop-color="#FFEB49" stop-opacity="0.4"/>
<stop offset="0.95" stop-color="#FFEB49" stop-opacity="0.07"/>
<stop offset="1" stop-color="#FFEB49" stop-opacity="0"/>
</linearGradient>
<radialGradient id="paint25_radial_4386_29290" cx="0" cy="0" r="1" gradientUnits="userSpaceOnUse" gradientTransform="translate(-52.4284 225.532) scale(108.967 108.967)">
<stop stop-color="#BE0449"/>
<stop offset="1" stop-color="#FB2872" stop-opacity="0.07"/>
</radialGradient>
<clipPath id="clip0_4386_29290">
<rect width="362" height="776" fill="white" transform="translate(0 -372.805)"/>
</clipPath>
<clipPath id="clip1_4386_29290">
<path d="M63.6875 108.562C63.6875 102.066 68.9531 96.8008 75.4485 96.8008H280.09C286.586 96.8008 291.851 102.066 291.851 108.562V287.329C291.851 293.825 286.586 299.09 280.09 299.09H75.4485C68.9531 299.09 63.6875 293.825 63.6875 287.329V108.562Z" fill="white"/>
</clipPath>
<clipPath id="clip2_4386_29290">
<rect width="872.574" height="517.995" fill="white" transform="translate(-181.281 -44.3535)"/>
</clipPath>
</defs>
</svg>
