<svg preserveAspectRatio="none" width="100%" height="100%" overflow="visible" style="display: block;" viewBox="0 0 282 282" fill="none" xmlns="http://www.w3.org/2000/svg">
<g id="firefox-mascot-prop-house-rgb 1">
<path id="Vector" d="M150.753 69.9882L90.3652 88.2702L191.192 89.5397L281.476 71.048L150.753 69.9882Z" fill="url(#paint0_linear_0_8471)"/>
<path id="Vector_2" d="M168.31 147.089C161.973 121.885 146.197 99.8494 123.267 93.0818C84.6499 81.6994 53.2196 105.226 35.4122 108.041C16.3685 111.043 0.471039 98.3698 0.471039 98.3698C0.471039 98.3698 3.68365 121.454 21.4909 136.159C25.0679 139.118 28.6448 141.436 32.1665 143.269C33.4802 143.953 36.8474 145.378 36.8474 145.378C36.8474 145.378 35.9753 145.974 34.2089 146.382C31.8353 146.934 29.6494 146.746 29.6494 146.746C29.6494 146.746 37.841 151.969 48.0416 153.602C69.6579 157.08 88.0833 148.944 89.6733 177.747L145.06 199.871C149.631 194.836 154.025 189.449 157.789 183.896C160.626 171.641 165.351 158.99 168.73 149.131C168.619 148.446 168.476 147.773 168.299 147.1L168.31 147.089Z" fill="url(#paint1_linear_0_8471)"/>
<path id="Vector_3" d="M246.405 72.7131C244.163 70.2954 241.26 67.8444 237.186 65.4709C227.438 59.7966 181.236 60.4922 180.088 65.493C178.631 71.8408 177.008 81.9975 175.01 85.1549C174.998 85.177 174.976 85.1991 174.966 85.2212C170.991 91.3594 157.191 99.0984 157.313 104.917C157.357 107.268 164.632 106.208 164.014 107.08C177.339 100.202 185.597 94.0093 203.283 96.6587C215.46 98.4804 218.827 99.5181 232.318 102.741C239.56 104.475 246.294 104.773 251.14 103.625C252.995 103.073 254.718 102.19 255.854 100.766C258.769 97.1113 261.121 94.1747 265.625 92.4084C266.033 92.1763 266.906 92.0329 267.336 91.8233C254.452 89.2618 254.265 81.1585 246.427 72.7023L246.405 72.7131Z" fill="url(#paint2_linear_0_8471)"/>
<path id="Vector_4" d="M255.833 100.776C254.696 102.212 252.973 103.095 251.119 103.636C246.382 104.762 241.216 104.199 241.216 104.199C241.216 104.199 251.373 116.166 263.638 119.003C266.597 117.943 269.765 116.42 274.457 112.854C282.329 106.881 282.604 100.081 280.198 96.4268C277.868 92.883 276.577 92.9159 270.494 92.2866C269.346 92.1653 268.286 92.0107 267.303 91.834C266.696 92.0107 266.133 92.2095 265.592 92.4191C261.099 94.1858 258.736 97.1224 255.822 100.776H255.833Z" fill="var(--fill-0, #FFC635)"/>
<path id="Vector_5" d="M241.282 104.265C241.282 104.265 251.373 116.167 263.649 119.004C260.414 120.163 257.433 120.792 253.007 122.923C238.302 130.011 242.585 172.514 243.071 187.815C244.086 220.118 246.813 245.609 236.27 244.593C217.767 242.805 180.817 248.093 165.891 245.609C157.147 244.163 154.94 227.228 155.348 201.405C155.436 195.929 156.386 189.957 157.799 183.885C160.636 171.631 165.361 158.979 168.739 149.121C171.19 141.967 172.945 136.281 172.747 133.301C172.04 122.625 164.787 127.173 162.116 122.934C160.139 119.81 166.543 117.811 166.332 116.177C166.002 113.605 161.044 117.006 159.786 114.731C158.053 111.618 162.579 108.052 163.716 107.346C163.882 107.246 163.959 107.169 164.014 107.092C177.339 100.214 185.597 94.0203 203.283 96.6701C215.46 98.4918 218.827 99.5296 232.318 102.753C235.431 103.504 238.423 103.979 241.238 104.188L241.293 104.255L241.282 104.265Z" fill="url(#paint3_linear_0_8471)"/>
<path id="Vector_6" opacity="0.6" d="M241.282 104.265C241.282 104.265 251.373 116.167 263.649 119.004C260.414 120.163 257.433 120.792 253.007 122.923C238.302 130.011 242.585 172.514 243.071 187.815C244.086 220.118 246.813 245.609 236.27 244.593C217.767 242.805 180.817 248.093 165.891 245.609C157.147 244.163 154.94 227.228 155.348 201.405C155.436 195.929 156.386 189.957 157.799 183.885C160.636 171.631 165.361 158.979 168.739 149.121C171.19 141.967 172.945 136.281 172.747 133.301C172.04 122.625 164.787 127.173 162.116 122.934C160.139 119.81 166.543 117.811 166.332 116.177C166.002 113.605 161.044 117.006 159.786 114.731C158.053 111.618 162.579 108.052 163.716 107.346C163.882 107.246 163.959 107.169 164.014 107.092C177.339 100.214 185.597 94.0203 203.283 96.6701C215.46 98.4918 218.827 99.5296 232.318 102.753C235.431 103.504 238.423 103.979 241.238 104.188L241.293 104.255L241.282 104.265Z" fill="url(#paint4_linear_0_8471)"/>
<path id="Vector_7" d="M121.477 108.307C115.294 104.321 112.137 102.997 102.036 101.042C93.093 99.3091 82.8042 101.859 82.8042 101.859C82.8042 101.859 87.8934 103.847 89.5163 104.675C90.852 105.359 94.2191 107.523 95.2902 108.208C93.601 107.876 87.4407 107.368 81.2584 107.269C73.1551 107.137 63.1859 108.903 63.1859 108.903C63.1859 108.903 74.7888 111.022 82.7929 113.484C95.5548 117.414 109.024 123.1 114.279 129.404C119.357 135.487 124.932 143.447 132.715 138.998C140.498 134.538 138.291 118.883 121.477 108.329V108.307Z" fill="url(#paint5_linear_0_8471)"/>
<path id="Vector_8" d="M273.981 94.1529C276.939 94.0646 278.584 95.2683 279.081 96.4273C279.699 97.8627 278.518 100.92 274.886 101.042C271.43 101.152 269.366 98.3923 269.775 96.7694C270.062 95.6212 271.364 94.2305 273.981 94.1529Z" fill="var(--fill-0, #00073A)"/>
<path id="Vector_9" d="M227.314 84.7671C228.076 88.4214 225.725 90.7615 224.135 90.9382C221.077 91.2804 218.692 89.5254 217.677 84.745C216.385 78.651 219.752 76.5647 222.943 77.2269C224.963 77.6462 226.277 79.788 227.314 84.778V84.7671Z" fill="url(#paint6_linear_0_8471)"/>
<path id="Vector_10" d="M224.071 87.6716C224.104 88.5326 224.777 89.1399 225.561 89.0294C226.345 88.919 226.963 88.1463 226.93 87.2852C226.897 86.4242 226.224 85.817 225.44 85.9274C224.645 86.0379 224.038 86.8105 224.071 87.6716Z" fill="var(--fill-0, white)"/>
<path id="Vector_11" d="M251.231 82.1531C252.887 86.7234 251.165 88.1254 249.685 88.5009C246.859 89.2073 244.143 87.1318 243.348 83.6764C242.189 78.6422 242.819 76.7434 245.833 76.2687C248.339 75.8824 249.884 78.4547 251.231 82.1639V82.1531Z" fill="url(#paint7_linear_0_8471)"/>
<path id="Vector_12" d="M248.745 86.2266C248.856 87.0322 249.551 87.5182 250.302 87.3193C251.052 87.1205 251.583 86.2929 251.472 85.4868C251.362 84.6808 250.666 84.1953 249.915 84.3936C249.164 84.6037 248.635 85.4205 248.745 86.2266Z" fill="var(--fill-0, white)"/>
<path id="Vector_13" d="M245.444 164.952H125.683C122.912 164.952 120.671 167.193 120.671 169.965V274.314C120.671 277.085 122.912 279.326 125.683 279.326H245.444C248.811 279.326 251.494 276.566 251.494 273.276V171.002C251.494 167.712 248.811 164.952 245.444 164.952Z" fill="url(#paint8_linear_0_8471)"/>
<path id="Vector_14" d="M120.673 274.314V169.965C120.673 167.193 122.914 164.952 125.685 164.952H87.3763C84.0421 164.952 81.3265 167.657 81.3265 171.002V273.276C81.3265 276.61 84.0313 279.326 87.3763 279.326H125.685C122.914 279.326 120.673 277.085 120.673 274.314Z" fill="url(#paint9_linear_0_8471)"/>
<path id="Vector_15" d="M177.736 199.806H171.499C174.06 199.806 176.146 201.881 176.146 204.453V279.326H182.373V204.431C182.373 201.881 180.297 199.806 177.747 199.806H177.736Z" fill="url(#paint10_linear_0_8471)"/>
<path id="Vector_16" d="M171.501 199.804H150.779C148.582 199.804 146.793 201.593 146.793 203.789V279.324H176.149V204.452C176.149 201.891 174.073 199.804 171.501 199.804Z" fill="url(#paint11_linear_0_8471)"/>
<path id="Vector_17" d="M229.613 199.848H222.757C225.417 199.848 227.57 202.001 227.57 204.662V233.222C227.57 235.883 225.417 238.035 222.757 238.035H229.281C231.799 238.035 233.83 236.004 233.83 233.487V204.076C233.83 201.747 231.942 199.86 229.613 199.86V199.848Z" fill="url(#paint12_linear_0_8471)"/>
<path id="Vector_18" d="M222.757 199.85H206.319C203.758 199.85 201.693 201.925 201.693 204.476V234.294C201.693 236.359 203.361 238.026 205.425 238.026H222.757C225.418 238.026 227.571 235.873 227.571 233.212V204.652C227.571 201.992 225.418 199.839 222.757 199.839V199.85Z" fill="url(#paint13_linear_0_8471)"/>
<path id="Vector_19" d="M150.735 64.0353L90.3689 82.5161V88.268L150.757 69.986L150.735 64.0353Z" fill="url(#paint14_linear_0_8471)"/>
<path id="Vector_20" d="M281.334 65.2498L270.316 65.1501L150.732 64.0353L150.743 67.1378V67.7224L150.754 69.986L281.477 71.0458L281.334 65.2498Z" fill="url(#paint15_linear_0_8471)"/>
<path id="Vector_21" d="M213.353 2.81881L154.787 21.8957L90.3689 82.5158L150.735 64.0349L213.353 2.81881Z" fill="url(#paint16_linear_0_8471)"/>
<path id="Vector_22" d="M213.35 2.81881L150.732 64.0349L270.316 65.1497L281.334 65.2494L213.35 2.81881Z" fill="url(#paint17_linear_0_8471)"/>
</g>
<defs>
<linearGradient id="paint0_linear_0_8471" x1="187.682" y1="95.0044" x2="182.846" y2="52.7988" gradientUnits="userSpaceOnUse">
<stop stop-color="#E752FF"/>
<stop offset="0.13" stop-color="#9C39E6"/>
<stop offset="0.32" stop-color="#2C15C1"/>
<stop offset="0.41" stop-color="#0007B3"/>
<stop offset="0.99" stop-color="#00073A"/>
</linearGradient>
<linearGradient id="paint1_linear_0_8471" x1="60.2259" y1="78.5748" x2="132.563" y2="212.953" gradientUnits="userSpaceOnUse">
<stop offset="0.06" stop-color="#FFEB49"/>
<stop offset="0.35" stop-color="#FF9B1D"/>
<stop offset="0.56" stop-color="#FF6600"/>
<stop offset="0.71" stop-color="#FD4835"/>
<stop offset="0.84" stop-color="#FB3161"/>
<stop offset="0.91" stop-color="#FB2872"/>
</linearGradient>
<linearGradient id="paint2_linear_0_8471" x1="213.66" y1="74.8878" x2="207.953" y2="173.629" gradientUnits="userSpaceOnUse">
<stop stop-color="#FF6600"/>
<stop offset="0.03" stop-color="#FF6F05"/>
<stop offset="0.15" stop-color="#FF9218"/>
<stop offset="0.24" stop-color="#FFA824"/>
<stop offset="0.31" stop-color="#FFB029"/>
<stop offset="0.49" stop-color="#FF9218"/>
<stop offset="0.73" stop-color="#FF6600"/>
</linearGradient>
<linearGradient id="paint3_linear_0_8471" x1="223.961" y1="27.4611" x2="187.606" y2="286.103" gradientUnits="userSpaceOnUse">
<stop offset="0.05" stop-color="#FF6600"/>
<stop offset="0.29" stop-color="#FFB029"/>
<stop offset="0.39" stop-color="#FF9218"/>
<stop offset="0.51" stop-color="#FF6600"/>
<stop offset="0.8" stop-color="#FB2872"/>
</linearGradient>
<linearGradient id="paint4_linear_0_8471" x1="231.622" y1="68.9378" x2="171.312" y2="279.281" gradientUnits="userSpaceOnUse">
<stop offset="0.1" stop-color="#FFEB49"/>
<stop offset="0.14" stop-color="#FED24E" stop-opacity="0.87"/>
<stop offset="0.23" stop-color="#FDAA56" stop-opacity="0.67"/>
<stop offset="0.32" stop-color="#FC875D" stop-opacity="0.49"/>
<stop offset="0.41" stop-color="#FC6A64" stop-opacity="0.34"/>
<stop offset="0.5" stop-color="#FB5269" stop-opacity="0.22"/>
<stop offset="0.6" stop-color="#FB3F6D" stop-opacity="0.12"/>
<stop offset="0.7" stop-color="#FB326F" stop-opacity="0.05"/>
<stop offset="0.81" stop-color="#FB2A71" stop-opacity="0.01"/>
<stop offset="0.95" stop-color="#FB2872" stop-opacity="0"/>
</linearGradient>
<linearGradient id="paint5_linear_0_8471" x1="63.8124" y1="104.207" x2="141.998" y2="128.708" gradientUnits="userSpaceOnUse">
<stop stop-color="#FFEB49"/>
<stop offset="0.09" stop-color="#FFE747" stop-opacity="0.97"/>
<stop offset="0.21" stop-color="#FFDD41" stop-opacity="0.9"/>
<stop offset="0.35" stop-color="#FFCD39" stop-opacity="0.78"/>
<stop offset="0.51" stop-color="#FFB72C" stop-opacity="0.61"/>
<stop offset="0.68" stop-color="#FF9B1D" stop-opacity="0.4"/>
<stop offset="0.86" stop-color="#FF790A" stop-opacity="0.14"/>
<stop offset="0.96" stop-color="#FF6600" stop-opacity="0"/>
</linearGradient>
<linearGradient id="paint6_linear_0_8471" x1="222.391" y1="72.6562" x2="222.435" y2="90.817" gradientUnits="userSpaceOnUse">
<stop offset="0.16" stop-color="#A030B9"/>
<stop offset="0.88" stop-color="#00073A"/>
</linearGradient>
<linearGradient id="paint7_linear_0_8471" x1="245.7" y1="72.99" x2="248.096" y2="87.1981" gradientUnits="userSpaceOnUse">
<stop offset="0.16" stop-color="#A030B9"/>
<stop offset="0.88" stop-color="#00073A"/>
</linearGradient>
<linearGradient id="paint8_linear_0_8471" x1="122.68" y1="159.046" x2="318.473" y2="354.838" gradientUnits="userSpaceOnUse">
<stop stop-color="#E752FF"/>
<stop offset="0.1" stop-color="#DD4FFF"/>
<stop offset="0.27" stop-color="#C347FF"/>
<stop offset="0.5" stop-color="#983BFF"/>
<stop offset="0.75" stop-color="#5E2AFF"/>
<stop offset="0.97" stop-color="#271AFF"/>
</linearGradient>
<linearGradient id="paint9_linear_0_8471" x1="70.9822" y1="88.3138" x2="127.319" y2="315.525" gradientUnits="userSpaceOnUse">
<stop stop-color="#E752FF"/>
<stop offset="0.11" stop-color="#DD4FFF"/>
<stop offset="0.28" stop-color="#C347FF"/>
<stop offset="0.51" stop-color="#983BFF"/>
<stop offset="0.77" stop-color="#5E2AFF"/>
<stop offset="1" stop-color="#271AFF"/>
</linearGradient>
<linearGradient id="paint10_linear_0_8471" x1="251.129" y1="338.919" x2="139.56" y2="187.099" gradientUnits="userSpaceOnUse">
<stop stop-color="#E752FF"/>
<stop offset="0.11" stop-color="#DD4FFF"/>
<stop offset="0.28" stop-color="#C347FF"/>
<stop offset="0.51" stop-color="#983BFF"/>
<stop offset="0.77" stop-color="#5E2AFF"/>
<stop offset="1" stop-color="#271AFF"/>
</linearGradient>
<linearGradient id="paint11_linear_0_8471" x1="133.932" y1="317.07" x2="184.737" y2="177.062" gradientUnits="userSpaceOnUse">
<stop stop-color="#A030B9"/>
<stop offset="0.05" stop-color="#982EB8"/>
<stop offset="0.12" stop-color="#8429B7"/>
<stop offset="0.21" stop-color="#6420B6"/>
<stop offset="0.31" stop-color="#3614B5"/>
<stop offset="0.41" stop-color="#0007B3"/>
<stop offset="0.99" stop-color="#00073A"/>
</linearGradient>
<linearGradient id="paint12_linear_0_8471" x1="247.332" y1="288.653" x2="222.547" y2="200.246" gradientUnits="userSpaceOnUse">
<stop stop-color="#E752FF"/>
<stop offset="0.11" stop-color="#DD4FFF"/>
<stop offset="0.28" stop-color="#C347FF"/>
<stop offset="0.51" stop-color="#983BFF"/>
<stop offset="0.77" stop-color="#5E2AFF"/>
<stop offset="1" stop-color="#271AFF"/>
</linearGradient>
<linearGradient id="paint13_linear_0_8471" x1="237.893" y1="246.637" x2="198.701" y2="200.534" gradientUnits="userSpaceOnUse">
<stop stop-color="#E752FF"/>
<stop offset="0.13" stop-color="#9C39E6"/>
<stop offset="0.32" stop-color="#2C15C1"/>
<stop offset="0.41" stop-color="#0007B3"/>
<stop offset="0.99" stop-color="#00073A"/>
</linearGradient>
<linearGradient id="paint14_linear_0_8471" x1="120.066" y1="26.5991" x2="121.237" y2="144.814" gradientUnits="userSpaceOnUse">
<stop stop-color="#E752FF"/>
<stop offset="0.11" stop-color="#DD4FFF"/>
<stop offset="0.28" stop-color="#C347FF"/>
<stop offset="0.51" stop-color="#983BFF"/>
<stop offset="0.77" stop-color="#5E2AFF"/>
<stop offset="1" stop-color="#271AFF"/>
</linearGradient>
<linearGradient id="paint15_linear_0_8471" x1="215.481" y1="58.3168" x2="224.534" y2="207.742" gradientUnits="userSpaceOnUse">
<stop stop-color="#E752FF"/>
<stop offset="0.11" stop-color="#DD4FFF"/>
<stop offset="0.28" stop-color="#C347FF"/>
<stop offset="0.51" stop-color="#983BFF"/>
<stop offset="0.77" stop-color="#5E2AFF"/>
<stop offset="1" stop-color="#271AFF"/>
</linearGradient>
<linearGradient id="paint16_linear_0_8471" x1="117.284" y1="-6.16763" x2="183.159" y2="86.8651" gradientUnits="userSpaceOnUse">
<stop stop-color="#E752FF"/>
<stop offset="0.11" stop-color="#DD4FFF"/>
<stop offset="0.28" stop-color="#C347FF"/>
<stop offset="0.51" stop-color="#983BFF"/>
<stop offset="0.77" stop-color="#5E2AFF"/>
<stop offset="1" stop-color="#271AFF"/>
</linearGradient>
<linearGradient id="paint17_linear_0_8471" x1="191.845" y1="3.07273" x2="236.832" y2="117.578" gradientUnits="userSpaceOnUse">
<stop stop-color="#E752FF"/>
<stop offset="0.11" stop-color="#DD4FFF"/>
<stop offset="0.28" stop-color="#C347FF"/>
<stop offset="0.51" stop-color="#983BFF"/>
<stop offset="0.77" stop-color="#5E2AFF"/>
<stop offset="1" stop-color="#271AFF"/>
</linearGradient>
</defs>
</svg>
