<svg width="1200" height="630" viewBox="0 0 1200 630" fill="none" xmlns="http://www.w3.org/2000/svg">
<g clip-path="url(#clip0_5751_53019)">
<rect width="1200" height="630" fill="white"/>
<g clip-path="url(#clip1_5751_53019)">
<path d="M1200 -41H0V671H1200V-41Z" fill="#210340"/>
<path d="M1152.42 405.157C1066.22 389.326 1032.6 351.75 945.192 351.75C857.786 351.75 821.522 384.827 748.717 405.157C701.758 418.27 651.278 423.046 608.373 422.568C489.691 414.91 469.184 377.627 379.43 377.168C302.828 376.782 263.519 407.269 203.022 419.813C131.905 434.561 51.1399 434.359 16.7646 433.422C10.7296 433.257 4.38286 433.073 -0.0195312 432.945V551.366C2.86037 549.291 6.14382 546.977 8.43673 545.471C97.6769 486.536 209.883 484.956 285.2 527.803C358.335 569.401 417.841 597.556 493.195 579.356C543.474 567.216 585.04 536.196 625.762 515.81C687.506 484.901 742.719 478.822 830.987 504.901C895.133 523.855 943.926 543.965 1011.25 544.406C1091.13 544.938 1143.67 530.466 1192.62 490.374C1194.59 488.776 1197.49 486.26 1200 484.056V413.789C1198.62 413.55 1197.25 413.312 1196.17 413.128C1183.73 410.943 1169.48 408.316 1152.4 405.176L1152.42 405.157Z" fill="url(#paint0_linear_5751_53019)"/>
<path d="M1011.27 544.386C943.946 543.945 895.153 523.835 831.006 504.881C742.738 478.802 687.543 484.881 625.781 515.791C585.041 536.176 543.475 567.196 493.215 579.336C417.86 597.518 358.355 569.382 285.22 527.783C209.902 484.936 97.6964 486.497 8.45626 545.451C6.16335 546.957 2.8799 549.289 0 551.346V671.017H1200V484.055C1197.47 486.259 1194.59 488.756 1192.63 490.372C1143.67 530.465 1091.13 544.937 1011.25 544.404L1011.27 544.386Z" fill="url(#paint1_linear_5751_53019)"/>
<path d="M395.664 184.385C383.576 193.091 379.339 199.739 371.91 199.739C358.556 199.739 354.814 211.769 360.243 215.221C370.112 221.484 390.234 218.27 424.848 218.27C463.424 218.27 473.275 217.719 483.657 215.662C497.103 212.999 492.48 195.735 479.126 193.678C465.772 191.622 460.416 195.625 439.229 181.961C424.17 172.246 407.936 175.552 395.664 184.385Z" fill="url(#paint2_linear_5751_53019)"/>
<path d="M945.118 125.432C954.987 131.695 975.11 128.481 1009.72 128.481C1048.3 128.481 1058.15 127.93 1068.53 125.873C1081.98 123.21 1077.36 105.946 1064 103.889C1050.65 101.832 1045.29 105.836 1024.1 92.1721C1009.04 82.4567 992.811 85.7625 980.539 94.5964C968.451 103.302 964.214 109.95 956.785 109.95C943.431 109.95 939.689 121.98 945.118 125.432Z" fill="url(#paint3_linear_5751_53019)"/>
<path d="M188.11 117.736C197.098 125.468 252.788 124.091 315.669 124.091C385.74 124.091 413.585 124.182 432.461 120.326C456.876 115.33 452.216 94.5587 427.967 90.7019C403.717 86.8451 388.437 62.3637 348.907 64.9348C309.377 67.506 298.591 79.1131 273.443 89.4163C248.294 99.7194 225.86 98.4338 212.359 98.4338C188.11 98.4338 179.121 110.023 188.11 117.754V117.736Z" fill="url(#paint4_linear_5751_53019)"/>
</g>
<path d="M719.196 271.235C713.594 257.756 702.232 243.204 693.334 238.604C699.68 250.895 704.085 264.095 706.39 277.734L706.413 277.95C691.837 241.611 667.119 226.958 646.932 195.052C645.911 193.439 644.89 191.822 643.895 190.116C643.326 189.141 642.87 188.263 642.475 187.455C641.637 185.833 640.992 184.12 640.552 182.349C640.553 182.267 640.523 182.188 640.469 182.127C640.415 182.065 640.34 182.026 640.259 182.016C640.18 181.995 640.096 181.995 640.016 182.016C640 182.016 639.973 182.046 639.953 182.053C639.933 182.06 639.89 182.09 639.86 182.103L639.91 182.016C607.528 200.976 596.542 236.076 595.53 253.632C582.599 254.521 570.235 259.286 560.052 267.306C558.99 266.406 557.879 265.565 556.726 264.785C553.788 254.503 553.663 243.621 556.363 233.275C544.471 239.036 533.905 247.202 525.332 257.257H525.272C520.163 250.781 520.522 229.426 520.815 224.966C519.303 225.573 517.861 226.339 516.511 227.251C512 230.47 507.784 234.082 503.911 238.045C499.497 242.52 495.466 247.356 491.859 252.504V252.524V252.501C483.571 264.251 477.692 277.527 474.562 291.562L474.39 292.413C474.147 293.548 473.272 299.229 473.122 300.463C473.122 300.559 473.102 300.649 473.092 300.746C471.964 306.611 471.264 312.551 471 318.518V319.183C471.028 351.463 483.164 382.557 505.01 406.322C526.855 430.086 556.821 444.791 588.984 447.53C621.147 450.269 653.167 440.844 678.717 421.116C704.267 401.388 721.486 372.794 726.973 340.984C727.189 339.321 727.365 337.674 727.558 335.995C730.214 314.048 727.339 291.786 719.196 271.235ZM570.61 372.148C571.212 372.438 571.777 372.75 572.396 373.026L572.486 373.083C571.86 372.784 571.235 372.472 570.61 372.148ZM706.423 277.98V277.857L706.446 277.994L706.423 277.98Z" fill="url(#paint5_linear_5751_53019)"/>
<path d="M719.196 271.24C713.594 257.762 702.232 243.21 693.334 238.609C699.68 250.9 704.085 264.101 706.39 277.74V277.863L706.413 278C716.35 306.434 714.912 337.609 702.401 365.009C687.626 396.712 651.861 429.207 595.88 427.627C535.391 425.914 482.12 381.029 472.161 322.239C470.348 312.969 472.161 308.269 473.072 300.735C471.829 306.587 471.135 312.543 471 318.524V319.189C471.028 351.469 483.164 382.563 505.01 406.327C526.855 430.092 556.821 444.797 588.984 447.536C621.147 450.275 653.167 440.849 678.717 421.122C704.267 401.394 721.486 372.8 726.973 340.99C727.189 339.327 727.365 337.68 727.558 336C730.214 314.054 727.339 291.792 719.196 271.24Z" fill="url(#paint6_radial_5751_53019)"/>
<path d="M719.196 271.24C713.594 257.762 702.232 243.21 693.334 238.609C699.68 250.9 704.085 264.101 706.39 277.74V277.863L706.413 278C716.35 306.434 714.912 337.609 702.401 365.009C687.626 396.712 651.861 429.207 595.88 427.627C535.391 425.914 482.12 381.029 472.161 322.239C470.348 312.969 472.161 308.269 473.072 300.735C471.829 306.587 471.135 312.543 471 318.524V319.189C471.028 351.469 483.164 382.563 505.01 406.327C526.855 430.092 556.821 444.797 588.984 447.536C621.147 450.275 653.167 440.849 678.717 421.122C704.267 401.394 721.486 372.8 726.973 340.99C727.189 339.327 727.365 337.68 727.558 336C730.214 314.054 727.339 291.792 719.196 271.24Z" fill="url(#paint7_radial_5751_53019)"/>
<path d="M656.553 286.392C656.832 286.589 657.092 286.785 657.355 286.981C654.116 281.239 650.085 275.982 645.38 271.364C605.311 231.289 634.879 184.471 639.865 182.093L639.915 182.02C607.533 200.979 596.546 236.079 595.535 253.635C597.039 253.532 598.529 253.405 600.066 253.405C611.555 253.427 622.834 256.49 632.756 262.284C642.678 268.078 650.889 276.396 656.553 286.392Z" fill="url(#paint8_radial_5751_53019)"/>
<path d="M600.118 294.396C599.905 297.603 588.576 308.663 584.614 308.663C547.955 308.663 542.004 330.839 542.004 330.839C543.627 349.513 556.64 364.894 572.37 373.03C573.088 373.403 573.817 373.739 574.545 374.068C575.807 374.627 577.069 375.144 578.331 375.618C583.729 377.529 589.383 378.62 595.105 378.855C659.359 381.868 671.807 302.017 625.438 278.846C636.376 277.423 647.454 280.112 656.522 286.393C650.858 276.397 642.647 268.079 632.725 262.285C622.804 256.491 611.524 253.427 600.035 253.406C598.505 253.406 597.008 253.533 595.504 253.636C582.573 254.525 570.209 259.29 560.026 267.31C561.992 268.973 564.21 271.195 568.884 275.802C577.632 284.421 600.068 293.349 600.118 294.396Z" fill="url(#paint9_radial_5751_53019)"/>
<path d="M600.118 294.396C599.905 297.603 588.576 308.663 584.614 308.663C547.955 308.663 542.004 330.839 542.004 330.839C543.627 349.513 556.64 364.894 572.37 373.03C573.088 373.403 573.817 373.739 574.545 374.068C575.807 374.627 577.069 375.144 578.331 375.618C583.729 377.529 589.383 378.62 595.105 378.855C659.359 381.868 671.807 302.017 625.438 278.846C636.376 277.423 647.454 280.112 656.522 286.393C650.858 276.397 642.647 268.079 632.725 262.285C622.804 256.491 611.524 253.427 600.035 253.406C598.505 253.406 597.008 253.533 595.504 253.636C582.573 254.525 570.209 259.29 560.026 267.31C561.992 268.973 564.21 271.195 568.884 275.802C577.632 284.421 600.068 293.349 600.118 294.396Z" fill="url(#paint10_radial_5751_53019)"/>
<path d="M554.022 263.017C555.066 263.683 555.928 264.261 556.683 264.784C553.745 254.502 553.62 243.62 556.32 233.273C544.428 239.034 533.862 247.201 525.289 257.256C525.918 257.24 544.618 256.904 554.022 263.017Z" fill="url(#paint11_radial_5751_53019)"/>
<path d="M472.184 322.231C482.133 381.02 535.414 425.905 595.903 427.618C651.885 429.202 687.649 396.704 702.425 365.001C714.935 337.601 716.373 306.426 706.436 277.991V277.868C706.436 277.771 706.416 277.715 706.436 277.745L706.459 277.961C711.033 307.821 695.845 336.75 672.102 356.312L672.029 356.478C625.766 394.156 581.493 379.21 572.532 373.11C571.907 372.811 571.281 372.499 570.656 372.175C543.683 359.283 532.54 334.708 534.928 313.632C528.525 313.727 522.233 311.962 516.812 308.553C511.392 305.143 507.077 300.235 504.389 294.423C511.47 290.085 519.543 287.633 527.84 287.3C536.137 286.967 544.381 288.764 551.786 292.52C567.053 299.451 584.426 300.134 600.19 294.423C600.14 293.375 577.705 284.444 568.956 275.829C564.283 271.222 562.064 269.003 560.098 267.337C559.036 266.437 557.926 265.595 556.772 264.815C556.007 264.293 555.145 263.728 554.111 263.049C544.708 256.935 526.007 257.271 525.388 257.288H525.328C520.219 250.812 520.578 229.457 520.871 224.996C519.36 225.604 517.917 226.37 516.567 227.281C512.057 230.5 507.84 234.112 503.967 238.075C499.537 242.538 495.49 247.363 491.866 252.501V252.521V252.498C483.577 264.248 477.699 277.524 474.569 291.559C474.506 291.822 469.925 311.846 472.184 322.231Z" fill="url(#paint12_radial_5751_53019)"/>
<path d="M645.379 271.361C650.086 275.984 654.117 281.247 657.354 286.995C658.062 287.53 658.724 288.062 659.287 288.578C688.515 315.521 673.201 353.607 672.06 356.318C695.803 336.756 710.977 307.827 706.417 277.967C691.835 241.611 667.117 226.958 646.929 195.052C645.908 193.439 644.887 191.822 643.892 190.116C643.324 189.141 642.868 188.263 642.472 187.455C641.635 185.833 640.99 184.12 640.549 182.349C640.55 182.267 640.521 182.188 640.467 182.127C640.413 182.065 640.338 182.026 640.257 182.016C640.177 181.995 640.093 181.995 640.014 182.016C639.997 182.016 639.971 182.046 639.951 182.053C639.931 182.06 639.888 182.09 639.858 182.103C634.871 184.468 605.304 231.286 645.379 271.361Z" fill="url(#paint13_radial_5751_53019)"/>
<path d="M659.273 288.56C658.711 288.045 658.049 287.513 657.341 286.977C657.078 286.781 656.818 286.585 656.539 286.388C647.471 280.107 636.393 277.418 625.455 278.841C671.823 302.025 659.383 381.863 595.122 378.85C589.4 378.615 583.746 377.524 578.347 375.613C577.086 375.141 575.824 374.624 574.562 374.063C573.834 373.731 573.105 373.398 572.387 373.025L572.477 373.082C581.438 379.199 625.697 394.144 671.973 356.45L672.046 356.284C673.201 353.59 688.515 315.494 659.273 288.56Z" fill="url(#paint14_radial_5751_53019)"/>
<path d="M542.027 330.832C542.027 330.832 547.978 308.655 584.637 308.655C588.599 308.655 599.938 297.595 600.141 294.389C584.377 300.1 567.004 299.417 551.736 292.486C544.331 288.73 536.087 286.933 527.79 287.266C519.494 287.599 511.42 290.051 504.34 294.389C507.027 300.201 511.342 305.109 516.763 308.519C522.183 311.928 528.476 313.693 534.879 313.598C532.49 334.677 543.634 359.252 570.607 372.141C571.209 372.431 571.774 372.743 572.393 373.019C556.649 364.886 543.65 349.506 542.027 330.832Z" fill="url(#paint15_radial_5751_53019)"/>
<path d="M719.196 271.235C713.594 257.756 702.232 243.204 693.334 238.604C699.68 250.895 704.085 264.095 706.39 277.734L706.413 277.95C691.837 241.611 667.119 226.958 646.932 195.052C645.911 193.439 644.89 191.822 643.895 190.116C643.326 189.141 642.87 188.263 642.475 187.455C641.637 185.833 640.992 184.12 640.552 182.349C640.553 182.267 640.523 182.188 640.469 182.127C640.415 182.065 640.34 182.026 640.259 182.016C640.18 181.995 640.096 181.995 640.016 182.016C640 182.016 639.973 182.046 639.953 182.053C639.933 182.06 639.89 182.09 639.86 182.103L639.91 182.016C607.528 200.976 596.542 236.076 595.53 253.632C597.034 253.529 598.524 253.402 600.061 253.402C611.551 253.423 622.83 256.487 632.752 262.281C642.673 268.075 650.884 276.393 656.548 286.389C647.48 280.108 636.403 277.419 625.464 278.842C671.833 302.026 659.392 381.864 595.131 378.851C589.409 378.616 583.755 377.525 578.357 375.614C577.095 375.142 575.833 374.625 574.571 374.064C573.843 373.732 573.114 373.399 572.396 373.026L572.486 373.083C571.86 372.784 571.235 372.472 570.61 372.148C571.212 372.438 571.777 372.75 572.396 373.026C556.652 364.89 543.653 349.509 542.03 330.835C542.03 330.835 547.981 308.659 584.64 308.659C588.602 308.659 599.941 297.599 600.144 294.392C600.094 293.345 577.658 284.413 568.91 275.798C564.236 271.191 562.018 268.973 560.052 267.306C558.99 266.406 557.879 265.565 556.726 264.785C553.788 254.503 553.663 243.621 556.363 233.275C544.471 239.036 533.905 247.202 525.332 257.257H525.272C520.163 250.781 520.522 229.426 520.815 224.966C519.303 225.573 517.861 226.339 516.511 227.251C512 230.47 507.784 234.082 503.911 238.045C499.497 242.52 495.466 247.356 491.859 252.504V252.524V252.501C483.571 264.251 477.692 277.527 474.562 291.562L474.39 292.413C474.147 293.548 473.059 299.309 472.903 300.546C472.903 300.45 472.903 300.639 472.903 300.546C471.908 306.493 471.272 312.495 471 318.518V319.183C471.028 351.463 483.164 382.557 505.01 406.322C526.855 430.086 556.821 444.791 588.984 447.53C621.147 450.269 653.167 440.844 678.717 421.116C704.267 401.388 721.486 372.794 726.973 340.984C727.189 339.321 727.365 337.674 727.558 335.995C730.214 314.048 727.339 291.786 719.196 271.235ZM706.406 277.857L706.43 277.994L706.406 277.857Z" fill="url(#paint16_linear_5751_53019)"/>
</g>
<defs>
<linearGradient id="paint0_linear_5751_53019" x1="599.403" y1="508.427" x2="601.977" y2="296.323" gradientUnits="userSpaceOnUse">
<stop stop-color="#210340"/>
<stop offset="0.23" stop-color="#29074C"/>
<stop offset="0.65" stop-color="#3E126D"/>
<stop offset="1" stop-color="#541D8F"/>
</linearGradient>
<linearGradient id="paint1_linear_5751_53019" x1="602.522" y1="621.265" x2="592.574" y2="448.537" gradientUnits="userSpaceOnUse">
<stop stop-color="#210340"/>
<stop offset="0.23" stop-color="#29074C"/>
<stop offset="0.65" stop-color="#3E126D"/>
<stop offset="1" stop-color="#541D8F"/>
</linearGradient>
<linearGradient id="paint2_linear_5751_53019" x1="425.564" y1="240.841" x2="423.743" y2="164.477" gradientUnits="userSpaceOnUse">
<stop stop-color="#210340"/>
<stop offset="0.23" stop-color="#29074C"/>
<stop offset="0.65" stop-color="#3E126D"/>
<stop offset="1" stop-color="#541D8F"/>
</linearGradient>
<linearGradient id="paint3_linear_5751_53019" x1="1008.6" y1="175.277" x2="1010.42" y2="78.9122" gradientUnits="userSpaceOnUse">
<stop stop-color="#210340"/>
<stop offset="0.23" stop-color="#29074C"/>
<stop offset="0.65" stop-color="#3E126D"/>
<stop offset="1" stop-color="#541D8F"/>
</linearGradient>
<linearGradient id="paint4_linear_5751_53019" x1="315.65" y1="162.199" x2="317.471" y2="65.8165" gradientUnits="userSpaceOnUse">
<stop stop-color="#210340"/>
<stop offset="0.23" stop-color="#29074C"/>
<stop offset="0.65" stop-color="#3E126D"/>
<stop offset="1" stop-color="#541D8F"/>
</linearGradient>
<linearGradient id="paint5_linear_5751_53019" x1="702.132" y1="223.209" x2="488.121" y2="429.69" gradientUnits="userSpaceOnUse">
<stop offset="0.048" stop-color="#FFF44F"/>
<stop offset="0.111" stop-color="#FFE847"/>
<stop offset="0.225" stop-color="#FFC830"/>
<stop offset="0.368" stop-color="#FF980E"/>
<stop offset="0.401" stop-color="#FF8B16"/>
<stop offset="0.462" stop-color="#FF672A"/>
<stop offset="0.534" stop-color="#FF3647"/>
<stop offset="0.705" stop-color="#E31587"/>
</linearGradient>
<radialGradient id="paint6_radial_5751_53019" cx="0" cy="0" r="1" gradientUnits="userSpaceOnUse" gradientTransform="translate(692.243 211.527) scale(268.756 268.756)">
<stop offset="0.129" stop-color="#FFBD4F"/>
<stop offset="0.186" stop-color="#FFAC31"/>
<stop offset="0.247" stop-color="#FF9D17"/>
<stop offset="0.283" stop-color="#FF980E"/>
<stop offset="0.403" stop-color="#FF563B"/>
<stop offset="0.467" stop-color="#FF3750"/>
<stop offset="0.71" stop-color="#F5156C"/>
<stop offset="0.782" stop-color="#EB0878"/>
<stop offset="0.86" stop-color="#E50080"/>
</radialGradient>
<radialGradient id="paint7_radial_5751_53019" cx="0" cy="0" r="1" gradientUnits="userSpaceOnUse" gradientTransform="translate(594.037 321.401) scale(268.756 268.756)">
<stop offset="0.3" stop-color="#960E18"/>
<stop offset="0.351" stop-color="#B11927" stop-opacity="0.74"/>
<stop offset="0.435" stop-color="#DB293D" stop-opacity="0.343"/>
<stop offset="0.497" stop-color="#F5334B" stop-opacity="0.094"/>
<stop offset="0.53" stop-color="#FF3750" stop-opacity="0"/>
</radialGradient>
<radialGradient id="paint8_radial_5751_53019" cx="0" cy="0" r="1" gradientUnits="userSpaceOnUse" gradientTransform="translate(626.443 150.533) scale(194.702 194.702)">
<stop offset="0.132" stop-color="#FFF44F"/>
<stop offset="0.252" stop-color="#FFDC3E"/>
<stop offset="0.506" stop-color="#FF9D12"/>
<stop offset="0.526" stop-color="#FF980E"/>
</radialGradient>
<radialGradient id="paint9_radial_5751_53019" cx="0" cy="0" r="1" gradientUnits="userSpaceOnUse" gradientTransform="translate(564.284 391.601) scale(127.966 127.966)">
<stop offset="0.353" stop-color="#3A8EE6"/>
<stop offset="0.472" stop-color="#5C79F0"/>
<stop offset="0.669" stop-color="#9059FF"/>
<stop offset="1" stop-color="#C139E6"/>
</radialGradient>
<radialGradient id="paint10_radial_5751_53019" cx="0" cy="0" r="1" gradientTransform="matrix(65.947 -15.944 18.6579 77.2096 608.697 299.374)" gradientUnits="userSpaceOnUse">
<stop offset="0.206" stop-color="#9059FF" stop-opacity="0"/>
<stop offset="0.278" stop-color="#8C4FF3" stop-opacity="0.064"/>
<stop offset="0.747" stop-color="#7716A8" stop-opacity="0.45"/>
<stop offset="0.975" stop-color="#6E008B" stop-opacity="0.6"/>
</radialGradient>
<radialGradient id="paint11_radial_5751_53019" cx="0" cy="0" r="1" gradientUnits="userSpaceOnUse" gradientTransform="translate(590.624 200.523) scale(92.059 92.059)">
<stop stop-color="#FFE226"/>
<stop offset="0.121" stop-color="#FFDB27"/>
<stop offset="0.295" stop-color="#FFC82A"/>
<stop offset="0.502" stop-color="#FFA930"/>
<stop offset="0.732" stop-color="#FF7E37"/>
<stop offset="0.792" stop-color="#FF7139"/>
</radialGradient>
<radialGradient id="paint12_radial_5751_53019" cx="0" cy="0" r="1" gradientUnits="userSpaceOnUse" gradientTransform="translate(663.011 142.131) scale(392.774 392.774)">
<stop offset="0.113" stop-color="#FFF44F"/>
<stop offset="0.456" stop-color="#FF980E"/>
<stop offset="0.622" stop-color="#FF5634"/>
<stop offset="0.716" stop-color="#FF3647"/>
<stop offset="0.904" stop-color="#E31587"/>
</radialGradient>
<radialGradient id="paint13_radial_5751_53019" cx="0" cy="0" r="1" gradientTransform="matrix(30.2109 286.284 -187.883 19.8529 629.897 163.973)" gradientUnits="userSpaceOnUse">
<stop stop-color="#FFF44F"/>
<stop offset="0.06" stop-color="#FFE847"/>
<stop offset="0.168" stop-color="#FFC830"/>
<stop offset="0.304" stop-color="#FF980E"/>
<stop offset="0.356" stop-color="#FF8B16"/>
<stop offset="0.455" stop-color="#FF672A"/>
<stop offset="0.57" stop-color="#FF3647"/>
<stop offset="0.737" stop-color="#E31587"/>
</radialGradient>
<radialGradient id="paint14_radial_5751_53019" cx="0" cy="0" r="1" gradientUnits="userSpaceOnUse" gradientTransform="translate(588.479 234.621) scale(245.216 245.216)">
<stop offset="0.137" stop-color="#FFF44F"/>
<stop offset="0.48" stop-color="#FF980E"/>
<stop offset="0.592" stop-color="#FF5634"/>
<stop offset="0.655" stop-color="#FF3647"/>
<stop offset="0.904" stop-color="#E31587"/>
</radialGradient>
<radialGradient id="paint15_radial_5751_53019" cx="0" cy="0" r="1" gradientUnits="userSpaceOnUse" gradientTransform="translate(653.202 248.971) scale(268.387 268.387)">
<stop offset="0.094" stop-color="#FFF44F"/>
<stop offset="0.231" stop-color="#FFE141"/>
<stop offset="0.509" stop-color="#FFAF1E"/>
<stop offset="0.626" stop-color="#FF980E"/>
</radialGradient>
<linearGradient id="paint16_linear_5751_53019" x1="699.561" y1="222.105" x2="517.459" y2="404.204" gradientUnits="userSpaceOnUse">
<stop offset="0.167" stop-color="#FFF44F" stop-opacity="0.8"/>
<stop offset="0.266" stop-color="#FFF44F" stop-opacity="0.634"/>
<stop offset="0.489" stop-color="#FFF44F" stop-opacity="0.217"/>
<stop offset="0.6" stop-color="#FFF44F" stop-opacity="0"/>
</linearGradient>
<clipPath id="clip0_5751_53019">
<rect width="1200" height="630" fill="white"/>
</clipPath>
<clipPath id="clip1_5751_53019">
<rect width="1200" height="712" fill="white" transform="translate(0 -41)"/>
</clipPath>
</defs>
</svg>
