<svg xmlns="http://www.w3.org/2000/svg" width="64" height="64" viewBox="0 0 64 64"><view viewBox="0 0 64 64"/><view viewBox="0 64 64 64"/><view viewBox="0 128 64 64"/><defs><clipPath id="b"><rect width="50%" height="100%"/></clipPath><clipPath id="c"><rect width="50%" height="100%" x="50%"/></clipPath><path id="a" fill="#000" d="M154.995 671a4.454 4.454 0 0 1-4.414-5.076l2.466-17.664-11.853-12.746a4.458 4.458 0 0 1 2.494-7.426l16.526-2.957 7.8-15.662a4.454 4.454 0 0 1 7.973 0l7.804 15.662 16.538 2.953a4.455 4.455 0 0 1 2.474 7.426l-11.849 12.754 2.467 17.66a4.453 4.453 0 0 1-6.48 4.566l-14.938-7.791-14.955 7.807a4.4 4.4 0 0 1-2.053.494" transform="translate(-140 -607)"/></defs><use href="#a"/><g transform="translate(0 64)"><use clip-path="url(#b)" href="#a"/><use clip-path="url(#c)" href="#a" opacity=".25"/></g><use href="#a" opacity=".25" transform="translate(0 128)"/></svg>